<svg width="56" height="56" viewBox="0 0 56 56" fill="none" xmlns="http://www.w3.org/2000/svg">
<g clip-path="url(#clip0_2896_6004)">
<path d="M28.0001 56.0001C43.4641 56.0001 56.0001 43.4641 56.0001 28.0001C56.0001 12.5361 43.4641 0 28.0001 0C12.5361 0 0 12.5361 0 28.0001C0 43.4641 12.5361 56.0001 28.0001 56.0001Z" fill="#01A657" fill-opacity="0.4"/>
<path d="M7.49023 4.28711H40.9553V52.7711H7.49023V4.28711Z" fill="#6B7F9E"/>
<path d="M9.10352 6.89453H39.3266V50.0722H9.10352V6.89453Z" fill="white"/>
<path d="M20.0082 5.37305H28.4241C29.4166 5.37305 30.237 6.19344 30.237 7.18593V9.36924H18.1953V7.18593C18.1953 6.19355 19.0157 5.37305 20.0082 5.37305Z" fill="#ECF0F1"/>
<path d="M30.237 8.50977V9.35664H18.1953V8.50977H30.237Z" fill="#C6CBD6"/>
<path d="M24.2172 1.95898C25.0773 1.95898 25.7787 2.66035 25.7787 3.5337V5.37306H22.6426V3.5337C22.6425 2.67359 23.3438 1.95898 24.2172 1.95898Z" fill="#C6CBD6"/>
<path d="M18.1426 15.9727H35.8874V16.7401H18.1426V15.9727ZM18.1426 41.9217H35.8874V42.6891H18.1426V41.9217ZM18.1426 36.7344H35.8874V37.5019H18.1426V36.7344ZM18.1426 31.5473H35.8874V32.3147H18.1426V31.5473ZM18.1426 26.3602H35.8874V27.1276H18.1426V26.3602ZM18.1426 21.173H35.8874V21.9405H18.1426V21.173Z" fill="#C6CBD6"/>
<path d="M14.291 14.9004C15.0056 14.9004 15.5878 15.4826 15.5878 16.1972C15.5878 16.9118 15.0056 17.4941 14.291 17.4941C13.5764 17.4941 12.9941 16.9118 12.9941 16.1972C12.9941 15.4826 13.5764 14.9004 14.291 14.9004ZM14.291 41.0742C15.0056 41.0742 15.5878 41.6564 15.5878 42.3711C15.5878 43.0857 15.0056 43.6679 14.291 43.6679C13.5764 43.6679 12.9941 43.0857 12.9941 42.3711C12.9941 41.6564 13.5764 41.0742 14.291 41.0742ZM14.291 35.8738C15.0056 35.8738 15.5878 36.4561 15.5878 37.1707C15.5878 37.8853 15.0056 38.4675 14.291 38.4675C13.5764 38.4675 12.9941 37.8853 12.9941 37.1707C12.9941 36.4561 13.5764 35.8738 14.291 35.8738ZM14.291 30.6735C15.0056 30.6735 15.5878 31.2557 15.5878 31.9703C15.5878 32.6849 15.0056 33.2672 14.291 33.2672C13.5764 33.2672 12.9941 32.6849 12.9941 31.9703C12.9941 31.2557 13.5764 30.6735 14.291 30.6735ZM14.291 25.4069C15.0056 25.4069 15.5878 25.9892 15.5878 26.7038C15.5878 27.4184 15.0056 28.0006 14.291 28.0006C13.5764 28.0006 12.9941 27.4184 12.9941 26.7038C12.9941 25.9892 13.5764 25.4069 14.291 25.4069ZM14.291 20.1405C15.0056 20.1405 15.5878 20.7227 15.5878 21.4373C15.5878 22.1519 15.0056 22.7341 14.291 22.7341C13.5764 22.7341 12.9941 22.1519 12.9941 21.4373C12.9941 20.7227 13.5764 20.1405 14.291 20.1405Z" fill="#01A657" fill-opacity="0.4"/>
<path d="M37.9512 42.3182L39.87 43.84L52.9437 27.2331L51.0117 25.7246L37.9512 42.3182Z" fill="white"/>
<path d="M47.3856 34.2856L47.7692 33.8093L45.8506 32.3008L45.4668 32.7771L47.3856 34.2856Z" fill="#C6CBD6"/>
<path d="M37.5403 45.5736L39.8693 43.8401L37.9505 42.3184L36.8125 45.0046L37.5403 45.5736Z" fill="#FF7069"/>
<path d="M37.5401 45.5721L39.8691 43.8386L39.4588 43.5078L37.3945 45.4662L37.5401 45.5721Z" fill="#F7635B"/>
<path d="M52.6913 24.4144L53.8293 25.301C54.1469 25.5524 54.1734 26.0287 53.9087 26.3595L47.835 34.074L45.5723 32.2876L51.646 24.5731C51.9106 24.229 52.387 24.1496 52.7045 24.4011L52.6913 24.4144Z" fill="#FF7069"/>
<path d="M53.6982 26.2129L52.9042 27.2186L50.9591 29.6799L47.6113 33.9275L47.6378 33.954L47.8098 34.0863L51.065 29.9578L53.8835 26.3717C54.1481 26.0276 54.1084 25.5513 53.8041 25.3131L53.7511 25.2734C53.9231 25.5513 53.9099 25.9351 53.6849 26.2262L53.6982 26.2129Z" fill="#F7635B"/>
<path d="M35.8867 46.8433L35.9661 46.8961L37.5409 45.5729L36.813 45.0039L35.8867 46.8433Z" fill="#666666"/>
<path d="M50.8129 25.6191L53.4462 27.7231C53.5256 27.8026 53.5389 27.8951 53.4595 27.9745L49.9264 32.4604L49.8337 32.5266L49.3838 32.6853C49.1589 32.7515 49.0398 32.4604 49.2912 32.3413L49.6882 32.2089L53.0624 27.9216L50.5615 25.9235L50.7997 25.6324L50.8129 25.6191Z" fill="#6B7F9E"/>
<path d="M39.7109 43.7066L39.8698 43.839L47.3858 34.2852L47.227 34.166L39.7109 43.7066Z" fill="#C6CBD6"/>
</g>
<defs>
<clipPath id="clip0_2896_6004">
<rect width="56" height="56" fill="white"/>
</clipPath>
</defs>
</svg>
