<svg width="56" height="56" viewBox="0 0 56 56" fill="none" xmlns="http://www.w3.org/2000/svg">
<g clip-path="url(#clip0_2896_5959)">
<path d="M28 56C43.464 56 56 43.464 56 28C56 12.536 43.464 0 28 0C12.536 0 0 12.536 0 28C0 43.464 12.536 56 28 56Z" fill="#01A657" fill-opacity="0.4"/>
<path d="M28.4961 39.7585L34.1928 36.3221C35.5124 35.5251 36.218 37.0538 35.421 37.498L30.9656 39.9543L28.4961 39.7585Z" fill="#FEC982"/>
<path d="M30.9922 39.4451L37.107 35.6821C38.5442 34.7937 39.3021 36.5967 38.5182 37.054L34.3241 39.5104L30.9923 39.4581V39.4451H30.9922Z" fill="#EDDABE"/>
<path d="M16.2152 40.7517L4.61284 43.4041C2.86208 40.7386 1.54236 37.7597 0.771484 34.5716L15.2615 33.6179C17.5872 33.2913 19.73 33.3043 20.6838 33.8269C22.3692 34.7676 22.1863 36.8189 26.0407 37.8904L31.5414 38.8441L40.3739 36.6752C41.994 36.3878 42.3206 38.204 41.2493 38.6351L29.3855 42.8423C27.7916 43.4041 23.9502 42.1105 16.2152 40.7517Z" fill="#EDDABE"/>
<path d="M33.2913 38.4141C33.8923 39.0542 32.6903 39.4071 30.9787 39.7729C29.7505 40.0342 28.1042 40.3478 27.3072 40.5438C25.7654 40.5961 21.8065 39.6554 19.0234 38.6362C20.4476 38.6101 26.4056 40.387 27.3463 40.2041C28.2871 40.0212 32.7947 38.8322 33.0953 38.6623C33.3957 38.4924 33.252 38.5185 33.2913 38.4141Z" fill="#F0B97D"/>
<path d="M10.1514 32.873L11.7063 44.384L6.04877 45.377C3.37028 42.0061 1.46267 37.9949 0.574219 33.6178L10.1514 32.873Z" fill="#6B7F9E"/>
<path d="M12.2429 32.9512L13.7585 43.7435L11.6681 44.0178L10.1523 33.2125L12.2429 32.9512Z" fill="white"/>
<path d="M10.6878 42.8162C10.74 43.2474 10.4526 43.6394 10.0345 43.6916C9.61632 43.7439 9.22443 43.4434 9.17215 43.0122C9.11987 42.581 9.40731 42.189 9.82545 42.1368C10.2436 42.0845 10.6355 42.385 10.6878 42.8162Z" fill="#8597B1"/>
<path d="M19.2336 33.4481C22.1211 32.9908 24.0419 34.6894 25.4922 36.7276L28.1184 37.3418C28.1184 37.3418 30.5747 36.806 31.8945 37.2111C33.201 37.6161 33.6061 38.6744 33.0965 38.9618C32.5869 39.2493 28.2882 40.0071 27.3475 40.19C26.3938 40.3729 21.0367 39.2623 19.0376 38.6351C17.0386 38.021 15.8627 34.1666 19.2336 33.4349V33.4481Z" fill="#EDDABE"/>
<path d="M40.348 38.9498L41.746 38.4925C41.9159 38.4403 41.7722 37.9961 41.55 37.9961C41.3279 37.9961 40.0605 38.3097 40.0605 38.3097C40.2174 38.4795 40.3872 38.7278 40.348 38.9498Z" fill="#FFF1DF"/>
<path d="M31.2142 39.3029L32.9911 38.9109C33.1348 38.8847 33.0172 38.1923 32.6775 38.0486C32.3378 37.9179 30.8613 38.2184 30.8613 38.2184C30.9789 38.4667 31.1749 38.9109 31.201 39.2899L31.2142 39.3029Z" fill="white"/>
<path d="M28.7706 21.9888L32.6381 21.6882C33.1868 21.6491 34.6503 20.7345 34.6503 20.7345L33.2522 18.3826L29.646 17.9514L26.863 20.5123L25.7915 22.7074C25.1514 23.8571 23.0478 23.6351 23.5573 22.1717L24.7725 18.5002C24.7725 18.5002 27.8168 15.2207 28.9404 14.7634C30.0641 14.3061 37.9689 13.9141 37.9689 13.9141C37.9689 13.9141 44.4365 17.4418 46.8405 18.9706L54.471 18.866C55.1896 20.9565 55.673 23.1515 55.8821 25.425L46.2657 25.2029C46.2657 25.2029 40.1508 26.3919 38.0734 26.0913C35.9829 25.7908 33.0953 24.8893 33.0953 24.8893C33.0953 24.8893 29.4499 24.9546 28.4177 24.4843C26.9544 23.9747 27.072 22.1194 28.7836 21.9887L28.7706 21.9888Z" fill="#EDDABE"/>
<path d="M23.6107 21.7279C23.676 21.754 24.0288 21.8977 24.0288 21.8977L23.6761 22.9692C23.6761 22.9692 23.2579 23.1652 23.3234 22.7079C23.3886 22.2506 23.6108 21.7148 23.6108 21.7148V21.7279H23.6107Z" fill="white"/>
<path d="M29.9595 21.9371C29.9204 21.7673 29.8811 21.5974 29.8288 21.4276C29.5806 20.6567 29.1625 19.9642 28.6268 19.3893C27.6469 18.3571 26.2749 17.7168 24.7463 17.7168C21.7934 17.7168 19.4023 20.1078 19.4023 23.0607C19.4023 26.0137 21.7934 28.4047 24.7463 28.4047C26.5755 28.4047 28.1957 27.4901 29.1495 26.079C29.5154 25.5564 29.7767 24.9684 29.9335 24.3282C29.9727 24.1713 29.9988 24.0146 30.025 23.8578C30.0641 23.5965 30.0903 23.322 30.0903 23.0477C30.0903 22.6557 30.0511 22.2769 29.9727 21.911L29.9595 21.9371Z" fill="#FFE356"/>
<path d="M29.7124 21.9897C29.6733 21.8329 29.634 21.6631 29.5817 21.5063C29.3466 20.7746 28.9546 20.1213 28.432 19.5725C27.5043 18.5927 26.1847 17.9785 24.7343 17.9785C21.9252 17.9785 19.6387 20.265 19.6387 23.0742C19.6387 25.8834 21.9252 28.1699 24.7343 28.1699C26.4721 28.1699 28.0138 27.2944 28.9284 25.9617C29.2682 25.4652 29.5295 24.9034 29.6732 24.2892C29.7123 24.1455 29.7385 23.9887 29.7646 23.8319C29.8038 23.5837 29.8169 23.3224 29.8169 23.0611C29.8169 22.6822 29.7777 22.3293 29.6993 21.9766L29.7124 21.9897Z" fill="#FCD34E"/>
<path d="M24.7331 19.0898C22.5381 19.0898 20.748 20.8668 20.748 23.0749C20.748 25.27 22.5381 27.06 24.7331 27.06C26.9282 27.06 28.7182 25.27 28.7182 23.0749C28.7182 20.8799 26.9413 19.0898 24.7331 19.0898ZM24.7331 19.5864C26.6537 19.5864 28.2216 21.1543 28.2216 23.0749C28.2216 24.9955 26.6537 26.5634 24.7331 26.5634C22.8125 26.5634 21.2446 24.9955 21.2446 23.0749C21.2446 21.1543 22.8125 19.5864 24.7331 19.5864Z" fill="#FFE356"/>
<path d="M24.4195 25.5182V24.9563C24.0145 24.9433 23.6355 24.8256 23.4004 24.695L23.5833 23.9894C23.8315 24.1332 24.1843 24.2507 24.5763 24.2507C24.916 24.2507 25.1512 24.12 25.1512 23.8849C25.1512 23.6627 24.9552 23.519 24.524 23.3623C23.8838 23.1533 23.4526 22.8527 23.4526 22.2647C23.4526 21.7421 23.8184 21.324 24.4586 21.2064V20.6445H25.0466V21.1671C25.4516 21.1801 25.7129 21.2717 25.9089 21.3631L25.739 22.0426C25.5822 21.9773 25.3079 21.8335 24.8767 21.8335C24.4847 21.8335 24.3672 22.0034 24.3672 22.1733C24.3672 22.3693 24.5762 22.4999 25.0857 22.6828C25.7913 22.9311 26.0788 23.2577 26.0788 23.8065C26.0788 24.3422 25.6999 24.7863 25.0205 24.917V25.5312H24.4325L24.4195 25.5182Z" fill="#FFE356"/>
<path d="M28.7709 21.9906C30.4826 21.8599 32.0766 21.7162 32.6384 21.6901C33.1872 21.6509 34.6506 20.7363 34.6506 20.7363C34.6506 20.7363 38.4527 22.3042 38.2045 23.8852C37.9564 25.4663 37.6165 25.5184 37.1854 25.9496C35.2516 25.5707 33.0827 24.9043 33.0827 24.9043C33.0827 24.9043 29.4374 24.9696 28.4052 24.4993C26.9419 23.9897 27.0594 22.1344 28.7711 22.0037V21.9906H28.7709Z" fill="#EDDABE"/>
<path d="M47.2324 17.496L47.8727 27.6351L50.5512 27.4652L49.9109 17.3262L47.2324 17.496Z" fill="white"/>
<path d="M49.4408 16.2793L50.2248 28.5481L55.9998 28.4565C55.9998 28.2997 55.9998 28.143 55.9998 27.9861C55.9998 23.6745 55.0199 19.5979 53.2821 15.9395L49.4277 16.266L49.4408 16.2793Z" fill="#6B7F9E"/>
<path d="M27.6596 23.4527L29.5149 23.4004V24.524C29.5149 24.524 27.9079 24.5893 27.6073 24.3411C27.3067 24.0798 27.4374 23.5441 27.6596 23.4657V23.4527Z" fill="white"/>
<path d="M52.8381 26.8631C52.8904 27.2942 52.603 27.6862 52.1849 27.7385C51.7667 27.7908 51.3748 27.4902 51.3225 27.0591C51.2703 26.6279 51.5577 26.2359 51.9758 26.1836C52.3939 26.1314 52.7859 26.4319 52.8381 26.8631Z" fill="#8597B1"/>
</g>
<defs>
<clipPath id="clip0_2896_5959">
<rect width="56" height="56" fill="white"/>
</clipPath>
</defs>
</svg>
