<svg width="56" height="56" viewBox="0 0 56 56" fill="none" xmlns="http://www.w3.org/2000/svg">
<g clip-path="url(#clip0_2896_6105)">
<path d="M28 56C43.464 56 56 43.464 56 28C56 12.536 43.464 0 28 0C12.536 0 0 12.536 0 28C0 43.464 12.536 56 28 56Z" fill="#01A657" fill-opacity="0.4"/>
<path d="M47.8095 16.0098H8.18945V44.1935H47.8095V16.0098Z" fill="white"/>
<path d="M36.96 41.2695H19.0418L16.1035 43.5034H39.8983L36.96 41.2695Z" fill="#DDFFF8"/>
<path d="M16.7841 41.2695H11.6199L8.68164 43.5034H13.8564L16.7841 41.2695Z" fill="#DDFFF8"/>
<path d="M44.381 41.2695H39.2168L42.1445 43.5034H47.3193L44.381 41.2695Z" fill="#DDFFF8"/>
<path d="M36.96 18.9917H19.0418L16.1035 16.7578H39.8983L36.96 18.9917Z" fill="#DDFFF8"/>
<path d="M16.7841 18.9917H11.6199L8.68164 16.7578H13.8564L16.7841 18.9917Z" fill="#DDFFF8"/>
<path d="M44.381 18.9917H39.2168L42.1445 16.7578H47.3193L44.381 18.9917Z" fill="#DDFFF8"/>
<path d="M47.4959 16.3244V43.8782H8.50412V16.3244H47.4959ZM48.125 15.6953H7.875V44.5064H48.125V15.6953Z" fill="white"/>
<path d="M7.875 16.7587V11.7485C7.875 11.0564 8.44112 10.4902 9.13325 10.4902H46.8641C47.5562 10.4902 48.1224 11.0564 48.1224 11.7485V16.7587H7.875Z" fill="#DDFFF8"/>
<path d="M44.9503 15.3534H21.3594L23.616 11.8945H44.9503V15.3534Z" fill="white"/>
<path d="M12.1131 14.6461C12.7041 14.6461 13.1832 14.167 13.1832 13.576C13.1832 12.985 12.7041 12.5059 12.1131 12.5059C11.5221 12.5059 11.043 12.985 11.043 13.576C11.043 14.167 11.5221 14.6461 12.1131 14.6461Z" fill="#01A657" fill-opacity="0.4"/>
<path d="M14.9451 14.6461C15.5361 14.6461 16.0152 14.167 16.0152 13.576C16.0152 12.985 15.5361 12.5059 14.9451 12.5059C14.3541 12.5059 13.875 12.985 13.875 13.576C13.875 14.167 14.3541 14.6461 14.9451 14.6461Z" fill="#FFE600"/>
<path d="M17.785 14.6461C18.376 14.6461 18.8551 14.167 18.8551 13.576C18.8551 12.985 18.376 12.5059 17.785 12.5059C17.194 12.5059 16.7148 12.985 16.7148 13.576C16.7148 14.167 17.194 14.6461 17.785 14.6461Z" fill="#01A657" fill-opacity="0.4"/>
<path d="M34.8145 43.8677H21.1855L23.072 42.4336H32.928L34.8145 43.8677Z" fill="#232323"/>
<path d="M48.125 43.5039H7.875V44.5075H48.125V43.5039Z" fill="#232323"/>
<path d="M47.3191 43.5039H42.1444H39.8974H16.1026H13.8556H8.68087H7.875V44.5075H48.125V43.5039H47.3191Z" fill="#232323"/>
<path d="M42.492 14.6462L42.2671 14.4257L43.045 13.6277L42.2207 12.8236L42.4403 12.5996L43.4895 13.6207L42.492 14.6462Z" fill="#01A657" fill-opacity="0.4"/>
<path d="M43.0959 13.4668H41.0195V13.7809H43.0959V13.4668Z" fill="#01A657" fill-opacity="0.4"/>
<path d="M23.6459 26.777C23.6459 28.1565 22.5276 29.2748 21.1481 29.2748C19.7687 29.2748 18.6504 28.1565 18.6504 26.777C18.6504 25.3976 19.7687 24.2793 21.1481 24.2793C22.5276 24.2793 23.6459 25.3976 23.6459 26.777Z" stroke="#7B4794"/>
<path d="M25.8201 35.9204H16.4785V35.9192V35.9138V35.9083V35.9028V35.8973V35.8917V35.8861V35.8804V35.8747V35.8689V35.8631V35.8573V35.8514V35.8455V35.8396V35.8336V35.8276V35.8215V35.8154V35.8092V35.803V35.7968V35.7905V35.7842V35.7778V35.7714V35.765V35.7585V35.752V35.7454V35.7388V35.7321V35.7254V35.7187V35.7119V35.7051V35.6982V35.6913V35.6843V35.6773V35.6702V35.6631V35.656V35.6488V35.6416V35.6343V35.627V35.6196V35.6122V35.6048V35.5973V35.5897V35.5822V35.5745V35.5668V35.5591V35.5513V35.5435V35.5356V35.5277V35.5198V35.5118V35.5037V35.4956V35.4875V35.4793V35.471V35.4627V35.4544V35.446V35.4376V35.4291V35.4206V35.412V35.4033V35.3947V35.3859V35.3772V35.3683V35.3595V35.3505V35.3416V35.3325V35.3235V35.3143V35.3052V35.2959V35.2867V35.2773V35.268V35.2585V35.2491V35.2395V35.23V35.2203V35.2106V35.2009V35.1911V35.1813V35.1714V35.1614V35.1514V35.1414V35.1313V35.1211V35.1109V35.1007V35.0904V35.08V35.0696V35.0591V35.0486V35.038V35.0273V35.0167V35.0059V34.9951V34.9843V34.9733V34.9624V34.9514V34.9403V34.9292V34.918V34.9067V34.8954V34.8841V34.8727V34.8612V34.8497V34.8381V34.8265V34.8148V34.803V34.7912V34.7794V34.7675V34.7555V34.7435V34.7314V34.7192V34.707V34.6948V34.6824V34.67V34.6576V34.6451V34.6326V34.6199V34.6073V34.5945V34.5817V34.5689V34.556V34.543V34.53V34.5169V34.5037V34.4905V34.4772V34.4639V34.4505V34.4371V34.4236V34.41V34.3963V34.3826V34.3689V34.3551V34.3412V34.3272V34.3132V34.2992V34.285V34.2708V34.2566V34.2423V34.2279V34.2134V34.1989V34.1843V34.1697V34.155V34.1403V34.1254V34.1105V34.0956V34.0806V34.0655V34.0503V34.0351V34.0198V34.0045V33.9891V33.9736V33.9581V33.9425V33.9268V33.9111V33.8953V33.8794V33.8635V33.8475V33.8314V33.8153V33.7991V33.7828V33.7665C16.4785 33.1602 16.6409 32.7348 16.8611 32.4278C17.0851 32.1156 17.3904 31.8962 17.7162 31.7424C18.043 31.5881 18.3762 31.5066 18.632 31.4645C18.7587 31.4436 18.8633 31.4328 18.9344 31.4274C18.9699 31.4246 18.9968 31.4232 19.0137 31.4225L19.0313 31.4219L19.0319 31.4219H23.265L23.2822 31.4226C23.2991 31.4234 23.3261 31.4249 23.3616 31.4279C23.4328 31.4337 23.5375 31.445 23.6643 31.4665C23.9204 31.51 24.2541 31.593 24.5814 31.7484C24.9078 31.9035 25.2137 32.1237 25.4378 32.4356C25.6581 32.7421 25.8201 33.1653 25.8201 33.7665V33.7828V33.7991V33.8153V33.8314V33.8475V33.8635V33.8795V33.8953V33.9111V33.9269V33.9425V33.9581V33.9737V33.9892V34.0046V34.0199V34.0352V34.0504V34.0656V34.0807V34.0957V34.1106V34.1255V34.1404V34.1551V34.1698V34.1845V34.199V34.2136V34.228V34.2424V34.2567V34.271V34.2852V34.2993V34.3134V34.3274V34.3413V34.3552V34.3691V34.3828V34.3965V34.4102V34.4237V34.4373V34.4507V34.4641V34.4775V34.4907V34.5039V34.5171V34.5302V34.5432V34.5562V34.5691V34.582V34.5948V34.6075V34.6202V34.6328V34.6454V34.6579V34.6703V34.6827V34.695V34.7073V34.7195V34.7316V34.7437V34.7558V34.7677V34.7797V34.7915V34.8033V34.8151V34.8268V34.8384V34.85V34.8615V34.873V34.8844V34.8957V34.907V34.9183V34.9295V34.9406V34.9517V34.9627V34.9737V34.9846V34.9954V35.0062V35.017V35.0277V35.0383V35.0489V35.0594V35.0699V35.0803V35.0907V35.101V35.1113V35.1215V35.1316V35.1417V35.1518V35.1618V35.1717V35.1816V35.1915V35.2012V35.211V35.2207V35.2303V35.2399V35.2494V35.2589V35.2683V35.2777V35.287V35.2963V35.3055V35.3147V35.3238V35.3329V35.3419V35.3509V35.3598V35.3687V35.3775V35.3863V35.395V35.4037V35.4124V35.4209V35.4295V35.4379V35.4464V35.4548V35.4631V35.4714V35.4796V35.4878V35.496V35.5041V35.5122V35.5202V35.5281V35.536V35.5439V35.5517V35.5595V35.5672V35.5749V35.5825V35.5901V35.5977V35.6052V35.6126V35.62V35.6274V35.6347V35.642V35.6492V35.6564V35.6635V35.6706V35.6777V35.6847V35.6916V35.6986V35.7054V35.7123V35.7191V35.7258V35.7325V35.7392V35.7458V35.7524V35.7589V35.7654V35.7718V35.7782V35.7846V35.7909V35.7972V35.8034V35.8096V35.8158V35.8219V35.8279V35.834V35.84V35.8459V35.8518V35.8577V35.8635V35.8693V35.8751V35.8808V35.8864V35.8921V35.8977V35.9032V35.9087V35.9142V35.9196V35.9204Z" stroke="#7B4794"/>
<path d="M37.3471 26.777C37.3471 28.1565 36.2288 29.2748 34.8493 29.2748C33.4698 29.2748 32.3516 28.1565 32.3516 26.777C32.3516 25.3976 33.4698 24.2793 34.8493 24.2793C36.2288 24.2793 37.3471 25.3976 37.3471 26.777Z" stroke="#7B4794"/>
<path d="M39.5213 35.9204H30.1797V35.9192V35.9138V35.9083V35.9028V35.8973V35.8917V35.8861V35.8804V35.8747V35.8689V35.8631V35.8573V35.8514V35.8455V35.8396V35.8336V35.8276V35.8215V35.8154V35.8092V35.803V35.7968V35.7905V35.7842V35.7778V35.7714V35.765V35.7585V35.752V35.7454V35.7388V35.7321V35.7254V35.7187V35.7119V35.7051V35.6982V35.6913V35.6843V35.6773V35.6702V35.6631V35.656V35.6488V35.6416V35.6343V35.627V35.6196V35.6122V35.6048V35.5973V35.5897V35.5822V35.5745V35.5668V35.5591V35.5513V35.5435V35.5356V35.5277V35.5198V35.5118V35.5037V35.4956V35.4875V35.4793V35.471V35.4627V35.4544V35.446V35.4376V35.4291V35.4206V35.412V35.4033V35.3947V35.3859V35.3772V35.3683V35.3595V35.3505V35.3416V35.3325V35.3235V35.3143V35.3052V35.2959V35.2867V35.2773V35.268V35.2585V35.2491V35.2395V35.23V35.2203V35.2106V35.2009V35.1911V35.1813V35.1714V35.1614V35.1514V35.1414V35.1313V35.1211V35.1109V35.1007V35.0904V35.08V35.0696V35.0591V35.0486V35.038V35.0273V35.0167V35.0059V34.9951V34.9843V34.9733V34.9624V34.9514V34.9403V34.9292V34.918V34.9067V34.8954V34.8841V34.8727V34.8612V34.8497V34.8381V34.8265V34.8148V34.803V34.7912V34.7794V34.7675V34.7555V34.7435V34.7314V34.7192V34.707V34.6948V34.6824V34.67V34.6576V34.6451V34.6326V34.6199V34.6073V34.5945V34.5817V34.5689V34.556V34.543V34.53V34.5169V34.5037V34.4905V34.4772V34.4639V34.4505V34.4371V34.4236V34.41V34.3963V34.3826V34.3689V34.3551V34.3412V34.3272V34.3132V34.2992V34.285V34.2708V34.2566V34.2423V34.2279V34.2134V34.1989V34.1843V34.1697V34.155V34.1403V34.1254V34.1105V34.0956V34.0806V34.0655V34.0503V34.0351V34.0198V34.0045V33.9891V33.9736V33.9581V33.9425V33.9268V33.9111V33.8953V33.8794V33.8635V33.8475V33.8314V33.8153V33.7991V33.7828V33.7665C30.1797 33.1602 30.3421 32.7348 30.5623 32.4278C30.7862 32.1156 31.0916 31.8962 31.4174 31.7424C31.7442 31.5881 32.0773 31.5066 32.3332 31.4645C32.4599 31.4436 32.5645 31.4328 32.6356 31.4274C32.6711 31.4246 32.698 31.4232 32.7149 31.4225L32.7325 31.4219L32.7331 31.4219H36.9662L36.9833 31.4226C37.0003 31.4234 37.0272 31.4249 37.0628 31.4279C37.134 31.4337 37.2387 31.445 37.3655 31.4665C37.6216 31.51 37.9552 31.593 38.2825 31.7484C38.609 31.9035 38.9148 32.1237 39.139 32.4356C39.3593 32.7421 39.5213 33.1653 39.5213 33.7665V33.7828V33.7991V33.8153V33.8314V33.8475V33.8635V33.8795V33.8953V33.9111V33.9269V33.9425V33.9581V33.9737V33.9892V34.0046V34.0199V34.0352V34.0504V34.0656V34.0807V34.0957V34.1106V34.1255V34.1404V34.1551V34.1698V34.1845V34.199V34.2136V34.228V34.2424V34.2567V34.271V34.2852V34.2993V34.3134V34.3274V34.3413V34.3552V34.3691V34.3828V34.3965V34.4102V34.4237V34.4373V34.4507V34.4641V34.4775V34.4907V34.5039V34.5171V34.5302V34.5432V34.5562V34.5691V34.582V34.5948V34.6075V34.6202V34.6328V34.6454V34.6579V34.6703V34.6827V34.695V34.7073V34.7195V34.7316V34.7437V34.7558V34.7677V34.7797V34.7915V34.8033V34.8151V34.8268V34.8384V34.85V34.8615V34.873V34.8844V34.8957V34.907V34.9183V34.9295V34.9406V34.9517V34.9627V34.9737V34.9846V34.9954V35.0062V35.017V35.0277V35.0383V35.0489V35.0594V35.0699V35.0803V35.0907V35.101V35.1113V35.1215V35.1316V35.1417V35.1518V35.1618V35.1717V35.1816V35.1915V35.2012V35.211V35.2207V35.2303V35.2399V35.2494V35.2589V35.2683V35.2777V35.287V35.2963V35.3055V35.3147V35.3238V35.3329V35.3419V35.3509V35.3598V35.3687V35.3775V35.3863V35.395V35.4037V35.4124V35.4209V35.4295V35.4379V35.4464V35.4548V35.4631V35.4714V35.4796V35.4878V35.496V35.5041V35.5122V35.5202V35.5281V35.536V35.5439V35.5517V35.5595V35.5672V35.5749V35.5825V35.5901V35.5977V35.6052V35.6126V35.62V35.6274V35.6347V35.642V35.6492V35.6564V35.6635V35.6706V35.6777V35.6847V35.6916V35.6986V35.7054V35.7123V35.7191V35.7258V35.7325V35.7392V35.7458V35.7524V35.7589V35.7654V35.7718V35.7782V35.7846V35.7909V35.7972V35.8034V35.8096V35.8158V35.8219V35.8279V35.834V35.84V35.8459V35.8518V35.8577V35.8635V35.8693V35.8751V35.8808V35.8864V35.8921V35.8977V35.9032V35.9087V35.9142V35.9196V35.9204Z" stroke="#7B4794"/>
<g filter="url(#filter0_d_2896_6105)">
<path d="M24.0645 14.0412C24.1804 14.0157 24.2656 13.9818 24.32 13.9395C24.3745 13.8979 24.4017 13.8454 24.4017 13.7819C24.4017 13.7404 24.3964 13.6988 24.3858 13.6572C24.3752 13.6156 24.3596 13.581 24.3391 13.5533C24.3193 13.5248 24.296 13.5092 24.2691 13.5062C24.2536 13.5041 24.2384 13.5095 24.2235 13.5227C24.2094 13.5351 24.1977 13.5515 24.1885 13.5719C24.18 13.5923 24.1758 13.612 24.1758 13.631C24.1758 13.6463 24.1786 13.6583 24.1843 13.6671C24.1956 13.6846 24.2214 13.6962 24.2617 13.7021C24.3027 13.7079 24.3557 13.7108 24.4208 13.7108H24.5247L24.5311 13.771L24.5247 13.8311L24.3943 13.8322C24.3172 13.8322 24.2546 13.826 24.2066 13.8136C24.1592 13.8005 24.126 13.7739 24.1069 13.7338C24.0949 13.7075 24.0888 13.6787 24.0888 13.6474C24.0888 13.608 24.097 13.5686 24.1132 13.5292C24.1302 13.4898 24.1525 13.4574 24.18 13.4319C24.2083 13.4063 24.2387 13.3936 24.2712 13.3936C24.313 13.3936 24.3501 13.4125 24.3826 13.4505C24.4158 13.4876 24.4413 13.5358 24.4589 13.5949C24.4773 13.6532 24.4865 13.7119 24.4865 13.771C24.4865 13.8658 24.4522 13.946 24.3837 14.0117C24.3158 14.0773 24.221 14.1225 24.0994 14.1473L24.0645 14.0412ZM24.5099 13.7108H24.6011C24.688 13.7108 24.7693 13.7002 24.845 13.6791C24.9206 13.6579 24.9977 13.6259 25.0762 13.5828C25.0981 13.5704 25.1211 13.5591 25.1451 13.5489C25.1691 13.538 25.1889 13.5303 25.2045 13.5259L25.2077 13.5905C25.1688 13.5898 25.1313 13.5843 25.0953 13.5741C25.0599 13.5631 25.021 13.5467 24.9786 13.5248C24.9129 13.4891 24.8574 13.4712 24.8121 13.4712C24.7831 13.4712 24.757 13.48 24.7336 13.4975C24.7103 13.515 24.693 13.5351 24.6817 13.5577L24.6138 13.5084C24.6378 13.4588 24.6668 13.4213 24.7008 13.3958C24.7347 13.3702 24.7725 13.3575 24.8142 13.3575C24.8446 13.3575 24.8733 13.3629 24.9001 13.3739C24.9277 13.3841 24.9662 13.4023 25.0157 13.4286C25.0617 13.4526 25.0984 13.4705 25.126 13.4822C25.1536 13.4938 25.1843 13.5033 25.2183 13.5106L25.2225 13.6167C25.2091 13.6204 25.1921 13.6277 25.1716 13.6386C25.1511 13.6488 25.1288 13.6609 25.1048 13.6747C25.0079 13.728 24.921 13.7673 24.8439 13.7929C24.7676 13.8184 24.6831 13.8311 24.5905 13.8311H24.5099V13.7108ZM24.7814 14.0029C24.8089 13.973 24.8365 13.9446 24.8641 13.9176C24.8917 13.9446 24.9192 13.973 24.9468 14.0029L24.8641 14.0882L24.7814 14.0029ZM25.579 13.8311C25.5337 13.8311 25.498 13.8147 25.4718 13.7819C25.4464 13.7484 25.4248 13.701 25.4072 13.6397L25.4782 13.5949C25.4881 13.6379 25.5005 13.6682 25.5153 13.6857C25.5309 13.7024 25.5521 13.7108 25.579 13.7108H25.5864L25.5927 13.771L25.5864 13.8311H25.579ZM25.1739 14.0445C25.2198 14.027 25.2612 14.0051 25.2979 13.9788C25.3354 13.9526 25.3647 13.9252 25.386 13.8968C25.4079 13.8691 25.4188 13.8432 25.4188 13.8191C25.4188 13.7885 25.4001 13.6981 25.3626 13.5478L25.4559 13.5106C25.4722 13.5624 25.4853 13.6171 25.4952 13.6747C25.5058 13.7316 25.5111 13.7797 25.5111 13.8191C25.5111 13.8862 25.4839 13.9493 25.4294 14.0084C25.3757 14.0682 25.3057 14.1145 25.2195 14.1473L25.1739 14.0445ZM25.5724 13.7108H25.5978C25.6749 13.7108 25.736 13.7061 25.7813 13.6966C25.8272 13.6871 25.8612 13.6736 25.8831 13.6561C25.905 13.6379 25.9206 13.6149 25.9297 13.5872C25.9312 13.5675 25.9283 13.5482 25.9213 13.5292C25.9149 13.5103 25.9046 13.4946 25.8905 13.4822C25.8764 13.4698 25.8601 13.4636 25.8417 13.4636C25.8177 13.4636 25.7965 13.4745 25.7781 13.4964C25.7597 13.5175 25.7488 13.5431 25.7452 13.573C25.7445 13.597 25.7537 13.6197 25.7728 13.6408C25.7919 13.662 25.8198 13.6791 25.8566 13.6922C25.894 13.7046 25.9382 13.7108 25.9891 13.7108H26.092L26.0984 13.771L26.092 13.8311H26.0284C25.957 13.8311 25.8926 13.8202 25.8354 13.7983C25.7788 13.7765 25.7343 13.7469 25.7017 13.7097C25.6699 13.6725 25.654 13.6317 25.654 13.5872C25.654 13.5814 25.6547 13.5726 25.6561 13.5609C25.6618 13.5216 25.6738 13.4855 25.6922 13.4526C25.7113 13.4191 25.7343 13.3928 25.7611 13.3739C25.7887 13.3542 25.8173 13.3443 25.847 13.3443C25.8803 13.3443 25.9099 13.3553 25.9361 13.3772C25.963 13.399 25.9838 13.4271 25.9987 13.4614C26.0135 13.4957 26.0209 13.5307 26.0209 13.5664C26.0209 13.573 26.0202 13.5828 26.0188 13.5959C26.0082 13.6762 25.9679 13.7356 25.8979 13.7743C25.8286 13.8122 25.7286 13.8311 25.5978 13.8311H25.5724V13.7108ZM25.7696 13.1967C25.7972 13.1668 25.8248 13.1383 25.8523 13.1113C25.8799 13.1383 25.9075 13.1668 25.935 13.1967L25.8523 13.282L25.7696 13.1967ZM26.6727 13.7108C26.6975 13.7108 26.7162 13.7039 26.7289 13.69C26.7416 13.6754 26.748 13.655 26.748 13.6288C26.748 13.6054 26.7409 13.5722 26.7268 13.5292C26.7134 13.4855 26.7013 13.4512 26.6907 13.4264L26.7766 13.3772C26.7908 13.4085 26.8049 13.449 26.8191 13.4986C26.8339 13.5482 26.8413 13.5923 26.8413 13.631C26.8413 13.6682 26.8339 13.7021 26.8191 13.7327C26.8049 13.7626 26.7851 13.7867 26.7597 13.8049C26.7342 13.8224 26.7052 13.8311 26.6727 13.8311H26.6706V13.7108H26.6727ZM26.3853 13.8311V13.7108H26.3885C26.409 13.7108 26.427 13.705 26.4426 13.6933C26.4581 13.6809 26.4723 13.663 26.485 13.6397C26.5006 13.6098 26.5126 13.5642 26.5211 13.503L26.6101 13.5073C26.6017 13.5533 26.5974 13.5894 26.5974 13.6156C26.5974 13.647 26.6034 13.6707 26.6155 13.6867C26.6275 13.7028 26.6466 13.7108 26.6727 13.7108H26.6748L26.6812 13.771L26.6748 13.8311H26.6727C26.6324 13.8311 26.5999 13.8195 26.5752 13.7961C26.5504 13.7721 26.5345 13.7385 26.5274 13.6955L26.5476 13.6933C26.5313 13.7342 26.5091 13.7673 26.4808 13.7929C26.4532 13.8184 26.4221 13.8311 26.3875 13.8311H26.3853ZM26.081 13.8311L26.0746 13.771L26.081 13.7108H26.0863C26.1117 13.7108 26.1354 13.705 26.1573 13.6933C26.18 13.6816 26.1973 13.6667 26.2093 13.6485C26.2234 13.6295 26.2344 13.6087 26.2422 13.5861C26.2507 13.5635 26.2581 13.5391 26.2644 13.5128L26.3535 13.5227C26.3528 13.5263 26.3489 13.5413 26.3419 13.5675C26.3348 13.5938 26.3312 13.6186 26.3312 13.6419C26.3312 13.6645 26.3355 13.6816 26.344 13.6933C26.3532 13.705 26.3673 13.7108 26.3864 13.7108H26.3885L26.3949 13.771L26.3885 13.8311H26.3843C26.3525 13.8311 26.3256 13.8217 26.3037 13.8027C26.2818 13.7837 26.268 13.7582 26.2623 13.7261C26.2157 13.7961 26.1566 13.8311 26.0852 13.8311H26.081Z" fill="url(#paint0_linear_2896_6105)"/>
<path d="M29.7764 13.1856C29.0367 13.0594 28.6668 13.9512 28.0677 14.0285C27.6335 14.0855 27.3159 13.7679 27.2596 13.5358C27.2275 13.9837 27.6295 14.3054 28.0758 14.2851C28.8276 14.2525 29.2256 13.3282 29.7764 13.1856ZM29.2015 13.1734C28.6386 13.096 28.5019 13.5195 28.0476 13.6702C27.7541 13.7679 27.529 13.6946 27.3642 13.5114C27.4405 13.7557 27.73 13.9267 27.9833 13.9064C28.4859 13.8657 28.7713 13.3037 29.2015 13.1734Z" fill="url(#paint1_linear_2896_6105)"/>
<path d="M28.0032 13.5611C28.1118 13.5244 28.1882 13.4796 28.2525 13.4348C28.3048 13.3982 28.4897 13.2679 28.5822 13.2068C28.5058 12.9869 28.2927 12.8281 28.0475 12.8281C27.7339 12.8281 27.4766 13.0847 27.4766 13.4063C27.4766 13.4348 27.4766 13.4593 27.4806 13.4837C27.6173 13.5814 27.7982 13.6303 28.0032 13.5611Z" fill="#01A657" fill-opacity="0.4"/>
</g>
</g>
<defs>
<filter id="filter0_d_2896_6105" x="20.0645" y="12.8281" width="13.7129" height="9.45703" filterUnits="userSpaceOnUse" color-interpolation-filters="sRGB">
<feFlood flood-opacity="0" result="BackgroundImageFix"/>
<feColorMatrix in="SourceAlpha" type="matrix" values="0 0 0 0 0 0 0 0 0 0 0 0 0 0 0 0 0 0 127 0" result="hardAlpha"/>
<feOffset dy="4"/>
<feGaussianBlur stdDeviation="2"/>
<feComposite in2="hardAlpha" operator="out"/>
<feColorMatrix type="matrix" values="0 0 0 0 0 0 0 0 0 0 0 0 0 0 0 0 0 0 0.25 0"/>
<feBlend mode="normal" in2="BackgroundImageFix" result="effect1_dropShadow_2896_6105"/>
<feBlend mode="normal" in="SourceGraphic" in2="effect1_dropShadow_2896_6105" result="shape"/>
</filter>
<linearGradient id="paint0_linear_2896_6105" x1="24.0316" y1="13.5577" x2="26.9037" y2="13.5577" gradientUnits="userSpaceOnUse">
<stop stop-color="#7B4794"/>
<stop offset="1" stop-color="#01A657"/>
</linearGradient>
<linearGradient id="paint1_linear_2896_6105" x1="27.2578" y1="13.725" x2="29.7764" y2="13.725" gradientUnits="userSpaceOnUse">
<stop stop-color="#7B4794"/>
<stop offset="1" stop-color="#01A657"/>
</linearGradient>
<clipPath id="clip0_2896_6105">
<rect width="56" height="56" fill="white"/>
</clipPath>
</defs>
</svg>
