<svg width="120" height="120" viewBox="0 0 120 120" fill="none" xmlns="http://www.w3.org/2000/svg">
<g filter="url(#filter0_f_2_229)">
<path d="M66.25 42.5C72.4632 42.5 77.5 37.4632 77.5 31.25C77.5 25.0368 72.4632 20 66.25 20C60.0368 20 55 25.0368 55 31.25C55 37.4632 60.0368 42.5 66.25 42.5Z" fill="#18AA00" fill-opacity="0.3"/>
</g>
<g filter="url(#filter1_f_2_229)">
<path d="M61.2499 100C67.4631 100 72.4999 94.9632 72.4999 88.75C72.4999 82.5368 67.4631 77.5 61.2499 77.5C55.0367 77.5 49.9999 82.5368 49.9999 88.75C49.9999 94.9632 55.0367 100 61.2499 100Z" fill="#FF002E" fill-opacity="0.3"/>
</g>
<path d="M35 47.5H30C28.6193 47.5 27.5 48.6193 27.5 50V85C27.5 86.3807 28.6193 87.5 30 87.5H32.5M35 47.5V37.5C35 36.1193 36.1193 35 37.5 35H47.5C48.8807 35 50 36.1193 50 37.5V47.5M35 47.5H50M32.5 87.5V90M32.5 87.5H52.5M50 47.5H55C56.3807 47.5 57.5 48.6193 57.5 50V85C57.5 86.3807 56.3807 87.5 55 87.5H52.5M52.5 87.5V90M32.5 55V80M52.5 55V80" stroke="black" stroke-linecap="round" stroke-linejoin="round"/>
<path d="M70 67.5H65C63.6193 67.5 62.5 68.6193 62.5 70V87.5C62.5 88.8807 63.6193 90 65 90H90C91.3807 90 92.5 88.8807 92.5 87.5V70C92.5 68.6193 91.3807 67.5 90 67.5H85M70 67.5V65C70 63.6193 71.1193 62.5 72.5 62.5H82.5C83.8807 62.5 85 63.6193 85 65V67.5M70 67.5H85M67.5 85H87.5" stroke="black" stroke-linecap="round" stroke-linejoin="round"/>
<defs>
<filter id="filter0_f_2_229" x="39" y="4" width="54.5" height="54.5" filterUnits="userSpaceOnUse" color-interpolation-filters="sRGB">
<feFlood flood-opacity="0" result="BackgroundImageFix"/>
<feBlend mode="normal" in="SourceGraphic" in2="BackgroundImageFix" result="shape"/>
<feGaussianBlur stdDeviation="8" result="effect1_foregroundBlur_2_229"/>
</filter>
<filter id="filter1_f_2_229" x="33.9999" y="61.5" width="54.5" height="54.5" filterUnits="userSpaceOnUse" color-interpolation-filters="sRGB">
<feFlood flood-opacity="0" result="BackgroundImageFix"/>
<feBlend mode="normal" in="SourceGraphic" in2="BackgroundImageFix" result="shape"/>
<feGaussianBlur stdDeviation="8" result="effect1_foregroundBlur_2_229"/>
</filter>
</defs>
</svg>
