<svg width="120" height="120" viewBox="0 0 120 120" fill="none" xmlns="http://www.w3.org/2000/svg">
<g clip-path="url(#clip0_2_174)">
<g opacity="0.3" filter="url(#filter0_f_2_174)">
<path d="M82.8983 49.6403C91.7083 45.4195 95.0441 35.5773 90.349 27.6572C85.6539 19.737 74.7058 16.7382 65.8958 20.959C57.0858 25.1799 53.75 35.0221 58.4452 42.9422C63.1403 50.8623 74.0883 53.8612 82.8983 49.6403Z" fill="url(#paint0_linear_2_174)"/>
</g>
<g opacity="0.3" filter="url(#filter1_f_2_174)">
<path d="M59.6235 99.6057C69.4809 94.8831 73.2132 83.8709 67.9599 75.0092C62.7066 66.1475 50.457 62.7921 40.5997 67.5147C30.7423 72.2374 27.01 83.2496 32.2633 92.1113C37.5166 100.973 49.7662 104.328 59.6235 99.6057Z" fill="#FFE600"/>
</g>
<path d="M24.9177 57.8025C24.4134 46.2165 32.3147 30.6008 59.7148 30.6008M24.9177 57.8025V63.8473M24.9177 57.8025H27.9905H31.4405H35.8456M59.7148 30.6008C88.46 30.6008 95.016 46.2165 94.5118 57.8025M59.7148 30.6008V23.0448M24.9177 63.8473V94.0714H53.6631H59.7147H63.045H66.3752H94.5118V63.8473M24.9177 63.8473H29.7155H33.1655H37.5417M35.8456 57.8025L37.5417 63.8473M35.8456 57.8025H40.9338M94.5118 57.8025V63.8473M94.5118 57.8025H91.8166M59.7148 23.0448V17L65.7663 21.5336L59.7148 23.0448ZM94.5118 63.8473H90.1205M91.8166 57.8025H86.7283M91.8166 57.8025L90.1205 63.8473M37.5417 63.8473H39.2377M90.1205 63.8473H88.4244M40.9338 57.8025L39.2377 63.8473M40.9338 57.8025H42.63M39.2377 63.8473H44.326M44.326 63.8473L42.63 57.8025M44.326 63.8473H46.0221M42.63 57.8025H47.7182M47.7182 57.8025L46.0221 63.8473M47.7182 57.8025H49.4143M46.0221 63.8473H51.1104M51.1104 63.8473L49.4143 57.8025M51.1104 63.8473H52.8065M49.4143 57.8025H54.5026M54.5026 57.8025L52.8065 63.8473M54.5026 57.8025H56.1986M52.8065 63.8473H57.8948M57.8948 63.8473L56.1986 57.8025M57.8948 63.8473H59.5909M56.1986 57.8025H61.2869M61.2869 57.8025L59.5909 63.8473M61.2869 57.8025H68.0713M59.5909 63.8473H64.6791M64.6791 63.8473L62.9831 57.4625M64.6791 63.8473H66.3752M68.0713 57.8025L66.3752 63.8473M68.0713 57.8025H71.4635M66.3752 63.8473H69.7674M69.7674 63.8473L71.4635 57.8025M69.7674 63.8473H74.8557M71.4635 57.8025H73.1595M74.8557 63.8473L73.1595 57.8025M74.8557 63.8473H76.5517M73.1595 57.8025H78.2478M78.2478 57.8025L76.5517 63.8473M78.2478 57.8025H79.944M76.5517 63.8473H81.64M81.64 63.8473L79.944 57.8025M81.64 63.8473H83.3361M79.944 57.8025H85.0322M85.0322 57.8025L83.3361 63.8473M85.0322 57.8025H86.7283M83.3361 63.8473H88.4244M88.4244 63.8473L86.7283 57.8025M32.4534 63.8473L34.1495 57.8025M29.0612 57.8025L30.7573 63.8473M25.6691 63.8475L27.3651 57.8027M83.2004 76.2098V72.8767C83.2004 70.5356 85.1058 68.6378 87.4563 68.6378C89.8068 68.6378 91.7123 70.5356 91.7123 72.8767V76.2098C91.7123 76.2844 91.6515 76.345 91.5765 76.345H83.3361C83.2611 76.345 83.2004 76.2844 83.2004 76.2098ZM55.3249 93.1655V82.1253C55.3249 79.7842 57.2304 80.1985 59.5809 80.1985C61.9314 80.1985 63.8369 79.7842 63.8369 82.1253V93.1655C63.8369 93.2401 63.7761 94.0714 63.7011 94.0714H55.4607C55.3858 94.0714 55.3249 93.2401 55.3249 93.1655ZM36.5023 76.2098V72.8937C36.5023 70.5432 34.5969 68.6378 32.2464 68.6378C29.8959 68.6378 27.9905 70.5432 27.9905 72.8937V76.2098C27.9905 76.2844 28.051 76.345 28.1257 76.345H36.3671C36.4418 76.345 36.5023 76.2844 36.5023 76.2098Z" stroke="black" stroke-width="0.928571"/>
</g>
<defs>
<filter id="filter0_f_2_174" x="41.4605" y="4.18933" width="65.8731" height="62.2207" filterUnits="userSpaceOnUse" color-interpolation-filters="sRGB">
<feFlood flood-opacity="0" result="BackgroundImageFix"/>
<feBlend mode="normal" in="SourceGraphic" in2="BackgroundImageFix" result="shape"/>
<feGaussianBlur stdDeviation="7.42857" result="effect1_foregroundBlur_2_174"/>
</filter>
<filter id="filter1_f_2_174" x="15.0258" y="50.5177" width="70.1717" height="66.0851" filterUnits="userSpaceOnUse" color-interpolation-filters="sRGB">
<feFlood flood-opacity="0" result="BackgroundImageFix"/>
<feBlend mode="normal" in="SourceGraphic" in2="BackgroundImageFix" result="shape"/>
<feGaussianBlur stdDeviation="7.42857" result="effect1_foregroundBlur_2_174"/>
</filter>
<linearGradient id="paint0_linear_2_174" x1="58.7256" y1="24.6797" x2="71.9393" y2="52.2603" gradientUnits="userSpaceOnUse">
<stop stop-color="#FF5C00"/>
<stop offset="1" stop-color="#FFD89D"/>
</linearGradient>
<clipPath id="clip0_2_174">
<rect width="91" height="111.429" fill="white" transform="translate(14 4)"/>
</clipPath>
</defs>
</svg>
