<svg width="120" height="120" viewBox="0 0 120 120" fill="none" xmlns="http://www.w3.org/2000/svg">
<g clip-path="url(#clip0_2_186)">
<g clip-path="url(#clip1_2_186)">
<g opacity="0.3" filter="url(#filter0_f_2_186)">
<path d="M82.9614 62.9706C91.936 62.9706 99.2114 55.6952 99.2114 46.7206C99.2114 37.746 91.936 30.4706 82.9614 30.4706C73.9868 30.4706 66.7114 37.746 66.7114 46.7206C66.7114 55.6952 73.9868 62.9706 82.9614 62.9706Z" fill="#7B4794"/>
</g>
<g opacity="0.3" filter="url(#filter1_f_2_186)">
<path d="M43.1818 95.7122C53.2233 95.7122 61.3636 87.572 61.3636 77.5304C61.3636 67.4889 53.2233 59.3486 43.1818 59.3486C33.1403 59.3486 25 67.4889 25 77.5304C25 87.572 33.1403 95.7122 43.1818 95.7122Z" fill="#01A657"/>
</g>
<path d="M102.643 101.284H94.444L94.326 101.02L97.89 97.0646C98.128 96.8009 98.128 96.4053 97.89 96.1416C97.653 95.8779 97.296 95.8779 97.059 96.1416L93.731 99.8335L65.3318 38.7848L70.5602 27.4453C70.679 27.1816 70.5602 26.786 70.3225 26.5223C70.0849 26.3905 69.7284 26.5223 69.4907 26.786L64.6188 37.2026L59.7469 26.786C59.6281 26.5223 59.2716 26.3905 58.9151 26.5223C58.6774 26.6542 58.5586 27.0497 58.6774 27.4453L63.9058 38.7848L44.8935 79.7916C44.7747 80.0553 44.8935 80.4509 45.1312 80.7146C45.25 80.7146 45.3688 80.8464 45.3688 80.8464C45.6065 80.8464 45.8441 80.7146 45.8441 80.4509L64.3811 40.3671L92.781 101.548H77.8086C77.9274 101.416 77.9274 101.152 77.8086 100.888L64.8565 72.9352C64.8565 72.9352 64.8565 72.8033 64.7376 72.8033C64.7376 72.8033 64.7376 72.8033 64.6188 72.8033H64.5C64.5 72.8033 64.5 72.8033 64.3811 72.8033H64.2623C64.2623 72.8033 64.2623 72.8033 64.1435 72.8033C64.1435 72.8033 64.0247 72.8033 64.0247 72.9352C63.9058 73.067 63.9058 73.067 63.787 73.1989L51.3102 100.493C51.1913 100.756 51.1913 101.02 51.429 101.152H36.3379L41.3287 90.34C41.4475 90.0763 41.3287 89.6807 41.091 89.417C40.8534 89.2851 40.4969 89.417 40.2592 89.6807L35.625 99.7017L32.179 95.8779C31.9413 95.6142 31.5849 95.6142 31.3472 95.8779C31.1095 96.1416 31.1095 96.5371 31.3472 96.8009L35.0308 100.888L34.912 101.02H26.5941C26.2376 101.02 26 101.284 26 101.679C26 102.075 26.2376 102.339 26.5941 102.339H34.912C35.0308 102.339 35.1497 102.471 35.1497 102.471C35.2685 102.471 35.3873 102.471 35.3873 102.339H93.731C93.85 102.339 93.969 102.471 93.969 102.471C94.088 102.471 94.207 102.471 94.207 102.339H102.406C102.762 102.339 103 102.075 103 101.679C103 101.284 103 101.284 102.643 101.284ZM77.3333 101.284H65.4506V75.5723L77.3333 101.284C77.3333 101.152 77.2145 101.152 77.3333 101.284ZM52.3796 101.152L64.2623 75.5723V101.152H52.3796C52.2608 101.152 52.2608 101.152 52.3796 101.152Z" fill="#231F20"/>
</g>
</g>
<defs>
<filter id="filter0_f_2_186" x="52.5937" y="16.3529" width="60.7353" height="60.7353" filterUnits="userSpaceOnUse" color-interpolation-filters="sRGB">
<feFlood flood-opacity="0" result="BackgroundImageFix"/>
<feBlend mode="normal" in="SourceGraphic" in2="BackgroundImageFix" result="shape"/>
<feGaussianBlur stdDeviation="7.05882" result="effect1_foregroundBlur_2_186"/>
</filter>
<filter id="filter1_f_2_186" x="-12.0588" y="22.2898" width="110.481" height="110.481" filterUnits="userSpaceOnUse" color-interpolation-filters="sRGB">
<feFlood flood-opacity="0" result="BackgroundImageFix"/>
<feBlend mode="normal" in="SourceGraphic" in2="BackgroundImageFix" result="shape"/>
<feGaussianBlur stdDeviation="18.5294" result="effect1_foregroundBlur_2_186"/>
</filter>
<clipPath id="clip0_2_186">
<rect width="120" height="120" fill="white"/>
</clipPath>
<clipPath id="clip1_2_186">
<rect width="120" height="112.941" fill="white" transform="translate(0 4)"/>
</clipPath>
</defs>
</svg>
