<svg width="24" height="25" viewBox="0 0 24 25" fill="none" xmlns="http://www.w3.org/2000/svg">
<path fill-rule="evenodd" clip-rule="evenodd" d="M9.92161 22.3078C6.10761 22.3078 2.84961 21.7308 2.84961 19.4208C2.84961 17.1108 6.08661 15.0098 9.92161 15.0098C13.7356 15.0098 16.9936 17.0908 16.9936 19.3998C16.9936 21.7088 13.7566 22.3078 9.92161 22.3078Z" stroke="#7B4794" stroke-width="1.5" stroke-linecap="round" stroke-linejoin="round"/>
<path fill-rule="evenodd" clip-rule="evenodd" d="M9.9217 11.7164C12.4247 11.7164 14.4547 9.68639 14.4547 7.18339C14.4547 4.67939 12.4247 2.65039 9.9217 2.65039C7.4187 2.65039 5.3887 4.67939 5.3887 7.18339C5.3797 9.67739 7.3957 11.7074 9.8897 11.7164H9.9217Z" stroke="#7B4794" stroke-width="1.5" stroke-linecap="round" stroke-linejoin="round"/>
<path d="M19.1309 8.62891V12.6389" stroke="#7B4794" stroke-width="1.5" stroke-linecap="round" stroke-linejoin="round"/>
<path d="M21.1759 10.6348H17.0859" stroke="#7B4794" stroke-width="1.5" stroke-linecap="round" stroke-linejoin="round"/>
</svg>
