<svg width="24" height="25" viewBox="0 0 24 25" fill="none" xmlns="http://www.w3.org/2000/svg">
<path d="M20.9958 7.1477C20.9958 9.15904 19.3652 10.7895 17.3539 10.7895C15.3426 10.7895 13.7121 9.15904 13.7121 7.1477C13.7121 5.13637 15.3426 3.50586 17.3539 3.50586C19.3652 3.50586 20.9958 5.13637 20.9958 7.1477Z" fill="#7B4794"/>
<path d="M10.2895 7.1477C10.2895 9.15904 8.65904 10.7895 6.6477 10.7895C4.63637 10.7895 3.00586 9.15904 3.00586 7.1477C3.00586 5.13637 4.63637 3.50586 6.6477 3.50586C8.65904 3.50586 10.2895 5.13637 10.2895 7.1477Z" fill="#7B4794"/>
<path d="M20.9958 17.8539C20.9958 19.8653 19.3652 21.4958 17.3539 21.4958C15.3426 21.4958 13.7121 19.8653 13.7121 17.8539C13.7121 15.8426 15.3426 14.2121 17.3539 14.2121C19.3652 14.2121 20.9958 15.8426 20.9958 17.8539Z" fill="#7B4794"/>
<path d="M10.2895 17.8539C10.2895 19.8653 8.65904 21.4958 6.6477 21.4958C4.63637 21.4958 3.00586 19.8653 3.00586 17.8539C3.00586 15.8426 4.63637 14.2121 6.6477 14.2121C8.65904 14.2121 10.2895 15.8426 10.2895 17.8539Z" fill="#7B4794"/>
</svg>
