<svg width="328" height="56" viewBox="0 0 328 56" fill="none" xmlns="http://www.w3.org/2000/svg">
<g opacity="0.1" clip-path="url(#clip0_2911_6114)">
<path d="M141.971 25.4897L142.24 25.4085C142.272 25.4003 145.519 24.4449 147.495 25.5081C149.471 26.5713 149.545 27.6463 149.548 27.6941L150.001 27.7284C150.018 27.6798 149.894 26.3844 147.702 25.1984C145.842 24.1954 143.145 24.7705 142.298 24.9766C142.094 24.1602 141.27 21.5316 139.715 20.8069C137.924 19.9722 135.486 20.4938 135.401 20.5264L135.571 20.8942C135.593 20.9018 137.95 20.3869 139.565 21.1246C141.179 21.8622 141.931 25.1988 141.939 25.2327L141.971 25.4897Z" fill="#263238"/>
<path d="M145.404 34.2539L145.673 34.1726C145.705 34.1644 148.954 33.2055 150.928 34.2722C152.902 35.3389 152.973 36.4089 152.977 36.4532L153.431 36.4876C153.447 36.4424 153.327 35.1486 151.13 33.961C149.275 32.9595 146.578 33.5346 145.731 33.7407C145.527 32.9243 144.705 30.2922 143.149 29.5676C141.353 28.7348 138.92 29.2545 138.834 29.2906L139.004 29.6583C139.004 29.6583 141.38 29.1461 142.993 29.8872C144.606 30.6283 145.359 33.9614 145.367 33.9953L145.404 34.2539Z" fill="#263238"/>
<path d="M126.049 27.4673L126.318 27.3861C126.318 27.3861 128.785 26.6562 130.269 27.4574C131.753 28.2585 131.797 29.0422 131.799 29.078L132.253 29.1123C132.266 29.0741 132.17 28.0616 130.489 27.1523C129.103 26.4052 127.107 26.7854 126.392 26.9638C126.206 26.2784 125.586 24.3412 124.411 23.8045C123.028 23.1635 121.151 23.5661 121.058 23.5802L121.228 23.9479C121.228 23.9479 123.012 23.5594 124.224 24.1288C125.202 24.5847 125.84 26.5126 125.994 27.218L126.049 27.4673Z" fill="#263238"/>
<path d="M100.795 26.5705L101.064 26.4892C101.064 26.4892 102.653 26.0249 103.585 26.5272C104.517 27.0294 104.544 27.5109 104.547 27.5313L105.023 27.5732C105.031 27.5489 104.964 26.8467 103.809 26.2236C102.923 25.7451 101.681 25.9453 101.143 26.0684C100.996 25.5491 100.586 24.3836 99.8135 24.0425C98.8883 23.605 97.6164 23.8765 97.563 23.889L97.7331 24.2567C97.7331 24.2567 98.887 24.014 99.6536 24.3725C100.265 24.657 100.664 25.8966 100.77 26.3473L100.795 26.5705Z" fill="#263238"/>
<path d="M52.936 18.1061C55.4159 18.968 57.737 20.2101 59.767 21.7617C61.797 23.3132 63.496 25.1437 64.767 27.1486C66.0381 29.1536 66.8562 31.2938 67.1748 33.4469C67.4934 35.6001 67.3061 37.7241 66.6237 39.6977C65.3413 43.3816 62.3842 46.3335 58.3263 47.9803C56.1869 46.9473 53.858 46.3163 51.525 46.1375C48.9213 45.9339 46.3729 46.1837 44.0411 46.8709L42.3427 46.2754C40.9486 44.282 39.1128 42.4951 36.9512 41.0272C34.9151 39.6366 32.5678 38.6447 30.119 38.1402C27.9359 34.303 27.4454 30.1208 28.744 26.4153C29.4445 24.4469 30.626 22.6704 32.221 21.1875C33.816 19.7045 35.7933 18.5441 38.0399 17.7725C40.2865 17.0008 42.7584 16.6331 45.3143 16.6904C47.8702 16.7476 50.4601 17.2287 52.936 18.1061Z" fill="#01A657"/>
<path d="M36.7802 35.9673C37.2812 36.4029 37.7821 36.8386 38.2831 37.2742C38.7674 37.72 39.2247 38.185 39.6529 38.667C39.8116 38.8436 39.9635 39.0255 40.1162 39.2195L38.6229 33.5366L41.0216 40.3286C41.3608 40.7595 41.6988 41.1939 41.995 41.6214C42.5167 42.3243 43.0156 43.0452 43.492 43.7842L45.4576 38.8774L42.8954 31.9228L45.7268 38.11L47.4868 33.7199L46.0663 38.8335L44.6316 43.9459C45.3533 43.7193 46.0757 43.5047 46.8175 43.3046C47.398 43.1455 47.9859 42.9929 48.5777 42.8572L54.521 38.7992L49.8738 42.5864C50.0782 42.5488 50.2794 42.5063 50.487 42.4738C51.1224 42.3647 51.77 42.2871 52.4266 42.2414C53.0782 42.2008 53.7405 42.1717 54.4166 42.1592C55.7405 42.115 57.0767 42.1318 58.4193 42.2096C57.0938 42.2081 55.7798 42.268 54.483 42.3892C53.8365 42.4433 53.1963 42.5074 52.5623 42.5815C51.9375 42.6601 51.3241 42.7706 50.7254 42.9123C49.5345 43.1905 48.3734 43.5281 47.2477 43.9234C46.2662 44.2617 45.2937 44.6304 44.3548 45.0149L42.5116 51.4738L40.6473 50.8201L43.0495 44.8223C42.5062 43.8129 41.9057 42.799 41.2748 41.8018C40.6426 40.79 39.9466 39.8012 39.1902 38.8402C38.8111 38.3556 38.401 37.8863 37.9621 37.4346C37.5132 36.9809 37.0532 36.531 36.5821 36.085C35.6434 35.18 34.6531 34.312 33.6156 33.4849C34.7162 34.2692 35.7727 35.0979 36.7802 35.9673Z" fill="#263238"/>
<path d="M14.2908 10.9813C11.3476 19.3748 17.0451 22.0863 24.3451 24.646C31.6452 27.2057 37.7883 28.6462 40.7315 20.2527C43.6746 11.8592 43.9141 -7.76973 36.6097 -10.331C29.3054 -12.8922 17.2315 2.59476 14.2908 10.9813Z" fill="#01A657"/>
<path d="M14.2908 10.9813C11.3476 19.3748 17.0451 22.0863 24.3451 24.646C31.6452 27.2057 37.7883 28.6462 40.7315 20.2527C43.6746 11.8592 43.9141 -7.76973 36.6097 -10.331C29.3054 -12.8922 17.2315 2.59476 14.2908 10.9813Z" fill="#DDFFF8"/>
<path d="M21.7034 17.8588L23.8494 18.7439L19.2264 13.6951L22.7176 16.756L22.6069 15.2821L23.8361 17.7331L25.711 19.3772L27.9996 13.4098L27.6255 10.7712L28.3679 12.4432L29.6945 8.98139L27.4175 3.8699L30.0264 8.11893L32.9475 0.501503L31.4117 5.49662L34.4621 4.24983L31.1198 6.45498L28.6948 14.3634L31.0852 14.0199L33.8385 12.0684L32.3908 13.8343L36.6702 13.2212L28.3561 15.4691L20.391 41.4285L17.6317 40.4609L25.3353 20.3647L24.8129 19.7993L21.7034 17.8588Z" fill="#263238"/>
<path d="M-15.1685 4.36029C-16.676 8.65949 -13.7592 10.0449 -10.0219 11.3554C-6.28453 12.6659 -3.14126 13.4054 -1.63375 9.1062C-0.12625 4.807 -0.00854438 -5.23239 -3.74587 -6.54288C-7.4832 -7.85336 -13.6622 0.064568 -15.1685 4.36029Z" fill="#01A657"/>
<path d="M-15.1685 4.36029C-16.676 8.65949 -13.7592 10.0449 -10.0219 11.3554C-6.28453 12.6659 -3.14126 13.4054 -1.63375 9.1062C-0.12625 4.807 -0.00854438 -5.23239 -3.74587 -6.54288C-7.4832 -7.85336 -13.6622 0.064568 -15.1685 4.36029Z" fill="#D8BFD8"/>
<path d="M-5.33252 7.02481C-8.41085 15.8038 -2.4524 18.6379 5.17943 21.314C12.8113 23.9901 19.2567 25.5053 22.335 16.7264C25.4134 7.94739 25.6566 -12.5732 18.0204 -15.2508C10.3842 -17.9284 -2.2542 -1.75417 -5.33252 7.02481Z" fill="#01A657"/>
<path d="M136.328 67.6537C133.249 76.4327 139.208 79.2668 146.84 81.9429C154.471 84.619 160.917 86.1343 163.995 77.3553C167.074 68.5763 167.317 48.0557 159.681 45.3781C152.044 42.7005 139.406 58.8747 136.328 67.6537Z" fill="#01A657"/>
<path d="M97.0815 53.892C94.0032 62.671 99.9617 65.5051 107.593 68.1812C115.225 70.8573 121.671 72.3725 124.749 63.5936C127.827 54.8146 128.071 34.294 120.434 31.6164C112.798 28.9388 100.16 45.113 97.0815 53.892Z" fill="#D8BFD8"/>
<path d="M2.42368 14.2169L4.66764 15.1441L-0.172954 9.86296L3.48483 13.0642L3.36739 11.5255L4.65026 14.089L6.61225 15.8065L9.00257 9.56281L8.61024 6.80856L9.39114 8.55256L10.7769 4.93602L8.39609 -0.410744L11.1234 4.03189L14.1762 -3.93321L12.5755 1.28875L15.7592 -0.0165887L12.2678 2.29226L9.73053 10.5629L12.2297 10.203L15.1117 8.16407L13.5974 10.008L18.0676 9.36821L9.37477 11.7173L1.04731 38.8638L-1.83863 37.8518L6.21637 16.8376L5.67378 16.2456L2.42368 14.2169Z" fill="#263238"/>
<path d="M144.082 74.8458L146.326 75.773L141.485 70.4919L145.143 73.6931L145.026 72.1544L146.308 74.7179L148.27 76.4354L150.661 70.1917L150.268 67.4375L151.049 69.1815L152.435 65.5649L150.054 60.2182L152.782 64.6608L155.834 56.6957L154.234 61.9177L157.417 60.6123L153.926 62.9212L151.389 71.1918L153.888 70.8319L156.77 68.793L155.256 70.6369L159.726 69.9971L151.033 72.3462L142.706 99.4927L139.82 98.4807L147.875 77.4665L147.332 76.8745L144.082 74.8458Z" fill="#263238"/>
<path d="M104.836 61.0841L107.08 62.0113L102.239 56.7301L105.897 59.9314L105.779 58.3927L107.062 60.9562L109.024 62.6737L111.415 56.43L111.022 53.6757L111.803 55.4197L113.189 51.8032L110.808 46.4564L113.535 50.8991L116.588 42.934L114.988 48.1559L118.171 46.8506L114.68 49.1594L112.143 57.4301L114.642 57.0702L117.524 55.0313L116.009 56.8751L120.48 56.2354L111.787 58.5844L103.459 85.731L100.573 84.719L108.628 63.7047L108.086 63.1128L104.836 61.0841Z" fill="#263238"/>
<path d="M0.100351 38.7971C0.100351 38.7971 6.67452 36.3798 5.19862 36.0027C3.72272 35.6256 -0.0569026 37.8334 -0.0569026 37.8334C-0.0569026 37.8334 2.33919 30.8742 0.531668 31.9601C-1.27585 33.0461 -1.08513 37.5079 -1.08513 37.5079C-1.08513 37.5079 -3.13904 31.7181 -3.39282 32.4559C-4.16665 34.7466 -2.01138 37.5068 -2.01138 37.5068C-2.01138 37.5068 -6.64012 32.027 -6.19144 33.7676C-5.74275 35.5082 -2.46086 38.1174 -2.46086 38.1174C-2.46086 38.1174 -8.80148 34.6813 -6.67993 36.2793C-4.55838 37.8772 -2.47071 39.1942 -2.47071 39.1942L-0.615141 39.8448C-0.615141 39.8448 6.61643 39.5377 4.09548 39.0788C2.75986 38.8014 1.40992 38.7063 0.100351 38.7971Z" fill="#263238"/>
<path d="M60.228 35.6752C57.1497 44.4542 63.1081 47.2883 70.74 49.9644C78.3718 52.6405 84.8173 54.1557 87.8956 45.3768C90.9739 36.5978 91.2172 16.0772 83.581 13.3996C75.9448 10.722 63.3063 26.8962 60.228 35.6752Z" fill="#7B4794"/>
<path d="M67.9823 42.8673L70.2262 43.7945L65.3856 38.5133L69.0434 41.7146L68.926 40.1759L70.2089 42.7394L72.1708 44.4569L74.5612 38.2132L74.1688 35.459L74.9497 37.2029L76.3355 33.5864L73.9547 28.2396L76.682 32.6823L79.7348 24.7172L78.1341 29.9391L81.3178 28.6338L77.8264 30.9426L75.2891 39.2133L77.7883 38.8534L80.6703 36.8145L79.1559 38.6583L83.6262 38.0186L74.9334 40.3676L66.6059 67.5142L63.72 66.5022L71.775 45.4879L71.2324 44.896L67.9823 42.8673Z" fill="#263238"/>
<path d="M-3.56176 40.0237C-3.56176 40.0237 3.01241 37.6064 1.53651 37.2293C0.060613 36.8521 -3.71901 39.0599 -3.71901 39.0599C-3.71901 39.0599 -1.32292 32.1008 -3.13044 33.1867C-4.93796 34.2727 -4.74724 38.7345 -4.74724 38.7345C-4.74724 38.7345 -6.80115 32.9447 -7.05493 33.6824C-7.82876 35.9732 -5.67349 38.7334 -5.67349 38.7334C-5.67349 38.7334 -10.3022 33.2535 -9.85354 34.9941C-9.40486 36.7347 -6.12297 39.344 -6.12297 39.344C-6.12297 39.344 -12.4636 35.9079 -10.342 37.5058C-8.22049 39.1038 -6.13282 40.4208 -6.13282 40.4208L-4.27725 41.0714C-4.27725 41.0714 2.95432 40.7643 0.433374 40.3054C-0.90225 40.028 -2.25219 39.9328 -3.56176 40.0237Z" fill="#263238"/>
<path d="M169.489 61.6569C166.407 70.4463 172.37 73.282 180.015 75.9627C187.66 78.6434 194.088 80.1525 197.17 71.3631C200.252 62.5737 200.494 42.0292 192.853 39.3501C185.212 36.6709 172.571 52.8675 169.489 61.6569Z" fill="#7B4794"/>
<path d="M177.25 68.8546L179.494 69.7819L174.655 64.4972L178.312 67.702L178.195 66.1598L179.481 68.7283L181.443 70.4458L183.835 64.1986L183.445 61.4374L184.225 63.1849L185.613 59.5614L183.229 54.2097L185.958 58.6608L189.015 50.6852L187.412 55.9142L190.601 54.6069L187.104 56.9177L184.564 65.1953L187.068 64.8369L189.951 62.7945L188.435 64.6418L192.915 64.0017L184.207 66.3531L175.874 93.5289L172.984 92.5154L181.046 71.4803L180.504 70.8884L177.25 68.8546Z" fill="#263238"/>
<path d="M31.2011 63.8732C31.2011 63.8732 44.1245 54.982 41.9466 53.1811C39.7688 51.3801 31.4576 58.6674 31.4576 58.6674C31.4576 58.6674 38.4611 41.8821 35.6018 42.6539C32.7425 43.4256 26.3192 54.7949 26.3192 54.7949C26.3192 54.7949 26.3053 39.9712 23.838 42.2258C21.3706 44.4804 21.1044 53.7969 21.1044 53.7969C21.1044 53.7969 17.9792 41.3725 16.1599 44.4354C14.3407 47.4983 16.2576 54.2383 16.2576 54.2383C16.2576 54.2383 9.92307 44.171 8.28894 46.7061C6.6548 49.2411 8.66945 53.0595 8.66945 53.0595C8.66945 53.0595 -1.17397 43.9807 0.671621 47.7359C2.51721 51.4911 5.41123 56.5069 5.41123 56.5069C5.41123 56.5069 -4.58107 49.4466 -3.90161 51.7595C-3.22215 54.0724 1.05477 57.7871 1.05477 57.7871C1.05477 57.7871 -7.5988 53.2709 -7.0198 54.8076C-6.44079 56.3443 -4.53471 58.319 -4.53471 58.319L36.7418 72.7925C36.7418 72.7925 48.7851 73.4863 44.5683 71.7113C40.3516 69.9364 35.8564 69.9902 35.8564 69.9902C35.8564 69.9902 51.8202 67.4453 45.7094 64.7098C39.5987 61.9744 32.2412 66.4997 32.2412 66.4997C32.2412 66.4997 44.7047 59.6194 40.9971 60.0976L31.2011 63.8732Z" fill="#01A657"/>
<path d="M29.4449 67.0803C29.4449 67.0803 43.953 61.7515 40.6728 60.9133C37.3925 60.075 29.0742 64.9498 29.0742 64.9498C29.0742 64.9498 34.349 49.6408 30.3703 51.9971C26.3915 54.3535 26.8037 64.2238 26.8037 64.2238C26.8037 64.2238 22.2713 51.4503 21.7189 53.0816C20.0112 58.1335 24.7571 64.2159 24.7571 64.2159C24.7571 64.2159 14.5624 52.1399 15.5953 55.9338C16.6281 59.7277 23.8466 65.5541 23.8466 65.5541C23.8466 65.5541 9.86681 57.9808 14.5417 61.5114C19.2165 65.0419 23.8237 67.9404 23.8237 67.9404L27.9016 69.3703C27.9016 69.3703 43.831 68.6852 38.2983 67.685C32.7656 66.6848 29.4449 67.0803 29.4449 67.0803Z" fill="#263238"/>
<path d="M23.7269 68.0884L27.9008 69.5519L27.9549 69.5514C33.3458 69.3203 39.759 68.8861 39.7027 68.1098C39.6838 67.8419 39.2944 67.6664 38.3176 67.4876C35.7963 67.0121 33.259 66.7848 30.7595 66.8106C34.1008 65.545 41.6787 62.5164 41.3959 61.2395C41.3636 61.08 41.2183 60.8653 40.7409 60.7447C37.8744 60.0126 31.4701 63.4136 29.5107 64.4853C30.4724 61.617 33.2649 52.8002 31.5433 51.6974C31.2039 51.4769 30.7651 51.5259 30.2337 51.8387C27.0483 53.7362 26.612 60.1542 26.5764 62.9261C25.0438 58.6839 22.7849 52.8496 21.8816 52.7551C21.777 52.7458 21.5942 52.7636 21.5109 53.0151C20.4499 56.1528 21.8611 59.7206 23.1039 61.9931C20.5028 59.022 16.5702 54.7729 15.5832 55.043C15.2033 55.1476 15.286 55.6251 15.3794 55.9737C16.1487 58.8134 20.1789 62.6443 22.3351 64.5352C13.7932 59.9801 13.5134 60.3305 13.3832 60.4642C13.2223 60.6574 13.4595 60.9317 14.3861 61.6309C19.0433 65.128 23.6444 68.0439 23.6888 68.0711L23.7269 68.0884ZM27.9222 69.1695L23.9098 67.7625C23.5073 67.5122 19.1004 64.6995 14.6708 61.3642C14.4412 61.195 14.2204 61.0174 14.0093 60.8319C15.2798 61.2774 19.7498 63.5468 23.7386 65.7059L25.5763 66.7012L23.9853 65.4219C23.9121 65.365 16.8337 59.6424 15.8345 55.9344C15.7072 55.4725 15.798 55.3952 15.798 55.3952C16.4808 55.2797 20.9053 59.9158 24.5984 64.3305L24.9609 64.1495C24.9132 64.0899 20.313 58.1092 21.9353 53.2029C22.66 53.9328 24.8447 59.3356 26.5966 64.2668L27.0826 65.6773L27.0232 64.2526C27.0187 64.1536 26.6551 54.4523 30.5112 52.1661C30.7106 52.0449 31.0831 51.8635 31.2787 51.9907C32.4789 52.7625 30.4226 60.3048 28.8475 64.8806L28.6502 65.4432L29.2064 65.1156C29.2918 65.0676 37.5059 60.3084 40.6254 61.1019C40.704 61.1295 40.8934 61.1764 40.9064 61.2512C41.0885 62.1301 34.2361 65.0893 29.2958 66.9019L27.7146 67.4822L29.4771 67.2657C29.5033 67.2749 32.8065 66.8733 38.2514 67.8583C38.5568 67.9008 38.8597 67.9781 39.1514 68.0881C38.502 68.4999 33.04 68.9479 27.9222 69.1695Z" fill="#263238"/>
<path d="M2.57597 54.5974C2.57597 54.5974 1.31563 52.7945 -0.129528 52.2877C-1.57469 51.781 -6.58054 51.9209 -6.58054 51.9209C-6.58054 51.9209 -9.10739 53.4644 -9.31084 53.5412C-9.51429 53.6181 -11.9411 53.5899 -12.2086 53.8354C-12.4761 54.0809 -13.1443 54.9658 -13.1443 54.9658L0.337994 59.6933L4.64709 55.3743L2.57597 54.5974Z" fill="white"/>
<path d="M-13.4902 55.0411L0.424348 59.9202L5.0199 55.3155L2.73533 54.4481C2.48702 54.1076 1.31469 52.5851 -0.0518785 52.1059C-1.53196 51.5869 -6.39732 51.7176 -6.60504 51.7228L-6.66474 51.7253L-6.71429 51.7547C-7.66967 52.34 -9.24744 53.2881 -9.40866 53.3564C-9.47201 53.3693 -9.84015 53.3845 -10.1641 53.3996C-11.5316 53.4543 -12.165 53.513 -12.3696 53.6909C-12.6439 53.9418 -13.2992 54.8039 -13.3269 54.841L-13.4902 55.0411ZM0.24486 59.4673L-12.8052 54.8913C-12.5921 54.6189 -12.2132 54.1396 -12.0383 53.9903C-11.8633 53.8411 -10.676 53.8246 -10.0989 53.8007C-9.79349 53.8035 -9.49349 53.7779 -9.20431 53.7244C-8.99772 53.6526 -7.12847 52.5025 -6.48322 52.1165C-5.90542 52.1046 -1.49078 52.0147 -0.194064 52.4694C1.10265 52.9241 2.36935 54.6669 2.3788 54.6819L2.4241 54.7485L4.27064 55.4388L0.24486 59.4673Z" fill="#263238"/>
<path d="M-0.125952 52.2736L-0.405369 53.3221C-0.405369 53.3221 -4.41466 53.7101 -4.53699 54.3107C-4.57499 55.0356 -4.53109 55.7716 -4.40582 56.5093L-6.66732 57.3659L2.71966 60.6574L3.54453 55.9979C3.54453 55.9979 2.3187 53.006 -0.125952 52.2736Z" fill="#263238"/>
<path d="M20.3591 60.1197C20.3591 60.1197 16.4337 49.7117 14.955 49.0489C13.4763 48.3861 9.90932 48.2818 8.12224 49.5192C6.33516 50.7567 4.07088 53.6206 3.92095 53.7825C3.77103 53.9444 3.40724 53.9611 0.736746 55.6765C-1.93375 57.3919 -2.32955 58.7584 -2.32955 58.7584L23.775 67.9119C23.775 67.9119 23.9509 65.6064 23.411 64.0561C22.8711 62.5058 20.784 61.271 20.784 61.271L20.3591 60.1197Z" fill="white"/>
<path d="M-2.57934 58.8667L23.9793 68.1794L23.9956 67.9511C24.0272 67.8608 24.1698 65.5944 23.6304 64.0287C23.1248 62.5762 21.373 61.4199 20.9749 61.1711L20.5885 60.0919C20.1853 59.0185 16.5927 49.5772 15.0541 48.8895C13.5155 48.2018 9.83511 48.0851 7.98123 49.3732C6.91379 50.1103 5.53347 51.5021 3.87233 53.5129C3.81011 53.5924 3.76757 53.6438 3.75153 53.6616C3.67589 53.7189 3.5913 53.7678 3.49945 53.8072C3.13448 53.9951 2.38101 54.3821 0.59939 55.5201C-2.09588 57.2502 -2.5133 58.6364 -2.53279 58.6919L-2.57934 58.8667ZM23.5596 67.6423L-2.02534 58.671C-1.82997 58.2676 -1.14547 57.1544 0.926591 55.8454C1.84116 55.2354 2.79895 54.6693 3.7963 54.1492C3.93035 54.0911 4.04979 54.0146 4.15039 53.9223L4.27918 53.7647C5.92185 51.7786 7.28056 50.4066 8.31764 49.6861C10.0212 48.5052 13.4972 48.5893 14.9117 49.2257C15.916 49.6753 18.6776 56.1734 20.181 60.1635L20.6157 61.3844L20.6926 61.4309C20.6926 61.4309 22.7198 62.6409 23.1936 64.0861C23.5119 65.2752 23.6351 66.4721 23.5596 67.6423Z" fill="#263238"/>
<path d="M8.00612 62.2386C8.00612 62.2386 9.21795 61.1037 9.36838 60.9263C9.51881 60.749 10.1642 58.9085 10.6766 58.2302C11.189 57.552 14.0166 55.8917 14.0166 55.8917L13.7356 52.0651L14.6175 51.8712L14.2405 49.0873L14.9993 49.0765C16.5006 49.8564 20.3752 60.1296 20.3752 60.1296L20.7827 61.2747C20.7827 61.2747 22.8741 62.5111 23.4096 64.0599C23.8695 65.3911 23.8084 67.2571 23.7794 67.7734L8.00612 62.2386Z" fill="#263238"/>
</g>
<defs>
<clipPath id="clip0_2911_6114">
<rect width="347" height="184" fill="white" transform="matrix(-0.943668 -0.330895 -0.330895 0.943668 327.336 6.82031)"/>
</clipPath>
</defs>
</svg>
