<svg width="24" height="24" viewBox="0 0 24 24" fill="none" xmlns="http://www.w3.org/2000/svg">
<path fill-rule="evenodd" clip-rule="evenodd" d="M20.0758 5.77481H15.9348C15.8938 5.12081 15.7128 4.19881 15.0618 3.45081C14.3738 2.65981 13.3438 2.25781 11.9998 2.25781C10.6568 2.25781 9.62678 2.65981 8.93878 3.45081C8.28778 4.19881 8.10578 5.12081 8.06478 5.77481H3.92578C3.51178 5.77481 3.17578 6.11081 3.17578 6.52481C3.17578 6.93881 3.51178 7.27481 3.92578 7.27481H20.0758C20.4898 7.27481 20.8258 6.93881 20.8258 6.52481C20.8258 6.11081 20.4898 5.77481 20.0758 5.77481Z" fill="#D23D3D"/>
<path opacity="0.4" fill-rule="evenodd" clip-rule="evenodd" d="M19.0999 9.59766C19.0999 9.32166 18.8759 9.09766 18.5999 9.09766H5.40394C5.12694 9.09766 4.90395 9.32166 4.90395 9.59766C4.90395 10.5947 4.88595 11.5237 4.86895 12.3847C4.79495 16.1337 4.74595 18.6107 6.26094 20.1557C7.33694 21.2527 9.10394 21.7427 11.9909 21.7427C14.8809 21.7427 16.6509 21.2517 17.7299 20.1527C19.2519 18.6007 19.2039 16.1117 19.1329 12.3417C19.1169 11.4927 19.0999 10.5777 19.0999 9.59766Z" fill="#D23D3D"/>
</svg>
