<svg width="24" height="24" viewBox="0 0 24 24" fill="none" xmlns="http://www.w3.org/2000/svg">
<path opacity="0.4" fill-rule="evenodd" clip-rule="evenodd" d="M12 2.25C4.802 2.25 2.25 4.802 2.25 12C2.25 19.198 4.802 21.75 12 21.75C19.198 21.75 21.75 19.198 21.75 12C21.75 4.802 19.198 2.25 12 2.25Z" fill="#01A657"/>
<path d="M11.3412 14.9033L16.0912 10.1573C16.3842 9.86433 16.3842 9.38933 16.0912 9.09633C15.7982 8.80433 15.3232 8.80333 15.0302 9.09633L10.8112 13.3123L8.9702 11.4693C8.6782 11.1783 8.2032 11.1763 7.9092 11.4693C7.6162 11.7623 7.6162 12.2373 7.9092 12.5303L10.2802 14.9033C10.4212 15.0443 10.6122 15.1233 10.8112 15.1233C11.0102 15.1233 11.2002 15.0443 11.3412 14.9033Z" fill="#01A657"/>
</svg>
