<svg width="24" height="24" viewBox="0 0 24 24" fill="none" xmlns="http://www.w3.org/2000/svg">
<path opacity="0.4" fill-rule="evenodd" clip-rule="evenodd" d="M4.57336 4.57691C6.55436 2.59591 9.19136 1.50391 11.9974 1.50391C14.8034 1.50391 17.4404 2.59591 19.4214 4.57691C22.5234 7.67991 23.3694 12.4419 21.5444 16.3759C21.5114 16.5379 21.6004 17.1969 21.6644 17.6789C21.9064 19.4849 22.0304 20.8109 21.4174 21.4249C20.8054 22.0379 19.4804 21.9139 17.6744 21.6709C17.1924 21.6069 16.5254 21.5209 16.4214 21.5319C15.0154 22.1829 13.5124 22.4979 12.0204 22.4979C9.28236 22.4979 6.58036 21.4359 4.57336 19.4279C0.480364 15.3329 0.479364 8.67091 4.57336 4.57691Z" fill="#01A657"/>
<path d="M9.05453 12.418C9.05453 12.971 8.60153 13.418 8.04953 13.418C7.49753 13.418 7.04953 12.971 7.04953 12.418C7.04953 11.865 7.49753 11.418 8.04953 11.418H8.05853C8.61153 11.418 9.05453 11.865 9.05453 12.418Z" fill="#01A657"/>
<path d="M13.0635 12.418C13.0635 12.971 12.6115 13.418 12.0585 13.418C11.5065 13.418 11.0585 12.971 11.0585 12.418C11.0585 11.865 11.5065 11.418 12.0585 11.418H12.0675C12.6195 11.418 13.0635 11.865 13.0635 12.418Z" fill="#01A657"/>
<path d="M17.0715 12.418C17.0715 12.971 16.6195 13.418 16.0675 13.418C15.5155 13.418 15.0675 12.971 15.0675 12.418C15.0675 11.865 15.5155 11.418 16.0675 11.418H16.0765C16.6295 11.418 17.0715 11.865 17.0715 12.418Z" fill="#01A657"/>
</svg>
