<svg width="24" height="24" viewBox="0 0 24 24" fill="none" xmlns="http://www.w3.org/2000/svg">
<path fill-rule="evenodd" clip-rule="evenodd" d="M12 2.5C12.0002 2.5 12.0003 2.5 12.0005 2.5C13.6169 2.5 14.2592 4.12389 14.8268 5.55888L14.8285 5.563C15.1185 6.297 15.4185 7.056 15.8005 7.452C16.1759 7.83942 17.0692 7.88464 17.9348 7.92846L17.9455 7.929L17.9476 7.92911C19.3282 7.99809 21.0447 8.08385 21.4315 9.729C21.7984 11.2908 20.6518 12.2357 19.6399 13.0697L19.6395 13.07C18.9475 13.64 18.2935 14.18 18.1485 14.84C18.0076 15.4803 18.219 16.3071 18.4238 17.1082L18.4245 17.111L18.4253 17.1143C18.7771 18.4925 19.1754 20.0528 17.8415 21.059C17.4245 21.374 17.0015 21.499 16.5835 21.499C15.6785 21.499 14.7965 20.915 14.0415 20.415L14.0357 20.4112C13.3385 19.9504 12.6178 19.474 12.0005 19.474C12.0003 19.474 12.0002 19.474 12 19.474V2.5Z" fill="#01A657"/>
<path opacity="0.4" fill-rule="evenodd" clip-rule="evenodd" d="M12 2.5C11.9998 2.5 11.9997 2.5 11.9995 2.5C10.3831 2.5 9.74076 4.12389 9.17316 5.55888L9.17153 5.563C8.88153 6.297 8.58153 7.056 8.19953 7.452C7.82406 7.83942 6.93084 7.88464 6.06515 7.92846L6.05453 7.929L6.0524 7.92911C4.67176 7.99809 2.95533 8.08385 2.56853 9.729C2.20158 11.2908 3.34822 12.2357 4.36011 13.0697L4.36053 13.07C5.05253 13.64 5.70653 14.18 5.85153 14.84C5.99237 15.4803 5.78102 16.3071 5.57624 17.1082L5.57553 17.111L5.57468 17.1143C5.22288 18.4925 4.82461 20.0528 6.15853 21.059C6.57553 21.374 6.99853 21.499 7.41653 21.499C8.32153 21.499 9.20353 20.915 9.95853 20.415L9.96433 20.4112C10.6615 19.9504 11.3822 19.474 11.9995 19.474C11.9997 19.474 11.9998 19.474 12 19.474V2.5Z" fill="#01A657"/>
</svg>
