<svg width="24" height="25" viewBox="0 0 24 25" fill="none" xmlns="http://www.w3.org/2000/svg">
<path opacity="0.4" fill-rule="evenodd" clip-rule="evenodd" d="M12.0001 2.26367C19.5591 2.26367 22.2371 4.94167 22.2371 12.5007C22.2371 20.0597 19.5591 22.7377 12.0001 22.7377C4.44206 22.7377 1.76306 20.0597 1.76306 12.5007C1.76306 4.94167 4.44206 2.26367 12.0001 2.26367Z" fill="#01A657"/>
<path d="M11.2504 13.2498H8.42237C8.00837 13.2498 7.67237 12.9138 7.67237 12.4998C7.67237 12.0858 8.00837 11.7498 8.42237 11.7498H11.2504V8.92578C11.2504 8.51178 11.5864 8.17578 12.0004 8.17578C12.4144 8.17578 12.7504 8.51178 12.7504 8.92578V11.7498H15.5784C15.9924 11.7498 16.3284 12.0858 16.3284 12.4998C16.3284 12.9138 15.9924 13.2498 15.5784 13.2498H12.7504V16.0738C12.7504 16.4878 12.4144 16.8238 12.0004 16.8238C11.5864 16.8238 11.2504 16.4878 11.2504 16.0738V13.2498Z" fill="#01A657"/>
</svg>
