<svg width="24" height="24" viewBox="0 0 24 24" fill="none" xmlns="http://www.w3.org/2000/svg">
<path opacity="0.4" fill-rule="evenodd" clip-rule="evenodd" d="M11.998 4.19727C17.4 4.19727 21.75 8.46527 21.75 11.9993C21.75 15.5333 17.4 19.8013 11.998 19.8013C6.596 19.8013 2.246 15.5333 2.246 11.9993C2.246 8.46527 6.596 4.19727 11.998 4.19727Z" fill="#01A657"/>
<path fill-rule="evenodd" clip-rule="evenodd" d="M11.9982 15.9119C14.1552 15.9119 15.9102 14.1569 15.9102 11.9999C15.9102 9.84289 14.1552 8.08789 11.9982 8.08789C9.84116 8.08789 8.08616 9.84289 8.08616 11.9999C8.08616 14.1569 9.84116 15.9119 11.9982 15.9119ZM14.4102 11.9996C14.4102 10.6696 13.3282 9.5876 11.9982 9.5876C10.6682 9.5876 9.58616 10.6696 9.58616 11.9996C9.58616 13.3296 10.6682 14.4116 11.9982 14.4116C13.3282 14.4116 14.4102 13.3296 14.4102 11.9996Z" fill="#01A657"/>
</svg>
