<svg width="24" height="24" viewBox="0 0 24 24" fill="none" xmlns="http://www.w3.org/2000/svg">
<path opacity="0.4" fill-rule="evenodd" clip-rule="evenodd" d="M12.0013 1.76367C19.5603 1.76367 22.2383 4.44167 22.2383 12.0007C22.2383 19.5597 19.5603 22.2377 12.0013 22.2377C4.44328 22.2377 1.76428 19.5597 1.76428 12.0007C1.76428 4.44167 4.44328 1.76367 12.0013 1.76367Z" fill="#01A657"/>
<path d="M11.2501 12.7498H8.42212C8.00812 12.7498 7.67212 12.4138 7.67212 11.9998C7.67212 11.5858 8.00812 11.2498 8.42212 11.2498H11.2501V8.42578C11.2501 8.01178 11.5861 7.67578 12.0001 7.67578C12.4141 7.67578 12.7501 8.01178 12.7501 8.42578V11.2498H15.5781C15.9921 11.2498 16.3281 11.5858 16.3281 11.9998C16.3281 12.4138 15.9921 12.7498 15.5781 12.7498H12.7501V15.5738C12.7501 15.9878 12.4141 16.3238 12.0001 16.3238C11.5861 16.3238 11.2501 15.9878 11.2501 15.5738V12.7498Z" fill="#01A657"/>
</svg>
