<svg width="200" height="28" viewBox="0 0 200 28" fill="none" xmlns="http://www.w3.org/2000/svg">
<mask id="path-1-inside-1_8951_1909" fill="white">
<path d="M0 6C0 2.68629 2.68629 0 6 0H194C197.314 0 200 2.68629 200 6V22C200 25.3137 197.314 28 194 28H5.99999C2.68629 28 0 25.3137 0 22V6Z"/>
</mask>
<path d="M0 6C0 2.68629 2.68629 0 6 0H194C197.314 0 200 2.68629 200 6V22C200 25.3137 197.314 28 194 28H5.99999C2.68629 28 0 25.3137 0 22V6Z" fill="#E8EDEC" fill-opacity="0.3"/>
<path d="M0 0H200H0ZM200 28H0H200ZM6 28C1.58172 28 -2 24.4183 -2 20V8C-2 3.58172 1.58172 0 6 0C3.79086 0 2 2.68629 2 6V22C2 25.3137 3.79086 28 6 28ZM200 0V28V0Z" fill="#01A657" mask="url(#path-1-inside-1_8951_1909)"/>
<path d="M129.041 8.828C129.097 9.188 129.141 9.888 129.173 10.928C129.213 11.968 129.233 12.896 129.233 13.712V14.192C129.225 14.312 129.221 14.48 129.221 14.696C129.221 15.072 129.253 15.364 129.317 15.572C129.389 15.772 129.521 15.92 129.713 16.016C129.913 16.112 130.205 16.16 130.589 16.16H130.649L130.685 16.58L130.649 17H130.589C130.005 17 129.557 16.904 129.245 16.712C128.933 16.52 128.721 16.232 128.609 15.848C128.505 15.456 128.461 14.928 128.477 14.264C128.485 13.52 128.469 12.556 128.429 11.372C128.397 10.18 128.349 9.384 128.285 8.984L129.041 8.828ZM132.782 15.188C133.302 15.532 133.758 15.796 134.15 15.98C134.55 16.164 134.862 16.256 135.086 16.256C135.15 16.256 135.222 16.24 135.302 16.208C135.462 16.136 135.582 16.008 135.662 15.824C135.742 15.64 135.782 15.428 135.782 15.188C135.782 14.924 135.734 14.664 135.638 14.408C135.542 14.152 135.406 13.944 135.23 13.784C135.062 13.616 134.866 13.532 134.642 13.532C134.37 13.532 134.098 13.708 133.826 14.06C133.562 14.404 133.25 14.924 132.89 15.62C132.658 16.068 132.358 16.412 131.99 16.652C131.622 16.884 131.206 17 130.742 17H130.526L130.538 16.16H130.766C131.11 16.16 131.422 16.068 131.702 15.884C131.982 15.692 132.214 15.416 132.398 15.056C132.758 14.344 133.114 13.78 133.466 13.364C133.818 12.948 134.214 12.74 134.654 12.74C135.014 12.74 135.33 12.856 135.602 13.088C135.882 13.32 136.094 13.624 136.238 14C136.39 14.368 136.466 14.752 136.466 15.152C136.466 15.552 136.386 15.916 136.226 16.244C136.074 16.564 135.846 16.8 135.542 16.952C135.422 17.016 135.266 17.048 135.074 17.048C134.482 17.048 133.602 16.66 132.434 15.884L132.782 15.188ZM143.785 12.788C142.841 13.58 142.369 14.348 142.369 15.092C142.369 15.428 142.485 15.696 142.717 15.896C142.949 16.088 143.285 16.184 143.725 16.184C144.101 16.184 144.417 16.092 144.673 15.908C144.929 15.716 145.065 15.472 145.081 15.176C145.113 14.68 144.933 14.208 144.541 13.76C144.157 13.312 143.493 12.804 142.549 12.236L142.969 11.552C143.945 12.136 144.661 12.7 145.117 13.244C145.573 13.788 145.801 14.368 145.801 14.984C145.801 15.104 145.797 15.196 145.789 15.26C145.733 15.78 145.505 16.204 145.105 16.532C144.713 16.86 144.241 17.024 143.689 17.024C143.065 17.024 142.569 16.852 142.201 16.508C141.833 16.156 141.649 15.716 141.649 15.188C141.649 14.988 141.669 14.812 141.709 14.66C141.901 13.844 142.437 13.036 143.317 12.236L143.785 12.788ZM145.434 19.676C145.946 19.516 146.41 19.288 146.826 18.992C147.25 18.704 147.582 18.388 147.822 18.044C148.062 17.7 148.182 17.372 148.182 17.06C148.182 16.628 147.978 15.612 147.57 14.012L148.302 13.748C148.47 14.324 148.614 14.928 148.734 15.56C148.854 16.184 148.914 16.684 148.914 17.06C148.914 17.516 148.774 17.964 148.494 18.404C148.214 18.852 147.83 19.252 147.342 19.604C146.862 19.956 146.326 20.228 145.734 20.42L145.434 19.676ZM150.991 8.828C151.047 9.188 151.091 9.888 151.123 10.928C151.163 11.968 151.183 12.896 151.183 13.712V14.192C151.175 14.312 151.171 14.48 151.171 14.696C151.171 15.072 151.203 15.364 151.267 15.572C151.339 15.772 151.471 15.92 151.663 16.016C151.863 16.112 152.155 16.16 152.539 16.16H152.599L152.635 16.58L152.599 17H152.539C151.955 17 151.507 16.904 151.195 16.712C150.883 16.52 150.671 16.232 150.559 15.848C150.455 15.456 150.411 14.928 150.427 14.264C150.435 13.52 150.419 12.556 150.379 11.372C150.347 10.18 150.299 9.384 150.235 8.984L150.991 8.828ZM152.475 16.16H153.099C153.771 16.16 154.259 16.064 154.563 15.872C154.875 15.68 155.031 15.384 155.031 14.984C155.023 14.712 154.943 14.332 154.791 13.844C154.639 13.348 154.503 12.968 154.383 12.704L155.067 12.344C155.219 12.664 155.375 13.096 155.535 13.64C155.695 14.184 155.775 14.644 155.775 15.02C155.767 15.676 155.531 16.172 155.067 16.508C154.611 16.836 153.955 17 153.099 17H152.475V16.16ZM152.607 18.944L153.363 18.188L154.119 18.944L153.363 19.7L152.607 18.944ZM155.746 19.676C156.258 19.516 156.722 19.288 157.138 18.992C157.562 18.704 157.894 18.388 158.134 18.044C158.374 17.7 158.494 17.372 158.494 17.06C158.494 16.628 158.29 15.612 157.882 14.012L158.614 13.748C158.782 14.324 158.926 14.928 159.046 15.56C159.166 16.184 159.226 16.684 159.226 17.06C159.226 17.516 159.086 17.964 158.806 18.404C158.526 18.852 158.142 19.252 157.654 19.604C157.174 19.956 156.638 20.228 156.046 20.42L155.746 19.676ZM160.439 15.608C160.743 15.792 161.043 15.94 161.339 16.052C161.643 16.164 162.047 16.22 162.551 16.22C163.015 16.22 163.395 16.156 163.691 16.028C163.995 15.9 164.191 15.748 164.279 15.572C164.327 15.46 164.351 15.344 164.351 15.224C164.351 14.824 164.139 14.336 163.715 13.76C163.299 13.184 162.675 12.58 161.843 11.948L162.275 11.216C163.155 11.888 163.839 12.576 164.327 13.28C164.815 13.976 165.059 14.62 165.059 15.212C165.059 15.492 165.007 15.74 164.903 15.956C164.751 16.3 164.467 16.568 164.051 16.76C163.643 16.944 163.163 17.036 162.611 17.036C161.995 17.036 161.475 16.956 161.051 16.796C160.635 16.628 160.307 16.44 160.067 16.232L160.439 15.608Z" fill="black"/>
<path opacity="0.4" fill-rule="evenodd" clip-rule="evenodd" d="M188.766 8.61944C188.311 8.16419 185.815 6.55469 183 6.55469C180.183 6.55469 177.688 8.16419 177.234 8.61944C176.798 9.05594 176.805 9.39569 176.838 11.2812C176.852 12.0462 176.871 13.0872 176.871 14.5257C176.871 19.4157 180.862 21.4459 183 21.4459C185.137 21.4459 189.129 19.4157 189.129 14.5257C189.129 13.0864 189.148 12.0447 189.162 11.2804C189.196 9.39494 189.202 9.05594 188.766 8.61944Z" fill="#01A657"/>
<path d="M182.868 15.5918L185.791 12.6676C186.011 12.4478 186.011 12.0916 185.791 11.8718C185.572 11.6521 185.215 11.6521 184.996 11.8718L182.47 14.3986L181.449 13.3756C181.229 13.1558 180.873 13.1558 180.654 13.3756C180.433 13.5946 180.433 13.9516 180.653 14.1713L182.072 15.5918C182.178 15.6976 182.321 15.7568 182.47 15.7568C182.62 15.7568 182.762 15.6976 182.868 15.5918Z" fill="#01A657"/>
</svg>
