<svg width="366" height="271" viewBox="0 0 366 271" fill="none" xmlns="http://www.w3.org/2000/svg">
<path d="M274.27 213.91V253.34H313.7V213.91H274.27ZM277.27 250.36V216.89H310.73V250.36H277.27Z" fill="#EBEBEB"/>
<path d="M292.36 145H177V260.36H292.36V145Z" fill="#455A64"/>
<path d="M199.23 260.359H263.41C263.68 257.909 253.85 205.759 242.31 188.989C241 187.089 229.77 185.699 225.65 190.429C203.83 215.499 198.71 259.759 199.23 260.359Z" fill="#263238"/>
<path d="M243.83 193.318C245.65 198.038 252.52 214.578 256.26 226.458C258.76 234.458 259.72 241.108 260.26 242.868C260.26 242.868 241.26 236.788 237.04 236.778C230.47 236.778 219.93 250.478 222.51 252.198C226.58 254.908 245.95 264.098 261.43 266.988C269.84 268.558 285.68 257.868 284.43 249.368C282.68 237.438 261.12 205.998 252.92 197.078C248.67 192.448 241.6 187.568 243.83 193.318Z" fill="#EB9481"/>
<path d="M285.601 251.889C285.201 260.479 274.451 267.719 268.221 268.099C257.471 268.749 225.221 259.359 225.221 259.359L237.751 235.199C237.751 235.199 259.751 242.649 260.261 242.859C260.071 242.219 254.661 221.859 252.261 215.169C252.131 214.799 251.981 214.419 251.841 214.019C251.141 212.149 250.191 209.689 249.131 207.019C248.551 205.539 247.931 204.019 247.321 202.479C244.671 195.899 242.091 189.629 242.091 189.629C245.781 190.239 249.431 192.179 255.421 198.469C261.411 204.759 286.251 237.719 285.601 251.889Z" fill="#263238"/>
<path d="M233.6 254.129C234.5 252.419 235.41 250.719 236.3 249.009C237.19 247.299 238.08 245.669 238.98 244.009C239.951 242.308 240.835 240.559 241.63 238.769C240.53 240.287 239.528 241.874 238.63 243.519C237.67 245.186 236.73 246.873 235.81 248.579C234.89 250.286 234.007 251.953 233.16 253.579C232.23 255.308 231.421 257.099 230.74 258.939C230.74 259.019 230.81 259.089 230.86 259.019C231.863 257.441 232.777 255.808 233.6 254.129Z" fill="#37474F"/>
<path d="M266.971 246.431L260.271 242.871C260.081 242.231 254.671 221.871 252.271 215.181C252.141 214.811 251.991 214.431 251.851 214.031C251.151 212.161 250.201 209.701 249.141 207.031L266.971 246.431Z" fill="#37474F"/>
<path d="M272.511 249.378C270.633 247.995 268.669 246.732 266.631 245.598C265.631 245.028 264.631 244.498 263.531 244.028C262.431 243.558 261.211 243.158 260.091 242.648C260.001 242.648 259.941 242.748 260.031 242.778C261.031 243.258 262.031 243.918 263.081 244.468C264.131 245.018 265.181 245.598 266.241 246.148C268.331 247.218 270.381 248.358 272.461 249.458C272.511 249.488 272.601 249.408 272.511 249.378Z" fill="#37474F"/>
<path d="M267.601 244.17C265.911 244.17 255.761 241.48 254.281 242.88C245.281 251.37 242.421 249.66 240.501 250.77C225.651 259.31 205.811 269.35 198.731 269.41C188.001 269.5 183.731 260.49 185.511 251.98C189.041 235.15 211.731 202.34 222.001 193.62C227.451 189 227.001 195.97 224.761 203.53C223.441 207.97 221.131 214.53 218.761 221.04C216.671 226.81 211.141 241.55 211.041 241.9C211.041 241.9 211.041 241.9 211.151 241.9C211.631 241.81 224.331 235.83 237.101 232.54C241.601 231.38 250.971 229.73 254.331 231.23C256.331 232.12 256.331 233.32 256.331 233.32C257.546 233.312 258.722 233.754 259.631 234.56C260.32 235.149 260.827 235.923 261.091 236.79C262.087 236.932 263.018 237.371 263.761 238.05C264.401 238.739 264.813 239.609 264.941 240.54C267.391 241.25 267.601 244.17 267.601 244.17Z" fill="#EB9481"/>
<path d="M252.601 233.079C251.257 233.119 249.919 233.269 248.601 233.529C248.511 233.529 248.511 233.679 248.601 233.669C249.901 233.529 251.231 233.499 252.541 233.459C253.851 233.419 255.171 233.389 256.481 233.409C255.2 233.18 253.901 233.069 252.601 233.079Z" fill="#263238"/>
<path d="M261.13 236.78C258.843 236.048 256.421 235.833 254.04 236.15C254.025 236.155 254.012 236.165 254.003 236.179C253.993 236.192 253.988 236.208 253.988 236.225C253.988 236.241 253.993 236.257 254.003 236.27C254.012 236.284 254.025 236.294 254.04 236.3C256.417 236.171 258.8 236.35 261.13 236.83C261.13 236.83 261.16 236.79 261.13 236.78Z" fill="#263238"/>
<path d="M265 240.541C262.878 239.64 260.585 239.21 258.28 239.281C258.19 239.281 258.16 239.411 258.28 239.421C260.545 239.632 262.787 240.04 264.98 240.641C265.02 240.651 265.05 240.561 265 240.541Z" fill="#263238"/>
<path d="M236.531 232.758C235.41 232.94 234.302 233.187 233.211 233.498C232.041 233.788 230.881 234.098 229.751 234.498C227.476 235.256 225.246 236.141 223.071 237.148C223.06 237.144 223.048 237.143 223.037 237.144C223.026 237.145 223.015 237.149 223.005 237.155C222.996 237.162 222.988 237.171 222.983 237.181C222.977 237.191 222.975 237.202 222.975 237.213C222.975 237.225 222.977 237.236 222.983 237.246C222.988 237.256 222.996 237.265 223.005 237.271C223.015 237.278 223.026 237.282 223.037 237.283C223.048 237.284 223.06 237.283 223.071 237.278C225.291 236.498 227.541 235.768 229.791 235.068L233.091 233.988C234.221 233.618 235.401 233.338 236.511 232.918C236.601 232.868 236.601 232.748 236.531 232.758Z" fill="#263238"/>
<path d="M227.6 235.169C228.696 234.739 229.848 234.47 231.02 234.369L244.38 256.929C244.38 256.929 207.57 270.179 200.02 270.929C197.974 271.097 195.914 270.845 193.968 270.188C192.022 269.532 190.231 268.485 188.705 267.111C187.178 265.737 185.949 264.066 185.092 262.2C184.235 260.333 183.768 258.312 183.72 256.259C183.51 242.929 205.26 210.909 216.2 198.519C221.2 192.849 227.05 188.729 228.54 189.659C230.3 190.759 227.11 197.889 225.42 203.209C222.31 213.039 211.16 241.939 211.16 241.939C211.16 241.939 224.84 236.079 227.6 235.169Z" fill="#263238"/>
<path d="M230.941 234.349C228.861 234.469 219.941 237.589 215.501 239.479C211.114 241.341 206.912 243.611 202.951 246.259C200.721 247.769 198.591 249.409 196.501 251.109C196.493 251.114 196.486 251.121 196.481 251.129C196.476 251.137 196.472 251.146 196.47 251.155C196.468 251.164 196.468 251.174 196.47 251.183C196.472 251.192 196.476 251.201 196.481 251.209C196.486 251.217 196.493 251.224 196.501 251.229C196.509 251.234 196.517 251.238 196.527 251.24C196.536 251.242 196.546 251.242 196.555 251.24C196.564 251.238 196.573 251.234 196.581 251.229C204.405 245.819 212.786 241.263 221.581 237.639C224.091 236.639 228.411 235.199 230.861 234.559C231.521 234.379 231.001 234.339 230.941 234.349Z" fill="#37474F"/>
<path d="M222.111 214.619C221.551 215.519 220.981 216.419 220.501 217.369L220.441 217.509C221.151 215.339 221.831 213.169 222.441 210.979C222.441 210.849 222.261 210.779 222.211 210.909C219.051 218.909 216.111 227.019 213.261 235.149C212.471 237.429 211.771 239.719 211.051 242.019C211.051 242.099 211.151 242.139 211.181 242.019C212.051 240.019 212.931 238.099 213.721 236.089C214.511 234.079 215.261 232.089 216.001 230.089C217.334 226.562 218.587 223.012 219.761 219.439C220.131 218.819 220.511 218.189 220.871 217.559C221.381 216.629 221.811 215.659 222.241 214.689C222.321 214.589 222.171 214.519 222.111 214.619Z" fill="#37474F"/>
<path d="M235.461 252.012C234.461 250.352 233.521 248.682 232.541 247.012C231.561 245.342 230.651 243.742 229.711 242.102C228.78 240.384 227.762 238.715 226.661 237.102C226.661 237.102 226.591 237.102 226.601 237.102C227.311 238.82 228.133 240.49 229.061 242.102C229.971 243.802 230.911 245.492 231.861 247.172C232.811 248.852 233.751 250.452 234.721 252.072C235.702 253.777 236.798 255.414 238.001 256.972C238.051 257.032 238.161 256.972 238.131 256.902C237.332 255.223 236.441 253.591 235.461 252.012Z" fill="#37474F"/>
<path d="M244.949 256.978C243.839 254.788 242.119 252.648 240.839 250.568C240.839 250.488 240.679 250.568 240.719 250.648C241.879 252.598 242.939 254.698 244.049 256.648C238.999 258.738 233.629 260.598 228.469 262.428C223.309 264.258 217.859 266.078 212.469 267.638C209.469 268.508 206.469 269.448 203.399 270.248C203.209 270.248 203.259 270.448 203.449 270.408C208.915 269.324 214.308 267.904 219.599 266.158C224.989 264.448 230.319 262.538 235.599 260.558C238.539 259.438 245.039 257.148 244.949 256.978Z" fill="#37474F"/>
<path d="M236.191 232.769C229.908 234.469 223.722 236.508 217.66 238.879L217.39 238.979C214.23 240.219 212.281 241.139 211.811 241.219L211.71 241.159C211.405 240.932 211.068 240.75 210.71 240.619C209.82 240.299 201.271 239.229 201.491 236.619C201.711 234.009 205.181 234.169 205.691 234.199C205.141 234.079 200.5 232.989 202.01 230.679C203.08 229.029 207.67 229.269 208.14 229.289C207.67 229.139 203.401 227.749 204.871 225.379C205.921 223.689 211.05 223.909 211.64 224.009C211.16 223.829 207.36 223.189 209.14 221.149C210.37 219.729 220.03 221.149 224.33 223.319C230.73 226.459 236.191 232.769 236.191 232.769Z" fill="#EB9481"/>
<path d="M217.659 238.88L217.389 238.98C213.912 236.657 210 235.061 205.889 234.29C205.609 234.29 205.589 234.1 205.889 234.11C210.206 234.467 214.312 236.131 217.659 238.88Z" fill="#263238"/>
<path d="M208.37 229.42C214.45 230.62 217.2 231.97 222.44 235.29C222.51 235.34 222.59 235.23 222.52 235.18C217.64 231.53 214.61 229.72 208.42 229.26C208.14 229.24 208.09 229.36 208.37 229.42Z" fill="#263238"/>
<path d="M211.85 224.079C217.69 225.639 220.77 226.979 225.47 230.789C225.58 230.879 225.72 230.789 225.61 230.639C221.998 226.827 217.136 224.442 211.91 223.919C211.53 223.879 211.48 223.989 211.85 224.079Z" fill="#263238"/>
<path d="M241.09 200.671C237.63 201.911 230.91 197.181 228 193.051C227.81 192.761 227.91 189.531 227.85 185.601C227.85 183.211 227.69 180.601 227.41 178.141L242.99 180.141C242.471 183.262 242.334 186.436 242.58 189.591C242.624 189.93 242.698 190.264 242.8 190.591C242.8 190.591 242.8 190.691 242.8 190.751C243.36 192.541 244.43 199.471 241.09 200.671Z" fill="#EB9481"/>
<path d="M242.84 190.691C242.875 190.802 242.902 190.916 242.92 191.031C233.6 190.631 230.05 186.531 227.75 182.601C227.68 181.101 227.58 179.601 227.41 178.141L242.99 180.141C242.466 183.262 242.328 186.436 242.58 189.591C242.619 189.931 242.693 190.266 242.8 190.591C242.8 190.591 242.82 190.631 242.84 190.691Z" fill="#263238"/>
<path d="M221.029 161.799C220.179 167.389 225.289 182.429 229.599 185.319C235.859 189.509 244.959 188.649 248.229 181.389C251.399 174.389 244.399 154.869 239.689 152.389C232.749 148.669 222.279 153.529 221.029 161.799Z" fill="#EB9481"/>
<path d="M235.43 168.559C235.43 168.559 235.37 168.639 235.43 168.679C235.8 169.679 236.05 170.899 235.25 171.539C235.25 171.539 235.25 171.609 235.25 171.589C236.3 171.079 235.95 169.459 235.43 168.559Z" fill="#263238"/>
<path d="M234.169 167.809C232.499 168.229 233.459 171.539 235.019 171.149C236.579 170.759 235.599 167.449 234.169 167.809Z" fill="#263238"/>
<path d="M241.68 166.68C241.68 166.68 241.78 166.68 241.79 166.75C242.06 167.75 242.54 168.93 243.56 169C243.56 169 243.56 169.05 243.56 169.06C242.39 169.23 241.77 167.71 241.68 166.68Z" fill="#263238"/>
<path d="M242.29 165.339C243.91 164.739 245 168.009 243.5 168.569C242 169.129 240.94 165.849 242.29 165.339Z" fill="#263238"/>
<path d="M232.42 166.672C232.823 166.419 233.211 166.142 233.58 165.842C234.01 165.522 234.4 165.312 234.58 164.782C234.618 164.624 234.603 164.459 234.538 164.311C234.473 164.163 234.362 164.04 234.22 163.962C233.918 163.854 233.592 163.828 233.276 163.885C232.96 163.943 232.665 164.083 232.42 164.292C231.858 164.644 231.448 165.193 231.27 165.832C231.234 165.98 231.242 166.135 231.295 166.279C231.347 166.422 231.441 166.547 231.564 166.637C231.687 166.727 231.834 166.778 231.987 166.784C232.139 166.791 232.29 166.751 232.42 166.672Z" fill="#263238"/>
<path d="M243.09 163.302C242.617 163.326 242.143 163.326 241.67 163.302C241.171 163.383 240.66 163.303 240.21 163.072C240.087 162.968 240 162.827 239.964 162.67C239.928 162.513 239.944 162.349 240.01 162.202C240.182 161.929 240.424 161.709 240.711 161.563C240.998 161.417 241.319 161.351 241.64 161.372C242.3 161.308 242.96 161.494 243.49 161.892C243.62 161.985 243.717 162.117 243.77 162.268C243.822 162.419 243.827 162.583 243.783 162.736C243.74 162.89 243.65 163.027 243.526 163.128C243.402 163.229 243.25 163.29 243.09 163.302Z" fill="#263238"/>
<path d="M238 174.699C238.379 175.027 238.821 175.274 239.299 175.426C239.777 175.577 240.281 175.629 240.78 175.579C241.219 175.536 241.65 175.431 242.06 175.269L242.29 175.169L242.51 175.069C242.561 175.04 242.601 174.998 242.626 174.946C242.651 174.894 242.66 174.835 242.65 174.779C242.654 174.745 242.654 174.712 242.65 174.679V174.589C242.44 173.799 242.02 172.589 242.02 172.589C242.35 172.659 244.02 172.889 243.87 172.479C242.742 168.939 241.254 165.525 239.43 162.289C239.43 162.179 239.21 162.289 239.25 162.369C240.25 165.649 241.87 168.719 242.96 171.999C242.363 171.914 241.757 171.914 241.16 171.999C241.06 172.059 242.02 174.259 242.09 174.629C241.463 174.884 240.79 175.01 240.113 174.998C239.436 174.986 238.768 174.837 238.15 174.559C237.97 174.539 237.91 174.639 238 174.699Z" fill="#263238"/>
<path opacity="0.2" d="M222.67 172.401C223.55 171.671 224.67 167.971 225.19 166.401C225.71 164.831 224.13 158.401 223.61 156.461C222.258 157.961 221.365 159.818 221.04 161.811C220.66 164.181 221.39 168.311 222.67 172.401Z" fill="#263238"/>
<path d="M237.4 158.349C237.044 159.148 236.49 159.843 235.79 160.368C235.09 160.893 234.267 161.231 233.4 161.349C232.512 161.465 231.608 161.352 230.775 161.021C229.942 160.69 229.208 160.153 228.64 159.459C228.64 159.409 228.55 159.459 228.58 159.509C229.109 160.292 229.841 160.915 230.697 161.313C231.553 161.712 232.501 161.869 233.44 161.769C234.36 161.622 235.224 161.236 235.947 160.65C236.67 160.064 237.227 159.298 237.56 158.429C237.54 158.329 237.43 158.279 237.4 158.349Z" fill="#263238"/>
<path d="M228.76 147.609C227.455 147.986 226.266 148.685 225.303 149.643C224.34 150.601 223.634 151.786 223.25 153.089C222.98 154.369 223.157 155.703 223.75 156.869C223.75 156.869 223.87 156.869 223.85 156.869C223.478 155.794 223.402 154.638 223.629 153.523C223.856 152.408 224.377 151.374 225.14 150.529C225.963 149.571 226.998 148.816 228.162 148.325C229.327 147.834 230.589 147.62 231.85 147.699C233.073 147.756 234.238 148.241 235.14 149.069C235.23 149.159 235.42 149.069 235.34 148.939C234.05 147.329 231.34 146.799 228.76 147.609Z" fill="#263238"/>
<path d="M247.21 149.081C246.336 147.798 245.036 146.866 243.54 146.451C241.47 145.871 239.54 146.601 237.6 147.371C237.6 147.371 237.6 147.471 237.6 147.451C239.18 146.675 240.951 146.372 242.7 146.581C244.163 146.868 245.485 147.644 246.45 148.781C247.205 149.71 247.676 150.836 247.807 152.026C247.938 153.215 247.723 154.418 247.188 155.488C246.652 156.558 245.82 157.452 244.79 158.061C243.759 158.67 242.575 158.968 241.38 158.921C241.32 158.921 241.3 159.031 241.38 159.031C242.58 159.114 243.78 158.859 244.843 158.295C245.907 157.73 246.79 156.879 247.394 155.838C247.998 154.797 248.298 153.607 248.26 152.404C248.222 151.201 247.848 150.033 247.18 149.031L247.21 149.081Z" fill="#263238"/>
<path d="M220.989 164.999C220.989 164.999 216.809 160.629 218.249 156.999C219.069 154.949 223.419 153.999 223.419 153.999C223.745 152.995 224.266 152.065 224.952 151.264C225.639 150.462 226.477 149.805 227.419 149.329C230.769 147.489 235.629 148.329 235.629 148.329C235.629 148.329 238.489 145.419 242.199 146.329C247.369 147.619 248.729 154.559 244.859 157.999C242.149 160.419 237.089 158.839 237.089 158.839C236.689 159.019 233.199 162.739 228.959 159.839C228.959 159.839 227.029 162.839 224.249 161.919C224.091 162.706 223.693 163.426 223.109 163.977C222.525 164.529 221.784 164.886 220.989 164.999Z" fill="#263238"/>
<path d="M226.19 173.912C226.19 173.912 221.87 169.512 219.82 171.132C217.77 172.752 221.6 179.542 224.42 180.082C224.776 180.178 225.148 180.201 225.513 180.149C225.879 180.098 226.23 179.972 226.545 179.78C226.86 179.588 227.133 179.335 227.347 179.034C227.561 178.733 227.712 178.392 227.79 178.032L226.19 173.912Z" fill="#EB9481"/>
<path d="M220.961 173.082V173.152C222.961 173.602 224.221 175.152 225.211 176.832C225.068 176.667 224.892 176.534 224.693 176.443C224.495 176.353 224.279 176.306 224.061 176.306C223.843 176.306 223.627 176.353 223.429 176.443C223.23 176.534 223.054 176.667 222.911 176.832C222.911 176.832 222.911 176.942 222.971 176.922C223.282 176.763 223.633 176.704 223.978 176.753C224.324 176.801 224.646 176.954 224.901 177.192C225.325 177.594 225.7 178.043 226.021 178.532C226.141 178.682 226.421 178.532 226.331 178.362C225.951 175.872 223.601 172.862 220.961 173.082Z" fill="#263238"/>
<path d="M242.791 190.358L239.481 199.528L227.881 188.578L224.881 192.348C224.881 192.348 236.491 209.998 236.521 209.178L239.931 201.288L245.481 206.478L244.481 192.968L242.791 190.358Z" fill="#EBEBEB"/>
<path d="M245.369 199.771C245.139 197.551 244.969 195.301 244.629 193.091C244.629 193.011 244.499 192.981 244.479 193.091C244.119 195.261 245.049 203.771 245.119 205.811C244.889 205.591 239.989 201.261 239.939 201.331C239.189 202.591 236.679 208.331 236.519 208.861C234.679 206.051 227.659 195.861 225.519 193.241C225.506 193.23 225.49 193.223 225.473 193.222C225.456 193.221 225.439 193.225 225.425 193.233C225.41 193.242 225.399 193.256 225.393 193.272C225.386 193.287 225.385 193.305 225.389 193.321C227.029 196.321 236.319 210.011 236.449 209.961C237.782 207.249 238.971 204.469 240.009 201.631C240.849 202.581 245.819 207.481 245.829 207.151C245.802 204.685 245.649 202.222 245.369 199.771Z" fill="#263238"/>
<path d="M44 10.0703V49.4503H83.43V10.0703H44ZM47 46.5103V13.0403H80.45V46.5103H47Z" fill="#EBEBEB"/>
<path d="M205.79 0H72.0195V123.19H205.79V0Z" fill="#37474F"/>
<path d="M162.799 61.0886C179.099 77.6086 199.599 112.359 195.799 119.409C191.539 127.259 168.849 104.099 168.929 102.739C168.999 101.739 161.019 80.6086 154.929 65.2586C148.839 49.9086 158.769 56.9986 162.799 61.0886Z" fill="#F7A9A0"/>
<path d="M168.759 102.77C168.069 100.51 157.199 72.6798 154.099 63.8698C150.999 55.0598 153.869 52.3498 162.739 60.4098C171.609 68.4698 191.049 95.4098 195.489 109.7C199.759 123.45 192.669 123.45 183.349 117.12C175.659 111.93 168.759 102.77 168.759 102.77Z" fill="#01A657"/>
<path opacity="0.1" d="M161.201 61.3203C160.989 62.5554 160.458 63.7136 159.661 64.6803C159.762 64.0646 159.947 63.4657 160.211 62.9003C160.47 62.3323 160.803 61.801 161.201 61.3203ZM188.081 99.6003C187.81 100.163 187.624 100.763 187.531 101.38C187.938 100.904 188.275 100.372 188.531 99.8003C188.795 99.235 188.98 98.6361 189.081 98.0203C188.67 98.4939 188.333 99.0265 188.081 99.6003ZM178.471 84.9703C178.201 85.5369 178.016 86.14 177.921 86.7603C178.326 86.2791 178.663 85.744 178.921 85.1703C179.188 84.606 179.373 84.0067 179.471 83.3903C179.066 83.868 178.729 84.3997 178.471 84.9703ZM168.471 81.3003C167.908 81.0291 167.308 80.8437 166.691 80.7503C167.658 81.5477 168.816 82.0785 170.051 82.2903C169.58 81.8882 169.055 81.5548 168.491 81.3003H168.471ZM177.471 96.0903C176.904 95.8205 176.301 95.6352 175.681 95.5403C176.162 95.9456 176.697 96.2821 177.271 96.5403C177.835 96.807 178.434 96.9922 179.051 97.0903C178.579 96.6868 178.054 96.3502 177.491 96.0903H177.471ZM170.151 70.7603C169.588 70.4891 168.988 70.3037 168.371 70.2103C168.847 70.6176 169.379 70.9544 169.951 71.2103C170.514 71.4802 171.114 71.6655 171.731 71.7603C171.261 71.3546 170.736 71.0179 170.171 70.7603H170.151ZM164.571 90.5103C164.783 91.0981 165.075 91.6535 165.441 92.1603C165.319 90.9114 164.874 89.7157 164.151 88.6903C164.215 89.314 164.363 89.9261 164.591 90.5103H164.571ZM183.401 108.13C183.611 108.719 183.904 109.275 184.271 109.78C184.149 108.531 183.704 107.336 182.981 106.31C183.039 106.935 183.187 107.548 183.421 108.13H183.401ZM170.721 105.13L171.051 105.52C171.596 105.319 172.111 105.043 172.581 104.7C171.948 104.763 171.328 104.918 170.741 105.16L170.721 105.13ZM193.031 115.65C193.62 115.441 194.175 115.148 194.681 114.78C194.057 114.832 193.444 114.974 192.861 115.2C192.27 115.406 191.714 115.699 191.211 116.07C191.839 116.025 192.458 115.894 193.051 115.68L193.031 115.65ZM159.561 74.8603C159.153 75.011 158.758 75.195 158.381 75.4103L158.471 75.6603C158.898 75.585 159.317 75.4677 159.721 75.3103C160.315 75.1048 160.874 74.8116 161.381 74.4403C160.763 74.5075 160.158 74.6589 159.581 74.8903L159.561 74.8603Z" fill="black"/>
<path d="M166.811 123.222H104.811C104.811 123.222 114.661 74.6215 138.421 53.5815C141.361 50.9815 147.981 51.5815 152.311 53.7215C153.851 54.4915 159.391 62.2415 160.971 69.5715C162.551 76.9015 166.991 123.002 166.811 123.222Z" fill="#01A657"/>
<path d="M161.55 72.5991C162.04 74.2391 162.44 75.9291 162.77 77.5991C162.765 77.5325 162.765 77.4656 162.77 77.3991C162.77 76.3991 162.77 75.4691 162.9 74.5091C162.9 74.5091 162.99 74.4491 162.99 74.5091C163.117 75.4737 163.144 76.4489 163.07 77.4191C163.07 77.8691 163.02 78.3291 162.98 78.7891C163.11 79.5491 163.23 80.3191 163.32 81.0791C163.51 82.5191 163.99 87.9091 164.03 88.9791C164.03 89.1991 163.78 89.2391 163.72 88.9791C163.43 87.8991 162.66 82.3391 162.41 80.9091C161.927 78.1391 161.593 75.345 161.41 72.5391C161.44 72.5391 161.53 72.5391 161.55 72.5991Z" fill="#263238"/>
<path opacity="0.1" d="M142.35 66.2697C142.249 66.8866 142.06 67.4859 141.79 68.0497C141.538 68.6235 141.201 69.1561 140.79 69.6297C140.893 69.0132 141.081 68.4141 141.35 67.8497C141.605 67.2771 141.941 66.7448 142.35 66.2697ZM133.95 90.9497C133.679 91.5122 133.493 92.1122 133.4 92.7297C134.197 91.763 134.728 90.6048 134.94 89.3697C134.536 89.8464 134.203 90.3784 133.95 90.9497ZM113.82 99.7797C113.55 100.346 113.365 100.949 113.27 101.57C113.675 101.092 114.012 100.56 114.27 99.9897C114.54 99.4231 114.725 98.82 114.82 98.1997C114.415 98.6773 114.078 99.2091 113.82 99.7797ZM128.62 115.61C128.349 116.172 128.163 116.772 128.07 117.39C128.472 116.91 128.808 116.378 129.07 115.81C129.331 115.24 129.516 114.638 129.62 114.02C129.211 114.498 128.874 115.034 128.62 115.61ZM154.45 85.0297C154.185 85.598 153.999 86.2004 153.9 86.8197C154.309 86.3411 154.646 85.8054 154.9 85.2297C155.171 84.6672 155.357 84.0672 155.45 83.4497C155.048 83.9298 154.712 84.4611 154.45 85.0297ZM162.59 101.82C162.32 102.386 162.135 102.989 162.04 103.61C162.445 103.132 162.782 102.6 163.04 102.03C163.31 101.463 163.495 100.86 163.59 100.24C163.187 100.719 162.851 101.251 162.59 101.82ZM142.89 113.92C142.629 114.49 142.444 115.092 142.34 115.71C142.749 115.231 143.086 114.695 143.34 114.12C143.61 113.556 143.799 112.957 143.9 112.34C143.492 112.817 143.152 113.349 142.89 113.92ZM124.02 81.1897C123.751 81.7541 123.563 82.3532 123.46 82.9697C123.871 82.4962 124.208 81.9635 124.46 81.3897C124.73 80.8259 124.919 80.2266 125.02 79.6097C124.611 80.0848 124.275 80.6171 124.02 81.1897ZM147.44 75.6697C146.877 75.3985 146.277 75.2131 145.66 75.1197C146.136 75.527 146.668 75.8638 147.24 76.1197C147.805 76.385 148.404 76.5702 149.02 76.6697C148.544 76.2624 148.012 75.9256 147.44 75.6697ZM151.35 95.6097C150.787 95.3385 150.187 95.1531 149.57 95.0597C150.049 95.4636 150.58 95.8 151.15 96.0597C151.714 96.3264 152.314 96.5116 152.93 96.6097C152.456 96.199 151.924 95.8619 151.35 95.6097ZM114.91 116.74C114.346 116.47 113.747 116.281 113.13 116.18C113.603 116.59 114.136 116.927 114.71 117.18C115.275 117.447 115.874 117.635 116.49 117.74C116.016 117.329 115.484 116.992 114.91 116.74ZM151.99 120.74C151.425 120.474 150.826 120.289 150.21 120.19C150.686 120.597 151.218 120.934 151.79 121.19L152.17 121.36C152.5 121.36 152.82 121.36 153.17 121.42C152.798 121.167 152.403 120.949 151.99 120.77V120.74ZM128.84 100.56C128.276 100.293 127.676 100.108 127.06 100.01C127.533 100.42 128.066 100.757 128.64 101.01C129.204 101.278 129.803 101.463 130.42 101.56C129.94 101.166 129.408 100.84 128.84 100.59V100.56ZM147.44 57.9897C146.876 57.7197 146.277 57.5311 145.66 57.4297C146.136 57.8365 146.668 58.1733 147.24 58.4297C147.807 58.6905 148.405 58.8754 149.02 58.9797C148.544 58.5831 148.011 58.2596 147.44 58.0197V57.9897ZM151.44 67.2397C151.648 67.8293 151.941 68.3852 152.31 68.8897C152.254 68.2666 152.113 67.6542 151.89 67.0697C151.678 66.4818 151.386 65.9264 151.02 65.4197C151.077 66.0543 151.225 66.6775 151.46 67.2697L151.44 67.2397ZM161.35 113.39C161.556 113.98 161.849 114.536 162.22 115.04C162.098 113.791 161.653 112.595 160.93 111.57C160.982 112.193 161.123 112.806 161.35 113.39ZM134.76 78.8597C134.974 79.4467 135.266 80.0018 135.63 80.5097C135.581 79.8865 135.443 79.2735 135.22 78.6897C135.006 78.1027 134.714 77.5476 134.35 77.0397C134.387 77.6598 134.508 78.2721 134.71 78.8597H134.76ZM142.42 99.1597C142.627 99.7494 142.921 100.305 143.29 100.81C143.237 100.186 143.095 99.5734 142.87 98.9897C142.658 98.4019 142.365 97.8465 142 97.3397C142.028 97.9601 142.146 98.5731 142.35 99.1597H142.42ZM106.91 122.97C106.905 123.053 106.905 123.136 106.91 123.22H107.07L106.91 122.97ZM124.35 122.89C124.141 122.298 123.848 121.739 123.48 121.23C123.531 121.854 123.672 122.467 123.9 123.05L123.96 123.22H124.46C124.35 123.11 124.35 123 124.35 122.89ZM120.79 108.58C121.002 109.168 121.295 109.723 121.66 110.23C121.609 109.606 121.468 108.993 121.24 108.41C121.033 107.82 120.739 107.264 120.37 106.76C120.407 107.381 120.532 107.993 120.74 108.58H120.79ZM135.79 60.7997C135.993 61.3912 136.287 61.9477 136.66 62.4497C136.607 61.8262 136.465 61.2134 136.24 60.6297C136.028 60.0419 135.735 59.4865 135.37 58.9797C135.408 59.6015 135.536 60.2146 135.75 60.7997H135.79ZM152.35 107.63C152.938 107.418 153.493 107.125 154 106.76C153.377 106.808 152.764 106.946 152.18 107.17C151.593 107.383 151.038 107.676 150.53 108.04C151.153 107.991 151.766 107.853 152.35 107.63ZM136.11 122.55C136.699 122.34 137.254 122.047 137.76 121.68C136.511 121.802 135.315 122.246 134.29 122.97C134.914 122.918 135.527 122.776 136.11 122.55ZM108.52 109.04C108.52 109.18 108.43 109.32 108.39 109.46C108.689 109.313 108.973 109.139 109.24 108.94C108.998 108.957 108.757 108.99 108.52 109.04ZM122.66 91.8497C123.252 91.6403 123.811 91.3473 124.32 90.9797C123.696 91.0305 123.083 91.172 122.5 91.3997C121.908 91.6091 121.349 91.9021 120.84 92.2697C121.463 92.214 122.075 92.0726 122.66 91.8497ZM135.66 108.27C136.26 108.079 136.829 107.803 137.35 107.45C136.101 107.572 134.905 108.016 133.88 108.74C134.496 108.669 135.099 108.511 135.67 108.27H135.66ZM143.35 84.7197C143.94 84.5061 144.499 84.2134 145.01 83.8497C144.387 83.8971 143.773 84.0353 143.19 84.2597C142.602 84.4712 142.047 84.7641 141.54 85.1297C142.16 85.0811 142.77 84.943 143.35 84.7197ZM159.7 75.3397C160.294 75.1342 160.853 74.841 161.36 74.4697C160.736 74.5205 160.123 74.662 159.54 74.8897C158.95 75.0972 158.394 75.3903 157.89 75.7597C158.524 75.7115 159.147 75.57 159.74 75.3397H159.7ZM130.47 69.8597C131.059 69.65 131.614 69.357 132.12 68.9897C130.871 69.1117 129.675 69.5562 128.65 70.2797C129.287 70.2316 129.914 70.0901 130.51 69.8597H130.47Z" fill="black"/>
<path d="M84.8008 34.4489C84.6708 31.4489 85.2708 17.7789 86.2908 14.0089C87.3108 10.2389 91.0308 -0.411138 94.0008 0.0788617C96.9708 0.568862 96.1308 3.76886 96.1308 3.76886C96.1308 3.76886 98.4108 -0.481134 101.361 0.278866C104.311 1.03887 102.831 5.98887 102.831 5.98887C102.831 5.98887 105.491 1.79886 108.381 2.76886C111.271 3.73886 108.951 8.45887 108.951 8.45887C108.951 8.45887 111.201 4.51887 113.241 6.31887C115.691 8.47887 110.711 15.3189 109.901 19.5289C109.711 20.5289 107.541 39.3589 107.541 39.3589L84.8008 34.4489Z" fill="#F7A9A0"/>
<path d="M109.139 8.08153C105.479 13.0815 104.749 15.9215 104.349 22.0115C104.349 22.1315 104.159 22.1415 104.159 22.0115C104.009 16.0115 104.419 12.3315 108.899 7.88153C109.119 7.68153 109.349 7.85153 109.139 8.08153Z" fill="#263238"/>
<path d="M103.13 5.62889C99.7902 11.1589 98.9702 14.2189 98.0702 20.5589C98.0702 20.6489 97.9102 20.6389 97.9102 20.5589C98.2702 14.2589 98.7602 10.5589 102.82 5.55889C103.01 5.26889 103.28 5.36889 103.13 5.62889Z" fill="#263238"/>
<path d="M96.0904 4.12157C93.2504 9.71157 92.2104 13.0316 92.0904 19.3016C92.083 19.3263 92.0679 19.3481 92.0471 19.3635C92.0264 19.379 92.0013 19.3873 91.9754 19.3873C91.9496 19.3873 91.9244 19.379 91.9037 19.3635C91.883 19.3481 91.8678 19.3263 91.8604 19.3016C91.3204 12.9016 92.5904 8.75157 95.8604 4.04157C96.1404 3.73157 96.2704 3.77157 96.0904 4.12157Z" fill="#263238"/>
<path d="M107.351 43.2912C107.351 43.2912 113.001 37.9612 114.971 35.0812C116.941 32.2012 120.321 18.7312 117.451 17.8312C113.751 16.6812 110.271 24.0612 109.041 27.9012C109.041 27.9012 100.481 25.2212 96.8408 29.9812C93.2008 34.7412 107.351 43.2912 107.351 43.2912Z" fill="#F7A9A0"/>
<path d="M116.351 17.8502C112.221 19.2302 110.931 24.3702 109.451 28.0102C109.432 28.0652 109.4 28.1148 109.358 28.1548C109.315 28.1947 109.264 28.2238 109.208 28.2395C109.152 28.2553 109.093 28.2572 109.036 28.2451C108.979 28.233 108.926 28.2073 108.881 28.1702C105.221 27.2802 99.8009 27.1002 96.8809 29.7402C96.865 29.7587 96.8424 29.7702 96.818 29.7721C96.7936 29.774 96.7695 29.7661 96.7509 29.7502C96.7324 29.7343 96.7209 29.7116 96.719 29.6873C96.7171 29.6629 96.7251 29.6387 96.741 29.6202C99.551 26.3502 104.891 26.1002 108.841 27.3202C110.291 23.5702 111.841 18.4602 116.391 17.8102C116.351 17.8002 116.351 17.8402 116.351 17.8502Z" fill="#263238"/>
<path d="M141.88 60.8314C138.16 67.2714 116.66 87.1214 97.8798 90.5614C95.3398 91.0214 85.6598 88.9814 83.6298 82.5614C80.0198 71.1214 82.9098 47.5014 84.7498 33.2814C85.1098 30.5114 110.89 36.2114 110.22 40.4514C109.48 45.1514 106.72 62.4014 107.15 62.6014C108.69 63.3114 125.15 56.1914 135.98 53.8614C143.68 52.2014 144.75 55.8714 141.88 60.8314Z" fill="#F7A9A0"/>
<path d="M81.1402 40.3008L110.52 46.6608C110.52 46.6608 107.85 61.6608 108.37 61.5908C108.89 61.5208 129.51 53.9808 137.46 53.1908C145.41 52.4008 145.4 55.9008 141.37 62.4608C137.34 69.0208 110.94 90.9808 97.9302 90.9808C91.3102 90.9808 85.1502 86.7408 83.9302 84.7108C80.2202 78.4508 81.1402 40.3008 81.1402 40.3008Z" fill="#455A64"/>
<path d="M81.1402 40.3008L110.52 46.6608C110.52 46.6608 107.85 61.6608 108.37 61.5908C108.89 61.5208 129.51 53.9808 137.46 53.1908C145.41 52.4008 145.4 55.9008 141.37 62.4608C137.34 69.0208 110.94 90.9808 97.9302 90.9808C91.3102 90.9808 85.1502 86.7408 83.9302 84.7108C80.2202 78.4508 81.1402 40.3008 81.1402 40.3008Z" fill="#01A657"/>
<path opacity="0.1" d="M123.239 61.2211C122.972 61.7854 122.787 62.3847 122.689 63.0011C123.1 62.5276 123.437 61.9949 123.689 61.4211C123.959 60.858 124.144 60.2582 124.239 59.6411C123.835 60.1197 123.499 60.6513 123.239 61.2211ZM99.899 87.4511C99.6278 88.0136 99.4424 88.6136 99.3491 89.2311C100.146 88.2644 100.677 87.1062 100.889 85.8711C100.487 86.3493 100.154 86.8811 99.899 87.4511ZM82.5991 69.4511C82.3247 70.0132 82.1359 70.6131 82.0391 71.2311C82.4459 70.7547 82.7826 70.2227 83.0391 69.6511C83.3009 69.0849 83.4858 68.4863 83.5891 67.8711C83.184 68.3469 82.8505 68.8791 82.5991 69.4511ZM108.169 69.5211C107.904 70.0894 107.719 70.6918 107.619 71.3111C108.03 70.834 108.367 70.2981 108.619 69.7211C108.889 69.1573 109.078 68.558 109.179 67.9411C108.769 68.4206 108.429 68.9559 108.169 69.5311V69.5211ZM95.3491 76.9411C95.085 77.5064 94.9 78.1054 94.7991 78.7211C95.2097 78.2476 95.5469 77.7149 95.7991 77.1411C96.0691 76.5773 96.2576 75.978 96.3591 75.3611C95.9487 75.8368 95.6086 76.3689 95.3491 76.9411ZM96.4891 58.8811C96.2207 59.4447 96.0354 60.0443 95.9391 60.6611C96.7364 59.6944 97.2673 58.5362 97.4791 57.3011C97.0577 57.7746 96.7073 58.3068 96.4391 58.8811H96.4891ZM83.3491 45.4511C83.079 46.0149 82.8905 46.6142 82.7891 47.2311C83.2029 46.7599 83.5403 46.2268 83.7891 45.6511C84.0576 45.0867 84.2461 44.4876 84.3491 43.8711C83.9418 44.3471 83.605 44.8792 83.3491 45.4511ZM136.179 60.6211C135.969 60.0324 135.676 59.4767 135.309 58.9711C135.36 59.595 135.501 60.2081 135.729 60.7911C135.933 61.3804 136.223 61.9364 136.589 62.4411C136.546 61.8223 136.415 61.2128 136.199 60.6311L136.179 60.6211ZM118.779 72.6211C118.568 72.0332 118.275 71.4778 117.909 70.9711C117.961 71.5948 118.102 72.2077 118.329 72.7911C118.535 73.3816 118.828 73.9379 119.199 74.4411C119.148 73.8257 119.013 73.2202 118.799 72.6411L118.779 72.6211ZM105.709 59.0911C105.499 58.5024 105.206 57.9467 104.839 57.4411C104.961 58.69 105.406 59.8858 106.129 60.9111C106.082 60.2952 105.947 59.6891 105.729 59.1111L105.709 59.0911ZM104.019 78.6711C103.809 78.0824 103.516 77.5267 103.149 77.0211C103.201 77.6448 103.342 78.2577 103.569 78.8411C103.777 79.4308 104.07 79.9868 104.439 80.4911C104.392 79.8752 104.257 79.2691 104.039 78.6911L104.019 78.6711ZM87.2591 76.5611C87.0516 75.9714 86.7585 75.4154 86.3891 74.9111C86.4471 75.5338 86.5884 76.1459 86.8091 76.7311C87.0187 77.3198 87.3117 77.8755 87.679 78.3811C87.6327 77.765 87.498 77.1588 87.2791 76.5811L87.2591 76.5611ZM92.5491 48.8811C92.3396 48.2891 92.0466 47.7302 91.679 47.2211C91.7276 47.8475 91.8657 48.4638 92.0891 49.0511C92.3049 49.6371 92.5974 50.1919 92.959 50.7011C92.9161 50.0855 92.7848 49.4793 92.5691 48.9011L92.5491 48.8811ZM90.5491 64.5811C90.3375 63.9932 90.0447 63.4378 89.679 62.9311C89.731 63.5548 89.8724 64.1677 90.0991 64.7511C90.3065 65.3408 90.5997 65.8968 90.9691 66.4011C90.9292 65.786 90.8012 65.1798 90.5891 64.6011L90.5491 64.5811ZM130.349 69.4511C129.76 69.6608 129.205 69.9537 128.699 70.3211C129.323 70.2679 129.935 70.1265 130.519 69.9011C131.108 69.6914 131.663 69.3984 132.169 69.0311C131.545 69.083 130.932 69.2245 130.349 69.4511ZM99.2691 68.7311C98.6831 68.9469 98.1282 69.2395 97.619 69.6011C98.2429 69.5503 98.856 69.4088 99.4391 69.1811C100.029 68.9736 100.585 68.6805 101.089 68.3111C100.464 68.3492 99.8476 68.4772 99.2591 68.6911L99.2691 68.7311ZM102.209 50.2711C101.621 50.4826 101.066 50.7755 100.559 51.1411C101.179 51.0891 101.789 50.9476 102.369 50.7211C102.961 50.5177 103.517 50.2242 104.019 49.8511C103.397 49.8893 102.784 50.0173 102.199 50.2311L102.209 50.2711ZM85.5291 56.0611C84.9411 56.2726 84.3857 56.5655 83.8791 56.9311C85.1285 56.8185 86.3258 56.3768 87.3491 55.6511C86.7249 55.6897 86.1092 55.8142 85.5191 56.0211L85.5291 56.0611ZM113.259 81.0611C112.672 81.2747 112.117 81.5674 111.609 81.9311C112.859 81.8185 114.056 81.3768 115.079 80.6511C114.452 80.6987 113.836 80.8368 113.249 81.0611H113.259ZM90.929 85.9511C90.3403 86.1608 89.7847 86.4537 89.2791 86.8211C89.9029 86.7703 90.516 86.6288 91.0991 86.4011C91.6888 86.1936 92.2447 85.9005 92.7491 85.5311C92.122 85.5821 91.5056 85.7235 90.9191 85.9511H90.929ZM114.999 61.0911C114.411 61.3026 113.856 61.5955 113.349 61.9611C113.971 61.9062 114.583 61.7684 115.169 61.5511C115.755 61.3352 116.31 61.0427 116.819 60.6811C116.192 60.7276 115.576 60.8657 114.989 61.0911H114.999Z" fill="black"/>
<path d="M108.6 61.7207C108.376 63.9602 107.985 66.1797 107.43 68.3607C106.94 70.5807 106.24 72.7307 105.59 74.9007H105.51C106.08 72.7207 106.51 70.4907 106.97 68.2807C107.43 66.0707 107.78 63.8607 108.35 61.6807C108.35 61.5207 108.61 61.5707 108.6 61.7207Z" fill="#263238"/>
<path d="M108.79 52.1983C105.39 51.3583 101.95 50.6883 98.4999 50.0383C95.0499 49.3883 91.5999 48.7183 88.1399 48.1483C86.1399 47.8283 84.2199 47.4983 82.2499 47.2383C82.2499 47.2383 82.1799 47.3183 82.2499 47.3283C85.6399 48.1783 89.0899 48.8583 92.5299 49.5383C95.9699 50.2183 99.4299 50.8583 102.88 51.4683C104.88 51.8083 106.8 52.1183 108.77 52.3683C108.84 52.3883 108.89 52.2283 108.79 52.1983Z" fill="#263238"/>
<path d="M118.491 82.21C119.031 81.73 119.631 81.32 120.201 80.88C120.771 80.44 121.301 80.01 121.861 79.59L125.261 76.98C127.521 75.23 129.741 73.42 131.981 71.64C133.261 70.64 134.521 69.64 135.781 68.56C135.786 68.5554 135.792 68.5519 135.799 68.5497C135.805 68.5474 135.812 68.5465 135.819 68.547C135.826 68.5475 135.833 68.5493 135.839 68.5524C135.845 68.5555 135.851 68.5598 135.856 68.565C135.86 68.5703 135.864 68.5764 135.866 68.583C135.868 68.5896 135.869 68.5966 135.869 68.6036C135.868 68.6105 135.866 68.6173 135.863 68.6236C135.86 68.6298 135.856 68.6354 135.851 68.64C134.311 70.09 132.751 71.52 131.151 72.9L131.751 72.61C132.371 72.3 132.971 71.97 133.571 71.61C133.571 71.61 133.661 71.66 133.571 71.69C133.008 72.0875 132.42 72.4483 131.811 72.77C131.511 72.93 131.211 73.09 130.901 73.23L130.451 73.42C130.091 73.73 129.731 74.04 129.361 74.34C127.141 76.1534 124.874 77.8967 122.561 79.57C121.894 80.03 121.244 80.48 120.611 80.92C119.921 81.37 119.251 81.87 118.521 82.28C118.508 82.2736 118.499 82.2632 118.493 82.2504C118.488 82.2376 118.487 82.2234 118.491 82.21Z" fill="#263238"/>
<path d="M147.65 68.4192L151.08 63.1992L154.31 67.5892L152.99 71.4692L149.33 71.5492L147.65 68.4192Z" fill="#263238"/>
<path d="M149.33 71.5488L143.25 111.979L149.42 126.229L154.99 111.539L152.99 71.4688L149.33 71.5488Z" fill="#263238"/>
<path d="M152.35 62.8314C148.78 63.6914 142.61 58.2714 140.16 53.8314C139.99 53.5314 140.44 50.3314 140.79 46.4114C141 44.0314 141.17 41.4114 141.16 38.9414L156.44 42.5514C155.588 45.5983 155.114 48.7386 155.03 51.9014C155.029 52.2378 155.066 52.5732 155.14 52.9014C155.14 52.9514 155.14 53.0014 155.14 53.0714C155.44 54.9814 155.76 61.9814 152.35 62.8314Z" fill="#F7A9A0"/>
<path d="M142.189 39.2188C142.659 42.4388 144.839 53.0387 153.549 53.2188C154.074 53.2316 154.599 53.2015 155.119 53.1287C155.116 53.0721 155.116 53.0153 155.119 52.9587C155.047 52.6301 155.007 52.2952 154.999 51.9587C155.091 48.796 155.568 45.6561 156.419 42.6087L142.189 39.2188Z" fill="#263238"/>
<path d="M137.6 21.9098C136.43 27.4398 140.66 42.7598 144.8 45.9098C150.8 50.4498 159.94 50.1198 163.62 43.0598C167.19 36.2198 161.33 16.3598 156.77 13.5898C150.05 9.44982 139.35 13.7298 137.6 21.9098Z" fill="#F7A9A0"/>
<path d="M151.24 30.9883C151.24 30.9883 151.17 31.0583 151.18 31.0983C151.49 32.0983 151.68 33.3483 150.84 33.9483C150.84 33.9483 150.84 34.0183 150.84 33.9983C151.96 33.5283 151.7 31.9083 151.24 30.9883Z" fill="#263238"/>
<path d="M150.02 30.16C148.33 30.48 149.1 33.85 150.67 33.55C152.24 33.25 151.44 29.89 150.02 30.16Z" fill="#263238"/>
<path d="M157.461 29.4499C157.461 29.3999 157.551 29.4499 157.561 29.5199C157.761 30.5699 158.181 31.7399 159.201 31.8699V31.9299C158.021 32.0199 157.481 30.4499 157.461 29.4499Z" fill="#263238"/>
<path d="M158.14 28.1309C159.79 27.6209 160.69 30.9609 159.14 31.4309C157.59 31.9009 156.76 28.5609 158.14 28.1309Z" fill="#263238"/>
<path d="M148.349 28.9311C148.779 28.7111 149.139 28.4311 149.549 28.1711C149.959 27.9111 150.399 27.6811 150.619 27.1711C150.667 27.018 150.663 26.8532 150.607 26.7028C150.551 26.5524 150.446 26.4251 150.309 26.3411C150.014 26.2103 149.689 26.1617 149.369 26.2004C149.048 26.2392 148.744 26.3638 148.489 26.5611C147.908 26.8808 147.466 27.4046 147.249 28.0311C147.21 28.176 147.214 28.329 147.26 28.4718C147.306 28.6145 147.393 28.7409 147.509 28.8359C147.625 28.9309 147.766 28.9904 147.915 29.0073C148.064 29.0242 148.215 28.9977 148.349 28.9311Z" fill="#A6A6A6"/>
<path d="M159.049 26.1385C158.576 26.1633 158.102 26.1633 157.629 26.1385C157.13 26.1967 156.626 26.0839 156.199 25.8185C156.079 25.7103 155.998 25.5651 155.969 25.4058C155.94 25.2465 155.965 25.0821 156.039 24.9385C156.229 24.6784 156.485 24.4736 156.78 24.3453C157.076 24.2169 157.4 24.1697 157.719 24.2085C158.38 24.1853 159.026 24.41 159.529 24.8385C159.626 24.9441 159.691 25.0743 159.719 25.2147C159.746 25.3551 159.735 25.5004 159.685 25.6346C159.635 25.7688 159.55 25.8868 159.438 25.9757C159.326 26.0645 159.191 26.1209 159.049 26.1385Z" fill="#A6A6A6"/>
<path d="M153.199 37.2395C153.562 37.5866 153.993 37.8547 154.465 38.0268C154.936 38.199 155.438 38.2714 155.939 38.2395C156.378 38.2271 156.813 38.1496 157.229 38.0095L157.459 37.9295L157.689 37.8395C157.741 37.8147 157.783 37.7742 157.81 37.7239C157.837 37.6736 157.847 37.6161 157.839 37.5595C157.844 37.523 157.844 37.4861 157.839 37.4495V37.3595C157.679 36.5495 157.319 35.3595 157.319 35.3595C157.649 35.4395 159.319 35.7695 159.179 35.3595C158.254 31.7623 156.968 28.2679 155.339 24.9295C155.33 24.9043 155.311 24.8839 155.287 24.8726C155.263 24.8614 155.235 24.8602 155.209 24.8695C155.184 24.8788 155.164 24.8977 155.153 24.9221C155.141 24.9465 155.14 24.9743 155.149 24.9995C155.989 28.3295 157.399 31.4895 158.289 34.8195C157.702 34.6932 157.099 34.6528 156.499 34.6995C156.389 34.7595 157.229 37.0095 157.279 37.3795C156.637 37.5998 155.956 37.6868 155.279 37.6352C154.601 37.5837 153.941 37.3946 153.339 37.0795C153.189 37.0795 153.119 37.1695 153.199 37.2395Z" fill="#263238"/>
<path d="M156.671 37.8714C156.328 38.5343 155.822 39.0989 155.201 39.5114C154.857 39.7167 154.46 39.8142 154.061 39.7914C153.171 39.7214 153.061 38.9514 153.061 38.2714C153.078 37.9048 153.142 37.5419 153.251 37.1914C154.29 37.7749 155.487 38.0131 156.671 37.8714Z" fill="#263238"/>
<path d="M155.201 39.51C154.857 39.7152 154.46 39.8128 154.061 39.79C153.171 39.72 153.061 38.95 153.061 38.27C153.505 38.2067 153.957 38.2946 154.345 38.5195C154.733 38.7444 155.035 39.0932 155.201 39.51Z" fill="#FF9CBD"/>
<g opacity="0.2">
<path d="M152.85 23.8112C153.404 23.7629 153.956 23.6794 154.5 23.5612C155.05 23.4212 155.56 23.1712 156.11 23.0412C157.165 22.8561 158.244 22.8561 159.3 23.0412C159.39 23.0412 159.39 23.1112 159.3 23.1012C158.183 22.95 157.047 23.0421 155.97 23.3712C155.111 23.7117 154.209 23.9305 153.29 24.0212C151.181 24.0337 149.13 24.7128 147.43 25.9612C148.981 24.7188 150.869 23.9699 152.85 23.8112Z" fill="black"/>
<path d="M152.49 22.3497C153.018 22.313 153.543 22.2361 154.06 22.1197C154.58 21.9897 155.06 21.7497 155.59 21.6297C156.582 21.4568 157.597 21.4568 158.59 21.6297C158.68 21.6297 158.68 21.6997 158.59 21.6897C157.53 21.5547 156.453 21.6433 155.43 21.9497C154.616 22.2723 153.761 22.4777 152.89 22.5597C150.891 22.5758 148.949 23.2233 147.34 24.4097C148.814 23.2265 150.607 22.5093 152.49 22.3497Z" fill="black"/>
</g>
<path d="M139.119 35.1098C139.119 35.1098 133.759 26.2798 134.259 21.1698C134.479 18.8598 137.619 17.3098 137.619 17.3098C137.378 16.3679 137.405 15.3773 137.696 14.4497C137.988 13.5221 138.533 12.6944 139.269 12.0598C141.999 9.48979 148.609 10.0598 148.609 10.0598C148.609 10.0598 152.889 3.86979 158.949 6.31979C165.009 8.76979 161.069 15.6398 161.069 15.6398C161.069 15.6398 163.289 18.7998 157.859 21.2698C152.429 23.7398 141.759 21.3198 141.759 21.3198C142.266 25.0401 142.212 28.8155 141.599 32.5198C141.464 33.1378 141.161 33.7065 140.724 34.1635C140.286 34.6204 139.731 34.9479 139.119 35.1098Z" fill="#A6A6A6"/>
<path d="M149.649 10.1414C148.298 9.59222 146.847 9.33 145.389 9.37143C144.085 9.34996 142.786 9.55291 141.549 9.97143C140.437 10.287 139.431 10.8996 138.64 11.7434C137.849 12.5873 137.302 13.6306 137.059 14.7614C136.971 15.3483 137.001 15.9469 137.147 16.5221C137.293 17.0974 137.552 17.6377 137.909 18.1114C137.909 18.1114 137.999 18.1114 137.969 18.1114C136.569 16.3714 137.299 13.6714 138.749 12.2214C140.521 10.6813 142.792 9.83886 145.139 9.85144C146.643 9.83238 148.143 9.99013 149.609 10.3214C149.699 10.2914 149.729 10.1814 149.649 10.1414Z" fill="#A6A6A6"/>
<path d="M142.051 34.3018C142.051 34.3018 137.991 29.6618 135.841 31.1618C133.691 32.6618 137.141 39.6618 139.921 40.3618C140.272 40.4783 140.643 40.5222 141.011 40.491C141.38 40.4597 141.738 40.3539 142.064 40.1799C142.391 40.006 142.678 39.7676 142.91 39.4791C143.141 39.1906 143.312 38.8582 143.411 38.5018L142.051 34.3018Z" fill="#F7A9A0"/>
<path d="M136.881 33.141V33.211C138.881 33.771 140.021 35.401 140.881 37.131C140.75 36.9562 140.583 36.8115 140.391 36.7066C140.199 36.6017 139.987 36.5391 139.77 36.523C139.552 36.5069 139.333 36.5376 139.128 36.6132C138.923 36.6888 138.736 36.8073 138.581 36.961C138.568 36.9703 138.559 36.9845 138.556 37.0004C138.553 37.0163 138.557 37.0327 138.566 37.046C138.575 37.0593 138.589 37.0683 138.605 37.0711C138.621 37.0739 138.638 37.0703 138.651 37.061C138.968 36.9189 139.321 36.8792 139.662 36.9473C140.002 37.0154 140.313 37.188 140.551 37.441C140.934 37.8704 141.269 38.3397 141.551 38.841C141.651 39.001 141.951 38.841 141.861 38.691C141.701 36.251 139.471 33.101 136.881 33.141Z" fill="#263238"/>
<path d="M150.941 36.4487C150.065 36.5664 149.174 36.436 148.369 36.0722C147.563 35.7085 146.876 35.126 146.386 34.3911C145.895 33.6563 145.621 32.7984 145.594 31.9153C145.567 31.0322 145.788 30.1592 146.233 29.3957C146.677 28.6321 147.327 28.0087 148.109 27.5964C148.89 27.184 149.772 26.9993 150.653 27.0631C151.534 27.127 152.38 27.437 153.094 27.9577C153.807 28.4784 154.361 29.1891 154.691 30.0087C154.922 30.5839 155.037 31.199 155.031 31.8189C155.024 32.4387 154.896 33.0512 154.652 33.6214C154.409 34.1916 154.056 34.7082 153.613 35.1419C153.17 35.5755 152.646 35.9176 152.071 36.1487C151.707 36.2917 151.327 36.3924 150.941 36.4487ZM149.781 27.7087C149.438 27.757 149.103 27.8442 148.781 27.9687C147.818 28.3548 147.038 29.093 146.6 30.0333C146.162 30.9736 146.099 32.0454 146.423 33.0308C146.748 34.0161 147.435 34.8409 148.345 35.3376C149.256 35.8342 150.322 35.9654 151.326 35.7044C152.33 35.4434 153.196 34.8098 153.75 33.9325C154.303 33.0552 154.502 32 154.305 30.9816C154.108 29.9631 153.531 29.0579 152.69 28.4499C151.85 27.842 150.809 27.5769 149.781 27.7087Z" fill="#455A64"/>
<path d="M161.42 33.7098C159.63 33.9498 157.76 32.3298 157.15 29.9498C156.844 28.8111 156.899 27.6052 157.31 26.4998C157.457 26.0158 157.726 25.5779 158.091 25.2288C158.457 24.8796 158.907 24.631 159.397 24.5072C159.888 24.3834 160.401 24.3885 160.889 24.5221C161.377 24.6558 161.822 24.9134 162.18 25.2698C163.085 26.0492 163.71 27.1026 163.96 28.2698C164.6 30.7898 163.6 33.2698 161.72 33.6998C161.621 33.7126 161.52 33.7159 161.42 33.7098ZM159.79 25.0798H159.55C159.165 25.1986 158.813 25.4075 158.525 25.6892C158.236 25.971 158.018 26.3174 157.89 26.6998C157.534 27.6788 157.489 28.744 157.76 29.7498C158.32 31.9398 160.02 33.3998 161.56 32.9998C163.1 32.5998 163.91 30.5198 163.35 28.3298C163.113 27.3141 162.564 26.398 161.78 25.7098C161.511 25.4709 161.195 25.2913 160.852 25.1828C160.51 25.0742 160.148 25.0391 159.79 25.0798Z" fill="#455A64"/>
<path d="M154.68 30.5699L154.16 30.1999C154.71 29.4399 156.11 28.2499 157.53 29.1999L157.19 29.7299C155.92 28.8799 154.73 30.4999 154.68 30.5699Z" fill="#455A64"/>
<path d="M134.6 36.92L133.99 36.78C134.05 36.49 134.67 33.97 135.99 33.4C137.31 32.83 145.61 31.55 145.99 31.5L146.09 32.12C143.68 32.5 137.22 33.56 136.27 33.98C135.32 34.4 134.76 36.23 134.6 36.92Z" fill="#455A64"/>
<path d="M155.111 52.7592L150.841 61.5192L140.471 49.4492L137.061 52.8792C137.061 52.8792 146.731 71.6592 146.851 70.8792L151.081 63.3992L156.081 69.1492L156.571 55.6092L155.111 52.7592Z" fill="#EBEBEB"/>
<path d="M156.671 62.3897C156.671 60.1497 156.751 57.8997 156.671 55.6597C156.671 55.5897 156.541 55.5397 156.521 55.6597C155.931 57.7797 155.941 66.3397 155.791 68.3797C155.591 68.1397 151.171 63.3097 151.121 63.3797C150.231 64.5497 147.121 69.9997 146.911 70.4997C145.391 67.4997 139.491 56.6497 137.641 53.7997C137.629 53.7854 137.613 53.7754 137.595 53.7714C137.577 53.7675 137.559 53.7698 137.542 53.778C137.526 53.7862 137.513 53.7998 137.505 53.8165C137.498 53.8332 137.496 53.852 137.501 53.8697C138.811 56.9997 146.601 71.6197 146.731 71.5897C148.344 69.0317 149.822 66.3915 151.161 63.6797C151.891 64.6797 156.311 70.1197 156.351 69.7897C156.584 67.3302 156.691 64.8602 156.671 62.3897Z" fill="#263238"/>
<path d="M195.78 119.452C192.11 124.692 182.12 125.702 157.22 130.572C153.77 131.252 142.46 108.212 146.1 107.302C150.69 106.152 168.75 102.702 170.1 102.612C181.51 101.852 198.27 115.852 195.78 119.452Z" fill="#F7A9A0"/>
<path d="M151.091 106.121C151.091 106.121 140.531 107.721 135.251 110.271C129.825 113.067 125.159 117.136 121.651 122.131C117.851 127.511 112.371 143.131 116.601 145.511C120.431 147.651 125.221 131.391 125.221 131.391C125.221 131.391 117.601 147.161 122.681 148.891C127.761 150.621 132.251 131.451 132.251 131.451C132.251 131.451 124.781 147.841 130.301 148.791C134.481 149.511 139.521 132.351 139.521 132.351C139.521 132.351 133.201 146.481 137.461 147.411C142.171 148.411 147.821 132.881 147.821 132.881C159.041 133.411 164.601 129.071 168.191 125.511C169.061 124.621 151.091 106.121 151.091 106.121Z" fill="#F7A9A0"/>
<path d="M127.499 125.76C126.499 127.58 125.549 129.42 124.759 131.32C123.969 133.22 123.229 135.15 122.609 137.11C121.757 139.665 121.197 142.308 120.939 144.99C121.739 140.27 124.489 133.42 125.289 131.52C126.089 129.62 126.779 127.68 127.579 125.79C127.599 125.74 127.529 125.72 127.499 125.76Z" fill="#263238"/>
<path d="M134.42 128.511C133.29 130.891 132.08 133.211 131.06 135.641C130.04 138.071 129.29 140.441 128.44 142.921C128.37 143.111 128.5 143.081 128.57 142.921C129.52 140.481 130.57 138.291 131.57 135.861C132.57 133.431 133.43 130.951 134.49 128.561C134.49 128.501 134.43 128.451 134.42 128.511Z" fill="#263238"/>
<path d="M140.78 129.811C138.958 133.415 137.517 137.199 136.48 141.101C136.42 141.291 136.58 141.241 136.64 141.041C138 137.261 139.04 134.291 140.9 129.871C140.93 129.811 140.82 129.731 140.78 129.811Z" fill="#263238"/>
<path d="M148.891 106.12L170.711 130.45C170.711 130.45 192.781 125.39 196.031 119.73C198.171 116 181.551 100.91 169.031 102.67L148.891 106.12Z" fill="#01A657"/>
<path opacity="0.1" d="M168.259 121.292C168.163 121.909 167.978 122.508 167.709 123.072C167.457 123.646 167.12 124.178 166.709 124.652C166.807 124.035 166.993 123.436 167.259 122.872C167.519 122.302 167.855 121.77 168.259 121.292ZM183.419 119.922C183.154 120.49 182.969 121.092 182.869 121.712C183.278 121.233 183.615 120.697 183.869 120.122C184.139 119.558 184.328 118.959 184.429 118.342C184.021 118.819 183.681 119.351 183.419 119.922ZM172.609 114.822C172.047 114.55 171.447 114.365 170.829 114.272C171.796 115.069 172.954 115.6 174.189 115.812C173.713 115.408 173.181 115.075 172.609 114.822ZM183.419 108.132C183.629 108.72 183.922 109.276 184.289 109.782C184.167 108.533 183.723 107.337 182.999 106.312C183.051 106.935 183.193 107.548 183.419 108.132ZM161.349 113.392C161.555 113.982 161.848 114.538 162.219 115.042C162.097 113.793 161.653 112.597 160.929 111.572C160.981 112.195 161.123 112.808 161.349 113.392ZM152.349 107.632C152.937 107.42 153.493 107.127 153.999 106.762C153.376 106.81 152.763 106.948 152.179 107.172C151.592 107.385 151.037 107.678 150.529 108.042C151.153 107.993 151.765 107.855 152.349 107.632ZM170.929 105.632C171.517 105.42 172.073 105.127 172.579 104.762C171.956 104.811 171.343 104.949 170.759 105.172C170.173 105.388 169.618 105.68 169.109 106.042C169.726 105.984 170.331 105.843 170.909 105.622L170.929 105.632ZM177.809 126.992C178.398 126.782 178.954 126.489 179.459 126.122C178.835 126.173 178.222 126.314 177.639 126.542C177.05 126.749 176.494 127.042 175.989 127.412C176.607 127.354 177.212 127.209 177.789 126.982L177.809 126.992ZM194.209 114.872C193.762 114.955 193.324 115.079 192.899 115.242C192.311 115.451 191.755 115.744 191.249 116.112C191.872 116.055 192.484 115.914 193.069 115.692C193.522 115.531 193.954 115.319 194.359 115.062L194.209 114.872Z" fill="black"/>
<path d="M183.971 106.591C179.633 103.457 174.293 102.033 168.971 102.591C168.911 102.591 168.911 102.701 168.971 102.701C174.451 102.551 181.841 105.411 183.911 106.651C183.981 106.721 184.031 106.631 183.971 106.591Z" fill="#263238"/>
<path d="M176.681 126.349C174.421 123.549 172.021 120.879 169.601 118.209C167.181 115.539 164.781 112.859 162.301 110.209C160.901 108.739 159.511 107.209 158.061 105.829C158.053 105.818 158.041 105.811 158.028 105.809C158.015 105.807 158.001 105.811 157.991 105.819C157.98 105.827 157.973 105.838 157.971 105.852C157.969 105.865 157.973 105.878 157.981 105.889C160.241 108.679 162.631 111.369 164.981 114.049C167.331 116.729 169.801 119.409 172.251 122.049C173.631 123.539 175.041 125.049 176.491 126.439C176.611 126.539 176.741 126.449 176.681 126.349Z" fill="#263238"/>
<path d="M148.85 105.811C150.19 105.402 151.557 105.088 152.94 104.871C154.31 104.621 155.7 104.381 157.08 104.161C159.83 103.721 165.61 102.471 170.69 102.481C170.75 102.481 170.46 102.761 170.4 102.751C167.98 102.621 150.65 106.071 149.23 106.171C149.28 106.271 149.34 106.361 149.38 106.461C149.395 106.476 149.403 106.498 149.402 106.519C149.401 106.541 149.391 106.561 149.375 106.576C149.36 106.59 149.338 106.598 149.317 106.597C149.295 106.596 149.275 106.586 149.26 106.571C149.08 106.451 148.96 106.301 148.79 106.171C148.758 106.149 148.733 106.119 148.718 106.084C148.702 106.048 148.698 106.009 148.704 105.971C148.71 105.933 148.727 105.898 148.753 105.869C148.779 105.841 148.813 105.82 148.85 105.811Z" fill="#263238"/>
<path d="M94.6994 201.766C93.8001 205.044 93.2086 208.4 92.9326 211.788C93.0222 211.959 93.0059 212.603 92.9326 212.407C92.9326 212.953 92.1184 212.855 92.1184 212.318C92.1184 211.959 92.1184 211.609 92.1184 211.259C90.1643 208.817 87.3228 207.294 85.0186 205.177C83.1699 203.519 81.8242 201.375 81.1348 198.989C79.2296 192.419 81.0127 185.465 78.6922 178.911C76.7219 173.26 73.1801 168.326 70.1757 163.238C67.0084 157.823 64.6798 152.14 64.4763 145.797C64.289 140.912 64.8671 134.48 68.5473 130.841C72.4636 126.981 77.3244 129.872 80.3288 133.283C89.0245 143.265 93.0466 155.885 94.675 168.782C95.5706 175.923 96.507 183.104 96.3034 190.31C96.1518 194.172 95.6145 198.01 94.6994 201.766Z" fill="#01A657"/>
<path d="M92.9656 214.409C93.4449 207.672 93.3659 200.908 92.7295 194.184C92.7295 194.184 92.7295 194.143 92.7295 194.111C92.8354 188.639 93.275 183.192 93.0552 177.721C92.7802 171.799 91.9626 165.915 90.6126 160.142C90.6126 160.077 90.4904 160.093 90.5067 160.142C91.5699 165.816 92.204 171.561 92.4038 177.33C92.5178 180.424 92.4934 183.51 92.3305 186.604C92.2817 187.605 92.184 188.615 92.1189 189.625C89.8402 174.274 84.2866 159.593 75.8348 146.578C75.7208 146.399 75.4033 146.578 75.5173 146.773C81.5458 156.668 86.0113 167.433 88.7562 178.69C84.5712 170.939 78.253 164.572 73.5713 157.122C73.5713 157.122 73.4736 157.122 73.4981 157.162C77.7808 165.467 84.7585 172.005 89.1796 180.212C89.9504 183.545 90.5746 186.902 91.0523 190.284C91.6772 194.921 92.0144 199.593 92.0619 204.272C89.5134 199.509 86.8673 194.958 84.7829 189.918C84.7259 189.779 84.5305 189.877 84.5793 190.007C86.3543 195.243 88.7399 200.877 92.07 205.339C92.07 208.652 91.9967 211.966 91.8013 215.272C91.2802 224.106 89.7658 232.818 89.0737 241.619C89.0772 241.667 89.0973 241.712 89.1307 241.747C89.164 241.781 89.2084 241.803 89.2561 241.807C89.3038 241.812 89.3516 241.8 89.3912 241.773C89.4309 241.746 89.4597 241.706 89.4727 241.66C91.2566 232.667 92.4236 223.562 92.9656 214.409Z" fill="#263238"/>
<path d="M83.5856 146.301C83.5856 146.244 83.4716 146.301 83.4879 146.35C85.1163 150.812 86.0119 155.306 87.1844 159.898C87.1898 159.947 87.2143 159.991 87.2524 160.022C87.2906 160.052 87.3394 160.067 87.3879 160.061C87.4365 160.056 87.481 160.031 87.5115 159.993C87.5421 159.955 87.5562 159.906 87.5508 159.858C87.0378 155.209 85.385 150.584 83.5856 146.301Z" fill="#263238"/>
<path d="M124.548 164.998C123.476 167.616 122.235 170.161 120.835 172.619C117.937 177.895 114.908 182.732 114.322 188.903C114.078 191.647 113.988 194.399 113.158 197.045C112.391 199.316 111.294 201.462 109.901 203.412C106.758 208.004 102.817 211.953 99.9023 216.708C96.868 221.671 94.6265 227.078 93.2584 232.732C93.1851 233.041 92.7048 232.96 92.7699 232.65C92.7745 232.626 92.7745 232.601 92.7699 232.577C92.7649 232.567 92.7623 232.556 92.7623 232.544C92.7623 232.533 92.7649 232.522 92.7699 232.512C92.3058 219.346 93.3561 206.075 97.3783 193.43C99.1532 187.87 101.285 182.431 103.762 177.146C105.911 172.57 108.59 168.19 112.368 164.754C114.81 162.547 120.135 158.362 123.628 160.577C125.33 161.676 125.208 163.362 124.548 164.998Z" fill="#01A657"/>
<path d="M111.316 194.87C108.993 198.69 106.437 202.363 103.663 205.869C102.384 207.539 101.09 209.183 99.8196 210.852C99.2171 211.667 98.5413 212.424 97.9877 213.295C98.3378 211.911 98.6798 210.527 99.0299 209.143C100.732 202.491 102.36 195.773 104.892 189.374C107.485 183.181 110.542 177.194 114.036 171.461C114.125 171.307 113.881 171.201 113.791 171.347C111.007 175.923 108.181 180.491 105.845 185.319C104.549 188.009 103.423 190.777 102.474 193.608C103.547 187.603 105.047 181.682 106.96 175.891C106.96 175.842 106.903 175.801 106.879 175.891C104.37 181.723 102.793 187.913 102.205 194.235C101.635 195.944 101.114 197.67 100.626 199.413C98.5495 206.781 96.7257 214.223 95.0403 221.698C95.0068 216.783 95.432 211.877 96.3104 207.042C96.3047 207.024 96.2934 207.008 96.278 206.996C96.2626 206.985 96.244 206.979 96.2249 206.979C96.2059 206.979 96.1873 206.985 96.1719 206.996C96.1565 207.008 96.1451 207.024 96.1395 207.042C94.8454 212.09 94.4133 217.32 94.8612 222.512C94.2261 225.356 93.6046 228.198 92.9966 231.036C91.7021 237.11 90.1144 243.29 89.3572 249.454C89.3518 249.486 89.3594 249.519 89.3785 249.546C89.3976 249.573 89.4265 249.591 89.4589 249.596C89.4913 249.602 89.5245 249.594 89.5513 249.575C89.578 249.556 89.596 249.527 89.6014 249.494C90.5052 246.172 91.0507 242.728 91.7835 239.366C92.5163 236.003 93.2897 232.616 94.0795 229.253C95.2194 224.368 96.4163 219.483 97.6376 214.598C98.4518 212.806 100.031 211.219 101.212 209.713C102.507 208.084 103.809 206.456 105.071 204.746C107.433 201.658 109.551 198.392 111.406 194.975C111.471 194.87 111.357 194.78 111.316 194.87Z" fill="#263238"/>
<path d="M111.879 189.218C108.981 192.918 106.471 196.907 104.389 201.121C104.389 201.17 104.446 201.227 104.478 201.178C106.994 197.229 109.477 193.248 111.993 189.291C112.034 189.226 111.92 189.169 111.879 189.218Z" fill="#263238"/>
<path d="M55.7973 177.487C57.5071 180.427 59.4531 183.952 58.7203 187.486C58.2562 189.717 56.6196 191.557 56.3265 193.812C55.667 198.844 60.6825 202.166 64.3057 204.543C73.3515 210.479 85.7518 215.763 87.3964 227.878C87.4534 228.31 88.2107 228.204 88.1455 227.781C88.1486 227.754 88.1486 227.726 88.1455 227.699C88.1455 227.699 88.1455 227.699 88.1455 227.634C89.335 221.517 89.2768 215.222 87.9745 209.127C86.6311 202.882 83.9035 197.273 80.6874 191.785C75.2486 182.503 69.484 172.993 61.2524 165.877C59.0541 163.931 54.348 160.373 52.5405 164.819C50.7737 169.134 53.7292 173.905 55.7973 177.487Z" fill="#01A657"/>
<path d="M64.095 197.166C70.0876 203.68 79.6218 207.295 84.7839 214.565C81.8982 203.501 76.4511 193.271 68.8825 184.701C68.8501 184.655 68.8351 184.599 68.8402 184.543C68.8453 184.487 68.8702 184.434 68.9105 184.395C68.9507 184.356 69.0036 184.332 69.0596 184.329C69.1157 184.325 69.1713 184.341 69.2164 184.375C74.7479 189.734 79.1739 196.127 82.2436 203.191C80.8176 198.26 78.9453 193.469 76.65 188.877C76.6399 188.86 76.6333 188.84 76.6306 188.82C76.628 188.8 76.6294 188.779 76.6347 188.76C76.64 188.74 76.6491 188.722 76.6615 188.706C76.6739 188.689 76.6894 188.676 76.707 188.666C76.7246 188.656 76.7441 188.649 76.7643 188.646C76.7845 188.644 76.805 188.645 76.8247 188.65C76.8443 188.656 76.8627 188.665 76.8789 188.677C76.895 188.69 76.9085 188.705 76.9187 188.723C79.7642 193.734 81.7978 199.164 82.9438 204.811C89.7424 221.274 90.3775 240.579 88.9526 257.93C88.9526 258.174 88.5536 258.182 88.5618 257.93C88.9526 244.259 88.7328 230.345 85.4515 216.992C85.3864 216.707 85.305 216.438 85.2398 216.178C79.6219 208.345 70.1364 204.722 64.0706 197.288C63.9403 197.199 64.0299 197.101 64.095 197.166Z" fill="#263238"/>
<path d="M62.7024 191.612C65.8534 194.495 68.9474 197.45 72.0983 200.34C72.0983 200.34 72.0983 200.422 72.0983 200.397C68.5302 197.993 65.3179 195.099 62.5559 191.8C62.4093 191.653 62.5722 191.474 62.7024 191.612Z" fill="#263238"/>
<path d="M62.2058 179.081C64.9869 183.649 68.1376 187.981 71.6261 192.035C71.6261 192.092 71.6261 192.165 71.5446 192.116C67.6322 188.402 64.4121 184.021 62.0348 179.178C61.9859 179.073 62.1406 178.975 62.2058 179.081Z" fill="#263238"/>
<path d="M76.3711 270.165H103.94L100.227 233.078H80.6212L76.3711 270.165Z" fill="#455A64"/>
<path d="M79.9316 239.103H100.832L100.23 233.078H80.6237L79.9316 239.103Z" fill="#263238"/>
<path d="M77.2432 234.887H103.086V228.967H77.2432V234.887Z" fill="#455A64"/>
</svg>
