<svg width="14" height="14" viewBox="0 0 14 14" fill="none" xmlns="http://www.w3.org/2000/svg">
<path fill-rule="evenodd" clip-rule="evenodd" d="M5.46476 4.51515C5.52277 4.438 5.6323 4.42239 5.70956 4.48026L8.73121 6.74383C8.80862 6.80182 8.82431 6.91161 8.76624 6.98896L5.95475 10.7339C5.27808 11.638 4.25725 11.8189 3.55141 11.8189C3.11391 11.8189 2.79891 11.7489 2.76391 11.743C2.68808 11.7255 2.61808 11.673 2.57725 11.603C2.53641 11.5272 1.53308 9.74219 2.65308 8.25469L5.46476 4.51515Z" fill="#01A657"/>
<path opacity="0.4" fill-rule="evenodd" clip-rule="evenodd" d="M9.89191 5.49109L9.50106 6.01069C9.44305 6.08782 9.33354 6.10341 9.25629 6.04555L6.23415 3.78161C6.15692 3.72376 6.1411 3.61431 6.19878 3.53695L6.59024 3.01193C6.99274 2.46943 7.61691 2.18359 8.24691 2.18359C8.67857 2.18359 9.11024 2.31776 9.48357 2.59776C9.92107 2.93026 10.2069 3.41443 10.2886 3.95693C10.3644 4.50526 10.2244 5.04776 9.89191 5.49109Z" fill="#01A657"/>
<path opacity="0.4" fill-rule="evenodd" clip-rule="evenodd" d="M11.4387 10.9375H7.71875C7.47725 10.9375 7.28125 11.1335 7.28125 11.375C7.28125 11.6165 7.47725 11.8125 7.71875 11.8125H11.4387C11.6802 11.8125 11.8762 11.6165 11.8762 11.375C11.8762 11.1335 11.6802 10.9375 11.4387 10.9375Z" fill="#01A657"/>
</svg>
