<svg width="112" height="84" viewBox="0 0 112 84" fill="none" xmlns="http://www.w3.org/2000/svg">
<g filter="url(#filter0_f_2051_5741)">
<circle cx="80.4445" cy="32.0009" r="15.5556" fill="#00B3FF" fill-opacity="0.3"/>
</g>
<g filter="url(#filter1_f_2051_5741)">
<circle cx="24.4444" cy="53.3331" r="8.44444" fill="#FF8A00" fill-opacity="0.3"/>
</g>
<path d="M26 67.334H86" stroke="#0B0B0B" stroke-width="0.5" stroke-linecap="round"/>
<path d="M40.0127 67.3333V51.2187M40.0127 40.4756V44.0566L40.0127 49.4282M40.0127 49.4282L35.2053 42.2661M40.0127 49.4282V51.2187M40.0127 51.2187C37.8762 51.2187 32.5443 52.2186 28.7952 49.4267C23.9882 45.8468 25.5898 31.5225 32.0003 20.7799C38.4105 10.038 44.8207 13.6176 48.0257 20.7797C49.5662 24.2225 53.082 31.26 54.3333 35.6667" stroke="#0B0B0B" stroke-linecap="round" stroke-linejoin="round"/>
<path d="M73.2495 67.3336V50.4264M73.2495 37.3341L73.2495 44.3935M73.2495 44.3935L79.3334 40.6674M73.2495 44.3935L73.2495 50.4264M73.2495 50.4264C73.2495 50.4264 80.3742 52.0645 83.3991 48.9179C89.1988 44.3934 83.9789 32.0261 80.4995 24.7866C77.5997 18.7537 71 15.6663 66 24.7867L62.6667 30.667" stroke="#0B0B0B" stroke-linecap="round" stroke-linejoin="round"/>
<path d="M57.6664 67.3327L57.6665 57.3327M57.6666 47.3327C57.6666 47.7858 57.6665 57.3327 57.6665 57.3327M57.6665 57.3327C57.6665 57.3327 62.2876 59.5215 65.9999 55.666C69.7123 51.8106 66.4247 41.8028 63.3403 37.6256C60.2559 33.4484 57.6668 32.3329 54.3334 35.6663M57.6665 57.3327C52.6669 58.9994 49.921 56.254 49.3335 55.666C48.7461 55.0781 44.3336 50.666 50.9999 40.666" stroke="#0B0B0B" stroke-linecap="round" stroke-linejoin="round"/>
<defs>
<filter id="filter0_f_2051_5741" x="48.8889" y="0.445312" width="63.1111" height="63.1113" filterUnits="userSpaceOnUse" color-interpolation-filters="sRGB">
<feFlood flood-opacity="0" result="BackgroundImageFix"/>
<feBlend mode="normal" in="SourceGraphic" in2="BackgroundImageFix" result="shape"/>
<feGaussianBlur stdDeviation="8" result="effect1_foregroundBlur_2051_5741"/>
</filter>
<filter id="filter1_f_2051_5741" x="0" y="28.8887" width="48.8889" height="48.8887" filterUnits="userSpaceOnUse" color-interpolation-filters="sRGB">
<feFlood flood-opacity="0" result="BackgroundImageFix"/>
<feBlend mode="normal" in="SourceGraphic" in2="BackgroundImageFix" result="shape"/>
<feGaussianBlur stdDeviation="8" result="effect1_foregroundBlur_2051_5741"/>
</filter>
</defs>
</svg>
