<svg width="136" height="128" viewBox="0 0 136 128" fill="none" xmlns="http://www.w3.org/2000/svg">
<g opacity="0.3" filter="url(#filter0_f_2050_5738)">
<circle cx="103.232" cy="33.1582" r="16.25" fill="#7B4794"/>
</g>
<g opacity="0.3" filter="url(#filter1_f_2050_5738)">
<circle cx="57.8909" cy="67.8185" r="18.1818" fill="#01A657"/>
</g>
<path d="M118.243 82.8133H110.044L109.926 82.5496L113.49 78.594C113.728 78.3303 113.728 77.9347 113.49 77.671C113.253 77.4073 112.896 77.4073 112.659 77.671L109.331 81.3629L80.9318 20.3142L86.1602 8.97471C86.279 8.711 86.1602 8.31544 85.9225 8.05173C85.6849 7.91987 85.3284 8.05173 85.0907 8.31544L80.2188 18.732L75.3469 8.31544C75.2281 8.05173 74.8716 7.91987 74.5151 8.05173C74.2774 8.18358 74.1586 8.57915 74.2774 8.97471L79.5058 20.3142L60.4935 61.321C60.3747 61.5847 60.4935 61.9803 60.7312 62.244C60.85 62.244 60.9688 62.3758 60.9688 62.3758C61.2065 62.3758 61.4441 62.244 61.4441 61.9803L79.9811 21.8965L108.381 83.077H93.4086C93.5274 82.9452 93.5274 82.6815 93.4086 82.4177L80.4565 54.4646C80.4565 54.4646 80.4565 54.3327 80.3376 54.3327C80.3376 54.3327 80.3376 54.3327 80.2188 54.3327H80.1C80.1 54.3327 80.1 54.3327 79.9811 54.3327H79.8623C79.8623 54.3327 79.8623 54.3327 79.7435 54.3327C79.7435 54.3327 79.6247 54.3327 79.6247 54.4646C79.5058 54.5964 79.5058 54.5964 79.387 54.7283L66.9102 82.0222C66.7913 82.2859 66.7913 82.5496 67.029 82.6814H51.9379L56.9287 71.8694C57.0475 71.6057 56.9287 71.2101 56.691 70.9464C56.4534 70.8145 56.0969 70.9464 55.8592 71.2101L51.225 81.2311L47.779 77.4073C47.5413 77.1436 47.1849 77.1436 46.9472 77.4073C46.7095 77.671 46.7095 78.0665 46.9472 78.3303L50.6308 82.4177L50.512 82.5496H42.1941C41.8376 82.5496 41.6 82.8133 41.6 83.2089C41.6 83.6044 41.8376 83.8681 42.1941 83.8681H50.512C50.6308 83.8681 50.7497 84 50.7497 84C50.8685 84 50.9873 84 50.9873 83.8681H109.331C109.45 83.8681 109.569 84 109.569 84C109.688 84 109.807 84 109.807 83.8681H118.006C118.362 83.8681 118.6 83.6044 118.6 83.2089C118.6 82.8133 118.6 82.8133 118.243 82.8133ZM92.9333 82.8133H81.0506V57.1017L92.9333 82.8133C92.9333 82.6815 92.8145 82.6815 92.9333 82.8133ZM67.9796 82.6814L79.8623 57.1017V82.6814H67.9796C67.8608 82.6814 67.8608 82.6814 67.9796 82.6814Z" fill="#231F20"/>
<defs>
<filter id="filter0_f_2050_5738" x="70.9818" y="0.908203" width="64.5" height="64.5" filterUnits="userSpaceOnUse" color-interpolation-filters="sRGB">
<feFlood flood-opacity="0" result="BackgroundImageFix"/>
<feBlend mode="normal" in="SourceGraphic" in2="BackgroundImageFix" result="shape"/>
<feGaussianBlur stdDeviation="8" result="effect1_foregroundBlur_2050_5738"/>
</filter>
<filter id="filter1_f_2050_5738" x="-2.29092" y="7.63672" width="120.364" height="120.363" filterUnits="userSpaceOnUse" color-interpolation-filters="sRGB">
<feFlood flood-opacity="0" result="BackgroundImageFix"/>
<feBlend mode="normal" in="SourceGraphic" in2="BackgroundImageFix" result="shape"/>
<feGaussianBlur stdDeviation="21" result="effect1_foregroundBlur_2050_5738"/>
</filter>
</defs>
</svg>
