<svg width="24" height="24" viewBox="0 0 24 24" fill="none" xmlns="http://www.w3.org/2000/svg">
<path opacity="0.4" fill-rule="evenodd" clip-rule="evenodd" d="M8.47412 13.8471C9.47212 14.3331 10.3361 14.7551 12.5831 12.5081C14.8291 10.2611 14.4091 9.39813 13.9221 8.39913C13.2171 6.95113 12.9321 5.63413 16.1341 2.99713C16.8991 2.37213 17.7291 2.13213 18.5961 2.30013C20.4291 2.64313 21.7241 4.68313 21.7221 4.68313C22.5341 5.81913 23.6461 9.23513 16.4791 16.4031C11.7651 21.1181 8.67312 22.2491 6.79712 22.2491C5.82112 22.2491 5.17412 21.9431 4.80012 21.6741C4.78012 21.6621 2.72212 20.3871 2.37412 18.5181C2.21212 17.6491 2.44812 16.8221 3.07412 16.0571C5.71012 12.8581 7.02712 13.1421 8.47412 13.8471Z" fill="#01A657"/>
<path fill-rule="evenodd" clip-rule="evenodd" d="M9.38947 1.75581C9.80247 1.70381 10.1725 2.00681 10.2175 2.41781C10.2635 2.82981 9.96647 3.19981 9.55547 3.24581C6.17847 3.62081 3.55647 6.24081 3.17747 9.61681C3.13447 9.99981 2.81047 10.2828 2.43347 10.2828C2.40547 10.2828 2.37647 10.2808 2.34847 10.2778C1.93747 10.2328 1.64147 9.86081 1.68747 9.44881C2.14447 5.37281 5.31147 2.20881 9.38947 1.75581Z" fill="#01A657"/>
<path fill-rule="evenodd" clip-rule="evenodd" d="M6.70877 9.68741C6.63877 10.0454 6.32477 10.2934 5.97377 10.2934C5.92577 10.2934 5.87777 10.2894 5.82877 10.2804C5.42277 10.2014 5.15677 9.80641 5.23577 9.40041C5.64277 7.31841 7.24977 5.71141 9.32977 5.30741C9.72677 5.22841 10.1298 5.49441 10.2088 5.90141C10.2878 6.30741 10.0218 6.70141 9.61477 6.78041C8.13877 7.06741 6.99677 8.20841 6.70877 9.68741Z" fill="#01A657"/>
</svg>
