<svg width="24" height="24" viewBox="0 0 24 24" fill="none" xmlns="http://www.w3.org/2000/svg">
<path opacity="0.4" fill-rule="evenodd" clip-rule="evenodd" d="M11.1065 12.8941C11.1194 12.9525 11.1342 13.0182 11.1506 13.0906C11.2238 13.4135 11.331 13.8694 11.4672 14.4034C11.739 15.4688 12.1288 16.8551 12.5975 18.1158C12.8318 18.7461 13.089 19.3535 13.3649 19.8775C13.6372 20.3948 13.944 20.8624 14.2881 21.1868C14.6313 21.5104 15.0914 21.7604 15.6234 21.6338C16.1242 21.5146 16.5176 21.0971 16.8402 20.5382C17.8885 18.722 19.2804 14.7636 20.2933 11.0844C20.8021 9.23657 21.2216 7.4365 21.4573 5.98497C21.575 5.26032 21.6489 4.6105 21.6628 4.07929C21.6743 3.64113 21.6723 3.14329 21.4608 2.74606C21.414 2.65833 21.3422 2.58651 21.2545 2.53978C20.8572 2.32822 20.3594 2.32626 19.9212 2.33773C19.39 2.35163 18.7402 2.42552 18.0156 2.5432C16.564 2.77891 14.764 3.19842 12.9161 3.7072C9.23696 4.72018 5.27852 6.11199 3.46239 7.16031C2.90349 7.48294 2.48593 7.87631 2.36678 8.3771C2.24019 8.90914 2.49015 9.3692 2.81377 9.71245C3.13819 10.0565 3.60573 10.3633 4.12304 10.6357C4.64706 10.9116 5.25445 11.1687 5.88473 11.403C7.14547 11.8717 8.53173 12.2616 9.59714 12.5333C10.1311 12.6695 10.5871 12.7767 10.9099 12.85C10.9823 12.8664 11.0481 12.8811 11.1065 12.8941Z" fill="#01A657"/>
<path fill-rule="evenodd" clip-rule="evenodd" d="M18.8124 5.60248C19.1053 5.89538 19.1053 6.37025 18.8124 6.66314L13.2806 12.1949C12.9877 12.4878 12.5128 12.4878 12.2199 12.1949C11.927 11.902 11.927 11.4272 12.2199 11.1343L17.7517 5.60248C18.0446 5.30959 18.5195 5.30959 18.8124 5.60248Z" fill="#01A657"/>
</svg>
