<svg width="339" height="340" viewBox="0 0 339 340" fill="none" xmlns="http://www.w3.org/2000/svg">
<path d="M58.2344 276.155C120.082 310.346 220.351 310.346 282.191 276.155C344.032 241.963 344.038 186.571 282.191 152.393C220.344 118.215 120.075 118.221 58.2344 152.393C-3.60599 186.564 -3.61277 241.984 58.2344 276.155Z" fill="#F5F5F5"/>
<path d="M166.959 201.602L229.945 237.963C230.855 238.425 231.86 238.665 232.881 238.665C233.901 238.665 234.907 238.425 235.816 237.963L304.294 198.422C305.915 197.486 305.915 195.968 304.294 195.032L241.315 158.671C240.405 158.209 239.399 157.969 238.379 157.969C237.359 157.969 236.353 158.209 235.443 158.671L166.965 198.212C165.338 199.154 165.338 200.666 166.959 201.602Z" fill="#E0E0E0"/>
<path d="M133.03 177.356C147.675 177.356 159.547 171.121 159.547 163.43C159.547 155.739 147.675 149.504 133.03 149.504C118.386 149.504 106.514 155.739 106.514 163.43C106.514 171.121 118.386 177.356 133.03 177.356Z" fill="#E0E0E0"/>
<path d="M179.982 281.551C192.463 281.551 202.58 276.051 202.58 269.266C202.58 262.481 192.463 256.98 179.982 256.98C167.502 256.98 157.385 262.481 157.385 269.266C157.385 276.051 167.502 281.551 179.982 281.551Z" fill="#E0E0E0"/>
<path d="M177.86 155.727C192.505 155.727 204.377 149.492 204.377 141.801C204.377 134.11 192.505 127.875 177.86 127.875C163.216 127.875 151.344 134.11 151.344 141.801C151.344 149.492 163.216 155.727 177.86 155.727Z" fill="#E0E0E0"/>
<path d="M26.5038 241.351L86.7305 276.119C87.6403 276.58 88.6461 276.821 89.6663 276.821C90.6865 276.821 91.6923 276.58 92.602 276.119L158.368 238.151C159.995 237.215 159.995 235.697 158.368 234.761L98.1277 199.979C97.2179 199.518 96.2122 199.277 95.192 199.277C94.1718 199.277 93.166 199.518 92.2562 199.979L26.5241 237.947C24.8834 238.897 24.8834 240.415 26.5038 241.351Z" fill="#E0E0E0"/>
<path d="M137.07 112.887V162.632C137.036 162.987 136.909 163.326 136.702 163.617C136.494 163.907 136.215 164.138 135.89 164.286C135.004 164.734 134.025 164.967 133.033 164.967C132.04 164.967 131.061 164.734 130.175 164.286C129.849 164.139 129.568 163.908 129.36 163.618C129.151 163.327 129.023 162.987 128.988 162.632V112.887H137.07Z" fill="#9A4A4D"/>
<path d="M106.255 138.632L131.287 78.1953H134.772L159.804 138.639C159.985 139.076 160.068 139.548 160.045 140.02C160.022 140.493 159.894 140.954 159.671 141.372C159.448 141.789 159.135 142.151 158.754 142.433C158.374 142.714 157.936 142.907 157.471 142.999L157.065 143.08C156.27 143.238 155.566 143.691 155.091 144.347C154.617 145.004 154.409 145.815 154.509 146.619C154.576 147.149 154.509 147.688 154.314 148.186C154.119 148.683 153.802 149.124 153.392 149.467C152.983 149.811 152.494 150.046 151.97 150.151C151.446 150.257 150.904 150.229 150.393 150.07L149.159 149.663C148.416 149.434 147.615 149.484 146.906 149.803C146.197 150.123 145.629 150.69 145.308 151.399L144.061 154.145C143.875 154.554 143.605 154.919 143.269 155.217C142.932 155.515 142.536 155.738 142.108 155.873C141.679 156.007 141.227 156.049 140.78 155.997C140.334 155.945 139.904 155.799 139.518 155.569L134.664 152.694C134.17 152.401 133.607 152.246 133.033 152.246C132.459 152.246 131.896 152.401 131.402 152.694L126.541 155.569C126.155 155.799 125.725 155.945 125.279 155.997C124.832 156.049 124.38 156.007 123.951 155.873C123.523 155.738 123.127 155.515 122.791 155.217C122.454 154.919 122.184 154.554 121.998 154.145L120.751 151.399C120.431 150.69 119.862 150.123 119.153 149.803C118.444 149.484 117.643 149.434 116.9 149.663L115.666 150.043C115.155 150.2 114.613 150.227 114.089 150.12C113.565 150.014 113.076 149.778 112.667 149.434C112.258 149.09 111.941 148.649 111.746 148.152C111.551 147.654 111.484 147.116 111.551 146.585C111.653 145.783 111.447 144.971 110.974 144.315C110.5 143.659 109.795 143.208 109.001 143.053L108.588 142.971C108.127 142.877 107.693 142.683 107.316 142.402C106.939 142.122 106.628 141.762 106.406 141.348C106.183 140.934 106.054 140.476 106.028 140.007C106.002 139.537 106.08 139.068 106.255 138.632Z" fill="#01A657"/>
<path opacity="0.1" d="M106.255 138.632L131.287 78.1953H134.772L159.804 138.639C159.985 139.076 160.068 139.548 160.045 140.02C160.022 140.493 159.894 140.954 159.671 141.372C159.448 141.789 159.135 142.151 158.754 142.433C158.374 142.714 157.936 142.907 157.471 142.999L157.065 143.08C156.27 143.238 155.566 143.691 155.091 144.347C154.617 145.004 154.409 145.815 154.509 146.619C154.576 147.149 154.509 147.688 154.314 148.186C154.119 148.683 153.802 149.124 153.392 149.467C152.983 149.811 152.494 150.046 151.97 150.151C151.446 150.257 150.904 150.229 150.393 150.07L149.159 149.663C148.416 149.434 147.615 149.484 146.906 149.803C146.197 150.123 145.629 150.69 145.308 151.399L144.061 154.145C143.875 154.554 143.605 154.919 143.269 155.217C142.932 155.515 142.536 155.738 142.108 155.873C141.679 156.007 141.227 156.049 140.78 155.997C140.334 155.945 139.904 155.799 139.518 155.569L134.664 152.694C134.17 152.401 133.607 152.246 133.033 152.246C132.459 152.246 131.896 152.401 131.402 152.694L126.541 155.569C126.155 155.799 125.725 155.945 125.279 155.997C124.832 156.049 124.38 156.007 123.951 155.873C123.523 155.738 123.127 155.515 122.791 155.217C122.454 154.919 122.184 154.554 121.998 154.145L120.751 151.399C120.431 150.69 119.862 150.123 119.153 149.803C118.444 149.484 117.643 149.434 116.9 149.663L115.666 150.043C115.155 150.2 114.613 150.227 114.089 150.12C113.565 150.014 113.076 149.778 112.667 149.434C112.258 149.09 111.941 148.649 111.746 148.152C111.551 147.654 111.484 147.116 111.551 146.585C111.653 145.783 111.447 144.971 110.974 144.315C110.5 143.659 109.795 143.208 109.001 143.053L108.588 142.971C108.127 142.877 107.693 142.683 107.316 142.402C106.939 142.122 106.628 141.762 106.406 141.348C106.183 140.934 106.054 140.476 106.028 140.007C106.002 139.537 106.08 139.068 106.255 138.632Z" fill="black"/>
<path d="M111.87 121.055L131.288 75.7578H134.773L154.706 121.041C155.425 122.499 155.011 124.235 153.411 124.499C152.793 124.593 152.235 124.924 151.856 125.421C151.477 125.918 151.305 126.543 151.377 127.164L151.431 127.632C151.48 128.045 151.422 128.464 151.261 128.848C151.1 129.232 150.843 129.568 150.514 129.823C150.185 130.078 149.796 130.244 149.384 130.305C148.972 130.365 148.552 130.318 148.163 130.167L146.929 129.699C146.352 129.478 145.711 129.486 145.139 129.724C144.568 129.961 144.109 130.408 143.858 130.974L142.38 134.432C142.241 134.744 142.037 135.023 141.781 135.251C141.526 135.479 141.226 135.65 140.9 135.753C140.574 135.856 140.229 135.889 139.89 135.849C139.55 135.81 139.223 135.699 138.929 135.524L134.244 132.757C133.869 132.534 133.44 132.416 133.003 132.416C132.567 132.416 132.138 132.534 131.762 132.757L127.613 135.524C127.32 135.699 126.993 135.81 126.654 135.849C126.315 135.889 125.971 135.856 125.645 135.753C125.32 135.65 125.02 135.478 124.765 135.251C124.511 135.023 124.308 134.744 124.169 134.432L122.63 130.988C122.38 130.423 121.923 129.975 121.352 129.738C120.782 129.5 120.142 129.492 119.565 129.713L118.325 130.181C117.937 130.33 117.517 130.376 117.106 130.315C116.695 130.254 116.307 130.088 115.979 129.833C115.651 129.578 115.394 129.242 115.234 128.859C115.074 128.476 115.015 128.058 115.063 127.645L115.118 127.177C115.188 126.557 115.016 125.933 114.637 125.436C114.257 124.939 113.701 124.609 113.084 124.513C111.531 124.248 111.124 122.54 111.87 121.055Z" fill="#01A657"/>
<path d="M116.682 103.246L131.3 72.5187L131.415 72.3357C131.578 72.051 131.812 71.8143 132.096 71.6497C132.379 71.4851 132.701 71.3984 133.029 71.3984C133.357 71.3984 133.678 71.4851 133.962 71.6497C134.245 71.8143 134.48 72.051 134.642 72.3357L134.758 72.5255L149.375 103.252C149.529 103.503 149.631 103.781 149.674 104.071C149.718 104.362 149.703 104.658 149.629 104.942C149.556 105.226 149.426 105.492 149.247 105.725C149.068 105.958 148.845 106.152 148.589 106.297L148.48 106.358C148.115 106.561 147.817 106.866 147.621 107.235C147.425 107.605 147.339 108.023 147.375 108.439C147.405 108.786 147.351 109.134 147.218 109.455C147.085 109.777 146.877 110.061 146.611 110.286C146.346 110.51 146.03 110.668 145.691 110.745C145.353 110.823 145 110.818 144.663 110.731L143.816 110.507C143.342 110.383 142.841 110.422 142.392 110.618C141.943 110.813 141.573 111.154 141.341 111.585L140.168 113.728C139.899 114.235 139.439 114.615 138.89 114.784C138.341 114.953 137.747 114.897 137.239 114.629L134.039 112.961C133.726 112.795 133.377 112.708 133.022 112.708C132.667 112.708 132.318 112.795 132.005 112.961L128.818 114.65C128.31 114.916 127.717 114.971 127.168 114.802C126.62 114.633 126.16 114.254 125.889 113.748L124.75 111.585C124.519 111.153 124.149 110.812 123.7 110.616C123.251 110.42 122.749 110.382 122.276 110.507L121.428 110.731C121.092 110.818 120.739 110.823 120.4 110.745C120.061 110.668 119.746 110.51 119.48 110.286C119.215 110.061 119.007 109.777 118.874 109.455C118.741 109.134 118.687 108.786 118.716 108.439C118.753 108.023 118.668 107.604 118.472 107.235C118.276 106.865 117.977 106.561 117.611 106.358L117.503 106.297C117.244 106.155 117.017 105.962 116.835 105.73C116.652 105.498 116.519 105.231 116.442 104.946C116.366 104.661 116.347 104.364 116.389 104.071C116.43 103.779 116.53 103.498 116.682 103.246Z" fill="#01A657"/>
<path opacity="0.2" d="M116.682 103.246L131.3 72.5187L131.415 72.3357C131.578 72.051 131.812 71.8143 132.096 71.6497C132.379 71.4851 132.701 71.3984 133.029 71.3984C133.357 71.3984 133.678 71.4851 133.962 71.6497C134.245 71.8143 134.48 72.051 134.642 72.3357L134.758 72.5255L149.375 103.252C149.529 103.503 149.631 103.781 149.674 104.071C149.718 104.362 149.703 104.658 149.629 104.942C149.556 105.226 149.426 105.492 149.247 105.725C149.068 105.958 148.845 106.152 148.589 106.297L148.48 106.358C148.115 106.561 147.817 106.866 147.621 107.235C147.425 107.605 147.339 108.023 147.375 108.439C147.405 108.786 147.351 109.134 147.218 109.455C147.085 109.777 146.877 110.061 146.611 110.286C146.346 110.51 146.03 110.668 145.691 110.745C145.353 110.823 145 110.818 144.663 110.731L143.816 110.507C143.342 110.383 142.841 110.422 142.392 110.618C141.943 110.813 141.573 111.154 141.341 111.585L140.168 113.728C139.899 114.235 139.439 114.615 138.89 114.784C138.341 114.953 137.747 114.897 137.239 114.629L134.039 112.961C133.726 112.795 133.377 112.708 133.022 112.708C132.667 112.708 132.318 112.795 132.005 112.961L128.818 114.65C128.31 114.916 127.717 114.971 127.168 114.802C126.62 114.633 126.16 114.254 125.889 113.748L124.75 111.585C124.519 111.153 124.149 110.812 123.7 110.616C123.251 110.42 122.749 110.382 122.276 110.507L121.428 110.731C121.092 110.818 120.739 110.823 120.4 110.745C120.061 110.668 119.746 110.51 119.48 110.286C119.215 110.061 119.007 109.777 118.874 109.455C118.741 109.134 118.687 108.786 118.716 108.439C118.753 108.023 118.668 107.604 118.472 107.235C118.276 106.865 117.977 106.561 117.611 106.358L117.503 106.297C117.244 106.155 117.017 105.962 116.835 105.73C116.652 105.498 116.519 105.231 116.442 104.946C116.366 104.661 116.347 104.364 116.389 104.071C116.43 103.779 116.53 103.498 116.682 103.246Z" fill="white"/>
<path d="M135.051 164.578C135.093 163.582 135.518 162.64 136.237 161.95C136.957 161.26 137.915 160.875 138.912 160.875C139.909 160.875 140.867 161.26 141.587 161.95C142.306 162.64 142.731 163.582 142.773 164.578C142.776 164.614 142.776 164.65 142.773 164.686C142.777 164.722 142.777 164.759 142.773 164.795C142.721 165.114 142.592 165.415 142.395 165.672C142.199 165.928 141.942 166.133 141.648 166.266C140.801 166.697 139.865 166.922 138.915 166.922C137.966 166.922 137.029 166.697 136.183 166.266C135.891 166.128 135.636 165.923 135.439 165.667C135.242 165.411 135.109 165.112 135.051 164.795V164.578Z" fill="#37474F"/>
<path d="M136.183 166.234C135.891 166.096 135.636 165.891 135.439 165.635C135.242 165.379 135.109 165.08 135.051 164.762V164.579C135.072 163.903 135.271 163.244 135.629 162.669C135.986 162.094 136.488 161.624 137.085 161.305C137.085 161.305 135.159 163.725 136.569 165.318C137.539 166.424 140.868 166.62 142.332 165.752C142.136 165.96 141.907 166.134 141.654 166.268C140.805 166.695 139.866 166.914 138.915 166.908C137.964 166.902 137.028 166.671 136.183 166.234Z" fill="#263238"/>
<path d="M141.294 166.489C141.294 165.77 141.579 165.08 142.088 164.572C142.597 164.063 143.286 163.777 144.006 163.777C144.725 163.777 145.415 164.063 145.923 164.572C146.432 165.08 146.718 165.77 146.718 166.489V166.645C146.678 166.87 146.585 167.082 146.445 167.262C146.306 167.443 146.125 167.587 145.918 167.683C145.32 167.987 144.659 168.145 143.989 168.145C143.318 168.145 142.657 167.987 142.06 167.683C141.852 167.587 141.671 167.443 141.532 167.262C141.393 167.082 141.299 166.87 141.26 166.645V166.489H141.294Z" fill="#455A64"/>
<path d="M142.095 167.681C141.888 167.586 141.707 167.441 141.567 167.261C141.428 167.08 141.334 166.868 141.295 166.644V166.488C141.306 166.179 141.368 165.874 141.478 165.586C141.417 166.752 141.966 167.464 143.688 167.681C145.41 167.898 146.543 167.172 146.692 166.908C146.541 167.243 146.28 167.516 145.953 167.681C145.355 167.985 144.694 168.144 144.024 168.144C143.353 168.144 142.692 167.985 142.095 167.681Z" fill="#37474F"/>
<path d="M125.186 164.338C125.186 163.615 125.473 162.92 125.985 162.409C126.497 161.897 127.191 161.609 127.914 161.609C128.638 161.609 129.332 161.897 129.844 162.409C130.356 162.92 130.643 163.615 130.643 164.338V164.487C130.605 164.713 130.512 164.925 130.373 165.106C130.233 165.287 130.051 165.431 129.843 165.525C129.246 165.829 128.585 165.988 127.914 165.988C127.244 165.988 126.583 165.829 125.986 165.525C125.778 165.431 125.596 165.287 125.456 165.106C125.317 164.925 125.224 164.713 125.186 164.487V164.338Z" fill="#455A64"/>
<path d="M125.986 165.529C125.778 165.434 125.596 165.29 125.456 165.11C125.317 164.929 125.224 164.716 125.186 164.491V164.342C125.196 164.031 125.26 163.723 125.375 163.434C125.308 164.607 125.857 165.312 127.586 165.535C129.315 165.759 130.433 165.027 130.582 164.756C130.434 165.092 130.172 165.365 129.843 165.529C129.246 165.833 128.585 165.991 127.914 165.991C127.244 165.991 126.583 165.833 125.986 165.529Z" fill="#37474F"/>
<path d="M181.664 91.2578V141.009C181.628 141.364 181.499 141.703 181.291 141.992C181.083 142.281 180.802 142.51 180.477 142.657C179.591 143.105 178.612 143.338 177.62 143.338C176.627 143.338 175.648 143.105 174.762 142.657C174.438 142.509 174.159 142.28 173.952 141.991C173.745 141.702 173.618 141.363 173.582 141.009V91.2578H181.664Z" fill="#9A4A4D"/>
<path d="M150.848 117.01L175.88 56.5664H179.365L204.39 117.01C204.572 117.447 204.654 117.92 204.631 118.393C204.608 118.866 204.48 119.328 204.257 119.745C204.034 120.163 203.721 120.526 203.341 120.808C202.96 121.09 202.522 121.284 202.058 121.376L201.651 121.458C200.857 121.613 200.152 122.064 199.678 122.72C199.205 123.376 198.999 124.188 199.102 124.99C199.167 125.52 199.099 126.058 198.903 126.554C198.708 127.051 198.391 127.491 197.982 127.834C197.573 128.177 197.084 128.412 196.561 128.518C196.038 128.624 195.496 128.598 194.986 128.441L193.752 128.062C193.008 127.832 192.206 127.881 191.496 128.201C190.785 128.521 190.216 129.088 189.894 129.797L188.654 132.543C188.468 132.952 188.198 133.317 187.862 133.615C187.525 133.913 187.13 134.137 186.701 134.272C186.273 134.407 185.821 134.45 185.374 134.398C184.928 134.347 184.498 134.202 184.111 133.974L179.25 131.092C178.756 130.799 178.193 130.644 177.619 130.644C177.045 130.644 176.482 130.799 175.989 131.092L171.134 133.974C170.747 134.202 170.317 134.347 169.871 134.398C169.424 134.45 168.972 134.407 168.544 134.272C168.115 134.137 167.72 133.913 167.384 133.615C167.047 133.317 166.777 132.952 166.591 132.543L165.344 129.797C165.023 129.089 164.455 128.521 163.746 128.202C163.037 127.882 162.236 127.832 161.493 128.062L160.252 128.441C159.742 128.599 159.2 128.626 158.676 128.519C158.152 128.413 157.664 128.177 157.255 127.833C156.846 127.489 156.53 127.048 156.336 126.55C156.142 126.052 156.076 125.513 156.143 124.983C156.241 124.181 156.032 123.371 155.558 122.716C155.084 122.061 154.38 121.609 153.587 121.451L153.181 121.37C152.716 121.278 152.278 121.085 151.898 120.804C151.517 120.522 151.204 120.16 150.981 119.743C150.758 119.326 150.63 118.864 150.607 118.391C150.584 117.919 150.667 117.447 150.848 117.01Z" fill="#01A657"/>
<path opacity="0.1" d="M150.848 117.01L175.88 56.5664H179.365L204.39 117.01C204.572 117.447 204.654 117.92 204.631 118.393C204.608 118.866 204.48 119.328 204.257 119.745C204.034 120.163 203.721 120.526 203.341 120.808C202.96 121.09 202.522 121.284 202.058 121.376L201.651 121.458C200.857 121.613 200.152 122.064 199.678 122.72C199.205 123.376 198.999 124.188 199.102 124.99C199.167 125.52 199.099 126.058 198.903 126.554C198.708 127.051 198.391 127.491 197.982 127.834C197.573 128.177 197.084 128.412 196.561 128.518C196.038 128.624 195.496 128.598 194.986 128.441L193.752 128.062C193.008 127.832 192.206 127.881 191.496 128.201C190.785 128.521 190.216 129.088 189.894 129.797L188.654 132.543C188.468 132.952 188.198 133.317 187.862 133.615C187.525 133.913 187.13 134.137 186.701 134.272C186.273 134.407 185.821 134.45 185.374 134.398C184.928 134.347 184.498 134.202 184.111 133.974L179.25 131.092C178.756 130.799 178.193 130.644 177.619 130.644C177.045 130.644 176.482 130.799 175.989 131.092L171.134 133.974C170.747 134.202 170.317 134.347 169.871 134.398C169.424 134.45 168.972 134.407 168.544 134.272C168.115 134.137 167.72 133.913 167.384 133.615C167.047 133.317 166.777 132.952 166.591 132.543L165.344 129.797C165.023 129.089 164.455 128.521 163.746 128.202C163.037 127.882 162.236 127.832 161.493 128.062L160.252 128.441C159.742 128.599 159.2 128.626 158.676 128.519C158.152 128.413 157.664 128.177 157.255 127.833C156.846 127.489 156.53 127.048 156.336 126.55C156.142 126.052 156.076 125.513 156.143 124.983C156.241 124.181 156.032 123.371 155.558 122.716C155.084 122.061 154.38 121.609 153.587 121.451L153.181 121.37C152.716 121.278 152.278 121.085 151.898 120.804C151.517 120.522 151.204 120.16 150.981 119.743C150.758 119.326 150.63 118.864 150.607 118.391C150.584 117.919 150.667 117.447 150.848 117.01Z" fill="black"/>
<path d="M156.428 99.4349L175.88 54.1445H179.365L199.298 99.4349C200.01 100.886 199.603 102.628 198.003 102.886C197.384 102.982 196.827 103.313 196.447 103.812C196.068 104.31 195.897 104.935 195.969 105.557L196.023 106.018C196.072 106.431 196.013 106.849 195.852 107.232C195.692 107.615 195.435 107.951 195.107 108.206C194.78 108.461 194.391 108.627 193.98 108.688C193.569 108.749 193.15 108.703 192.762 108.554L191.521 108.086C190.944 107.866 190.305 107.876 189.735 108.113C189.165 108.35 188.707 108.797 188.457 109.361L186.918 112.805C186.78 113.118 186.577 113.398 186.322 113.626C186.068 113.854 185.768 114.026 185.442 114.129C185.116 114.232 184.772 114.265 184.433 114.225C184.093 114.185 183.766 114.073 183.473 113.897L178.843 111.137C178.468 110.911 178.039 110.792 177.602 110.792C177.164 110.792 176.735 110.911 176.361 111.137L172.212 113.897C171.918 114.073 171.591 114.185 171.251 114.225C170.911 114.265 170.566 114.233 170.24 114.129C169.914 114.026 169.613 113.855 169.358 113.626C169.103 113.398 168.899 113.118 168.761 112.805L167.228 109.361C166.976 108.796 166.517 108.35 165.946 108.113C165.375 107.876 164.735 107.866 164.157 108.086L162.923 108.554C162.535 108.704 162.114 108.752 161.702 108.691C161.291 108.631 160.901 108.465 160.572 108.21C160.243 107.955 159.986 107.619 159.825 107.235C159.665 106.851 159.606 106.432 159.655 106.018L159.709 105.55C159.781 104.929 159.61 104.305 159.23 103.808C158.851 103.311 158.294 102.98 157.675 102.886C156.123 102.622 155.709 100.886 156.428 99.4349Z" fill="#01A657"/>
<path d="M161.276 81.6236L175.893 50.8898L176.009 50.7068C176.171 50.4221 176.406 50.1854 176.689 50.0208C176.973 49.8562 177.295 49.7695 177.622 49.7695C177.95 49.7695 178.272 49.8562 178.555 50.0208C178.839 50.1854 179.074 50.4221 179.236 50.7068L179.351 50.8966L193.969 81.6236C194.123 81.8738 194.225 82.1527 194.269 82.4434C194.313 82.7341 194.297 83.0307 194.223 83.3152C194.149 83.5997 194.018 83.8662 193.838 84.0987C193.658 84.3311 193.432 84.5247 193.176 84.6678L193.074 84.7288C192.709 84.9334 192.411 85.2381 192.214 85.607C192.017 85.9758 191.929 86.3934 191.962 86.8103C191.991 87.1567 191.937 87.5051 191.805 87.8264C191.672 88.1477 191.464 88.4324 191.198 88.6568C190.933 88.8812 190.617 89.0387 190.278 89.1162C189.939 89.1936 189.587 89.1887 189.25 89.1019L188.409 88.8849C187.936 88.7587 187.433 88.7965 186.984 88.9922C186.535 89.188 186.165 89.5302 185.935 89.963L184.775 92.1258C184.503 92.6306 184.044 93.0082 183.496 93.177C182.947 93.3457 182.355 93.292 181.846 93.0275L178.633 91.3529C178.319 91.1867 177.97 91.0997 177.616 91.0997C177.261 91.0997 176.912 91.1867 176.599 91.3529L173.398 93.0275C172.89 93.292 172.297 93.3457 171.749 93.177C171.201 93.0082 170.741 92.6306 170.469 92.1258L169.324 89.9969C169.093 89.5649 168.723 89.2235 168.274 89.0279C167.824 88.8322 167.323 88.7938 166.849 88.9188L166.001 89.1358C165.665 89.2226 165.312 89.2275 164.973 89.1501C164.634 89.0726 164.319 88.9151 164.053 88.6907C163.788 88.4663 163.58 88.1816 163.447 87.8603C163.314 87.539 163.26 87.1906 163.289 86.8442C163.325 86.4276 163.24 86.0096 163.044 85.6403C162.848 85.271 162.549 84.9663 162.184 84.7627L162.076 84.7017C161.814 84.5594 161.584 84.3648 161.4 84.13C161.216 83.8951 161.083 83.625 161.007 83.3363C160.932 83.0477 160.918 82.7467 160.964 82.4521C161.01 82.1574 161.116 81.8754 161.276 81.6236Z" fill="#01A657"/>
<path opacity="0.2" d="M161.276 81.6236L175.893 50.8898L176.009 50.7068C176.171 50.4221 176.406 50.1854 176.689 50.0208C176.973 49.8562 177.295 49.7695 177.622 49.7695C177.95 49.7695 178.272 49.8562 178.555 50.0208C178.839 50.1854 179.074 50.4221 179.236 50.7068L179.351 50.8966L193.969 81.6236C194.123 81.8738 194.225 82.1527 194.269 82.4434C194.313 82.7341 194.297 83.0307 194.223 83.3152C194.149 83.5997 194.018 83.8662 193.838 84.0987C193.658 84.3311 193.432 84.5247 193.176 84.6678L193.074 84.7288C192.709 84.9334 192.411 85.2381 192.214 85.607C192.017 85.9758 191.929 86.3934 191.962 86.8103C191.991 87.1567 191.937 87.5051 191.805 87.8264C191.672 88.1477 191.464 88.4324 191.198 88.6568C190.933 88.8812 190.617 89.0387 190.278 89.1162C189.939 89.1936 189.587 89.1887 189.25 89.1019L188.409 88.8849C187.936 88.7587 187.433 88.7965 186.984 88.9922C186.535 89.188 186.165 89.5302 185.935 89.963L184.775 92.1258C184.503 92.6306 184.044 93.0082 183.496 93.177C182.947 93.3457 182.355 93.292 181.846 93.0275L178.633 91.3529C178.319 91.1867 177.97 91.0997 177.616 91.0997C177.261 91.0997 176.912 91.1867 176.599 91.3529L173.398 93.0275C172.89 93.292 172.297 93.3457 171.749 93.177C171.201 93.0082 170.741 92.6306 170.469 92.1258L169.324 89.9969C169.093 89.5649 168.723 89.2235 168.274 89.0279C167.824 88.8322 167.323 88.7938 166.849 88.9188L166.001 89.1358C165.665 89.2226 165.312 89.2275 164.973 89.1501C164.634 89.0726 164.319 88.9151 164.053 88.6907C163.788 88.4663 163.58 88.1816 163.447 87.8603C163.314 87.539 163.26 87.1906 163.289 86.8442C163.325 86.4276 163.24 86.0096 163.044 85.6403C162.848 85.271 162.549 84.9663 162.184 84.7627L162.076 84.7017C161.814 84.5594 161.584 84.3648 161.4 84.13C161.216 83.8951 161.083 83.625 161.007 83.3363C160.932 83.0477 160.918 82.7467 160.964 82.4521C161.01 82.1574 161.116 81.8754 161.276 81.6236Z" fill="white"/>
<path d="M179.671 142.922C179.712 141.925 180.137 140.984 180.857 140.294C181.577 139.604 182.535 139.219 183.532 139.219C184.529 139.219 185.487 139.604 186.207 140.294C186.926 140.984 187.351 141.925 187.393 142.922V143.138C187.338 143.455 187.207 143.754 187.011 144.009C186.815 144.265 186.56 144.468 186.268 144.603C185.421 145.034 184.485 145.259 183.535 145.259C182.586 145.259 181.649 145.034 180.803 144.603C180.508 144.471 180.25 144.268 180.053 144.013C179.855 143.757 179.724 143.457 179.671 143.138C179.668 143.102 179.668 143.066 179.671 143.03C179.667 142.994 179.667 142.958 179.671 142.922Z" fill="#37474F"/>
<path d="M180.776 144.604C180.481 144.472 180.223 144.269 180.026 144.013C179.828 143.758 179.697 143.458 179.643 143.139C179.64 143.103 179.64 143.067 179.643 143.031C179.64 142.995 179.64 142.958 179.643 142.922C179.664 142.245 179.862 141.584 180.219 141.008C180.577 140.432 181.079 139.96 181.677 139.641C181.677 139.675 179.759 142.068 181.162 143.661C182.132 144.76 185.467 144.963 186.932 144.088C186.734 144.294 186.505 144.468 186.254 144.604C185.406 145.037 184.467 145.263 183.515 145.263C182.562 145.263 181.624 145.037 180.776 144.604Z" fill="#263238"/>
<path d="M185.887 144.86C185.887 144.141 186.172 143.451 186.681 142.943C187.189 142.434 187.879 142.148 188.599 142.148C189.318 142.148 190.008 142.434 190.516 142.943C191.025 143.451 191.311 144.141 191.311 144.86C191.314 144.887 191.314 144.915 191.311 144.942C191.314 144.967 191.314 144.992 191.311 145.016C191.276 145.242 191.186 145.455 191.047 145.637C190.908 145.818 190.726 145.962 190.517 146.054C189.92 146.358 189.259 146.517 188.588 146.517C187.918 146.517 187.257 146.358 186.659 146.054C186.451 145.959 186.27 145.816 186.13 145.635C185.991 145.454 185.898 145.242 185.859 145.016V144.86H185.887Z" fill="#455A64"/>
<path d="M186.687 146.052C186.479 145.958 186.297 145.814 186.158 145.633C186.018 145.452 185.925 145.24 185.887 145.015V144.859C185.895 144.55 185.957 144.245 186.07 143.957C186.002 145.123 186.558 145.835 188.28 146.052C190.002 146.269 191.128 145.544 191.277 145.279C191.129 145.613 190.87 145.886 190.545 146.052C189.947 146.356 189.286 146.515 188.616 146.515C187.945 146.515 187.284 146.356 186.687 146.052Z" fill="#37474F"/>
<path d="M169.777 142.712C169.777 141.993 170.063 141.303 170.571 140.794C171.08 140.286 171.77 140 172.489 140C173.208 140 173.898 140.286 174.407 140.794C174.915 141.303 175.201 141.993 175.201 142.712C175.204 142.737 175.204 142.762 175.201 142.787C175.204 142.814 175.204 142.841 175.201 142.868C175.163 143.092 175.071 143.304 174.933 143.485C174.795 143.666 174.615 143.81 174.408 143.905C173.809 144.206 173.149 144.363 172.479 144.363C171.809 144.363 171.148 144.206 170.55 143.905C170.343 143.809 170.163 143.665 170.024 143.484C169.884 143.304 169.791 143.092 169.75 142.868V142.712H169.777Z" fill="#455A64"/>
<path d="M170.577 143.906C170.371 143.81 170.19 143.666 170.051 143.485C169.912 143.305 169.818 143.093 169.777 142.869V142.713C169.786 142.402 169.848 142.095 169.96 141.805C169.893 142.978 170.449 143.69 172.171 143.906C173.893 144.123 175.018 143.398 175.167 143.134C175.016 143.465 174.758 143.737 174.435 143.906C173.837 144.208 173.176 144.364 172.506 144.364C171.836 144.364 171.176 144.208 170.577 143.906Z" fill="#37474F"/>
<path d="M166.306 189.43V179.891H158.516V189.43C158.547 189.773 158.669 190.101 158.869 190.381C159.069 190.661 159.34 190.883 159.655 191.023C160.509 191.456 161.453 191.681 162.411 191.681C163.368 191.681 164.312 191.456 165.167 191.023C165.481 190.883 165.752 190.661 165.952 190.381C166.152 190.101 166.274 189.773 166.306 189.43Z" fill="#37474F"/>
<path d="M159.655 178.302C160.509 177.87 161.453 177.645 162.411 177.645C163.368 177.645 164.312 177.87 165.167 178.302C166.686 179.177 166.686 180.601 165.167 181.482C164.312 181.915 163.368 182.14 162.411 182.14C161.453 182.14 160.509 181.915 159.655 181.482C158.136 180.601 158.136 179.177 159.655 178.302Z" fill="#455A64"/>
<path d="M166.306 182.441V183.906C166.27 184.219 166.151 184.516 165.963 184.768C165.775 185.021 165.524 185.219 165.235 185.343C164.359 185.784 163.392 186.014 162.411 186.014C161.43 186.014 160.463 185.784 159.587 185.343C159.299 185.218 159.048 185.019 158.86 184.767C158.672 184.515 158.554 184.218 158.516 183.906V182.448C158.311 182.635 158.146 182.861 158.029 183.112C157.913 183.364 157.848 183.636 157.838 183.913C157.867 184.347 158.014 184.766 158.262 185.124C158.511 185.482 158.851 185.766 159.248 185.947C160.228 186.446 161.312 186.706 162.411 186.706C163.51 186.706 164.594 186.446 165.574 185.947C165.97 185.766 166.31 185.482 166.559 185.124C166.807 184.766 166.954 184.347 166.984 183.913C166.978 183.634 166.915 183.36 166.798 183.107C166.681 182.854 166.514 182.627 166.306 182.441Z" fill="#F0F0F0"/>
<path d="M175.967 191.233C175.907 191.234 175.849 191.217 175.798 191.186L165.926 185.484C165.883 185.464 165.844 185.436 165.813 185.401C165.781 185.365 165.757 185.323 165.743 185.278C165.728 185.233 165.723 185.185 165.729 185.138C165.734 185.091 165.749 185.046 165.772 185.005C165.796 184.964 165.829 184.928 165.867 184.9C165.905 184.872 165.949 184.853 165.996 184.843C166.042 184.833 166.09 184.834 166.136 184.843C166.183 184.853 166.227 184.873 166.265 184.901L176.137 190.603C176.215 190.647 176.272 190.72 176.296 190.807C176.32 190.893 176.309 190.986 176.265 191.064C176.234 191.115 176.19 191.158 176.138 191.187C176.086 191.217 176.027 191.233 175.967 191.233Z" fill="#FAFAFA"/>
<path d="M232.879 233.298V223.758L298.977 185.594V195.133L232.879 233.298Z" fill="#01A657"/>
<path opacity="0.3" d="M232.879 233.298V223.758L298.977 185.594V195.133L232.879 233.298Z" fill="black"/>
<path d="M172.285 198.31L232.878 233.295V223.756L202.578 142.66L172.285 188.771V198.31Z" fill="#01A657"/>
<path opacity="0.1" d="M172.285 198.31L232.878 233.295V223.756L202.578 142.66L172.285 188.771V198.31Z" fill="black"/>
<path d="M202.578 142.66L170.773 191.076C170.773 191.076 180.415 179.116 187.723 168.417C195.554 156.973 202.578 142.66 202.578 142.66Z" fill="#01A657"/>
<path d="M216.349 223.756C207.454 200.704 203.257 173.292 202.579 142.66C199.568 168.878 195.602 192.371 188.809 207.85L216.349 223.756Z" fill="#455A64"/>
<path d="M234.114 226.225C220.978 199.433 210.419 171.453 202.58 142.662L268.678 104.504C276.517 133.293 287.076 161.271 300.212 188.061L234.114 226.225Z" fill="#01A657"/>
<path d="M234.114 226.224L202.58 142.66C210.419 171.451 220.978 199.432 234.114 226.224Z" fill="#01A657"/>
<path opacity="0.4" d="M202.578 142.66L170.773 191.076C170.773 191.076 180.415 179.116 187.723 168.417C195.554 156.973 202.578 142.66 202.578 142.66Z" fill="white"/>
<path opacity="0.4" d="M234.114 226.224L202.58 142.66C210.419 171.451 220.978 199.432 234.114 226.224Z" fill="white"/>
<path d="M195.982 184.636C193.989 193.511 191.649 201.383 188.809 207.851L216.349 223.757C211.169 210.312 207.589 195.389 205.359 179.219L195.982 184.636Z" fill="#37474F"/>
<path d="M249.402 233.635C249.342 233.636 249.283 233.62 249.233 233.588L235.463 225.641C235.385 225.595 235.329 225.52 235.306 225.432C235.283 225.345 235.296 225.252 235.34 225.174C235.362 225.135 235.392 225.101 235.427 225.074C235.462 225.046 235.502 225.026 235.545 225.015C235.588 225.004 235.633 225.001 235.677 225.007C235.721 225.014 235.763 225.029 235.802 225.052L249.572 232.998C249.649 233.044 249.705 233.119 249.728 233.207C249.751 233.294 249.739 233.387 249.694 233.465C249.664 233.517 249.622 233.559 249.571 233.589C249.519 233.619 249.461 233.635 249.402 233.635Z" fill="#F0F0F0"/>
<path d="M253.294 239.657V230.117H245.504V239.657C245.536 239.999 245.66 240.327 245.861 240.606C246.063 240.885 246.335 241.105 246.65 241.243C247.502 241.678 248.446 241.904 249.402 241.904C250.359 241.904 251.303 241.678 252.155 241.243C252.469 241.104 252.74 240.884 252.941 240.605C253.141 240.326 253.263 239.999 253.294 239.657Z" fill="#37474F"/>
<path d="M246.65 228.523C247.503 228.092 248.446 227.867 249.403 227.867C250.359 227.867 251.302 228.092 252.155 228.523C253.674 229.405 253.674 230.829 252.155 231.703C251.303 232.138 250.36 232.364 249.403 232.364C248.446 232.364 247.502 232.138 246.65 231.703C245.124 230.829 245.124 229.405 246.65 228.523Z" fill="#455A64"/>
<path d="M253.294 232.66V234.125C253.258 234.438 253.139 234.736 252.95 234.989C252.76 235.242 252.507 235.439 252.216 235.562C251.342 236.007 250.374 236.239 249.392 236.239C248.411 236.239 247.443 236.007 246.569 235.562C246.281 235.439 246.031 235.241 245.844 234.99C245.657 234.739 245.54 234.443 245.504 234.131V232.667C245.298 232.854 245.132 233.081 245.016 233.334C244.899 233.586 244.835 233.86 244.826 234.138C244.856 234.572 245.002 234.99 245.249 235.348C245.496 235.706 245.835 235.99 246.23 236.172C247.211 236.667 248.294 236.925 249.392 236.925C250.491 236.925 251.574 236.667 252.555 236.172C252.952 235.991 253.292 235.707 253.54 235.349C253.788 234.991 253.935 234.573 253.966 234.138C253.961 233.859 253.899 233.584 253.784 233.329C253.668 233.075 253.502 232.847 253.294 232.66Z" fill="#F0F0F0"/>
<path d="M312.74 196.929C312.68 196.926 312.622 196.91 312.57 196.882L298.8 188.929C298.723 188.884 298.667 188.81 298.644 188.723C298.621 188.637 298.633 188.545 298.678 188.468C298.723 188.391 298.797 188.335 298.883 188.312C298.97 188.289 299.061 188.301 299.139 188.346L312.909 196.292C312.988 196.337 313.045 196.412 313.069 196.5C313.093 196.587 313.082 196.681 313.038 196.76C313.008 196.812 312.964 196.855 312.912 196.885C312.859 196.915 312.8 196.93 312.74 196.929Z" fill="#F0F0F0"/>
<path d="M316.626 202.95V193.41H308.85V202.95C308.881 203.291 309.004 203.619 309.204 203.897C309.404 204.176 309.675 204.397 309.989 204.536C310.843 204.969 311.787 205.194 312.745 205.194C313.702 205.194 314.646 204.969 315.501 204.536C315.812 204.395 316.08 204.174 316.278 203.895C316.475 203.616 316.596 203.29 316.626 202.95Z" fill="#37474F"/>
<path d="M309.987 191.818C310.841 191.386 311.786 191.16 312.743 191.16C313.701 191.16 314.645 191.386 315.499 191.818C317.018 192.699 317.018 194.123 315.499 194.998C314.645 195.43 313.701 195.656 312.743 195.656C311.786 195.656 310.841 195.43 309.987 194.998C308.489 194.123 308.489 192.699 309.987 191.818Z" fill="#455A64"/>
<path d="M316.626 195.952V197.417C316.589 197.728 316.47 198.024 316.282 198.275C316.094 198.526 315.843 198.723 315.555 198.847C314.68 199.292 313.713 199.524 312.731 199.524C311.75 199.524 310.782 199.292 309.907 198.847C309.619 198.723 309.369 198.526 309.181 198.275C308.992 198.024 308.874 197.728 308.836 197.417V195.945C308.631 196.133 308.465 196.36 308.348 196.612C308.232 196.865 308.167 197.138 308.158 197.417C308.189 197.851 308.336 198.269 308.585 198.627C308.833 198.985 309.173 199.269 309.568 199.451C310.549 199.945 311.633 200.203 312.731 200.203C313.83 200.203 314.913 199.945 315.894 199.451C316.29 199.269 316.629 198.984 316.877 198.626C317.125 198.268 317.273 197.851 317.304 197.417C317.297 197.139 317.233 196.866 317.117 196.614C317 196.362 316.833 196.137 316.626 195.952Z" fill="#F0F0F0"/>
<path d="M101.022 248.524C101.206 248.993 101.331 249.483 101.395 249.982C101.57 250.499 101.612 251.052 101.517 251.589C101.336 251.944 101.08 252.255 100.766 252.5C100.452 252.745 100.088 252.918 99.6997 253.006C98.8176 253.15 97.9136 252.954 97.1708 252.457C95.9972 251.577 94.5697 251.101 93.1028 251.101C91.7906 251.016 90.5436 250.499 89.5568 249.63C88.5805 248.762 88.811 247.216 90.506 247.223C92.54 247.223 95.3944 247.596 98.1539 247.223L101.022 248.524Z" fill="#263238"/>
<path d="M110.879 245.333C111.06 245.803 111.185 246.292 111.252 246.791C111.426 247.308 111.466 247.861 111.367 248.398C111.188 248.752 110.933 249.063 110.62 249.307C110.307 249.552 109.944 249.725 109.557 249.815C108.673 249.959 107.767 249.763 107.021 249.265C105.851 248.38 104.421 247.903 102.953 247.909C101.641 247.825 100.394 247.307 99.4074 246.438C98.4243 245.57 98.6616 244.024 100.357 244.031C102.391 244.031 105.245 244.404 108.004 244.031L110.879 245.333Z" fill="#263238"/>
<path d="M110.88 243.223V245.718C110.88 245.718 110.541 246.545 109.117 246.599C108.752 246.622 108.388 246.55 108.058 246.393C107.728 246.235 107.444 245.996 107.232 245.697V243.223H110.88Z" fill="#FFA8A7"/>
<path d="M106.127 226.891C106.127 229.989 106.995 244.288 106.995 244.288C106.995 244.288 108.263 245.888 111.015 244.288L111.951 228.423L106.127 226.891Z" fill="#01A657"/>
<g opacity="0.1">
<path d="M106.127 226.891C106.127 229.989 106.995 244.288 106.995 244.288C106.995 244.288 108.263 245.888 111.015 244.288L111.951 228.423L106.127 226.891Z" fill="black"/>
</g>
<path d="M101.531 246.444L101.036 248.939C101.036 248.939 100.697 249.766 99.2735 249.82C98.9085 249.844 98.5436 249.773 98.2137 249.615C97.8838 249.457 97.5998 249.217 97.3887 248.919L97.5921 246.051L101.531 246.444Z" fill="#FFA8A7"/>
<path d="M98.7037 231.176C98.446 232.606 97.3477 246.939 97.3477 246.939C97.3477 246.939 98.7511 248.899 101.504 247.299L104.446 233.298L98.7037 231.176Z" fill="#01A657"/>
<path d="M34.4562 240.457V227.5H30.5645V240.457C30.58 240.628 30.641 240.791 30.7412 240.931C30.8413 241.07 30.9769 241.18 31.134 241.25C31.5602 241.467 32.0319 241.58 32.5103 241.58C32.9888 241.58 33.4604 241.467 33.8867 241.25C34.0437 241.18 34.1793 241.07 34.2795 240.931C34.3796 240.791 34.4406 240.628 34.4562 240.457Z" fill="#37474F"/>
<path d="M32.5103 228.626C33.585 228.626 34.4562 228.122 34.4562 227.5C34.4562 226.879 33.585 226.375 32.5103 226.375C31.4356 226.375 30.5645 226.879 30.5645 227.5C30.5645 228.122 31.4356 228.626 32.5103 228.626Z" fill="#455A64"/>
<path d="M100.561 202.3V189.344H96.6621V202.3C96.6783 202.472 96.7403 202.636 96.8417 202.776C96.9431 202.915 97.0801 203.025 97.2384 203.094C97.6647 203.311 98.1363 203.424 98.6147 203.424C99.0932 203.424 99.5648 203.311 99.9911 203.094C100.148 203.024 100.284 202.914 100.384 202.775C100.484 202.635 100.545 202.471 100.561 202.3Z" fill="#263238"/>
<path d="M97.2388 188.549C97.665 188.332 98.1367 188.219 98.6151 188.219C99.0935 188.219 99.5652 188.332 99.9914 188.549C100.159 188.604 100.305 188.71 100.409 188.852C100.512 188.995 100.568 189.166 100.568 189.343C100.568 189.519 100.512 189.69 100.409 189.833C100.305 189.975 100.159 190.081 99.9914 190.136C99.5652 190.353 99.0935 190.466 98.6151 190.466C98.1367 190.466 97.665 190.353 97.2388 190.136C97.0712 190.081 96.9251 189.975 96.8215 189.833C96.7179 189.69 96.6621 189.519 96.6621 189.343C96.6621 189.166 96.7179 188.995 96.8215 188.852C96.9251 188.71 97.0712 188.604 97.2388 188.549Z" fill="#455A64"/>
<path d="M25.6289 223.191V224.337C25.6447 224.642 25.7321 224.939 25.8841 225.204C26.036 225.469 26.2482 225.694 26.5035 225.862L38.5177 232.798C38.7901 232.935 39.0908 233.007 39.3957 233.007C39.7006 233.007 40.0013 232.935 40.2737 232.798L107.396 194.064C107.651 193.896 107.864 193.67 108.017 193.405C108.17 193.141 108.259 192.844 108.277 192.538V191.393C108.26 191.087 108.171 190.79 108.018 190.525C107.865 190.26 107.652 190.035 107.396 189.867L95.3815 182.931C95.1092 182.794 94.8085 182.723 94.5035 182.723C94.1986 182.723 93.8979 182.794 93.6255 182.931L26.5035 221.665C26.2482 221.833 26.036 222.059 25.8841 222.324C25.7321 222.589 25.6447 222.886 25.6289 223.191Z" fill="#37474F"/>
<path d="M39.3991 229.825V233.005C39.0915 233.01 38.788 232.935 38.5177 232.788L26.5103 225.859C26.2537 225.692 26.0402 225.467 25.8871 225.202C25.7339 224.937 25.6455 224.639 25.6289 224.333V223.188C25.6432 222.915 25.7146 222.649 25.8384 222.406C25.9622 222.163 26.1357 221.949 26.3476 221.777C26.0289 222.049 26.0832 222.455 26.5103 222.679L38.5177 229.608C38.788 229.755 39.0915 229.83 39.3991 229.825Z" fill="#263238"/>
<path d="M26.5027 222.682L38.5168 229.618C38.7904 229.755 39.0922 229.827 39.3982 229.827C39.7043 229.827 40.0061 229.755 40.2796 229.618L107.402 190.884C107.509 190.849 107.602 190.781 107.668 190.689C107.733 190.598 107.769 190.488 107.769 190.376C107.769 190.263 107.733 190.153 107.668 190.062C107.602 189.971 107.509 189.903 107.402 189.867L95.3875 182.931C95.1151 182.794 94.8144 182.723 94.5095 182.723C94.2045 182.723 93.9038 182.794 93.6315 182.931L26.5094 221.665C26.4023 221.7 26.3088 221.768 26.2422 221.858C26.1757 221.949 26.1394 222.059 26.1387 222.171C26.1379 222.284 26.1727 222.394 26.238 222.486C26.3034 222.577 26.396 222.646 26.5027 222.682Z" fill="#37474F"/>
<path d="M32.3145 226.03L101.165 186.285L101.626 186.55L32.7755 226.301L32.3145 226.03Z" fill="#263238"/>
<path d="M89.5099 223.657L92.7439 223.324L92.0795 218.375L88.5742 218.707L89.5099 223.657Z" fill="#FFA8A7"/>
<path d="M92.4726 221.32L92.4184 220.879C92.7303 221.001 94.5202 224.269 95.6118 225.625C96.7034 226.981 98.5543 228.201 98.9611 229.218C99.3679 230.235 96.6491 230.954 95.6864 230.832C94.5745 230.683 92.615 229.991 92.0997 229.293C91.5845 228.595 91.3133 227.537 90.8929 227.028C90.4725 226.52 88.8589 225.442 88.6216 224.554C88.5537 223.768 88.5948 222.976 88.7436 222.201C88.8657 221.618 88.8114 220.987 89.0081 221.035L89.0962 221.503C89.634 221.79 90.2455 221.911 90.8522 221.848C91.3268 221.835 92.493 221.679 92.4726 221.32Z" fill="#263238"/>
<path d="M100.467 217.251L103.884 216.912L102.121 211.583L98.4941 211.488L100.467 217.251Z" fill="#FFA8A7"/>
<path d="M103.504 215.773C103.667 215.773 103.918 215.943 104.345 216.323C105.509 217.134 106.72 217.874 107.972 218.54C109.132 219.116 111.362 220.011 112.4 220.465C113.037 220.757 113.01 221.523 112.352 221.964C111.749 222.389 111.068 222.691 110.348 222.851C109.627 223.012 108.882 223.028 108.156 222.899C107.118 222.669 103.83 220.865 102.976 220.94C102.121 221.014 100.521 220.98 99.8839 220.54C99.2466 220.099 99.5449 218.56 99.728 217.767C99.9111 216.973 99.728 215.963 100.04 216.024L100.243 216.621C100.616 217.184 103.708 216.743 103.633 216.234L103.504 215.773Z" fill="#263238"/>
<path d="M72.0928 188.237C71.8623 193.315 71.4148 195.153 76.3575 198.916C79.1101 201.024 84.4935 204.394 84.4935 204.394C84.2432 206.404 84.4235 208.445 85.0223 210.381C86.1071 214.001 88.8191 220.361 88.8191 220.361C89.4014 220.585 90.0232 220.688 90.6467 220.665C91.2701 220.642 91.8824 220.492 92.4464 220.225C92.4464 220.225 91.6192 214.917 91.2396 211.12C90.6361 205.119 90.1141 203.092 89.8497 201.987C89.6191 201.004 84.4257 195.56 83.3273 193.919L93.877 199.221C93.877 199.221 93.9312 202.482 94.555 204.231C96.2025 208.76 99.6942 215.649 99.6942 215.649C99.6942 215.649 102.352 215.92 103.464 215.052C103.464 215.052 100.074 198.455 99.6603 197.051C98.9213 194.604 89.9785 188.169 88.1343 186.624C87.0902 185.735 85.924 184.793 85.924 184.793L72.0928 188.237Z" fill="#01A657"/>
<path opacity="0.1" d="M83.3535 193.919C84.3885 193.084 85.1684 191.975 85.6045 190.719C85.5478 191.538 85.43 192.351 85.2519 193.153C84.9875 194.217 93.9032 199.255 93.9032 199.255L83.3535 193.919Z" fill="black"/>
<path d="M96.2776 192.265C96.8322 192.469 97.4258 192.543 98.0133 192.482C98.7508 192.364 99.4487 192.068 100.047 191.621C100.328 191.443 100.572 191.213 100.766 190.943C100.852 190.824 100.911 190.688 100.939 190.544C100.967 190.4 100.963 190.252 100.929 190.109C100.813 189.852 100.447 189.804 100.203 189.777C99.7773 189.718 99.3575 189.62 98.949 189.486C98.7456 189.425 98.5422 189.364 98.3388 189.282C98.1354 189.201 97.8777 189.065 97.6608 188.964C97.5319 188.903 97.1862 188.733 97.2946 188.543C97.3441 188.475 97.4162 188.427 97.498 188.408C97.7421 188.319 97.993 188.265 98.2371 188.177C98.4804 188.092 98.6945 187.939 98.854 187.736C98.8921 187.691 98.9202 187.637 98.9366 187.58C98.9529 187.523 98.9572 187.463 98.949 187.404C98.9316 187.348 98.9011 187.296 98.8598 187.253C98.8185 187.211 98.7677 187.179 98.7117 187.16C98.6009 187.12 98.4838 187.099 98.3659 187.099L97.2946 187.018C96.5906 187.077 95.8815 187.013 95.1996 186.828C94.7353 186.576 94.327 186.232 93.9996 185.818C92.7995 184.557 88.8739 179.072 88.8739 179.072L86.5212 171.281C86.5212 171.281 85.9381 167.166 82.8058 166.434C82.182 167.403 81.1311 167.444 82.4871 172.061C83.4634 175.363 84.4533 180.027 85.2398 181.261C85.5748 181.785 85.9585 182.275 86.3856 182.726C88.6569 185.146 90.6841 187.167 92.8944 189.621C93.0843 189.825 93.2266 190.069 93.4165 190.299C94.1659 191.211 95.1577 191.893 96.2776 192.265Z" fill="#FFA8A7"/>
<path d="M81.2852 166.178C81.4741 166.427 81.6061 166.714 81.6717 167.02C81.7373 167.326 81.735 167.642 81.6648 167.947C81.57 169.514 81.77 171.085 82.2547 172.578C82.8717 174.558 84.5463 180.192 84.5463 180.192C85.35 180.339 86.1763 180.309 86.9669 180.103C87.7576 179.897 88.4935 179.52 89.1228 178.999L86.8651 170.68C86.8651 170.68 85.4955 165.011 81.2852 166.178Z" fill="#E0E0E0"/>
<path d="M72.9461 168.834C72.9461 168.834 71.8613 169.723 71.8613 172.529V178.584L72.0173 188.754C74.1869 191.113 83.9365 190.218 86.3434 185.072C86.3434 185.072 85.9976 174.191 85.6654 171.804C85.2179 168.563 84.4043 166.224 81.2787 166.156L76.5327 167.268L72.9461 168.834Z" fill="#EBEBEB"/>
<path d="M70.1118 198.268C70.4746 198.739 70.9378 199.123 71.4678 199.393C72.1591 199.694 72.9129 199.822 73.6646 199.766C73.9938 199.769 74.3206 199.71 74.6273 199.59C74.7638 199.535 74.887 199.451 74.9887 199.345C75.0904 199.238 75.1683 199.112 75.2172 198.973C75.2646 198.695 74.9731 198.458 74.7833 198.295C74.4575 198.013 74.1559 197.705 73.8815 197.373C73.7388 197.216 73.6053 197.05 73.4815 196.878C73.3323 196.668 73.2035 196.444 73.0611 196.2C72.9188 195.956 72.7832 195.759 72.9798 195.657C73.0583 195.627 73.1453 195.627 73.2239 195.657C73.4747 195.712 73.7188 195.807 73.9697 195.854C74.218 195.921 74.481 195.909 74.7222 195.82C74.7791 195.802 74.8314 195.772 74.8759 195.733C74.9203 195.693 74.9557 195.644 74.9799 195.59C74.9971 195.533 75.0006 195.474 74.99 195.416C74.9794 195.358 74.955 195.304 74.9189 195.257C74.8467 195.165 74.7596 195.084 74.6612 195.02L73.7934 194.376C73.1687 194.047 72.6064 193.611 72.1323 193.088C71.8727 192.627 71.7133 192.116 71.6645 191.589C71.3255 189.881 70.9865 183.148 70.9865 183.148L73.19 175.311C73.19 175.311 75.224 171.114 72.9662 168.809C71.9221 169.29 70.7085 169.181 69.3728 173.799C68.4168 177.107 66.7422 181.575 66.7422 183.033C66.7434 183.656 66.8024 184.278 66.9185 184.891C67.5354 188.152 68.1592 190.939 68.7016 194.2C68.7491 194.478 68.7423 194.762 68.7897 195.034C68.9159 196.215 69.3743 197.336 70.1118 198.268Z" fill="#FFA8A7"/>
<path d="M72.9467 168.836C72.1588 168.968 71.4327 169.345 70.872 169.914C69.9499 171.182 69.2759 172.613 68.8855 174.131C68.3431 176.165 66.7227 181.786 66.7227 181.786C67.3205 182.341 68.0327 182.759 68.8093 183.01C69.5859 183.26 70.408 183.338 71.2178 183.237L73.8078 174.979C73.8078 174.979 75.3536 170.233 72.9467 168.836Z" fill="#E0E0E0"/>
<path d="M77.334 157.594C77.3326 158.463 77.5894 159.314 78.0716 160.037C78.5538 160.761 79.2399 161.325 80.043 161.658C80.8461 161.992 81.73 162.079 82.5829 161.91C83.4358 161.741 84.2192 161.322 84.8341 160.707C85.4489 160.092 85.8675 159.309 86.0368 158.456C86.2061 157.603 86.1185 156.719 85.7851 155.916C85.4518 155.113 84.8876 154.427 84.1641 153.945C83.4405 153.462 82.5902 153.206 81.7207 153.207C80.5578 153.209 79.4431 153.672 78.6208 154.494C77.7985 155.316 77.3358 156.431 77.334 157.594Z" fill="#263238"/>
<path d="M74.5391 160.215C74.7876 161.458 75.1022 162.687 75.4815 163.896C75.6575 164.222 75.9546 164.466 76.3086 164.574L76.2612 162.351L74.5391 160.215Z" fill="#263238"/>
<path d="M75.3807 155.682C75.1456 155.655 74.9074 155.682 74.6842 155.761C74.461 155.839 74.2586 155.968 74.0925 156.136C73.5365 156.706 73.8484 158.475 74.54 160.204L75.8078 160.347L75.3807 155.682Z" fill="#263238"/>
<path d="M76.1884 160.358C75.9308 160.514 75.5714 160.026 75.2596 159.68C75.1353 159.541 74.9779 159.435 74.8018 159.372C74.6258 159.31 74.4368 159.292 74.2523 159.322C74.0678 159.352 73.8938 159.428 73.7464 159.542C73.5989 159.657 73.4828 159.807 73.4086 159.979C72.8866 161.077 73.8629 162.528 74.6629 162.779C76.0189 163.219 76.263 162.325 76.263 162.325L76.3715 167.335C77.5648 168.691 81.6599 168.352 80.887 167.206V165.681C81.5055 165.779 82.1329 165.811 82.7582 165.776C83.782 165.62 84.4193 164.813 84.7312 163.742C85.2262 161.965 85.4092 160.528 84.9956 157.036C84.5346 153.205 80.0801 153.165 77.6732 154.683C75.2663 156.202 76.1884 160.358 76.1884 160.358Z" fill="#FFA8A7"/>
<path d="M76.1873 160.786C76.0584 160.786 75.5703 159.986 75.2584 159.695C74.8177 159.295 75.3804 155.681 75.3804 155.681C75.2654 155.368 75.2446 155.029 75.3205 154.705C75.3964 154.381 75.5658 154.086 75.8076 153.857C76.4042 153.179 77.4144 153.118 79.123 152.854C80.0247 152.711 81.3875 152.46 82.2893 152.291C83.3605 152.087 84.2487 151.877 85.0013 152.535C85.2983 152.793 85.508 153.137 85.6015 153.52C85.6949 153.902 85.6676 154.304 85.5233 154.671C85.4448 154.836 85.342 154.989 85.2182 155.125C85.0119 155.366 84.7452 155.549 84.4453 155.654C84.4453 155.654 83.9775 156.067 82.3503 156.271C80.8502 156.382 79.3429 156.353 77.8484 156.183C77.3738 156.122 77.2721 156.576 77.0212 157.823C76.8042 158.922 76.6144 160.779 76.1873 160.786Z" fill="#263238"/>
<path d="M75.3867 155.967L73.8477 155.14C73.8973 155.037 73.9673 154.945 74.0534 154.869C74.1395 154.793 74.24 154.736 74.3488 154.7C74.4576 154.664 74.5725 154.65 74.6868 154.659C74.801 154.668 74.9123 154.701 75.0138 154.754C75.2184 154.871 75.3707 155.062 75.44 155.287C75.5092 155.512 75.4902 155.756 75.3867 155.967Z" fill="#263238"/>
<path d="M80.8864 165.696C79.835 165.496 78.8045 165.198 77.8083 164.807C77.3384 164.566 76.9529 164.188 76.7031 163.723C76.8246 164.188 77.0391 164.624 77.3337 165.004C77.9167 165.75 80.8864 166.299 80.8864 166.299V165.696Z" fill="#F28F8F"/>
<path d="M80.3359 159.791C80.3333 159.882 80.304 159.969 80.2517 160.043C80.1995 160.117 80.1266 160.174 80.0421 160.207C79.9577 160.24 79.8655 160.247 79.7769 160.228C79.6884 160.209 79.6075 160.164 79.5444 160.099C79.4813 160.034 79.4387 159.952 79.422 159.863C79.4053 159.773 79.4152 159.681 79.4504 159.598C79.4857 159.515 79.5447 159.443 79.6202 159.393C79.6957 159.343 79.7843 159.316 79.8749 159.316C79.9363 159.317 79.997 159.33 80.0534 159.355C80.1098 159.379 80.1609 159.414 80.2037 159.458C80.2465 159.502 80.2803 159.554 80.3029 159.611C80.3256 159.669 80.3368 159.73 80.3359 159.791Z" fill="#263238"/>
<path d="M79.6047 157.899L78.6487 158.475C78.5798 158.34 78.5653 158.184 78.6082 158.039C78.6511 157.894 78.7481 157.771 78.8792 157.696C79.0033 157.631 79.1475 157.615 79.2824 157.653C79.4172 157.691 79.5325 157.779 79.6047 157.899Z" fill="#263238"/>
<path d="M80.6832 162.949L81.7273 163.342C81.6823 163.478 81.586 163.59 81.4591 163.654C81.3323 163.719 81.1851 163.731 81.0493 163.688C80.9038 163.637 80.784 163.531 80.7156 163.393C80.6472 163.255 80.6355 163.096 80.6832 162.949Z" fill="#F28F8F"/>
<path d="M84.5269 158.297L83.6387 157.619C83.681 157.559 83.7348 157.509 83.797 157.471C83.8592 157.433 83.9285 157.407 84.0006 157.397C84.0728 157.386 84.1464 157.39 84.217 157.408C84.2876 157.426 84.3538 157.459 84.4116 157.503C84.5286 157.596 84.6057 157.729 84.6271 157.877C84.6486 158.025 84.6127 158.175 84.5269 158.297Z" fill="#263238"/>
<path d="M84.1346 159.662C84.1306 159.751 84.1007 159.837 84.0484 159.909C83.9961 159.981 83.9238 160.036 83.8406 160.067C83.7573 160.098 83.6667 160.104 83.5799 160.085C83.4932 160.065 83.4142 160.02 83.3527 159.956C83.2911 159.892 83.2499 159.811 83.2339 159.723C83.218 159.636 83.2281 159.545 83.263 159.464C83.2979 159.382 83.356 159.312 83.4302 159.263C83.5044 159.214 83.5914 159.188 83.6804 159.188C83.7415 159.188 83.8018 159.201 83.8579 159.226C83.9139 159.25 83.9646 159.286 84.0069 159.33C84.0491 159.374 84.0822 159.426 84.1041 159.483C84.1261 159.54 84.1364 159.601 84.1346 159.662Z" fill="#263238"/>
<path d="M81.875 159.293L81.9292 162.066L83.57 161.7L81.875 159.293Z" fill="#F28F8F"/>
<path d="M47.2852 189.663C48.031 189.894 49.3192 189.209 51.3532 192.375C52.5193 194.179 55.8008 198.586 55.8008 198.586C55.8008 198.586 60.8791 193.731 61.157 193.053C61.435 192.375 61.2045 192.023 61.5299 190.606C61.8554 189.189 62.0317 188.762 61.991 188.287C61.9503 187.812 62.7368 188.07 62.8181 188.68C62.8995 189.29 62.6215 189.955 62.8859 189.934C63.1504 189.914 63.964 188.578 64.2419 187.487C64.5199 186.395 65.1166 186.389 65.1708 186.809C65.2054 187.046 65.1939 187.288 65.1369 187.521C65.3745 187.58 65.5922 187.701 65.7684 187.871C65.9445 188.041 66.0728 188.255 66.1403 188.49C66.4284 189.636 66.2684 190.849 65.6929 191.88C65.0149 193.379 63.9029 193.847 63.4826 194.477C63.0622 195.108 59.4146 200.301 57.5365 202.003C56.3568 203.074 55.611 203.522 54.316 202.396C53.021 201.271 47.9632 195.358 47.9632 195.358L47.2852 189.663Z" fill="#B16668"/>
<path d="M57.2301 228.605C56.986 228.863 56.7013 229.168 56.7352 229.494C56.8233 230.191 57.1322 230.842 57.6166 231.351C58.3082 232.26 58.7458 233.337 58.8844 234.47C59.0065 235.433 59.0946 237.86 60.315 238.85C61.5354 239.84 64.4915 240.301 64.4915 238.511C64.4915 236.721 60.9659 229.846 60.9659 229.846L57.2301 228.605Z" fill="#263238"/>
<path d="M58.8711 229.754C59.3635 231.004 59.7624 232.289 60.0644 233.598C60.3695 235.036 60.7898 236.046 61.5221 236.432C62.2543 236.819 63.3459 236.744 62.9391 235.754C62.5323 234.764 60.9661 229.835 60.9661 229.835L58.8711 229.754Z" fill="#9A4A4D"/>
<path d="M49.3862 205.59C49.3862 205.59 55.2305 207.99 58.0578 209.509C60.885 211.027 63.5767 212.512 64.1598 213.733C64.7429 214.953 64.6005 218.106 64.2886 221.069C63.9767 224.031 63.3326 229.354 63.3326 229.354L55.0542 216.946L46.7148 211.448L49.3862 205.59Z" fill="#01A657"/>
<path opacity="0.1" d="M60.1602 218.374C59.3466 216.475 57.5635 215.208 55.8956 214.177C54.5396 213.33 51.1496 211.357 49.9563 210.679C50.2176 210.031 50.3644 209.343 50.3902 208.645C50.0367 209.456 49.6243 210.24 49.1562 210.99L57.6787 217.35L63.5163 227.805C63.5163 227.805 60.9806 220.272 60.1602 218.374Z" fill="black"/>
<path d="M64.0179 238.648C63.7806 238.804 63.8145 239.394 63.8348 239.828C63.8552 240.262 63.5433 240.832 64.1738 241.503C64.8044 242.174 65.8688 242.228 66.7299 243.144C67.5909 244.059 68.9063 245.747 71.2725 245.856C73.6387 245.964 75.2591 244.94 75.5778 244.194C75.8965 243.449 75.4083 242.838 73.815 242.255C72.12 241.618 71.6386 241.428 71.6386 241.428L64.0179 238.648Z" fill="#263238"/>
<path d="M65.7674 233.551C65.7674 233.551 67.3607 236.432 68.2556 237.727C69.2442 239.076 70.4384 240.261 71.7948 241.239C72.0931 241.47 72.7508 241.877 72.9949 242.06C73.0501 242.094 73.0971 242.141 73.1325 242.195C73.168 242.25 73.191 242.312 73.2 242.377C73.2091 242.441 73.2039 242.507 73.1849 242.569C73.1658 242.632 73.1334 242.689 73.0898 242.738C72.6898 243.314 70.6219 243.856 69.2726 243.226C67.9234 242.595 66.4183 241.151 65.5775 240.588L64.4114 239.836C64.2742 239.741 64.1636 239.613 64.09 239.463C64.0164 239.314 63.9823 239.148 63.991 238.982C63.991 238.887 63.991 238.771 63.991 238.643C63.991 237.931 62.5469 235.341 62.5469 235.341L65.7674 233.551Z" fill="#B16668"/>
<path d="M37.6373 208.742C37.6373 211.101 37.5695 213.074 38.9526 215.142C40.3357 217.21 42.3426 217.793 45.8885 218.986C48.8446 219.983 53.0685 221.576 53.9296 221.766C54.7907 221.956 54.9669 222.41 55.1703 223.936C55.3737 225.461 56.3975 227.82 58.7027 230.553C60.3787 232.584 61.9427 234.704 63.3877 236.906C63.3877 236.906 65.8014 236.906 66.7235 235.299C66.7235 235.299 60.0113 219.468 58.94 217.671C57.8688 215.874 49.1565 211.013 49.1565 211.013C49.1565 211.013 49.3056 207.738 49.4209 205.352L37.6373 208.742Z" fill="#01A657"/>
<path d="M41.9221 190.075L39.4271 190.637C39.4271 190.637 40.661 192.38 39.7864 195.865C39.1694 198.333 38.5796 198.468 37.2168 199.004C37.3185 203.513 37.6372 208.74 37.6372 208.74C37.6372 208.74 40.4034 210.774 46.0511 209.94C51.0141 209.262 50.9395 206.224 50.9395 206.224L49.1021 204.36L49.1496 200.556C49.7473 200.007 50.1995 199.319 50.4657 198.552C50.7319 197.785 50.8039 196.964 50.6751 196.163C50.37 193.18 47.2851 189.641 47.2851 189.641H46.3766L41.9221 190.075Z" fill="#01A657"/>
<path opacity="0.5" d="M41.9221 190.075L39.4271 190.637C39.4271 190.637 40.661 192.38 39.7864 195.865C39.1694 198.333 38.5796 198.468 37.2168 199.004C37.3185 203.513 37.6372 208.74 37.6372 208.74C37.6372 208.74 40.4034 210.774 46.0511 209.94C51.0141 209.262 50.9395 206.224 50.9395 206.224L49.1021 204.36L49.1496 200.556C49.7473 200.007 50.1995 199.319 50.4657 198.552C50.7319 197.785 50.8039 196.964 50.6751 196.163C50.37 193.18 47.2851 189.641 47.2851 189.641H46.3766L41.9221 190.075Z" fill="black"/>
<path opacity="0.2" d="M49.8607 208.38C47.3114 208.957 43.6095 208.597 42.2671 207.35C40.9246 206.102 40.0704 203.031 40.5653 201.187C41.0568 198.839 41.0568 196.415 40.5653 194.068L40.1043 193.871C40.0717 194.544 39.9717 195.212 39.8059 195.864C39.189 198.332 38.5991 198.468 37.2363 199.004C37.2363 203.607 37.6567 208.74 37.6567 208.74C37.6567 208.74 40.4229 210.774 46.0707 209.94C47.4706 209.823 48.8007 209.278 49.881 208.38H49.8607Z" fill="black"/>
<path d="M45.8735 187.486L43.5208 187.547C42.7411 187.57 41.9646 187.438 41.2357 187.16C40.5069 186.883 39.84 186.464 39.2732 185.928C38.7064 185.392 38.2509 184.749 37.9327 184.037C37.6145 183.325 37.4399 182.557 37.4188 181.777C37.3926 180.844 37.5508 179.914 37.8844 179.041C38.2179 178.169 38.7202 177.371 39.3625 176.692C40.0048 176.014 40.7746 175.469 41.6277 175.089C42.4808 174.708 43.4006 174.5 44.3344 174.475C46.2197 174.424 48.0481 175.124 49.4175 176.421C50.7868 177.718 51.585 179.506 51.6365 181.391C51.6784 182.963 51.0953 184.487 50.015 185.63C48.9346 186.772 47.4453 187.44 45.8735 187.486Z" fill="#263238"/>
<path d="M42.4636 172.839C43.5145 174.311 42.4636 175.362 40.9924 176.413C39.5211 177.463 38.1854 178.114 37.1345 176.643C36.0836 175.172 36.6057 173.49 38.077 172.439C39.5482 171.389 41.4127 171.355 42.4636 172.839Z" fill="#263238"/>
<path d="M38.911 177.554L37.433 178.7C37.3528 178.607 37.2923 178.499 37.2552 178.381C37.2181 178.264 37.2052 178.141 37.2173 178.018C37.2293 177.896 37.266 177.777 37.3253 177.67C37.3845 177.562 37.465 177.467 37.5618 177.392C37.7644 177.24 38.0177 177.172 38.269 177.202C38.5204 177.233 38.7503 177.359 38.911 177.554Z" fill="#263238"/>
<path d="M48.8157 177.539C49.575 177.959 50.5581 179.824 50.5717 183.783C50.5717 187.173 49.5208 188.001 48.9784 188.258C48.436 188.516 47.3851 188.394 46.3545 188.258V189.648C46.3545 189.648 48.1987 191.682 48.1377 192.597C48.0766 193.513 45.7714 194.001 44.4222 193.133C43.4452 192.424 42.5948 191.555 41.9068 190.563L41.8051 185.912C41.8051 185.912 41.2221 186.509 40.1779 185.648C39.3101 184.929 38.9914 183.695 39.6355 183.011C39.801 182.847 40.0029 182.725 40.2248 182.655C40.4466 182.585 40.6819 182.569 40.9111 182.609C41.1404 182.648 41.3571 182.741 41.5432 182.88C41.7293 183.02 41.8795 183.201 41.9814 183.411C43.3239 183.318 44.6219 182.891 45.7579 182.17C46.5973 181.695 47.3121 181.027 47.8436 180.222C48.3752 179.417 48.7083 178.498 48.8157 177.539Z" fill="#B16668"/>
<path d="M46.7833 183.044C46.7889 183.1 46.7833 183.157 46.7669 183.211C46.7505 183.265 46.7235 183.315 46.6876 183.358C46.6516 183.402 46.6074 183.438 46.5575 183.464C46.5076 183.49 46.453 183.506 46.3968 183.512C46.2874 183.509 46.1826 183.467 46.103 183.391C46.0234 183.316 45.9746 183.214 45.9662 183.105C45.9577 182.996 45.9902 182.887 46.0572 182.801C46.1243 182.714 46.2212 182.656 46.329 182.637C46.4426 182.633 46.5532 182.673 46.6379 182.749C46.7225 182.825 46.7746 182.93 46.7833 183.044Z" fill="#263238"/>
<path d="M46.9932 185.887L47.9831 186.171C47.9673 186.238 47.9383 186.301 47.8978 186.356C47.8572 186.411 47.806 186.457 47.7471 186.492C47.6882 186.527 47.623 186.549 47.5552 186.558C47.4874 186.567 47.4185 186.563 47.3525 186.544C47.2195 186.502 47.108 186.41 47.041 186.288C46.9741 186.165 46.957 186.022 46.9932 185.887Z" fill="#9A4A4D"/>
<path d="M50.2272 181.653L49.3594 181.084C49.4292 180.974 49.539 180.896 49.6655 180.865C49.792 180.835 49.9253 180.855 50.0374 180.921C50.1568 180.996 50.2431 181.113 50.2785 181.249C50.3138 181.386 50.2954 181.53 50.2272 181.653Z" fill="#263238"/>
<path d="M50.0567 182.653C50.0623 182.71 50.0568 182.766 50.0403 182.82C50.0239 182.874 49.9969 182.924 49.961 182.968C49.9251 183.011 49.8809 183.047 49.831 183.074C49.7811 183.1 49.7265 183.116 49.6703 183.121C49.5608 183.119 49.4561 183.076 49.3765 183.001C49.2968 182.926 49.2481 182.824 49.2396 182.715C49.2311 182.606 49.2636 182.497 49.3307 182.411C49.3978 182.324 49.4946 182.266 49.6025 182.247C49.7165 182.241 49.8281 182.281 49.9131 182.357C49.9981 182.433 50.0497 182.539 50.0567 182.653Z" fill="#263238"/>
<path d="M48.1445 182.25L48.1988 185.003L49.5209 184.548L48.1445 182.25Z" fill="#9A4A4D"/>
<path d="M46.3563 188.251C45.2715 188.136 43.0341 187.573 42.668 186.691C42.8173 187.132 43.0991 187.515 43.4748 187.79C44.3831 188.293 45.3544 188.674 46.3631 188.922L46.3563 188.251Z" fill="#9A4A4D"/>
<path d="M75.1981 234.891L57.8956 247.373L53.1496 250.763L50.9054 252.058C50.8347 252.098 50.7596 252.13 50.6816 252.153L52.8851 250.613L57.7803 247.081L72.4726 236.477L75.1981 234.891Z" fill="#263238"/>
<path d="M66.547 261.685L66.4453 261.631L64.7706 260.668C64.4002 260.431 64.0949 260.104 63.8824 259.719L44.8984 220.578L47.6511 222.165L65.7198 259.455L66.8521 261.773C66.7464 261.76 66.6435 261.73 66.547 261.685Z" fill="#37474F"/>
<path d="M69.1014 260.669L67.4403 261.625C67.2647 261.729 67.0603 261.774 66.8572 261.754L65.725 259.435L47.6562 222.145L50.4089 220.559L69.3929 259.7C69.4769 259.868 69.4934 260.062 69.4393 260.242C69.3851 260.422 69.2643 260.575 69.1014 260.669Z" fill="#263238"/>
<path d="M59.2246 246.019L61.9773 244.426L75.1983 234.887L72.4456 236.48L59.2246 246.019Z" fill="black"/>
<path d="M57.7525 247.08L52.8845 250.613L50.7013 252.186C50.5759 252.22 50.4447 252.23 50.3155 252.214C50.1863 252.197 50.0617 252.156 49.9488 252.091L48.2741 251.128C48.2015 251.099 48.1386 251.051 48.0928 250.988C48.0471 250.924 48.0205 250.849 48.0162 250.771C48.012 250.694 48.0301 250.616 48.0687 250.548C48.1072 250.48 48.1643 250.425 48.2334 250.389L69.7531 234.91L72.4651 236.476L57.7525 247.08Z" fill="#37474F"/>
<path d="M53.7113 250.391C53.4062 250.614 52.8977 250.94 52.5722 251.13L50.9179 252.086C50.8401 252.127 50.7583 252.162 50.6738 252.187L52.8841 250.614L57.7793 247.082L57.9216 247.374L53.7113 250.391Z" fill="black"/>
<path d="M138.536 198.32L121.233 210.802L116.487 214.192L114.243 215.487C114.173 215.527 114.098 215.559 114.02 215.582L116.203 214.009L121.098 210.477L135.79 199.873L138.536 198.32Z" fill="#263238"/>
<path d="M129.884 225.115L129.782 225.061L128.142 224.098C127.773 223.858 127.468 223.532 127.254 223.149L108.27 184.008L111.022 185.594L129.091 222.884L130.223 225.203C130.106 225.193 129.991 225.163 129.884 225.115Z" fill="#37474F"/>
<path d="M132.441 224.098L130.78 225.054C130.605 225.158 130.4 225.203 130.197 225.183L129.065 222.884L110.996 185.594L113.749 184.008L132.733 223.149C132.812 223.315 132.826 223.504 132.772 223.68C132.718 223.856 132.6 224.005 132.441 224.098Z" fill="#263238"/>
<path d="M122.562 209.445L125.315 207.852L138.536 198.312L135.784 199.906L122.562 209.445Z" fill="black"/>
<path d="M121.092 210.51L116.197 214.07L114.014 215.643C113.888 215.677 113.757 215.687 113.628 215.671C113.499 215.654 113.374 215.613 113.261 215.548L111.587 214.585C111.514 214.557 111.451 214.508 111.405 214.445C111.36 214.381 111.333 214.306 111.329 214.229C111.324 214.151 111.343 214.073 111.381 214.005C111.42 213.938 111.477 213.882 111.546 213.846L133.066 198.367L135.778 199.933L121.092 210.51Z" fill="#37474F"/>
<path d="M117.051 213.82C116.746 214.044 116.238 214.37 115.912 214.559L114.258 215.515C114.18 215.557 114.098 215.591 114.014 215.617L116.197 214.044L121.092 210.512L121.234 210.803L117.051 213.82Z" fill="black"/>
<path d="M143.329 197.921C143.279 197.877 143.225 197.839 143.167 197.806L111.87 179.744C111.597 179.607 111.295 179.535 110.989 179.535C110.683 179.535 110.381 179.607 110.107 179.744L47.6501 215.807L43.0262 218.478C42.9838 218.502 42.945 218.531 42.9109 218.566C42.8793 218.586 42.8517 218.611 42.8295 218.641C42.8082 218.658 42.7898 218.678 42.7753 218.702C42.4165 219.038 42.2005 219.499 42.1719 219.99V221.136C42.1877 221.441 42.2751 221.738 42.427 222.003C42.579 222.268 42.7912 222.493 43.0465 222.661L74.3362 240.723C74.6081 240.866 74.9106 240.94 75.2176 240.94C75.5246 240.94 75.8271 240.866 76.099 240.723L143.221 201.989C143.478 201.822 143.692 201.597 143.845 201.332C143.998 201.067 144.086 200.769 144.102 200.463V199.318C144.079 199.044 143.998 198.778 143.865 198.537C143.731 198.296 143.549 198.086 143.329 197.921Z" fill="#455A64"/>
<path d="M144.048 199.329V200.509C144.032 200.815 143.944 201.113 143.791 201.378C143.638 201.643 143.424 201.868 143.167 202.035L76.0787 240.769C75.8084 240.916 75.5048 240.99 75.1973 240.986V237.799C75.5043 237.806 75.8079 237.734 76.0787 237.589L143.201 198.855C143.628 198.611 143.682 198.231 143.363 197.953C143.564 198.125 143.729 198.335 143.846 198.571C143.964 198.808 144.033 199.066 144.048 199.329Z" fill="#37474F"/>
<path d="M75.1981 237.801V240.987C74.8905 240.992 74.5869 240.917 74.3167 240.77L43.027 222.674C42.7717 222.507 42.5595 222.281 42.4075 222.016C42.2556 221.751 42.1681 221.454 42.1523 221.149V220.003C42.181 219.512 42.397 219.051 42.7558 218.715C42.5727 218.979 42.6676 219.284 43.027 219.495L74.3167 237.556C74.5842 237.713 74.888 237.797 75.1981 237.801Z" fill="#263238"/>
<path d="M50.4102 223.759L119.268 184.008L119.722 184.272L50.8712 224.023L50.4102 223.759Z" fill="#263238"/>
<path d="M58.6738 228.525L127.525 188.773L127.986 189.038L59.1281 228.789L58.6738 228.525Z" fill="#263238"/>
<path d="M66.9336 233.298L135.791 193.547L136.246 193.811L67.3879 233.562L66.9336 233.298Z" fill="#263238"/>
<path d="M86.7852 270.671V257.715H82.8867V270.671C82.9023 270.842 82.9633 271.006 83.0634 271.146C83.1636 271.285 83.2992 271.395 83.4562 271.465C83.8837 271.682 84.3564 271.795 84.836 271.795C85.3155 271.795 85.7883 271.682 86.2157 271.465C86.3727 271.395 86.5084 271.285 86.6085 271.146C86.7086 271.006 86.7697 270.842 86.7852 270.671Z" fill="#37474F"/>
<path d="M84.8326 258.837C85.9072 258.837 86.7784 258.333 86.7784 257.711C86.7784 257.09 85.9072 256.586 84.8326 256.586C83.7579 256.586 82.8867 257.09 82.8867 257.711C82.8867 258.333 83.7579 258.837 84.8326 258.837Z" fill="#455A64"/>
<path d="M152.889 232.511V219.555H148.99V232.511C149.005 232.682 149.066 232.847 149.166 232.986C149.266 233.126 149.402 233.236 149.56 233.305C149.986 233.522 150.458 233.635 150.936 233.635C151.415 233.635 151.886 233.522 152.312 233.305C152.47 233.235 152.607 233.126 152.708 232.986C152.81 232.847 152.872 232.683 152.889 232.511Z" fill="#263238"/>
<path d="M149.561 218.76C149.987 218.543 150.459 218.43 150.937 218.43C151.416 218.43 151.887 218.543 152.314 218.76C152.481 218.815 152.627 218.921 152.731 219.063C152.835 219.206 152.89 219.377 152.89 219.553C152.89 219.73 152.835 219.901 152.731 220.044C152.627 220.186 152.481 220.292 152.314 220.347C151.887 220.564 151.416 220.677 150.937 220.677C150.459 220.677 149.987 220.564 149.561 220.347C149.393 220.292 149.247 220.186 149.144 220.044C149.04 219.901 148.984 219.73 148.984 219.553C148.984 219.377 149.04 219.206 149.144 219.063C149.247 218.921 149.393 218.815 149.561 218.76Z" fill="#455A64"/>
<path d="M77.9707 253.395V254.541C77.9867 254.847 78.0749 255.144 78.2281 255.41C78.3813 255.675 78.5952 255.9 78.8521 256.066L90.8527 263.009C91.1263 263.146 91.4281 263.218 91.7341 263.218C92.0401 263.218 92.3419 263.146 92.6155 263.009L159.704 224.275C159.961 224.108 160.174 223.883 160.328 223.618C160.481 223.353 160.569 223.055 160.585 222.749V221.604C160.569 221.298 160.481 221 160.328 220.735C160.174 220.47 159.961 220.245 159.704 220.078L147.696 213.142C147.423 213.005 147.121 212.934 146.815 212.934C146.509 212.934 146.207 213.005 145.933 213.142L78.8453 251.876C78.5909 252.043 78.3793 252.268 78.2274 252.532C78.0755 252.795 77.9875 253.091 77.9707 253.395Z" fill="#37474F"/>
<path d="M91.7194 260.032V263.219C91.4118 263.223 91.1083 263.149 90.838 263.002L78.8306 256.107C78.5741 255.94 78.3605 255.714 78.2074 255.449C78.0542 255.184 77.9658 254.887 77.9492 254.581V253.395C77.9635 253.122 78.0349 252.856 78.1587 252.613C78.2825 252.37 78.456 252.156 78.6679 251.984C78.3492 252.256 78.4035 252.662 78.8306 252.886L90.8516 259.822C91.1183 259.965 91.417 260.037 91.7194 260.032Z" fill="#263238"/>
<path d="M78.8312 252.893L90.8522 259.829C91.1257 259.966 91.4275 260.038 91.7336 260.038C92.0396 260.038 92.3414 259.966 92.615 259.829L159.703 221.095C159.81 221.06 159.903 220.992 159.969 220.9C160.035 220.809 160.07 220.699 160.07 220.587C160.07 220.474 160.035 220.364 159.969 220.273C159.903 220.182 159.81 220.114 159.703 220.078L147.696 213.142C147.422 213.005 147.12 212.934 146.814 212.934C146.508 212.934 146.206 213.005 145.933 213.142L78.8448 251.876C78.3431 252.161 78.3431 252.615 78.8312 252.893Z" fill="#455A64"/>
<path d="M84.6426 256.247L153.493 216.496L153.955 216.761L85.1036 256.512L84.6426 256.247Z" fill="#263238"/>
<path d="M46.2188 211.854C44.3882 211.318 37.8659 209.182 35.8793 208.538C34.5233 208.091 33.7504 207.772 33.7097 206.579C33.669 205.386 35.3301 196.355 35.9268 194.104C36.4488 192.138 37.7438 190.788 39.6761 190.578C40.9847 191.615 41.1948 196.951 39.6287 198.334C39.0456 200.653 38.2116 204.782 38.2116 204.782C38.2116 204.782 41.7169 206.599 44.3747 207.881C45.7307 208.518 47.5002 209.433 48.5579 209.549C49.6156 209.664 50.958 209.691 51.9479 210.335C52.4538 210.678 52.9101 211.088 53.3039 211.555C53.6294 211.922 53.9412 212.308 54.2463 212.701C54.4662 212.935 54.6021 213.236 54.6328 213.556C54.6114 213.756 54.5292 213.946 54.3971 214.098C54.265 214.251 54.0894 214.36 53.8938 214.41C53.3436 214.562 52.7562 214.496 52.253 214.227C51.7104 213.858 51.1364 213.538 50.5377 213.271C49.7919 212.993 48.5037 213.142 47.7714 212.742L46.2188 211.854Z" fill="#B16668"/>
<path d="M129.233 230.666C129.233 230.666 117.029 226.815 114.784 226.198C112.54 225.581 108.269 224.558 107.014 225.12C105.76 225.683 105.13 226.334 104.98 228.137C104.98 228.476 104.98 230.131 104.98 230.131C104.98 230.131 111.191 232.049 116.276 232.049C121.361 232.049 129.233 230.666 129.233 230.666Z" fill="#01A657"/>
<g opacity="0.1">
<path d="M129.233 230.668C130.1 230.939 117.083 226.83 114.784 226.2C112.486 225.569 108.269 224.559 107.014 225.122C105.76 225.684 105.13 226.335 104.98 228.139C104.98 228.478 104.98 230.132 104.98 230.132C104.98 230.132 111.191 232.051 116.276 232.051C121.361 232.051 129.233 230.668 129.233 230.668Z" fill="black"/>
</g>
<path d="M119.023 208.85L118.928 213.535L123.443 215.02L124.06 208.66L119.023 208.85Z" fill="#FFA8A7"/>
<path d="M115.449 204.355C115.449 204.355 114.459 206.091 114.622 206.247C114.938 206.386 115.274 206.475 115.618 206.512L115.449 204.355Z" fill="#F28F8F"/>
<path d="M117.871 198.639C116.901 199.317 115.837 200.558 115.457 204.185C115.016 208.152 115.972 209.433 116.413 209.765C117.091 210.253 119.695 210.172 120.623 209.765C121.796 209.223 124.088 207.731 125.064 205.568C126.203 202.985 126.088 199.765 124.244 198.734C123.268 198.207 122.178 197.924 121.069 197.907C119.96 197.89 118.863 198.142 117.871 198.639Z" fill="#FFA8A7"/>
<path d="M116.223 200.077C116.742 200.684 117.367 201.192 118.068 201.575C118.522 202.287 117.796 204.253 118.786 204.728C118.786 204.728 119.241 203.243 120.495 203.487C121.749 203.731 121.851 205.358 121.017 206.314C120.183 207.27 119.437 206.85 119.437 206.85C119.388 207.346 119.467 207.847 119.666 208.304C119.866 208.761 120.179 209.159 120.576 209.46C121.067 209.796 121.632 210.007 122.223 210.075C122.813 210.144 123.412 210.068 123.966 209.854C125.303 209.179 126.386 208.09 127.051 206.748C128.739 203.392 129.133 200.646 126.983 199.623C126.99 198.991 126.768 198.379 126.358 197.899C125.947 197.419 125.377 197.104 124.753 197.012C121.736 196.178 119.288 198.029 116.745 197.507C115.403 197.236 115.471 199.155 116.223 200.077Z" fill="#263238"/>
<path d="M124.751 198.477L126.318 197.799C126.277 197.69 126.214 197.592 126.134 197.508C126.054 197.425 125.958 197.359 125.851 197.314C125.745 197.269 125.631 197.246 125.515 197.246C125.399 197.247 125.285 197.27 125.179 197.316C125.073 197.362 124.977 197.429 124.898 197.513C124.818 197.597 124.757 197.696 124.717 197.805C124.677 197.913 124.659 198.029 124.665 198.144C124.671 198.26 124.7 198.373 124.751 198.477Z" fill="#263238"/>
<path d="M129.437 229.188C129.437 231.656 129.749 234.314 128.759 236.124C127.769 237.935 123.382 241.548 118.134 240.633C114.704 240.057 103.619 235.833 103.619 235.833C103.619 235.833 98.7166 234.022 98.6895 232.727C98.6895 232.416 98.6895 232.083 98.6895 231.744C98.7979 230.029 99.4895 228.178 103.083 228.273C107.002 228.375 118.636 230.307 118.636 230.307L129.437 229.188Z" fill="#01A657"/>
<path d="M129.037 213.611C128.61 212.323 126.861 210.506 125.227 210.811C122.223 211.367 118.935 212.344 118.06 212.594C118.06 212.594 118.453 219.218 115.05 221.225L114.928 232.867C115.246 233.574 115.789 234.156 116.474 234.521C117.877 235.416 120.596 235.809 124.013 234.88C128.603 233.64 129.552 230.921 129.552 230.921C129.552 230.921 129.403 223.198 129.437 219.625C129.498 216.398 129.328 214.5 129.037 213.611Z" fill="#01A657"/>
<g opacity="0.5">
<path d="M129.037 213.611C128.61 212.323 126.861 210.506 125.227 210.811C122.223 211.367 118.935 212.344 118.06 212.594C118.06 212.594 118.453 219.218 115.05 221.225L114.928 232.867C115.246 233.574 115.789 234.156 116.474 234.521C117.877 235.416 120.596 235.809 124.013 234.88C128.603 233.64 129.552 230.921 129.552 230.921C129.552 230.921 129.403 223.198 129.437 219.625C129.498 216.398 129.328 214.5 129.037 213.611Z" fill="black"/>
</g>
<g opacity="0.2">
<path d="M115.035 222.784C116.078 221.66 116.872 220.33 117.367 218.879C117.367 218.879 117.462 222.066 115.021 223.754L115.035 222.784Z" fill="black"/>
</g>
<path d="M118.059 212.594C116.201 213.156 115.076 213.272 113.022 216.411C110.967 219.55 106.33 225.476 105.889 226.228C105.575 226.769 105.393 227.376 105.358 228.001C105.323 228.625 105.435 229.249 105.686 229.822C106.187 230.717 107.381 230.188 109.421 228.405C111.462 226.622 115.523 221.93 115.523 221.93C116.816 218.957 117.67 215.812 118.059 212.594Z" fill="#FFA8A7"/>
<path d="M118.06 212.594C117.13 212.789 116.222 213.075 115.348 213.448C114.45 213.739 113.656 214.286 113.063 215.021C111.395 217.252 109.246 221.014 109.246 221.014C109.246 221.014 109.633 223.93 113.219 224.96L114.982 222.811C115.765 221.975 116.408 221.018 116.887 219.977C117.721 218.201 118.65 215.387 118.06 212.594Z" fill="#01A657"/>
<g opacity="0.4">
<path d="M118.06 212.594C117.13 212.789 116.222 213.075 115.348 213.448C114.45 213.739 113.656 214.286 113.063 215.021C111.395 217.252 109.246 221.014 109.246 221.014C109.246 221.014 109.633 223.93 113.219 224.96L114.982 222.811C115.765 221.975 116.408 221.018 116.887 219.977C117.721 218.201 118.65 215.387 118.06 212.594Z" fill="black"/>
</g>
<path d="M106.31 230.263C104.595 230.053 100.886 224.839 99.7471 223.09C98.8478 221.646 97.6672 220.399 96.2757 219.422C94.4587 218.066 94.7231 216.032 95.5164 214.133C95.7943 213.455 96.7232 213.903 96.7232 213.903L97.0486 214.798L97.6182 216.35C98.0046 216.71 98.2216 216.825 98.2487 216.716C98.2758 216.608 97.9639 215.686 97.9707 214.811C97.9707 213.767 98.7165 214.452 98.9335 214.811C99.2337 215.37 99.4921 215.95 99.7064 216.547C100.073 217.483 99.9234 218.432 100.384 219.069C100.845 219.706 106.812 225.435 106.812 225.435L106.31 230.263Z" fill="#FFA8A7"/>
<path d="M176.172 265.374L189.732 257.591C190.046 257.451 190.391 257.397 190.732 257.432C191.074 257.468 191.4 257.593 191.678 257.794C192.482 258.319 193.151 259.026 193.63 259.858C194.11 260.689 194.386 261.622 194.437 262.581C194.474 262.924 194.419 263.271 194.277 263.586C194.135 263.9 193.912 264.171 193.63 264.371L180.186 272.093L179.942 271.687C179.662 271.625 179.395 271.52 179.148 271.375C178.343 270.851 177.673 270.144 177.192 269.313C176.711 268.481 176.434 267.547 176.382 266.588C176.383 266.349 176.41 266.11 176.463 265.876L176.172 265.374Z" fill="#B16668"/>
<path d="M178.186 265.538C178.99 266.063 179.659 266.77 180.139 267.601C180.618 268.433 180.895 269.366 180.946 270.325C180.946 272.088 179.712 272.806 178.186 271.925C177.38 271.401 176.709 270.693 176.228 269.86C175.748 269.027 175.471 268.092 175.42 267.132C175.42 265.369 176.654 264.657 178.186 265.538Z" fill="#9A4A4D"/>
<path d="M192.81 270.758L169.968 257.591C169.656 257.452 169.312 257.397 168.972 257.432C168.631 257.468 168.306 257.593 168.029 257.795C167.224 258.318 166.554 259.025 166.073 259.857C165.592 260.688 165.315 261.622 165.263 262.581C165.226 262.924 165.281 263.271 165.423 263.586C165.565 263.901 165.788 264.172 166.07 264.371L188.81 277.477L189.054 277.063C189.332 277.002 189.6 276.899 189.847 276.758C190.654 276.234 191.324 275.526 191.805 274.693C192.286 273.86 192.563 272.925 192.614 271.965C192.612 271.736 192.582 271.508 192.525 271.287L192.81 270.758Z" fill="#9A4A4D"/>
<path d="M190.798 270.916C189.991 271.44 189.32 272.148 188.84 272.981C188.359 273.814 188.082 274.749 188.031 275.709C188.031 277.472 189.272 278.184 190.798 277.303C191.603 276.779 192.273 276.072 192.754 275.24C193.234 274.409 193.512 273.475 193.564 272.516C193.564 270.753 192.323 270.034 190.798 270.916Z" fill="#B16668"/>
<path d="M166.91 270.746L176.206 265.39C176.518 265.247 176.863 265.19 177.205 265.225C177.547 265.259 177.874 265.384 178.151 265.586C178.957 266.11 179.627 266.817 180.108 267.648C180.588 268.48 180.866 269.414 180.918 270.373C180.954 270.716 180.898 271.063 180.757 271.377C180.615 271.692 180.392 271.963 180.111 272.163L170.917 277.451L170.673 277.044C170.395 276.981 170.127 276.875 169.88 276.733C169.074 276.209 168.404 275.502 167.923 274.671C167.443 273.839 167.165 272.905 167.114 271.946C167.113 271.706 167.143 271.467 167.202 271.234L166.91 270.746Z" fill="#B16668"/>
<path d="M168.924 270.909C169.73 271.433 170.4 272.14 170.881 272.971C171.361 273.803 171.639 274.737 171.691 275.696C171.691 277.459 170.45 278.177 168.924 277.296C168.118 276.772 167.447 276.064 166.967 275.231C166.486 274.398 166.209 273.463 166.158 272.503C166.158 270.74 167.399 270.028 168.924 270.909Z" fill="#9A4A4D"/>
<path d="M179.942 269.267C176.003 269.267 170.003 267.043 169.582 260.046C169.162 253.049 173.366 250.107 173.366 250.107C173.366 250.107 173.82 252.914 175.291 253.693C175.291 253.693 173.637 245.415 178.057 242.472C178.057 242.472 177.766 246.791 179.522 247.171C181.278 247.551 181.956 240.126 180.403 236.52C180.403 236.52 182.952 237.604 184.519 241.686C186.085 245.767 185.481 252.202 185.481 252.202C186.096 251.731 186.597 251.128 186.949 250.438C187.301 249.749 187.495 248.989 187.515 248.215C187.515 248.215 190.661 254.317 190.227 259.958C189.793 265.599 185.231 269.267 179.942 269.267Z" fill="#01A657"/>
<path opacity="0.8" d="M179.908 265.919C176.281 265.919 173.752 260.908 177.27 255.918C177.27 255.918 177.481 259.274 179.304 259.308C181.128 259.342 181.338 252.887 181.088 251.43C181.088 251.43 184.383 255.552 184.383 259.898C184.417 263.044 183.311 265.925 179.908 265.919Z" fill="white"/>
</svg>
