<svg width="32" height="31" viewBox="0 0 32 31" fill="none" xmlns="http://www.w3.org/2000/svg">
<path fill-rule="evenodd" clip-rule="evenodd" d="M1.43091 15.3287C1.43091 9.46299 1.43091 6.53011 2.87376 4.41764C3.51806 3.47432 4.35198 2.66646 5.32573 2.04229C7.50635 0.644531 10.5338 0.644531 16.5888 0.644531C22.6438 0.644531 25.6713 0.644531 27.8519 2.04229C28.8256 2.66646 29.6595 3.47432 30.3039 4.41764C31.7467 6.53011 31.7467 9.46299 31.7467 15.3287C31.7467 21.1945 31.7467 24.1274 30.3039 26.2398C29.6595 27.1832 28.8256 27.991 27.8519 28.6152C25.6713 30.013 22.6438 30.013 16.5888 30.013C10.5338 30.013 7.50635 30.013 5.32573 28.6152C4.35198 27.991 3.51806 27.1832 2.87376 26.2398C1.43091 24.1274 1.43091 21.1945 1.43091 15.3287ZM24.436 15.3291C24.436 19.5277 20.9225 22.9313 16.5885 22.9313C12.2545 22.9313 8.74111 19.5277 8.74111 15.3291C8.74111 11.1305 12.2545 7.72692 16.5885 7.72692C20.9225 7.72692 24.436 11.1305 24.436 15.3291ZM16.5885 20.3593C19.4562 20.3593 21.781 18.1072 21.781 15.3291C21.781 12.551 19.4562 10.2989 16.5885 10.2989C13.7208 10.2989 11.3961 12.551 11.3961 15.3291C11.3961 18.1072 13.7208 20.3593 16.5885 20.3593ZM24.7459 9.13127C25.7643 9.13127 26.5898 8.33152 26.5898 7.34498C26.5898 6.35844 25.7643 5.55869 24.7459 5.55869C23.7275 5.55869 22.902 6.35844 22.902 7.34498C22.902 8.33152 23.7275 9.13127 24.7459 9.13127Z" fill="#01A657"/>
</svg>
