<svg width="31" height="31" viewBox="0 0 31 31" fill="none" xmlns="http://www.w3.org/2000/svg">
<path d="M1.38625 5.19195C1.38625 4.22993 1.71699 3.43628 2.37843 2.811C3.03987 2.18569 3.89978 1.87305 4.95809 1.87305C5.99752 1.87305 6.83849 2.18087 7.48105 2.79657C8.14249 3.43149 8.47323 4.25879 8.47323 5.27853C8.47323 6.20205 8.15196 6.97163 7.5094 7.58733C6.84796 8.22225 5.97861 8.53971 4.90139 8.53971H4.87304C3.83361 8.53971 2.99264 8.22225 2.35008 7.58733C1.70752 6.95241 1.38625 6.15394 1.38625 5.19195ZM1.75478 30.4445V11.166H8.04801V30.4445H1.75478ZM11.5348 30.4445H17.828V19.6797C17.828 19.0063 17.9036 18.4868 18.0548 18.1212C18.3194 17.4671 18.721 16.9139 19.2596 16.4618C19.7982 16.0096 20.4738 15.7836 21.2865 15.7836C23.4031 15.7836 24.4614 17.2362 24.4614 20.1414V30.4445H30.7547V19.3911C30.7547 16.5435 30.0932 14.3839 28.7703 12.912C27.4474 11.4401 25.6993 10.7042 23.526 10.7042C21.088 10.7042 19.1887 11.772 17.828 13.9077V13.9654H17.7997L17.828 13.9077V11.166H11.5348C11.5726 11.7816 11.5915 13.696 11.5915 16.9091C11.5915 20.1222 11.5726 24.634 11.5348 30.4445Z" fill="#01A657"/>
</svg>
