<svg width="136" height="110" viewBox="0 0 136 110" fill="none" xmlns="http://www.w3.org/2000/svg">
<path d="M6.744 37.108C9.368 36.548 11.296 35.804 12.528 34.876C13.76 33.964 14.376 32.812 14.376 31.42C14.376 30.508 14.256 29.596 14.016 28.684C13.776 27.772 13.424 27.012 12.96 26.404C12.512 25.78 11.984 25.436 11.376 25.372C11.024 25.324 10.68 25.444 10.344 25.732C10.024 26.004 9.76 26.364 9.552 26.812C9.36 27.26 9.264 27.692 9.264 28.108C9.264 28.444 9.328 28.708 9.456 28.9C9.712 29.284 10.296 29.54 11.208 29.668C12.136 29.796 13.336 29.86 14.808 29.86H17.16L17.304 31.18L17.16 32.5L14.208 32.524C12.464 32.524 11.048 32.388 9.96 32.116C8.888 31.828 8.136 31.244 7.704 30.364C7.432 29.788 7.296 29.156 7.296 28.468C7.296 27.604 7.48 26.74 7.848 25.876C8.232 25.012 8.736 24.3 9.36 23.74C10 23.18 10.688 22.9 11.424 22.9C12.368 22.9 13.208 23.316 13.944 24.148C14.696 24.964 15.272 26.02 15.672 27.316C16.088 28.596 16.296 29.884 16.296 31.18C16.296 33.26 15.52 35.02 13.968 36.46C12.432 37.9 10.288 38.892 7.536 39.436L6.744 37.108ZM16.8247 29.86H18.8888C20.8568 29.86 22.6968 29.628 24.4088 29.164C26.1208 28.7 27.8648 27.996 29.6407 27.052C30.1368 26.78 30.6568 26.532 31.2008 26.308C31.7448 26.068 32.1928 25.9 32.5448 25.804L32.6168 27.22C31.7368 27.204 30.8888 27.084 30.0728 26.86C29.2728 26.62 28.3928 26.26 27.4328 25.78C25.9448 24.996 24.6888 24.604 23.6648 24.604C23.0088 24.604 22.4168 24.796 21.8888 25.18C21.3608 25.564 20.9688 26.004 20.7128 26.5L19.1768 25.42C19.7208 24.332 20.3768 23.508 21.1448 22.948C21.9128 22.388 22.7688 22.108 23.7128 22.108C24.4008 22.108 25.0488 22.228 25.6568 22.468C26.2808 22.692 27.1528 23.092 28.2728 23.668C29.3128 24.196 30.1448 24.588 30.7688 24.844C31.3928 25.1 32.0888 25.308 32.8568 25.468L32.9528 27.796C32.6488 27.876 32.2648 28.036 31.8008 28.276C31.3368 28.5 30.8328 28.764 30.2888 29.068C28.0968 30.236 26.1288 31.1 24.3848 31.66C22.6568 32.22 20.7448 32.5 18.6488 32.5H16.8247V29.86ZM22.9688 36.268C23.5928 35.612 24.2168 34.988 24.8408 34.396C25.4648 34.988 26.0888 35.612 26.7128 36.268L24.8408 38.14L22.9688 36.268ZM41.0196 32.5C39.9956 32.5 39.1876 32.14 38.5956 31.42C38.0196 30.684 37.5316 29.644 37.1316 28.3L38.7396 27.316C38.9636 28.26 39.2436 28.924 39.5796 29.308C39.9316 29.676 40.4116 29.86 41.0196 29.86H41.1876L41.3316 31.18L41.1876 32.5H41.0196ZM31.8516 37.18C32.8916 36.796 33.8276 36.316 34.6596 35.74C35.5076 35.164 36.1716 34.564 36.6516 33.94C37.1476 33.332 37.3956 32.764 37.3956 32.236C37.3956 31.564 36.9716 29.58 36.1236 26.284L38.2356 25.468C38.6036 26.604 38.8996 27.804 39.1236 29.068C39.3636 30.316 39.4836 31.372 39.4836 32.236C39.4836 33.708 38.8676 35.092 37.6356 36.388C36.4196 37.7 34.8356 38.716 32.8836 39.436L31.8516 37.18ZM40.8705 29.86H41.4465C43.1905 29.86 44.5745 29.756 45.5985 29.548C46.6385 29.34 47.4065 29.044 47.9025 28.66C48.3985 28.26 48.7505 27.756 48.9585 27.148C48.9905 26.716 48.9265 26.292 48.7665 25.876C48.6225 25.46 48.3905 25.116 48.0705 24.844C47.7505 24.572 47.3825 24.436 46.9665 24.436C46.4225 24.436 45.9425 24.676 45.5265 25.156C45.1105 25.62 44.8625 26.18 44.7825 26.836C44.7665 27.364 44.9745 27.86 45.4065 28.324C45.8385 28.788 46.4705 29.164 47.3025 29.452C48.1505 29.724 49.1505 29.86 50.3025 29.86H52.6305L52.7745 31.18L52.6305 32.5H51.1905C49.5745 32.5 48.1185 32.26 46.8225 31.78C45.5425 31.3 44.5345 30.652 43.7985 29.836C43.0785 29.02 42.7185 28.124 42.7185 27.148C42.7185 27.02 42.7345 26.828 42.7665 26.572C42.8945 25.708 43.1665 24.916 43.5825 24.196C44.0145 23.46 44.5345 22.884 45.1425 22.468C45.7665 22.036 46.4145 21.82 47.0865 21.82C47.8385 21.82 48.5105 22.06 49.1025 22.54C49.7105 23.02 50.1825 23.636 50.5185 24.388C50.8545 25.14 51.0225 25.908 51.0225 26.692C51.0225 26.836 51.0065 27.052 50.9745 27.34C50.7345 29.1 49.8225 30.404 48.2385 31.252C46.6705 32.084 44.4065 32.5 41.4465 32.5H40.8705V29.86ZM45.3345 18.58C45.9585 17.924 46.5825 17.3 47.2065 16.708C47.8305 17.3 48.4545 17.924 49.0785 18.58L47.2065 20.452L45.3345 18.58ZM65.7731 29.86C66.3331 29.86 66.7571 29.708 67.0451 29.404C67.3331 29.084 67.4771 28.636 67.4771 28.06C67.4771 27.548 67.3171 26.82 66.9971 25.876C66.6931 24.916 66.4211 24.164 66.1811 23.62L68.1251 22.54C68.4451 23.228 68.7651 24.116 69.0851 25.204C69.4211 26.292 69.5891 27.26 69.5891 28.108C69.5891 28.924 69.4211 29.668 69.0851 30.34C68.7651 30.996 68.3171 31.524 67.7411 31.924C67.1651 32.308 66.5091 32.5 65.7731 32.5H65.7251V29.86H65.7731ZM59.2691 32.5V29.86H59.3411C59.8051 29.86 60.2131 29.732 60.5651 29.476C60.9171 29.204 61.2371 28.812 61.5251 28.3C61.8771 27.644 62.1491 26.644 62.3411 25.3L64.3571 25.396C64.1651 26.404 64.0691 27.196 64.0691 27.772C64.0691 28.46 64.2051 28.98 64.4771 29.332C64.7491 29.684 65.1811 29.86 65.7731 29.86H65.8211L65.9651 31.18L65.8211 32.5H65.7731C64.8611 32.5 64.1251 32.244 63.5651 31.732C63.0051 31.204 62.6451 30.468 62.4851 29.524L62.9411 29.476C62.5731 30.372 62.0691 31.1 61.4291 31.66C60.8051 32.22 60.1011 32.5 59.3171 32.5H59.2691ZM52.3811 32.5L52.2371 31.18L52.3811 29.86H52.5011C53.0771 29.86 53.6131 29.732 54.1091 29.476C54.6211 29.22 55.0131 28.892 55.2851 28.492C55.6051 28.076 55.8531 27.62 56.0291 27.124C56.2211 26.628 56.3891 26.092 56.5331 25.516L58.5491 25.732C58.5331 25.812 58.4451 26.14 58.2851 26.716C58.1251 27.292 58.0451 27.836 58.0451 28.348C58.0451 28.844 58.1411 29.22 58.3331 29.476C58.5411 29.732 58.8611 29.86 59.2931 29.86H59.3411L59.4851 31.18L59.3411 32.5H59.2451C58.5251 32.5 57.9171 32.292 57.4211 31.876C56.9251 31.46 56.6131 30.9 56.4851 30.196C55.4291 31.732 54.0931 32.5 52.4771 32.5H52.3811Z" fill="url(#paint0_linear_9042_1219)"/>
<path d="M136 18.36C119.258 15.5906 110.887 35.1549 97.3297 36.8522C87.5029 38.1029 80.3147 31.1348 79.0409 26.0428C78.313 35.8696 87.4119 42.927 97.5117 42.4803C114.527 41.7656 123.535 21.4867 136 18.36ZM122.989 18.092C110.25 16.3946 107.156 25.6854 96.8747 28.9908C90.2325 31.1348 85.1372 29.5268 81.4066 25.5067C83.1354 30.8668 89.6866 34.6189 95.4189 34.1722C106.793 33.2789 113.253 20.9507 122.989 18.092Z" fill="url(#paint1_linear_9042_1219)"/>
<path d="M95.8727 26.5802C98.3294 25.7762 100.058 24.7935 101.514 23.8108C102.697 23.0068 106.882 20.1481 108.975 18.8081C107.246 13.984 102.424 10.5 96.8736 10.5C89.7764 10.5 83.9531 16.1281 83.9531 23.1855C83.9531 23.8108 83.9531 24.3469 84.0441 24.8829C87.1377 27.0269 91.2322 28.0989 95.8727 26.5802Z" fill="#7B4794"/>
<defs>
<linearGradient id="paint0_linear_9042_1219" x1="6" y1="26.5" x2="71" y2="26.5" gradientUnits="userSpaceOnUse">
<stop stop-color="#7B4794"/>
<stop offset="1" stop-color="#01A657"/>
</linearGradient>
<linearGradient id="paint1_linear_9042_1219" x1="79" y1="30.1935" x2="136" y2="30.1935" gradientUnits="userSpaceOnUse">
<stop stop-color="#7B4794"/>
<stop offset="1" stop-color="#01A657"/>
</linearGradient>
</defs>
</svg>
