<svg width="136" height="62" viewBox="0 0 136 62" fill="none" xmlns="http://www.w3.org/2000/svg">
<path d="M6.744 36.608C9.368 36.048 11.296 35.304 12.528 34.376C13.76 33.464 14.376 32.312 14.376 30.92C14.376 30.008 14.256 29.096 14.016 28.184C13.776 27.272 13.424 26.512 12.96 25.904C12.512 25.28 11.984 24.936 11.376 24.872C11.024 24.824 10.68 24.944 10.344 25.232C10.024 25.504 9.76 25.864 9.552 26.312C9.36 26.76 9.264 27.192 9.264 27.608C9.264 27.944 9.328 28.208 9.456 28.4C9.712 28.784 10.296 29.04 11.208 29.168C12.136 29.296 13.336 29.36 14.808 29.36H17.16L17.304 30.68L17.16 32L14.208 32.024C12.464 32.024 11.048 31.888 9.96 31.616C8.888 31.328 8.136 30.744 7.704 29.864C7.432 29.288 7.296 28.656 7.296 27.968C7.296 27.104 7.48 26.24 7.848 25.376C8.232 24.512 8.736 23.8 9.36 23.24C10 22.68 10.688 22.4 11.424 22.4C12.368 22.4 13.208 22.816 13.944 23.648C14.696 24.464 15.272 25.52 15.672 26.816C16.088 28.096 16.296 29.384 16.296 30.68C16.296 32.76 15.52 34.52 13.968 35.96C12.432 37.4 10.288 38.392 7.536 38.936L6.744 36.608ZM16.8247 29.36H18.8888C20.8568 29.36 22.6968 29.128 24.4088 28.664C26.1208 28.2 27.8648 27.496 29.6407 26.552C30.1368 26.28 30.6568 26.032 31.2008 25.808C31.7448 25.568 32.1928 25.4 32.5448 25.304L32.6168 26.72C31.7368 26.704 30.8888 26.584 30.0728 26.36C29.2728 26.12 28.3928 25.76 27.4328 25.28C25.9448 24.496 24.6888 24.104 23.6648 24.104C23.0088 24.104 22.4168 24.296 21.8888 24.68C21.3608 25.064 20.9688 25.504 20.7128 26L19.1768 24.92C19.7208 23.832 20.3768 23.008 21.1448 22.448C21.9128 21.888 22.7688 21.608 23.7128 21.608C24.4008 21.608 25.0488 21.728 25.6568 21.968C26.2808 22.192 27.1528 22.592 28.2728 23.168C29.3128 23.696 30.1448 24.088 30.7688 24.344C31.3928 24.6 32.0888 24.808 32.8568 24.968L32.9528 27.296C32.6488 27.376 32.2648 27.536 31.8008 27.776C31.3368 28 30.8328 28.264 30.2888 28.568C28.0968 29.736 26.1288 30.6 24.3848 31.16C22.6568 31.72 20.7448 32 18.6488 32H16.8247V29.36ZM22.9688 35.768C23.5928 35.112 24.2168 34.488 24.8408 33.896C25.4648 34.488 26.0888 35.112 26.7128 35.768L24.8408 37.64L22.9688 35.768ZM41.0196 32C39.9956 32 39.1876 31.64 38.5956 30.92C38.0196 30.184 37.5316 29.144 37.1316 27.8L38.7396 26.816C38.9636 27.76 39.2436 28.424 39.5796 28.808C39.9316 29.176 40.4116 29.36 41.0196 29.36H41.1876L41.3316 30.68L41.1876 32H41.0196ZM31.8516 36.68C32.8916 36.296 33.8276 35.816 34.6596 35.24C35.5076 34.664 36.1716 34.064 36.6516 33.44C37.1476 32.832 37.3956 32.264 37.3956 31.736C37.3956 31.064 36.9716 29.08 36.1236 25.784L38.2356 24.968C38.6036 26.104 38.8996 27.304 39.1236 28.568C39.3636 29.816 39.4836 30.872 39.4836 31.736C39.4836 33.208 38.8676 34.592 37.6356 35.888C36.4196 37.2 34.8356 38.216 32.8836 38.936L31.8516 36.68ZM40.8705 29.36H41.4465C43.1905 29.36 44.5745 29.256 45.5985 29.048C46.6385 28.84 47.4065 28.544 47.9025 28.16C48.3985 27.76 48.7505 27.256 48.9585 26.648C48.9905 26.216 48.9265 25.792 48.7665 25.376C48.6225 24.96 48.3905 24.616 48.0705 24.344C47.7505 24.072 47.3825 23.936 46.9665 23.936C46.4225 23.936 45.9425 24.176 45.5265 24.656C45.1105 25.12 44.8625 25.68 44.7825 26.336C44.7665 26.864 44.9745 27.36 45.4065 27.824C45.8385 28.288 46.4705 28.664 47.3025 28.952C48.1505 29.224 49.1505 29.36 50.3025 29.36H52.6305L52.7745 30.68L52.6305 32H51.1905C49.5745 32 48.1185 31.76 46.8225 31.28C45.5425 30.8 44.5345 30.152 43.7985 29.336C43.0785 28.52 42.7185 27.624 42.7185 26.648C42.7185 26.52 42.7345 26.328 42.7665 26.072C42.8945 25.208 43.1665 24.416 43.5825 23.696C44.0145 22.96 44.5345 22.384 45.1425 21.968C45.7665 21.536 46.4145 21.32 47.0865 21.32C47.8385 21.32 48.5105 21.56 49.1025 22.04C49.7105 22.52 50.1825 23.136 50.5185 23.888C50.8545 24.64 51.0225 25.408 51.0225 26.192C51.0225 26.336 51.0065 26.552 50.9745 26.84C50.7345 28.6 49.8225 29.904 48.2385 30.752C46.6705 31.584 44.4065 32 41.4465 32H40.8705V29.36ZM45.3345 18.08C45.9585 17.424 46.5825 16.8 47.2065 16.208C47.8305 16.8 48.4545 17.424 49.0785 18.08L47.2065 19.952L45.3345 18.08ZM65.7731 29.36C66.3331 29.36 66.7571 29.208 67.0451 28.904C67.3331 28.584 67.4771 28.136 67.4771 27.56C67.4771 27.048 67.3171 26.32 66.9971 25.376C66.6931 24.416 66.4211 23.664 66.1811 23.12L68.1251 22.04C68.4451 22.728 68.7651 23.616 69.0851 24.704C69.4211 25.792 69.5891 26.76 69.5891 27.608C69.5891 28.424 69.4211 29.168 69.0851 29.84C68.7651 30.496 68.3171 31.024 67.7411 31.424C67.1651 31.808 66.5091 32 65.7731 32H65.7251V29.36H65.7731ZM59.2691 32V29.36H59.3411C59.8051 29.36 60.2131 29.232 60.5651 28.976C60.9171 28.704 61.2371 28.312 61.5251 27.8C61.8771 27.144 62.1491 26.144 62.3411 24.8L64.3571 24.896C64.1651 25.904 64.0691 26.696 64.0691 27.272C64.0691 27.96 64.2051 28.48 64.4771 28.832C64.7491 29.184 65.1811 29.36 65.7731 29.36H65.8211L65.9651 30.68L65.8211 32H65.7731C64.8611 32 64.1251 31.744 63.5651 31.232C63.0051 30.704 62.6451 29.968 62.4851 29.024L62.9411 28.976C62.5731 29.872 62.0691 30.6 61.4291 31.16C60.8051 31.72 60.1011 32 59.3171 32H59.2691ZM52.3811 32L52.2371 30.68L52.3811 29.36H52.5011C53.0771 29.36 53.6131 29.232 54.1091 28.976C54.6211 28.72 55.0131 28.392 55.2851 27.992C55.6051 27.576 55.8531 27.12 56.0291 26.624C56.2211 26.128 56.3891 25.592 56.5331 25.016L58.5491 25.232C58.5331 25.312 58.4451 25.64 58.2851 26.216C58.1251 26.792 58.0451 27.336 58.0451 27.848C58.0451 28.344 58.1411 28.72 58.3331 28.976C58.5411 29.232 58.8611 29.36 59.2931 29.36H59.3411L59.4851 30.68L59.3411 32H59.2451C58.5251 32 57.9171 31.792 57.4211 31.376C56.9251 30.96 56.6131 30.4 56.4851 29.696C55.4291 31.232 54.0931 32 52.4771 32H52.3811Z" fill="url(#paint0_linear_1143_5831)"/>
<path d="M136 17.86C119.258 15.0906 110.887 34.6549 97.3297 36.3522C87.5029 37.6029 80.3147 30.6348 79.0409 25.5428C78.313 35.3696 87.4119 42.427 97.5117 41.9803C114.527 41.2656 123.535 20.9867 136 17.86ZM122.989 17.592C110.25 15.8946 107.156 25.1854 96.8747 28.4908C90.2325 30.6348 85.1372 29.0268 81.4066 25.0067C83.1354 30.3668 89.6866 34.1189 95.4189 33.6722C106.793 32.7789 113.253 20.4507 122.989 17.592Z" fill="url(#paint1_linear_1143_5831)"/>
<path d="M95.8727 26.0802C98.3294 25.2762 100.058 24.2935 101.514 23.3108C102.697 22.5068 106.882 19.6481 108.975 18.3081C107.246 13.484 102.424 10 96.8736 10C89.7764 10 83.9531 15.6281 83.9531 22.6855C83.9531 23.3108 83.9531 23.8469 84.0441 24.3829C87.1377 26.5269 91.2322 27.5989 95.8727 26.0802Z" fill="#01A657"/>
<defs>
<linearGradient id="paint0_linear_1143_5831" x1="6" y1="26" x2="71" y2="26" gradientUnits="userSpaceOnUse">
<stop stop-color="#7B4794"/>
<stop offset="1" stop-color="#01A657"/>
</linearGradient>
<linearGradient id="paint1_linear_1143_5831" x1="79" y1="29.6935" x2="136" y2="29.6935" gradientUnits="userSpaceOnUse">
<stop stop-color="#7B4794"/>
<stop offset="1" stop-color="#01A657"/>
</linearGradient>
</defs>
</svg>
