<svg width="18" height="18" viewBox="0 0 18 18" fill="none" xmlns="http://www.w3.org/2000/svg">
<path opacity="0.4" fill-rule="evenodd" clip-rule="evenodd" d="M1.31221 5.78203C1.25221 6.62203 1.22234 7.50707 1.21484 8.42957L1.21484 9.55457C1.22234 10.4621 1.25971 11.407 1.31221 12.382L1.31221 12.397C1.58971 15.4195 2.96221 16.3945 6.93721 16.3945C12.6372 16.3945 12.6372 14.257 12.6372 9.08203C12.6372 3.90703 12.6372 1.76953 6.93721 1.76953C2.96221 1.76953 1.58971 2.74453 1.31221 5.78203Z" fill="#707070"/>
<path fill-rule="evenodd" clip-rule="evenodd" d="M14.868 8.52113L13.6357 7.29188C13.5255 7.18238 13.47 7.03763 13.47 6.89363C13.47 6.75038 13.5255 6.60638 13.6342 6.49687C13.854 6.27637 14.2102 6.27638 14.43 6.49538L16.626 8.68537C16.8382 8.89613 16.8382 9.27113 16.626 9.48188L14.43 11.6719C14.2102 11.8909 13.854 11.8909 13.6342 11.6704C13.4152 11.4499 13.4152 11.0944 13.6357 10.8754L14.868 9.64613L7.19032 9.64613C6.88156 9.64613 6.63363 9.38698 6.63363 9.07823C6.63364 8.7693 6.88184 8.52113 7.19077 8.52113L14.868 8.52113Z" fill="#707070"/>
</svg>
