<svg width="18" height="18" viewBox="0 0 18 18" fill="none" xmlns="http://www.w3.org/2000/svg">
<path fill-rule="evenodd" clip-rule="evenodd" d="M10.0142 5.25373C9.70603 5.25102 9.45675 5.00007 9.45675 4.69125V2.25525C9.38713 2.25491 9.32041 2.25381 9.25328 2.25271C9.17144 2.25136 9.089 2.25 9 2.25C1.84125 2.25 1.5 3.5025 1.5 7.46175C1.5 7.6695 1.668 7.83675 1.875 7.83675C2.66175 7.83675 3.0135 8.421 3.0135 8.99925C3.0135 9.30675 2.91 9.603 2.72775 9.81C2.523 10.044 2.2365 10.1625 1.875 10.1625C1.668 10.1625 1.5 10.3298 1.5 10.5375C1.5 14.4975 1.84125 15.75 9 15.75C9.10096 15.75 9.19348 15.7485 9.28626 15.7471C9.34235 15.7462 9.39854 15.7453 9.45675 15.7448V13.158C9.45675 12.8492 9.70603 12.5982 10.0142 12.5955V11.4705C9.70603 11.4678 9.45675 11.2168 9.45675 10.908V6.94125C9.45675 6.63243 9.70603 6.38147 10.0142 6.37877V5.25373Z" fill="#01A657"/>
<path opacity="0.4" d="M10.0137 12.5942C10.0153 12.5942 10.017 12.5942 10.0186 12.5942C10.3292 12.5942 10.5811 12.8462 10.5811 13.1567V15.7202C16.1957 15.5269 16.4995 14.1781 16.4995 10.5361C16.4995 10.3285 16.3314 10.1611 16.1245 10.1611C15.3376 10.1611 14.9859 9.57776 14.9859 8.99805C14.9859 8.4198 15.3376 7.83569 16.1245 7.83569C16.3314 7.83569 16.4995 7.66833 16.4995 7.46069C16.4995 3.81946 16.1957 2.4707 10.5811 2.27734V4.68994C10.5811 5.00049 10.3292 5.25244 10.0186 5.25244C10.017 5.25244 10.0153 5.25244 10.0137 5.25244V6.37744C10.0153 6.37744 10.017 6.37744 10.0186 6.37744C10.3292 6.37744 10.5811 6.62939 10.5811 6.93994V10.9067C10.5811 11.2173 10.3292 11.4692 10.0186 11.4692C10.017 11.4692 10.0153 11.4692 10.0137 11.4692V12.5942Z" fill="#01A657"/>
</svg>
