<svg width="48" height="48" viewBox="0 0 48 48" fill="none" xmlns="http://www.w3.org/2000/svg">
<rect x="0.5" y="0.5" width="47" height="47" rx="23.5" fill="white"/>
<rect x="0.5" y="0.5" width="47" height="47" rx="23.5" stroke="#01A657"/>
<path opacity="0.4" fill-rule="evenodd" clip-rule="evenodd" d="M23.2639 14.2031C18.2679 14.2031 14.2029 18.2681 14.2029 23.2651C14.2029 28.2611 18.2679 32.3251 23.2639 32.3251C28.2599 32.3251 32.3249 28.2611 32.3249 23.2651C32.3249 18.2681 28.2599 14.2031 23.2639 14.2031Z" fill="#01A657"/>
<path fill-rule="evenodd" clip-rule="evenodd" d="M31.8873 29.9785C30.8333 29.9785 29.9753 30.8345 29.9753 31.8885C29.9753 32.9425 30.8333 33.7995 31.8873 33.7995C32.9403 33.7995 33.7973 32.9425 33.7973 31.8885C33.7973 30.8345 32.9403 29.9785 31.8873 29.9785Z" fill="#01A657"/>
</svg>
