<svg width="630" height="322" viewBox="0 0 630 322" fill="none" xmlns="http://www.w3.org/2000/svg">
<path d="M285.308 175.069L284.87 174.702C284.816 174.661 279.502 170.279 275.216 171.054C270.931 171.829 270.108 174.024 270.072 174.122L269.222 173.861C269.222 173.747 270.278 171.127 275.037 170.254C279.072 169.52 283.626 172.702 285.04 173.755C285.934 172.196 289.119 167.3 292.421 166.925C296.223 166.493 300.338 169.373 300.473 169.504L299.927 170.148C299.882 170.148 295.91 167.341 292.492 167.7C289.075 168.059 285.568 174.489 285.532 174.555L285.308 175.069Z" fill="#263238"/>
<path d="M273.436 190.892L272.997 190.525C272.944 190.484 267.629 186.094 263.344 186.877C259.059 187.66 258.244 189.847 258.209 189.937L257.359 189.676C257.359 189.57 258.405 186.951 263.174 186.077C267.2 185.343 271.754 188.525 273.167 189.578C274.062 188.02 277.247 183.115 280.548 182.74C284.36 182.316 288.466 185.188 288.6 185.327L288.055 185.971C288.055 185.971 284.047 183.156 280.629 183.523C277.211 183.891 273.704 190.312 273.668 190.378L273.436 190.892Z" fill="#263238"/>
<path d="M313.096 190.892L312.658 190.525C312.658 190.525 308.623 187.187 305.402 187.775C302.181 188.362 301.6 189.97 301.573 190.043L300.723 189.782C300.723 189.692 301.546 187.644 305.196 186.975C308.203 186.428 311.602 188.689 312.792 189.586C313.571 188.289 315.941 184.69 318.429 184.429C321.363 184.103 324.53 186.322 324.691 186.42L324.146 187.065C324.146 187.065 321.139 184.943 318.563 185.245C316.487 185.482 314.089 189.048 313.356 190.411L313.096 190.892Z" fill="#263238"/>
<path d="M359.753 207.546L359.315 207.179C359.315 207.179 356.711 205.041 354.689 205.408C352.668 205.775 352.31 206.763 352.292 206.803L351.397 206.542C351.397 206.485 351.97 205.065 354.475 204.608C356.398 204.258 358.537 205.588 359.44 206.24C360.04 205.261 361.534 203.123 363.162 202.976C365.13 202.74 367.277 204.241 367.367 204.307L366.821 204.951C366.821 204.951 364.871 203.597 363.242 203.784C361.945 203.931 360.424 206.232 359.941 207.097L359.753 207.546Z" fill="#263238"/>
<path d="M452.498 224.948C447.421 224.931 442.391 225.828 437.694 227.585C432.997 229.342 428.725 231.925 425.123 235.188C421.521 238.451 418.658 242.329 416.699 246.601C414.74 250.872 413.723 255.454 413.705 260.085C413.688 268.734 417.196 277.08 423.547 283.504C428.112 282.912 432.765 283.3 437.137 284.638C442.018 286.122 446.509 288.515 450.324 291.664H453.804C457.624 288.516 462.117 286.123 467.001 284.638C471.606 283.222 476.524 282.869 481.315 283.61C487.754 277.182 491.325 268.791 491.327 260.085C491.308 255.452 490.289 250.868 488.327 246.594C486.365 242.321 483.5 238.442 479.894 235.179C476.288 231.916 472.013 229.333 467.312 227.577C462.611 225.822 457.577 224.928 452.498 224.948Z" fill="#01A657"/>
<path d="M470.553 274.176C469.36 274.72 468.167 275.264 466.974 275.808C465.805 276.386 464.673 277.023 463.583 277.718C463.18 277.971 462.787 278.24 462.384 278.534L468.745 267.738L460.022 280.19C459.128 280.843 458.233 281.504 457.419 282.181C456.017 283.269 454.645 284.412 453.303 285.609L452.856 273.899L461.982 261.227L452.856 272.096L452.453 261.618L451.773 273.36L451.12 285.111C449.948 284.107 448.767 283.128 447.542 282.165C446.584 281.406 445.609 280.656 444.616 279.937L436.367 267.085L442.424 278.42C442.075 278.191 441.735 277.955 441.377 277.734C440.288 277.04 439.156 276.402 437.987 275.825C436.824 275.262 435.634 274.715 434.408 274.193C432.02 273.129 429.571 272.184 427.072 271.361C429.491 272.331 431.851 273.42 434.14 274.625C435.285 275.213 436.412 275.817 437.521 276.437C438.611 277.06 439.66 277.741 440.662 278.477C442.657 279.933 444.56 281.491 446.361 283.144C447.935 284.572 449.474 286.057 450.941 287.551L450.172 302.418H453.992L453.447 288.106C455.084 286.392 456.828 284.711 458.618 283.087C460.419 281.434 462.322 279.876 464.317 278.42C465.319 277.684 466.367 277.003 467.457 276.38C468.566 275.76 469.694 275.156 470.839 274.568C473.131 273.363 475.493 272.274 477.916 271.304C475.405 272.138 472.947 273.097 470.553 274.176Z" fill="#263238"/>
<path d="M154.673 273.165C154.673 283.259 148.464 284.018 140.805 284.018C133.147 284.018 126.938 283.259 126.938 273.165C126.938 263.071 133.147 241.961 140.805 241.961C148.464 241.961 154.673 263.063 154.673 273.165Z" fill="#01A657"/>
<path d="M145.493 277.743L143.203 277.89L149.17 274.218L144.912 276.184L145.493 274.642L143.543 276.813L141.253 277.865L141.074 270.619L142.29 267.934L141.047 269.444L140.939 265.242L144.742 260.615L140.913 264.189L140.68 254.936L140.474 260.86L138.041 258.379L140.438 261.994L140.116 271.378L137.987 270.113L136.055 266.988L136.833 269.42L133.039 267.159L140.072 272.692L139.007 303.479H141.897L141.288 279.065L141.959 278.657L145.493 277.743Z" fill="#263238"/>
<path d="M527.579 238.395C527.579 258.118 515.447 259.611 500.488 259.611C485.529 259.611 473.398 258.118 473.398 238.395C473.398 218.673 485.52 177.424 500.488 177.424C515.456 177.424 527.579 218.689 527.579 238.395Z" fill="#01A657"/>
<path opacity="0.31" d="M527.579 238.395C527.579 258.118 515.447 259.611 500.488 259.611C485.529 259.611 473.398 258.118 473.398 238.395C473.398 218.673 485.52 177.424 500.488 177.424C515.456 177.424 527.579 218.689 527.579 238.395Z" fill="white"/>
<path d="M509.649 247.347L505.167 247.625L516.834 240.452L508.504 244.295L509.649 241.293L505.838 245.519L501.365 247.584L501.007 233.418L503.378 228.171L500.953 231.125L500.748 222.908L508.173 213.883L500.694 220.86L500.238 202.777L499.844 214.356L495.075 209.509L499.763 216.576L499.128 234.903L494.986 232.431L491.21 226.327L492.722 231.084L485.306 226.662L499.039 237.466L496.963 297.629H502.617L501.419 249.926L502.734 249.126L509.649 247.347Z" fill="#263238"/>
<path d="M585.571 246.155C585.571 256.257 579.362 257.016 571.704 257.016C564.045 257.016 557.836 256.257 557.836 246.155C557.836 236.053 564.045 214.959 571.704 214.959C579.362 214.959 585.571 236.061 585.571 246.155Z" fill="#01A657"/>
<path opacity="0.5" d="M585.571 246.155C585.571 256.257 579.362 257.016 571.704 257.016C564.045 257.016 557.836 256.257 557.836 246.155C557.836 236.053 564.045 214.959 571.704 214.959C579.362 214.959 585.571 236.061 585.571 246.155Z" fill="white"/>
<path d="M576.392 250.741L574.101 250.88L580.069 247.208L575.801 249.174L576.392 247.64L574.441 249.802L572.151 250.863L571.972 243.609L573.18 240.924L571.945 242.434L571.838 238.232L575.64 233.613L571.811 237.187L571.578 227.934L571.372 233.85L568.939 231.377L571.337 234.992L571.006 244.376L568.885 243.103L566.953 239.978L567.731 242.418L563.938 240.149L570.961 245.682L569.896 276.469H572.795L572.187 252.063L572.849 251.647L576.392 250.741Z" fill="#263238"/>
<path d="M20.4368 237.62C20.4368 247.714 14.2278 248.481 6.56942 248.481C-1.08893 248.481 -7.29791 247.714 -7.29791 237.62C-7.29791 227.527 -1.08893 206.449 6.56942 206.449C14.2278 206.449 20.4368 227.527 20.4368 237.62Z" fill="#01A657"/>
<path opacity="0.5" d="M20.4368 237.62C20.4368 247.714 14.2278 248.481 6.56942 248.481C-1.08893 248.481 -7.29791 247.714 -7.29791 237.62C-7.29791 227.527 -1.08893 206.449 6.56942 206.449C14.2278 206.449 20.4368 227.527 20.4368 237.62Z" fill="white"/>
<path d="M11.2575 242.197L8.96712 242.344L14.9345 238.672L10.667 240.639L11.2575 239.105L9.3071 241.267L7.01675 242.32L6.83782 235.074L8.04562 232.389L6.81097 233.899L6.70362 229.696L10.497 225.078L6.67678 228.644L6.44416 219.398L6.23839 225.314L3.8049 222.834L6.2026 226.457L5.88052 235.833L3.75122 234.568L1.81874 231.443L2.5971 233.882L-1.19629 231.614L5.82684 237.146L4.76219 267.934H7.66091L7.05254 243.519L7.71459 243.111L11.2575 242.197Z" fill="#263238"/>
<path d="M89.1382 214.723C84.0615 214.707 79.031 215.603 74.334 217.36C69.6369 219.117 65.3654 221.701 61.7631 224.964C58.1609 228.226 55.2985 232.104 53.3395 236.376C51.3804 240.648 50.3631 245.23 50.3455 249.86C50.3287 258.512 53.836 266.861 60.1868 273.287C64.7511 272.692 69.4049 273.077 73.7768 274.414C78.6582 275.898 83.1487 278.29 86.9642 281.439H90.516C94.3354 278.291 98.8287 275.899 103.712 274.414C108.319 273.006 113.235 272.653 118.027 273.385C124.454 266.953 128.012 258.562 128.003 249.86C127.984 245.225 126.963 240.638 124.999 236.362C123.035 232.087 120.167 228.206 116.557 224.943C112.947 221.68 108.668 219.097 103.963 217.344C99.2583 215.59 94.2206 214.699 89.1382 214.723Z" fill="#01A657"/>
<path opacity="0.33" d="M89.1377 214.723C84.0609 214.707 79.0305 215.603 74.3334 217.36C69.6364 219.117 65.3648 221.701 61.7626 224.964C58.1603 228.226 55.298 232.104 53.3389 236.376C51.3799 240.648 50.3625 245.23 50.3449 249.86C50.3282 258.512 53.8354 266.861 60.1862 273.287C64.7506 272.692 69.4043 273.077 73.7762 274.414C78.6577 275.898 83.1482 278.29 86.9636 281.439H90.5154C94.3349 278.291 98.8281 275.899 103.712 274.414C108.319 273.006 113.235 272.653 118.026 273.385C124.453 266.953 128.011 258.562 128.002 249.86C127.983 245.225 126.963 240.638 124.999 236.362C123.035 232.087 120.166 228.206 116.556 224.943C112.947 221.68 108.667 219.097 103.962 217.344C99.2577 215.59 94.2201 214.699 89.1377 214.723Z" fill="white"/>
<path d="M107.193 263.96C106 264.504 104.807 265.048 103.614 265.592C102.443 266.164 101.311 266.799 100.223 267.494L99.0245 268.31L105.386 257.506L96.6625 269.966C95.7738 270.614 94.906 271.274 94.0591 271.949C92.6544 273.067 91.2856 274.201 89.9436 275.376L89.4963 263.667L98.6219 250.994L89.4336 261.896L89.031 251.41L88.3779 263.136L87.7248 274.895C86.5528 273.883 85.3719 272.904 84.1462 271.941C83.1918 271.185 82.2167 270.442 81.2206 269.713L72.9718 256.861L79.0287 268.204C78.6797 267.967 78.3398 267.738 77.9819 267.51C76.8941 266.815 75.7618 266.18 74.5911 265.609C73.428 265.038 72.2381 264.491 71.0124 263.977C68.6249 262.913 66.1759 261.967 63.6762 261.145C66.1274 262.1 68.517 263.182 70.8335 264.385C71.9787 264.972 73.106 265.579 74.2154 266.204C75.3051 266.825 76.3537 267.503 77.3556 268.236C79.3487 269.694 81.2514 271.253 83.0547 272.904C84.6293 274.332 86.1681 275.817 87.6354 277.318L86.8033 292.235H90.6235L90.0778 277.922C91.715 276.209 93.4596 274.528 95.249 272.904C97.0523 271.253 98.9549 269.694 100.948 268.236C101.95 267.503 102.999 266.825 104.088 266.204C105.18 265.535 106.304 264.929 107.461 264.385C109.752 263.193 112.115 262.12 114.538 261.17C112.036 261.977 109.584 262.909 107.193 263.96Z" fill="#263238"/>
<path d="M565.915 244.515C565.915 265.144 553.229 266.702 537.59 266.702C521.952 266.702 509.22 265.144 509.22 244.515C509.22 223.887 521.907 180.77 537.555 180.77C553.202 180.77 565.915 223.887 565.915 244.515Z" fill="#01A657"/>
<path d="M268.624 267.439C268.624 288.068 255.938 289.626 240.299 289.626C224.66 289.626 211.929 288.068 211.929 267.439C211.929 246.811 224.615 203.693 240.263 203.693C255.911 203.693 268.624 246.811 268.624 267.439Z" fill="#01A657"/>
<path d="M349.046 267.439C349.046 288.068 336.359 289.626 320.721 289.626C305.082 289.626 292.351 288.068 292.351 267.439C292.351 246.811 305.037 203.693 320.685 203.693C336.333 203.693 349.046 246.811 349.046 267.439Z" fill="#01A657" fill-opacity="0.4"/>
<path d="M547.162 253.873L542.474 254.167L554.687 246.668L545.964 250.683L547.162 247.549L543.181 251.972L538.502 254.126L538.135 239.308L540.613 233.832L538.073 236.909L537.858 228.324L545.624 218.883L537.804 226.178L537.33 207.271L536.91 219.373L531.935 214.305L536.829 221.698L536.167 240.866L531.837 238.279L527.882 231.898L529.466 236.868L521.718 232.249L536.077 243.543L533.903 306.456H539.817L538.565 256.574L539.934 255.734L547.162 253.873Z" fill="#263238"/>
<path d="M249.871 276.799L245.183 277.093L257.395 269.594L248.672 273.608L249.871 270.475L245.89 274.898L241.21 277.052L240.844 262.233L243.322 256.758L240.781 259.834L240.566 251.25L248.332 241.809L240.513 249.104L240.038 230.197L239.618 242.299L234.644 237.231L239.537 244.624L238.875 263.792L234.545 261.205L230.591 254.824L232.174 259.794L224.427 255.175L238.786 266.468L236.612 329.382H242.526L241.273 279.5L242.642 278.66L249.871 276.799Z" fill="#263238"/>
<path d="M330.293 276.799L325.605 277.093L337.817 269.594L329.094 273.608L330.293 270.475L326.311 274.898L321.632 277.052L321.265 262.233L323.744 256.758L321.203 259.834L320.988 251.25L328.754 241.809L320.934 249.104L320.46 230.197L320.04 242.299L315.065 237.231L319.959 244.624L319.297 263.792L314.967 261.205L311.013 254.824L312.596 259.794L304.848 255.175L319.208 266.468L317.034 329.382H322.947L321.695 279.5L323.064 278.66L330.293 276.799Z" fill="#263238"/>
<path d="M535.675 307.012C535.675 307.012 525.226 297.13 528.16 297.424C531.095 297.718 536.579 305.111 536.579 305.111C536.579 305.111 536.659 288.791 539.263 292.389C541.866 295.988 538.663 305.184 538.663 305.184C538.663 305.184 546.116 294.576 546.107 296.306C546.053 301.667 540.354 305.862 540.354 305.862C540.354 305.862 552.307 297.791 550.375 301.104C548.442 304.417 540.784 307.469 540.784 307.469C540.784 307.469 554.553 304.931 549.659 306.718C544.765 308.505 540.113 309.729 540.113 309.729H536.311C536.311 309.729 523.311 303.781 528.205 304.67C530.82 305.07 533.344 305.861 535.675 307.012Z" fill="#263238"/>
<path d="M34.8051 294.74C34.8051 294.74 25.76 286.196 28.2919 286.457C30.8238 286.718 35.5835 293.1 35.5835 293.1C35.5835 293.1 35.6461 279.015 37.9096 282.1C40.1731 285.184 37.3907 293.157 37.3907 293.157C37.3907 293.157 43.8412 283.985 43.8233 285.478C43.8233 290.121 38.8579 293.744 38.8579 293.744C38.8579 293.744 49.1824 286.767 47.4915 289.599C45.8006 292.43 39.1979 295.099 39.1979 295.099C39.1979 295.099 51.1059 292.912 46.8742 294.454C42.6424 295.996 38.6253 297.024 38.6253 297.024H35.324C35.324 297.024 24.087 291.884 28.3098 292.651C30.585 293.02 32.7789 293.726 34.8051 294.74Z" fill="#263238"/>
<path d="M67.4873 233.271C67.4873 253.923 54.792 255.482 39.1263 255.482C23.4607 255.482 10.7654 253.923 10.7654 233.271C10.7654 212.618 23.4697 169.451 39.1263 169.451C54.783 169.451 67.4873 212.618 67.4873 233.271Z" fill="#01A657"/>
<path d="M48.7172 242.639L44.0291 242.933L56.2413 235.426L47.5183 239.448L48.7172 236.307L44.727 240.738L40.0478 242.892L39.681 228.065L42.1593 222.574L39.6184 225.658L39.4037 217.057L47.1783 207.608L39.35 214.919L38.8758 195.988L38.4553 208.106L33.472 203.03L38.3748 210.431L37.7128 229.616L33.3736 227.029L29.4192 220.64L31.0028 225.617L23.2371 220.991L37.6233 232.3L35.4403 295.279H41.363L40.1105 245.348L41.4793 244.508L48.7172 242.639Z" fill="#263238"/>
<path d="M427.951 256.361C427.951 276.99 415.265 278.548 399.626 278.548C383.988 278.548 371.256 276.99 371.256 256.361C371.256 235.733 383.943 192.615 399.59 192.615C415.238 192.615 427.951 235.733 427.951 256.361Z" fill="#50C28B"/>
<path d="M409.199 265.723L404.511 266.017L416.723 258.518L408 262.532L409.199 259.399L405.218 263.822L400.539 265.976L400.172 251.157L402.65 245.682L400.109 248.758L399.894 240.174L407.66 230.733L399.841 238.028L399.367 219.121L398.946 231.222L393.972 226.155L398.866 233.548L398.203 252.716L393.873 250.129L389.919 243.748L391.502 248.717L383.755 244.099L398.114 255.392L395.94 318.306H401.854L400.601 268.424L401.97 267.583L409.199 265.723Z" fill="#263238"/>
<path d="M541.573 312.264C541.573 312.264 531.123 302.382 534.058 302.676C536.992 302.97 542.476 310.363 542.476 310.363C542.476 310.363 542.557 294.043 545.16 297.641C547.764 301.24 544.561 310.436 544.561 310.436C544.561 310.436 552.014 299.828 552.005 301.558C551.951 306.919 546.252 311.113 546.252 311.113C546.252 311.113 558.205 303.043 556.272 306.356C554.34 309.669 546.681 312.721 546.681 312.721C546.681 312.721 560.45 310.183 555.556 311.97C550.663 313.757 546.01 314.981 546.01 314.981H542.208C542.208 314.981 529.208 309.033 534.102 309.922C536.717 310.322 539.241 311.113 541.573 312.264Z" fill="#263238"/>
<path d="M40.7026 299.992C40.7026 299.992 31.6575 291.448 34.1894 291.709C36.7214 291.97 41.481 298.351 41.481 298.351C41.481 298.351 41.5436 284.267 43.8071 287.352C46.0706 290.436 43.2882 298.409 43.2882 298.409C43.2882 298.409 49.7388 289.237 49.7209 290.73C49.7209 295.373 44.7555 298.996 44.7555 298.996C44.7555 298.996 55.0799 292.019 53.389 294.851C51.6981 297.682 45.0954 300.351 45.0954 300.351C45.0954 300.351 57.0035 298.164 52.7717 299.706C48.5399 301.248 44.5229 302.276 44.5229 302.276H41.2215C41.2215 302.276 29.9845 297.136 34.2073 297.903C36.4825 298.272 38.6764 298.978 40.7026 299.992Z" fill="#263238"/>
<path d="M211.948 230.562C211.948 251.215 199.253 252.773 183.587 252.773C167.922 252.773 155.226 251.215 155.226 230.562C155.226 209.909 167.931 166.742 183.587 166.742C199.244 166.742 211.948 209.909 211.948 230.562Z" fill="#55C38E"/>
<path d="M193.179 239.928L188.491 240.222L200.703 232.715L191.98 236.738L193.179 233.596L189.189 238.027L184.51 240.181L184.143 225.354L186.621 219.863L184.08 222.947L183.866 214.346L191.64 204.897L183.812 212.209L183.338 193.277L182.917 205.395L177.934 200.319L182.837 207.721L182.175 226.905L177.836 224.318L173.881 217.929L175.465 222.906L167.699 218.28L182.085 229.589L179.902 292.568H185.825L184.572 242.637L185.941 241.797L193.179 239.928Z" fill="#263238"/>
<path d="M133.809 316.208C133.809 316.208 124.764 307.665 127.305 307.926C129.846 308.187 134.596 314.568 134.596 314.568C134.596 314.568 134.659 300.484 136.913 303.569C139.168 306.653 136.395 314.625 136.395 314.625C136.395 314.625 142.845 305.454 142.836 306.947C142.836 311.59 137.862 315.213 137.862 315.213C137.862 315.213 148.195 308.236 146.504 311.068C144.813 313.899 138.202 316.608 138.202 316.608C138.202 316.608 150.11 314.421 145.878 315.964C141.646 317.506 137.62 318.567 137.62 318.567H134.355C134.355 318.567 123.109 313.426 127.34 314.193C129.602 314.54 131.787 315.221 133.809 316.208Z" fill="#263238"/>
<path d="M181.772 334.937C181.772 334.937 172.727 326.393 175.268 326.655C177.809 326.916 182.559 333.297 182.559 333.297C182.559 333.297 182.622 319.213 184.876 322.297C187.131 325.382 184.358 333.354 184.358 333.354C184.358 333.354 190.808 324.182 190.799 325.683C190.754 330.318 185.825 333.941 185.825 333.941C185.825 333.941 196.158 326.965 194.467 329.796C192.776 332.628 186.245 335.296 186.245 335.296C186.245 335.296 198.153 333.109 193.922 334.651C189.69 336.194 185.664 337.254 185.664 337.254H182.38C182.38 337.254 171.134 332.114 175.366 332.881C177.609 333.246 179.772 333.941 181.772 334.937Z" fill="#263238"/>
<path d="M310.55 322.362C310.55 322.362 304.028 316.201 305.862 316.389C307.696 316.576 311.114 321.179 311.114 321.179C311.114 321.179 311.168 311.019 312.796 313.247C314.424 315.475 312.42 321.228 312.42 321.228C312.42 321.228 317.072 314.602 317.063 315.687C317.063 319.032 313.485 321.644 313.485 321.644C313.485 321.644 320.937 316.609 319.747 318.657C318.558 320.705 313.762 322.623 313.762 322.623C313.762 322.623 322.351 321.04 319.291 322.158C316.231 323.276 313.342 324.035 313.342 324.035H310.971C310.971 324.035 302.856 320.322 305.907 320.877C307.532 321.141 309.1 321.642 310.55 322.362Z" fill="#263238"/>
<path d="M563.795 307.632C563.795 307.632 558.722 302.834 560.144 302.981C561.567 303.127 564.233 306.71 564.233 306.71C564.233 306.71 564.233 298.803 565.539 300.533C566.846 302.263 565.244 306.742 565.244 306.742C565.244 306.742 568.823 301.593 568.823 302.434C568.823 305.037 566.031 307.069 566.031 307.069C566.031 307.069 571.829 303.152 570.88 304.743C569.932 306.334 566.228 307.828 566.228 307.828C566.228 307.828 572.911 306.604 570.532 307.469C568.152 308.334 565.897 308.929 565.897 308.929H564.063C564.063 308.929 557.747 306.041 560.127 306.481C561.411 306.677 562.65 307.066 563.795 307.632Z" fill="#263238"/>
<path d="M221.943 322.394C221.943 322.394 212.897 313.85 215.438 314.112C217.979 314.373 222.73 320.754 222.73 320.754C222.73 320.754 222.792 306.67 225.047 309.754C227.302 312.839 224.537 320.819 224.537 320.819C224.537 320.819 230.988 311.639 230.97 313.141C230.925 317.775 226.004 321.398 226.004 321.398C226.004 321.398 236.329 314.422 234.638 317.253C232.947 320.085 226.344 322.753 226.344 322.753C226.344 322.753 238.243 320.566 234.012 322.108C229.78 323.651 225.763 324.711 225.763 324.711H222.47C222.47 324.711 211.224 319.571 215.456 320.338C217.727 320.696 219.918 321.39 221.943 322.394Z" fill="#01A657"/>
<path d="M156.721 316.722C156.721 316.722 150.656 311.01 152.364 311.157C154.073 311.304 157.249 315.621 157.249 315.621C157.249 315.621 157.249 306.171 158.806 308.277C160.363 310.382 158.457 315.694 158.457 315.694C158.457 315.694 162.787 309.533 162.778 310.545C162.778 313.654 159.441 316.086 159.441 316.086C159.441 316.086 166.366 311.402 165.23 313.303C164.093 315.204 159.674 316.992 159.674 316.992C159.674 316.992 167.654 315.523 164.818 316.559C161.982 317.595 159.28 318.305 159.28 318.305H157.079C157.079 318.305 149.537 314.854 152.373 315.376C153.894 315.603 155.363 316.058 156.721 316.722Z" fill="#01A657"/>
<path d="M565.11 322.834C565.11 322.834 555.877 314.111 558.471 314.373C561.066 314.634 565.906 321.162 565.906 321.162C565.906 321.162 565.978 306.776 568.277 309.934C570.576 313.091 567.749 321.227 567.749 321.227C567.749 321.227 574.343 311.851 574.325 313.385C574.325 318.118 569.252 321.823 569.252 321.823C569.252 321.823 579.791 314.699 578.065 317.588C576.338 320.476 569.601 323.202 569.601 323.202C569.601 323.202 581.751 320.966 577.429 322.541C573.108 324.116 569.002 325.201 569.002 325.201H565.647C565.647 325.201 554.168 319.946 558.489 320.737C560.806 321.105 563.042 321.813 565.11 322.834Z" fill="#01A657"/>
<path d="M14.9525 322.834C14.9525 322.834 5.71951 314.111 8.30509 314.373C10.8907 314.634 15.7487 321.162 15.7487 321.162C15.7487 321.162 15.8203 306.776 18.1196 309.934C20.4189 313.091 17.5917 321.227 17.5917 321.227C17.5917 321.227 24.1765 311.851 24.1675 313.385C24.1675 318.118 19.0948 321.823 19.0948 321.823C19.0948 321.823 29.6787 314.699 27.8893 317.588C26.1 320.476 19.4169 323.202 19.4169 323.202C19.4169 323.202 31.5754 320.966 27.2541 322.541C22.9329 324.116 18.8264 325.201 18.8264 325.201H15.4893C15.4893 325.201 4.01069 319.946 8.33193 320.737C10.6488 321.105 12.8848 321.813 14.9525 322.834Z" fill="#01A657"/>
<path d="M60.5 310.521C60.5 310.521 51.0523 295.654 53.7452 294.511C56.4382 293.369 62.0119 304.671 62.0119 304.671C62.0119 304.671 60.9294 283.365 63.4434 285.331C65.9574 287.298 68.2925 302.378 68.2925 302.378C68.2925 302.378 73.3295 285.984 74.9488 289.428C76.5682 292.871 73.6516 303.3 73.6516 303.3C73.6516 303.3 80.8715 290.758 81.5962 294.854C82.3209 298.95 78.1786 305.666 78.1786 305.666C78.1786 305.666 87.6978 296.984 88.4225 300.427C89.1472 303.871 85.9085 307.306 85.9085 307.306C85.9085 307.306 98.4786 301.08 95.4278 304.524C92.3769 307.967 87.8857 312.39 87.8857 312.39C87.8857 312.39 99.919 308.457 98.4786 310.758C97.0381 313.059 91.6523 315.507 91.6523 315.507C91.6523 315.507 101.494 313.875 100.456 315.344C99.4497 316.495 98.2402 317.485 96.8771 318.273H52.1438C52.1438 318.273 40.2894 314.365 44.9864 314.038C48.0514 313.913 51.1082 314.415 53.9331 315.507C53.9331 315.507 39.3769 306.531 46.2032 305.846C53.0295 305.16 58.6033 313.051 58.6033 313.051C58.6033 313.051 48.9051 300.599 52.3406 302.565L60.5 310.521Z" fill="#01A657"/>
<path d="M61.1083 314.747C61.1083 314.747 48.9051 303.217 52.3316 303.568C55.7582 303.919 62.173 312.544 62.173 312.544C62.173 312.544 62.2624 293.54 65.3043 297.701C68.3462 301.863 64.5707 312.61 64.5707 312.61C64.5707 312.61 73.2758 300.231 73.2579 302.255C73.1952 308.513 66.5479 313.401 66.5479 313.401C66.5479 313.401 80.4868 303.993 78.1785 307.803C75.8703 311.614 66.9863 315.229 66.9863 315.229C66.9863 315.229 83.0903 312.275 77.3465 314.356C71.6027 316.437 66.2079 317.873 66.2079 317.873H61.7346C61.7346 317.873 46.5252 310.929 52.2779 311.973C55.3696 312.445 58.3537 313.383 61.1083 314.747Z" fill="#263238"/>
<path d="M66.36 318.282H61.7077L61.6093 318.233C50.2113 313.019 50.5244 312.195 50.6497 311.852C50.8465 311.33 51.6427 311.428 52.439 311.575C54.7058 311.974 56.9235 312.579 59.0595 313.378C55.624 310.024 50.6675 304.851 51.3654 303.586C51.4608 303.426 51.6122 303.3 51.7954 303.227C51.9786 303.155 52.1831 303.14 52.3764 303.186C55.2572 303.48 59.8737 308.939 61.7256 311.289C61.7972 306.817 62.1819 297.303 64.2217 296.748C64.7228 296.609 65.2059 296.862 65.6711 297.49C67.8899 300.526 66.7089 306.711 65.7874 310.212C72.1574 301.35 72.9447 301.579 73.3116 301.668C73.4492 301.709 73.5667 301.793 73.6436 301.905C73.7204 302.017 73.7517 302.15 73.7321 302.28C73.5441 305.32 72.2895 308.224 70.1534 310.563C74.0989 308.066 77.8475 306.026 78.6617 306.679C79.1627 307.078 78.7511 307.764 78.5901 308.025C77.1049 310.514 73.0163 312.864 70.1623 314.276C78.7422 312.799 78.9032 313.272 79.0195 313.623C79.1806 314.121 78.5275 314.398 77.5254 314.765C71.8711 316.83 66.4047 318.274 66.351 318.29L66.36 318.282ZM61.9672 317.466H66.2347C66.8342 317.303 71.7548 315.973 76.9707 314.104C74.8414 314.325 70.8691 314.92 67.201 315.63L63.4702 316.316L64.016 316.838L60.9473 315.092C58.2609 313.768 55.3575 312.851 52.3495 312.374L52.0006 312.317C55.1693 314.228 58.4717 315.948 61.8867 317.466H61.9672ZM52.2064 303.969C52.2064 305.014 56.9302 310.171 61.4751 314.463L63.3897 316.275L66.8968 314.855C66.9863 314.855 75.6914 311.265 77.8744 307.609C77.9376 307.513 77.9915 307.412 78.0354 307.307C76.7292 307.503 71.388 310.685 66.8878 313.729L66.3421 313.084C66.4047 313.043 72.4885 308.49 72.8642 302.721C71.5491 303.929 68.0509 308.515 65.018 312.831L63.2287 315.426L64.2486 312.489C64.2486 312.382 67.8899 301.881 65.0001 297.923C64.7138 297.523 64.5617 297.507 64.5617 297.507C63.5865 297.67 62.7277 304.549 62.6919 312.537V313.851L61.8777 312.766C60.0884 310.408 55.0067 304.239 52.3674 303.969H52.2064Z" fill="#263238"/>
<path d="M462.876 336.667C462.876 336.667 444.983 308.58 450.109 306.409C455.236 304.239 465.739 325.585 465.739 325.585C465.739 325.585 463.699 285.324 468.423 289.037C473.147 292.75 477.594 321.252 477.594 321.252C477.594 321.252 487.104 290.244 490.164 296.772C493.223 303.3 487.748 322.991 487.748 322.991C487.748 322.991 501.401 299.286 502.761 307.03C504.12 314.773 496.31 327.47 496.31 327.47C496.31 327.47 514.311 311.052 515.671 317.556C517.03 324.06 510.911 330.571 510.911 330.571C510.911 330.571 534.682 318.796 528.912 325.3C523.141 331.803 514.651 340.176 514.651 340.176C514.651 340.176 537.402 332.734 534.682 337.075C531.962 341.416 521.781 346.051 521.781 346.051C521.781 346.051 540.462 342.95 538.422 345.741C536.382 348.531 531.64 351.265 531.64 351.265H447.059C447.059 351.265 424.638 343.88 433.469 343.26C442.299 342.64 450.467 346.051 450.467 346.051C450.467 346.051 422.965 329.013 435.866 327.772C448.767 326.532 459.298 341.4 459.298 341.4C459.298 341.4 440.957 317.858 447.416 321.579L462.876 336.667Z" fill="#01A657"/>
<path d="M464.03 344.663C464.03 344.663 440.966 322.868 447.488 323.521C454.01 324.173 466.07 340.477 466.07 340.477C466.07 340.477 466.24 304.573 471.993 312.423C477.746 320.273 470.678 340.624 470.678 340.624C470.678 340.624 487.122 317.221 487.086 321.04C486.97 332.864 474.417 342.109 474.417 342.109C474.417 342.109 500.748 324.32 496.435 331.501C492.123 338.682 475.223 345.577 475.223 345.577C475.223 345.577 505.579 339.988 494.789 343.945C483.999 347.903 473.738 350.587 473.738 350.587H465.381C465.381 350.587 436.752 337.466 447.488 339.433C458.224 341.399 464.03 344.663 464.03 344.663Z" fill="#263238"/>
<path d="M473.818 350.971H465.265L465.167 350.93C455.477 346.491 444.053 340.877 444.652 339.294C444.858 338.747 445.681 338.666 447.577 339.008C452.483 339.863 457.258 341.249 461.803 343.137C456.515 338.037 444.625 326.14 445.958 323.676C446.119 323.366 446.522 323.023 447.47 323.121C453.169 323.692 462.68 335.508 465.569 339.188C465.65 332.48 466.196 311.982 470.043 310.938C470.803 310.726 471.572 311.15 472.342 312.195C476.94 318.502 473.63 332.252 471.921 338.078C477.433 330.326 485.288 319.775 486.996 320.24C487.193 320.297 487.515 320.469 487.506 321.056C487.435 328.4 482.577 334.83 478.855 338.674C485.502 334.365 495.397 328.359 497.026 329.649C497.652 330.147 497.196 331.085 496.802 331.746C493.581 337.123 483.776 342.183 478.631 344.557C497.133 341.293 497.419 342.231 497.571 342.607C497.741 343.129 497.133 343.529 494.995 344.312C484.259 348.213 473.997 350.938 473.899 350.963L473.818 350.971ZM465.471 350.155H473.693C474.587 349.926 484.429 347.274 494.646 343.545C495.173 343.36 495.69 343.15 496.194 342.917C493.59 342.917 483.981 344.386 475.321 345.977L471.331 346.711L475.053 345.202C475.223 345.136 491.801 338.355 495.997 331.33C496.525 330.457 496.408 330.228 496.408 330.228C495.236 329.486 484.196 335.94 474.632 342.468L474.086 341.823C474.212 341.734 486.433 332.595 486.612 321.138C484.822 322.133 477.379 331.836 471.027 340.869L469.237 343.464L470.257 340.526C470.329 340.322 477.2 320.289 471.626 312.676C471.34 312.276 470.776 311.623 470.338 311.746C467.654 312.48 466.58 329.771 466.527 340.502V341.823L465.721 340.73C465.596 340.567 453.652 324.581 447.452 323.953C447.291 323.953 446.915 323.912 446.844 324.059C445.949 325.765 456.56 336.985 464.415 344.402L466.929 346.777L463.851 345.03C463.798 345.03 458.027 341.766 447.461 339.832C446.877 339.697 446.275 339.637 445.672 339.653C446.593 340.991 456.274 345.936 465.471 350.155Z" fill="#263238"/>
<path d="M91.2765 311.361C91.2765 311.361 93.0658 309.852 94.6673 309.852C96.2687 309.852 101.019 311.949 101.019 311.949C101.019 311.949 102.934 314.641 103.104 314.805C103.274 314.968 105.627 315.882 105.788 316.257C105.949 316.633 106.307 317.889 106.307 317.889H91.7059L89.0219 311.426L91.2765 311.361Z" fill="white"/>
<path d="M106.906 318.281H91.4107L88.3777 311.018L91.1065 310.953C91.5717 310.602 93.1911 309.443 94.6851 309.443C96.3045 309.443 100.733 311.369 101.234 311.581L101.341 311.63L101.413 311.728C102.308 312.977 103.319 314.38 103.453 314.527L104.097 314.821C105.546 315.474 106.083 315.767 106.235 316.094C106.387 316.42 106.745 317.636 106.781 317.767L106.906 318.281ZM92.019 317.465H105.725C105.629 317.108 105.513 316.757 105.376 316.412C104.829 316.089 104.258 315.8 103.668 315.547C103.348 315.432 103.048 315.278 102.773 315.09C102.594 314.927 101.422 313.295 100.697 312.267C99.3016 311.663 95.8214 310.259 94.6494 310.259C93.2716 310.259 91.5717 311.647 91.5538 311.663L91.4286 311.761L89.6392 311.81L92.019 317.465Z" fill="#263238"/>
<path d="M94.6672 309.852L94.5778 311.125C94.5778 311.125 98.3175 313.108 98.237 313.826C98.0206 314.641 97.7211 315.436 97.3423 316.2L99.2569 318.028H89.1024L89.8808 312.553C89.8808 312.553 92.0548 309.697 94.6672 309.852Z" fill="#263238"/>
<path d="M72.2201 310.569C72.2201 310.569 79.5295 300.565 81.1667 300.41C82.4368 300.442 83.6809 300.746 84.7984 301.297C85.9159 301.849 86.8754 302.632 87.5994 303.584C88.6835 305.622 89.5581 307.748 90.2118 309.933C90.3013 310.17 90.6502 310.333 92.6453 313.262C94.6404 316.192 94.5599 317.873 94.5599 317.873H66.2974C66.6326 316.432 67.1899 315.042 67.9525 313.744C68.8337 312.727 70.0563 312.001 71.4327 311.679L72.2201 310.569Z" fill="white"/>
<path d="M94.9893 318.28H65.7337L65.8411 317.783C66.1892 316.296 66.7676 314.861 67.5588 313.523C68.4525 312.45 69.7112 311.678 71.1375 311.328L71.8354 310.341C73.6247 307.958 79.3953 300.173 81.122 300.002C82.4803 300.027 83.8124 300.347 85.0086 300.934C86.2048 301.522 87.2308 302.36 88.002 303.38C89.0969 305.365 89.9605 307.449 90.5786 309.598L90.6412 309.802L90.8112 310.006C91.0975 310.357 91.7059 311.091 93.039 313.05C95.0877 316.061 95.0251 317.815 95.0162 317.889L94.9893 318.28ZM66.8521 317.464H94.0947C93.8004 316.04 93.1916 314.685 92.3053 313.482C91.6328 312.457 90.9042 311.463 90.1223 310.504C89.9957 310.374 89.8957 310.225 89.8271 310.063C89.7941 309.986 89.7672 309.907 89.7466 309.827C89.1643 307.735 88.327 305.71 87.2505 303.788C86.5715 302.902 85.6755 302.172 84.6335 301.656C83.5915 301.141 82.4321 300.854 81.2472 300.818C80.3526 300.94 76.1208 305.983 72.6137 310.789L71.719 312.038L71.5401 312.079C70.2756 312.372 69.1489 313.03 68.3283 313.956C67.6674 315.058 67.1767 316.239 66.87 317.464H66.8521Z" fill="#263238"/>
<path d="M83.4392 317.709C83.4392 317.709 82.6608 315.963 82.5445 315.726C82.4282 315.489 82.455 313.188 82.1956 312.234C81.5166 310.871 80.702 309.568 79.7621 308.341L81.3278 304.221L80.5405 303.666L81.8467 300.728L81.122 300.418C79.4042 300.695 72.1753 310.569 72.1753 310.569L71.388 311.679C70.0116 312.001 68.789 312.726 67.9078 313.743C67.1647 314.988 66.6223 316.323 66.2974 317.709H83.4392Z" fill="#263238"/>
<path d="M373.088 313.849C373.679 313.349 374.42 313.019 375.217 312.902C376.201 312.902 379.198 314.216 379.198 314.216C379.198 314.216 380.397 315.905 380.504 316.003C380.612 316.101 382.088 316.68 382.195 316.917C382.303 317.154 382.526 317.929 382.526 317.929H373.356L371.665 313.849H373.088Z" fill="white"/>
<path d="M383.072 318.337H373.052L371.03 313.49L372.917 313.441C373.559 312.917 374.362 312.586 375.217 312.494C376.272 312.494 379.073 313.71 379.395 313.849L379.502 313.898L379.574 313.996C380.12 314.771 380.746 315.628 380.844 315.734C380.943 315.84 381.005 315.791 381.193 315.881C382.15 316.321 382.49 316.509 382.607 316.754C382.746 317.103 382.862 317.46 382.956 317.823L383.072 318.337ZM373.642 317.521H381.918C381.855 317.325 381.793 317.154 381.757 317.072C381.721 316.99 381.041 316.737 380.764 316.607C380.547 316.531 380.344 316.423 380.164 316.289C379.688 315.732 379.255 315.146 378.867 314.534C377.703 313.987 376.467 313.576 375.19 313.31C374.505 313.414 373.867 313.698 373.356 314.126L373.24 314.224H372.282L373.642 317.521Z" fill="#263238"/>
<path d="M375.217 312.902L375.163 313.718C375.163 313.718 377.507 314.967 377.453 315.416C377.324 315.928 377.141 316.428 376.908 316.909L378.107 318.051H371.719L372.211 314.616C372.211 314.616 373.58 312.804 375.217 312.902Z" fill="#263238"/>
<path d="M361.135 313.344C361.135 313.344 365.724 307.069 366.762 306.971C367.558 306.993 368.337 307.185 369.038 307.531C369.738 307.876 370.341 308.366 370.797 308.962C371.475 310.241 372.023 311.574 372.434 312.944C372.488 313.091 372.703 313.197 373.964 315.033C374.647 315.877 375.062 316.876 375.163 317.921H357.431C357.638 317.018 357.988 316.147 358.469 315.335C359.021 314.696 359.788 314.24 360.652 314.037L361.135 313.344Z" fill="white"/>
<path d="M375.584 318.338H356.876L356.992 317.84C357.212 316.892 357.58 315.976 358.084 315.123C358.655 314.434 359.455 313.933 360.365 313.695L360.768 313.124C362.557 310.725 365.626 306.677 366.709 306.596C367.592 306.605 368.46 306.809 369.239 307.19C370.017 307.57 370.684 308.117 371.182 308.783C371.882 310.038 372.431 311.36 372.819 312.724V312.838C372.819 312.838 372.819 312.838 372.9 312.928C373.079 313.148 373.463 313.605 374.304 314.845C375.037 315.757 375.477 316.836 375.575 317.963L375.584 318.338ZM358.003 317.522H374.662C374.45 316.714 374.083 315.946 373.58 315.253C372.757 314.054 372.39 313.621 372.22 313.401C372.13 313.306 372.057 313.199 372.005 313.083L371.96 312.936C371.594 311.634 371.072 310.372 370.404 309.174C369.997 308.647 369.462 308.211 368.842 307.901C368.221 307.592 367.531 307.416 366.825 307.387C366.225 307.567 363.604 310.741 361.528 313.572L360.947 314.388L360.777 314.429C360.024 314.6 359.352 314.99 358.862 315.539C358.483 316.161 358.2 316.829 358.021 317.522H358.003Z" fill="#263238"/>
<path d="M368.176 317.831C368.176 317.831 367.684 316.73 367.63 316.583C367.576 316.436 367.576 314.951 367.415 314.396C366.986 313.54 366.474 312.721 365.885 311.948L366.87 309.361L366.378 309.01L367.192 307.174L366.735 306.979C365.662 307.15 361.135 313.343 361.135 313.343L360.652 314.037C359.788 314.24 359.021 314.696 358.469 315.334C358 316.115 357.66 316.953 357.458 317.823L368.176 317.831Z" fill="#263238"/>
<path d="M485.064 336.763C485.064 336.763 498.887 317.865 502.009 317.563C505.131 317.261 511.707 319.66 514.176 323.56C516.646 327.461 518.945 335.115 519.115 335.564C519.285 336.012 519.938 336.314 523.714 341.863C527.489 347.412 527.337 350.562 527.337 350.562H473.845C473.845 350.562 474.999 345.609 476.976 342.761C478.953 339.913 483.552 338.86 483.552 338.86L485.064 336.763Z" fill="white"/>
<path d="M527.722 350.97H473.299L473.415 350.481C473.415 350.268 474.605 345.421 476.592 342.541C478.443 339.873 482.38 338.738 483.266 338.51L484.661 336.535C486.084 334.585 498.681 317.465 501.928 317.155C505.176 316.845 511.967 319.301 514.525 323.357C516.002 325.682 517.63 329.607 519.374 335.034C519.437 335.246 519.482 335.385 519.5 335.434C519.601 335.609 519.724 335.773 519.867 335.923C520.412 336.584 521.54 337.947 524.063 341.635C527.874 347.233 527.749 350.44 527.749 350.57L527.722 350.97ZM474.409 350.154H526.836C526.738 349.167 526.201 346.335 523.257 342.076C521.979 340.128 520.593 338.241 519.106 336.421C518.899 336.201 518.73 335.953 518.605 335.687L518.471 335.262C516.744 329.901 515.143 326.033 513.711 323.765C511.358 320.044 504.961 317.669 501.973 317.963C499.853 318.167 490.656 329.738 485.359 336.984L483.785 339.22L483.615 339.261C483.615 339.261 479.141 340.305 477.352 342.982C476.01 345.236 475.02 347.65 474.409 350.154Z" fill="#263238"/>
<path d="M506.25 350.259C506.25 350.259 504.765 346.995 504.604 346.513C504.443 346.032 504.442 341.707 503.941 339.912C503.44 338.116 499.343 332.568 499.343 332.568L502.304 324.767L500.819 323.714L503.288 318.165L501.911 317.586C498.672 318.116 485.028 336.77 485.028 336.77L483.552 338.867C483.552 338.867 478.945 339.92 476.976 342.768C475.285 345.216 474.203 349.165 473.925 350.267L506.25 350.259Z" fill="#263238"/>
</svg>
