<svg width="706" height="213" viewBox="0 0 706 213" fill="none" xmlns="http://www.w3.org/2000/svg">
<mask id="path-1-inside-1_1776_9281" fill="white">
<path d="M0 6C0 2.6863 2.68629 0 6 0H700C703.314 0 706 2.68629 706 6V207C706 210.314 703.314 213 700 213H6.00002C2.68631 213 0 210.314 0 207V6Z"/>
</mask>
<path d="M0 0H706H0ZM706 207C706 210.866 702.866 214 699 214H7C3.13401 214 0 210.866 0 207C0 209.761 2.68629 212 6 212H700C703.314 212 706 209.761 706 207ZM0 213V0V213ZM706 0V213V0Z" fill="url(#paint0_linear_1776_9281)" mask="url(#path-1-inside-1_1776_9281)"/>
<path d="M176.929 152.8C176.385 152.8 175.929 152.616 175.561 152.248C175.193 151.864 175.009 151.4 175.009 150.856C175.009 150.328 175.193 149.888 175.561 149.536C175.929 149.168 176.385 148.984 176.929 148.984C177.457 148.984 177.905 149.168 178.273 149.536C178.641 149.904 178.825 150.344 178.825 150.856C178.825 151.4 178.641 151.864 178.273 152.248C177.905 152.616 177.457 152.8 176.929 152.8ZM176.929 160.048C176.385 160.048 175.929 159.864 175.561 159.496C175.193 159.112 175.009 158.648 175.009 158.104C175.009 157.576 175.193 157.136 175.561 156.784C175.929 156.416 176.385 156.232 176.929 156.232C177.457 156.232 177.905 156.416 178.273 156.784C178.641 157.152 178.825 157.592 178.825 158.104C178.825 158.648 178.641 159.112 178.273 159.496C177.905 159.864 177.457 160.048 176.929 160.048ZM183.099 140.704C184.923 142.112 186.435 143.88 187.635 146.008C188.851 148.136 189.459 150.616 189.459 153.448C189.459 156.248 188.851 158.72 187.635 160.864C186.419 163.024 184.907 164.8 183.099 166.192L181.539 164.32C185.059 161.296 186.819 157.672 186.819 153.448C186.819 151 186.291 148.888 185.235 147.112C184.179 145.32 182.947 143.816 181.539 142.6L183.099 140.704ZM206.638 160.264C206.622 159.912 206.614 159.392 206.614 158.704C206.614 158.016 206.622 157.504 206.638 157.168C208.11 157.168 209.366 157.08 210.406 156.904C211.462 156.728 212.262 156.52 212.806 156.28C213.35 156.04 213.638 155.832 213.67 155.656C213.574 154.936 213.358 154.088 213.022 153.112C212.702 152.136 212.438 151.4 212.23 150.904L214.486 149.68C214.87 150.544 215.214 151.56 215.518 152.728C215.822 153.88 215.958 154.848 215.926 155.632C215.862 157.136 214.974 158.288 213.262 159.088C211.566 159.872 209.358 160.264 206.638 160.264ZM200.566 151.624C200.086 153.08 199.878 154.16 199.942 154.864C200.07 155.552 200.726 156.112 201.91 156.544C203.094 156.96 204.75 157.168 206.878 157.168C206.91 157.504 206.926 158.016 206.926 158.704C206.926 159.392 206.91 159.912 206.878 160.264C204.046 160.28 201.822 159.864 200.206 159.016C198.59 158.168 197.71 156.968 197.566 155.416C197.55 155.288 197.542 155.096 197.542 154.84C197.542 154.168 197.63 153.456 197.806 152.704C197.982 151.936 198.206 151.232 198.478 150.592L200.566 151.624ZM204.598 148.816L206.47 150.664L204.598 152.56L202.726 150.664L204.598 148.816ZM208.798 148.816L210.67 150.664L208.798 152.56L206.926 150.664L208.798 148.816ZM218.559 159.856C218.687 158.896 218.751 157.272 218.751 154.984C218.751 152.792 218.687 150.496 218.559 148.096C218.447 145.696 218.319 144.056 218.175 143.176L220.815 142.576C220.943 143.44 221.063 145.04 221.175 147.376C221.287 149.696 221.343 151.968 221.343 154.192C221.343 156.832 221.255 158.816 221.079 160.144L218.559 159.856ZM230.202 160C229.146 160 228.298 159.624 227.658 158.872C227.034 158.104 226.506 157.016 226.074 155.608L227.97 154.456C228.194 155.352 228.474 155.984 228.81 156.352C229.146 156.72 229.61 156.904 230.202 156.904H230.394L230.562 158.44L230.394 160H230.202ZM220.77 164.344C221.81 163.944 222.762 163.456 223.626 162.88C224.49 162.304 225.17 161.72 225.666 161.128C226.162 160.536 226.41 160.008 226.41 159.544C226.41 159.192 226.314 158.608 226.122 157.792C225.93 156.96 225.674 155.92 225.354 154.672C225.226 154.224 225.138 153.888 225.09 153.664L227.49 152.728C227.858 153.848 228.154 155.04 228.378 156.304C228.618 157.552 228.738 158.632 228.738 159.544C228.738 161.064 228.114 162.48 226.866 163.792C225.634 165.104 224.018 166.16 222.018 166.96L220.77 164.344ZM236.477 156.928C237.901 156.928 239.173 156.768 240.293 156.448C241.413 156.112 242.277 155.688 242.885 155.176C243.493 154.648 243.797 154.112 243.797 153.568C243.797 153.152 243.605 152.8 243.221 152.512C242.853 152.208 242.333 152.056 241.661 152.056C240.365 152.056 239.021 152.648 237.629 153.832C236.237 155 234.973 156.624 233.837 158.704L232.061 157.432C233.373 154.824 234.845 152.792 236.477 151.336C238.125 149.864 239.765 149.12 241.397 149.104C242.293 149.104 243.093 149.296 243.797 149.68C244.517 150.064 245.077 150.592 245.477 151.264C245.877 151.936 246.077 152.696 246.077 153.544C246.077 154.856 245.669 156 244.853 156.976C244.037 157.952 242.909 158.704 241.469 159.232C240.029 159.744 238.405 160 236.597 160H230.165V156.904L236.477 156.928ZM233.741 154.936C233.789 154.376 233.813 153.72 233.813 152.968C233.813 151.416 233.725 149.624 233.549 147.592C233.389 145.56 233.229 144.088 233.069 143.176L235.709 142.576C235.853 143.392 235.981 144.568 236.093 146.104C236.205 147.624 236.261 149.168 236.261 150.736C236.261 152 236.213 153.208 236.117 154.36L233.741 154.936ZM250.978 142.576C251.138 143.712 251.266 145.432 251.362 147.736C251.458 150.024 251.498 152 251.482 153.664C251.466 154.544 251.506 155.208 251.602 155.656C251.698 156.088 251.906 156.408 252.226 156.616C252.546 156.808 253.042 156.904 253.714 156.904H253.834L253.978 158.44L253.834 160H253.714C251.97 160 250.738 159.528 250.018 158.584C249.298 157.64 248.938 156.16 248.938 154.144C248.938 152.304 248.882 150.32 248.77 148.192C248.674 146.048 248.538 144.376 248.362 143.176L250.978 142.576ZM253.579 156.904H255.499C257.435 156.904 259.243 156.688 260.923 156.256C262.619 155.808 264.379 155.096 266.203 154.12C266.715 153.832 267.243 153.568 267.787 153.328C268.331 153.088 268.763 152.928 269.083 152.848L269.179 154.792C268.315 154.728 267.483 154.576 266.683 154.336C265.899 154.096 265.003 153.728 263.995 153.232C262.539 152.48 261.283 152.104 260.227 152.104C259.603 152.104 259.043 152.28 258.547 152.632C258.051 152.984 257.675 153.392 257.419 153.856L255.667 152.584C256.227 151.448 256.899 150.592 257.683 150.016C258.467 149.424 259.347 149.128 260.323 149.128C261.011 149.128 261.667 149.248 262.291 149.488C262.931 149.712 263.819 150.12 264.955 150.712C265.947 151.208 266.763 151.584 267.403 151.84C268.043 152.096 268.747 152.304 269.515 152.464L269.611 155.224C269.163 155.352 268.427 155.704 267.403 156.28C267.259 156.344 267.043 156.456 266.755 156.616C265.235 157.416 263.891 158.056 262.723 158.536C261.571 159.016 260.371 159.384 259.123 159.64C257.891 159.88 256.523 160 255.019 160H253.579V156.904ZM258.427 145.288C259.323 144.36 260.003 143.672 260.467 143.224L262.507 145.288L261.835 145.96L260.467 147.328L258.427 145.288ZM292.171 154.432C292.459 155.36 292.755 156.008 293.059 156.376C293.379 156.728 293.835 156.904 294.427 156.904H294.595L294.763 158.44L294.595 160H294.427C293.467 160 292.699 159.608 292.123 158.824C291.547 158.024 291.003 156.896 290.491 155.44L292.171 154.432ZM281.443 154.912C281.027 155.824 280.707 156.664 280.483 157.432C280.259 158.184 280.147 158.944 280.147 159.712C280.147 161.088 280.571 162.12 281.419 162.808C282.267 163.512 283.491 163.864 285.091 163.864C286.275 163.864 287.291 163.656 288.139 163.24C289.003 162.84 289.651 162.304 290.083 161.632C290.515 160.976 290.731 160.28 290.731 159.544C290.731 158.568 290.243 156.616 289.267 153.688L291.547 152.512C292.539 155.296 293.035 157.64 293.035 159.544C293.035 160.856 292.707 162.08 292.051 163.216C291.411 164.352 290.483 165.264 289.267 165.952C288.067 166.64 286.675 166.984 285.091 166.984C283.603 166.984 282.299 166.688 281.179 166.096C280.059 165.504 279.195 164.68 278.587 163.624C277.995 162.584 277.699 161.392 277.699 160.048C277.699 159.072 277.867 158.04 278.203 156.952C278.539 155.848 278.923 154.848 279.355 153.952L281.443 154.912ZM283.555 152.68C284.451 151.752 285.131 151.064 285.595 150.616L287.635 152.68L286.963 153.352L285.595 154.72L283.555 152.68ZM295.105 156.904H296.185C297.817 156.904 298.969 156.76 299.641 156.472C300.313 156.168 300.649 155.704 300.649 155.08C300.633 154.68 300.457 153.992 300.121 153.016C299.801 152.024 299.545 151.32 299.353 150.904L301.609 149.68C301.929 150.4 302.249 151.296 302.569 152.368C302.889 153.44 303.049 154.384 303.049 155.2C303.033 156.768 302.489 157.96 301.417 158.776C300.345 159.592 298.753 160 296.641 160H295.105V156.904ZM296.353 162.112L298.225 163.96L296.353 165.856L294.481 163.96L296.353 162.112ZM300.577 162.112L302.449 163.96L300.577 165.856L298.705 163.96L300.577 162.112ZM294.385 160L294.241 158.44L294.385 156.904H295.369V160H294.385ZM312.795 160C311.739 160 310.891 159.624 310.251 158.872C309.627 158.104 309.099 157.016 308.667 155.608L310.563 154.456C310.787 155.352 311.067 155.984 311.403 156.352C311.739 156.72 312.203 156.904 312.795 156.904H312.987L313.155 158.44L312.987 160H312.795ZM303.363 164.344C304.403 163.944 305.355 163.456 306.219 162.88C307.083 162.304 307.763 161.72 308.259 161.128C308.755 160.536 309.003 160.008 309.003 159.544C309.003 159.192 308.907 158.608 308.715 157.792C308.523 156.96 308.267 155.92 307.947 154.672C307.819 154.224 307.731 153.888 307.683 153.664L310.083 152.728C310.451 153.848 310.747 155.04 310.971 156.304C311.211 157.552 311.331 158.632 311.331 159.544C311.331 161.064 310.707 162.48 309.459 163.792C308.227 165.104 306.611 166.16 304.611 166.96L303.363 164.344ZM312.759 156.904H313.839C315.471 156.904 316.623 156.76 317.295 156.472C317.967 156.168 318.303 155.704 318.303 155.08C318.287 154.68 318.111 153.992 317.775 153.016C317.455 152.024 317.199 151.32 317.007 150.904L319.263 149.68C319.583 150.4 319.903 151.296 320.223 152.368C320.543 153.44 320.703 154.384 320.703 155.2C320.687 156.768 320.143 157.96 319.071 158.776C317.999 159.592 316.407 160 314.295 160H312.759V156.904ZM315.039 144.808L316.911 146.656L315.039 148.552L313.167 146.656L315.039 144.808ZM319.239 144.808L321.111 146.656L319.239 148.552L317.367 146.656L319.239 144.808ZM336.418 166.84C335.01 166.84 333.746 166.568 332.626 166.024C331.506 165.496 330.626 164.712 329.986 163.672C329.346 162.648 329.026 161.416 329.026 159.976C329.026 159 329.194 157.944 329.53 156.808C329.866 155.672 330.25 154.672 330.682 153.808L332.77 154.792C332.354 155.688 332.026 156.52 331.786 157.288C331.562 158.056 331.45 158.816 331.45 159.568C331.45 160.944 331.874 161.984 332.722 162.688C333.586 163.392 334.818 163.744 336.418 163.744C337.314 163.744 338.162 163.64 338.962 163.432C339.778 163.224 340.466 162.96 341.026 162.64C341.586 162.32 341.946 162.016 342.106 161.728C341.866 161.456 341.274 161.04 340.33 160.48C339.386 159.92 338.402 159.44 337.378 159.04L338.05 156.112C340.69 156.64 343.002 156.904 344.986 156.904H346.162L346.33 158.44L346.162 160H344.986C343.018 160 340.49 159.68 337.402 159.04L338.074 157.144C338.202 157.192 338.826 157.456 339.946 157.936C341.066 158.416 342.09 159.024 343.018 159.76C343.946 160.496 344.41 161.2 344.41 161.872C344.394 162.64 344.026 163.408 343.306 164.176C342.586 164.96 341.618 165.6 340.402 166.096C339.186 166.592 337.858 166.84 336.418 166.84ZM346.691 156.904H347.771C349.403 156.904 350.555 156.76 351.227 156.472C351.899 156.168 352.235 155.704 352.235 155.08C352.219 154.68 352.043 153.992 351.707 153.016C351.387 152.024 351.131 151.32 350.939 150.904L353.195 149.68C353.515 150.4 353.835 151.296 354.155 152.368C354.475 153.44 354.635 154.384 354.635 155.2C354.619 156.768 354.075 157.96 353.003 158.776C351.931 159.592 350.339 160 348.227 160H346.691V156.904ZM347.939 162.112L349.811 163.96L347.939 165.856L346.067 163.96L347.939 162.112ZM352.163 162.112L354.035 163.96L352.163 165.856L350.291 163.96L352.163 162.112ZM345.971 160L345.827 158.44L345.971 156.904H346.955V160H345.971ZM359.541 142.576C359.701 143.712 359.829 145.432 359.925 147.736C360.021 150.024 360.061 152 360.045 153.664C360.029 154.544 360.069 155.208 360.165 155.656C360.261 156.088 360.469 156.408 360.789 156.616C361.109 156.808 361.605 156.904 362.277 156.904H362.397L362.541 158.44L362.397 160H362.277C360.533 160 359.301 159.528 358.581 158.584C357.861 157.64 357.501 156.16 357.501 154.144C357.501 152.304 357.445 150.32 357.333 148.192C357.237 146.048 357.101 144.376 356.925 143.176L359.541 142.576ZM362.165 156.904H363.245C364.877 156.904 366.029 156.76 366.701 156.472C367.373 156.168 367.709 155.704 367.709 155.08C367.693 154.68 367.517 153.992 367.181 153.016C366.861 152.024 366.605 151.32 366.413 150.904L368.669 149.68C368.989 150.4 369.309 151.296 369.629 152.368C369.949 153.44 370.109 154.384 370.109 155.2C370.093 156.768 369.549 157.96 368.477 158.776C367.405 159.592 365.813 160 363.701 160H362.165V156.904ZM362.429 162.16L364.301 164.008L362.429 165.904L360.557 164.008L362.429 162.16ZM366.653 162.16L368.525 164.008L366.653 165.904L364.781 164.008L366.653 162.16ZM371.866 164.248C374.538 163.672 376.49 162.952 377.722 162.088C378.954 161.224 379.57 160.112 379.57 158.752C379.554 157.792 379.418 156.856 379.162 155.944C378.922 155.016 378.57 154.256 378.106 153.664C377.642 153.072 377.114 152.776 376.522 152.776C376.186 152.776 375.866 152.912 375.562 153.184C375.274 153.44 375.042 153.768 374.866 154.168C374.69 154.568 374.602 154.944 374.602 155.296C374.602 155.552 374.666 155.784 374.794 155.992C375.034 156.328 375.466 156.584 376.09 156.76C376.73 156.936 377.45 157.024 378.25 157.024C378.97 157.024 379.618 156.968 380.194 156.856V159.76C379.362 159.968 378.546 160.072 377.746 160.072C376.626 160.072 375.618 159.88 374.722 159.496C373.826 159.112 373.194 158.528 372.826 157.744C372.554 157.184 372.418 156.528 372.418 155.776C372.418 154.864 372.61 153.96 372.994 153.064C373.378 152.152 373.898 151.408 374.554 150.832C375.226 150.24 375.954 149.944 376.738 149.944C377.698 149.944 378.562 150.36 379.33 151.192C380.098 152.024 380.69 153.096 381.106 154.408C381.538 155.72 381.754 157.064 381.754 158.44C381.754 160.6 380.962 162.424 379.378 163.912C377.794 165.416 375.602 166.432 372.802 166.96L371.866 164.248ZM382.02 164.344C383.06 163.944 384.012 163.456 384.876 162.88C385.74 162.304 386.42 161.72 386.916 161.128C387.412 160.536 387.66 160.008 387.66 159.544C387.66 159.192 387.564 158.608 387.372 157.792C387.18 156.96 386.924 155.92 386.604 154.672C386.476 154.224 386.388 153.888 386.34 153.664L388.74 152.728C389.108 153.848 389.404 155.04 389.628 156.304C389.868 157.552 389.988 158.632 389.988 159.544C389.988 161.064 389.364 162.48 388.116 163.792C386.884 165.104 385.268 166.16 383.268 166.96L382.02 164.344ZM402.028 153.616C401.612 154.512 401.284 155.344 401.044 156.112C400.82 156.88 400.708 157.648 400.708 158.416C400.708 159.792 401.132 160.824 401.98 161.512C402.844 162.216 404.076 162.568 405.676 162.568C407.084 162.568 408.308 162.296 409.348 161.752C410.388 161.224 411.1 160.584 411.484 159.832C411.5 159.784 411.244 159.68 410.716 159.52C410.188 159.344 409.516 159.136 408.7 158.896C407.436 158.528 406.54 158.112 406.012 157.648C405.5 157.168 405.244 156.464 405.244 155.536C405.244 154.288 405.564 153.096 406.204 151.96C406.844 150.824 407.692 149.912 408.748 149.224C409.804 148.52 410.916 148.168 412.084 148.168C412.548 148.168 413.004 148.232 413.452 148.36C413.916 148.488 414.252 148.64 414.46 148.816L413.572 151.528C413.396 151.464 413.156 151.408 412.852 151.36C412.548 151.312 412.268 151.288 412.012 151.288C411.34 151.288 410.692 151.448 410.068 151.768C409.46 152.072 408.94 152.48 408.508 152.992C408.092 153.488 407.82 154.008 407.692 154.552C407.676 154.616 407.668 154.704 407.668 154.816C407.668 155.088 407.852 155.336 408.22 155.56C408.588 155.768 409.292 156.008 410.332 156.28C411.34 156.536 412.108 156.808 412.636 157.096C413.164 157.384 413.524 157.696 413.716 158.032C413.908 158.352 414.004 158.736 414.004 159.184C414.004 160.272 413.636 161.312 412.9 162.304C412.18 163.312 411.18 164.128 409.9 164.752C408.636 165.376 407.228 165.688 405.676 165.688C404.268 165.688 403.004 165.416 401.884 164.872C400.764 164.328 399.884 163.536 399.244 162.496C398.604 161.472 398.284 160.24 398.284 158.8C398.284 157.824 398.452 156.768 398.788 155.632C399.124 154.48 399.508 153.488 399.94 152.656L402.028 153.616ZM416.28 164.248C418.952 163.672 420.904 162.952 422.136 162.088C423.368 161.224 423.984 160.112 423.984 158.752C423.984 157.808 423.856 156.872 423.6 155.944C423.344 155.016 422.984 154.256 422.52 153.664C422.056 153.072 421.528 152.776 420.936 152.776C420.6 152.776 420.28 152.912 419.976 153.184C419.688 153.44 419.456 153.768 419.28 154.168C419.104 154.568 419.016 154.944 419.016 155.296C419.016 155.552 419.08 155.784 419.208 155.992C419.464 156.36 420.056 156.608 420.984 156.736C421.912 156.848 423.144 156.904 424.68 156.904H427.032L427.2 158.44L427.032 160L424.032 160.024C422.192 160.024 420.704 159.88 419.568 159.592C418.448 159.288 417.672 158.672 417.24 157.744C416.968 157.184 416.832 156.528 416.832 155.776C416.832 154.864 417.024 153.96 417.408 153.064C417.792 152.152 418.312 151.408 418.968 150.832C419.64 150.24 420.368 149.944 421.152 149.944C422.112 149.944 422.976 150.36 423.744 151.192C424.512 152.024 425.104 153.096 425.52 154.408C425.952 155.72 426.168 157.064 426.168 158.44C426.168 160.6 425.376 162.424 423.792 163.912C422.208 165.416 420.016 166.432 417.216 166.96L416.28 164.248ZM440.175 156.904C440.687 156.904 441.079 156.76 441.351 156.472C441.639 156.168 441.783 155.768 441.783 155.272C441.783 154.792 441.631 154.104 441.327 153.208C441.023 152.296 440.743 151.536 440.487 150.928L442.695 149.704C443.015 150.392 443.335 151.296 443.655 152.416C443.991 153.52 444.159 154.496 444.159 155.344C444.159 156.208 443.991 156.992 443.655 157.696C443.319 158.4 442.847 158.96 442.239 159.376C441.631 159.792 440.943 160 440.175 160H440.127V156.904H440.175ZM433.647 160V156.904H433.743C434.591 156.904 435.271 156.424 435.783 155.464C436.103 154.84 436.375 153.872 436.599 152.56L438.855 152.656C438.663 153.616 438.567 154.392 438.567 154.984C438.567 156.264 439.095 156.904 440.151 156.904H440.223L440.367 158.44L440.223 160H440.151C439.271 160 438.543 159.752 437.967 159.256C437.391 158.76 436.999 158.064 436.791 157.168L437.343 157.144C436.911 158.024 436.383 158.72 435.759 159.232C435.151 159.744 434.471 160 433.719 160H433.647ZM426.807 160L426.639 158.44L426.807 156.904H426.903C427.431 156.904 427.943 156.784 428.439 156.544C428.935 156.304 429.311 156.008 429.567 155.656C429.903 155.24 430.159 154.784 430.335 154.288C430.527 153.792 430.687 153.272 430.815 152.728L433.071 152.968C433.071 152.984 433.031 153.168 432.951 153.52C432.711 154.448 432.591 155.136 432.591 155.584C432.591 156.032 432.679 156.368 432.855 156.592C433.031 156.8 433.311 156.904 433.695 156.904H433.743L433.911 158.44L433.743 160H433.647C432.943 160 432.335 159.808 431.823 159.424C431.327 159.024 430.999 158.496 430.839 157.84C430.327 158.544 429.735 159.08 429.063 159.448C428.391 159.816 427.663 160 426.879 160H426.807ZM460.371 147.4C460.419 147.752 460.451 148.088 460.467 148.408C460.499 148.728 460.531 149.032 460.563 149.32L461.091 154.048C461.187 154.864 461.307 155.472 461.451 155.872C461.595 156.256 461.803 156.528 462.075 156.688C462.347 156.832 462.747 156.904 463.275 156.904H463.683L463.851 158.44L463.683 160H463.275C461.899 160 460.843 159.576 460.107 158.728C459.387 157.864 458.907 156.44 458.667 154.456L457.851 147.904L460.371 147.4ZM460.083 158.32C459.059 158.656 458.067 158.824 457.107 158.824C455.715 158.824 454.579 158.496 453.699 157.84C452.819 157.168 452.379 156.256 452.379 155.104C452.379 153.696 452.947 152.52 454.083 151.576C455.219 150.616 456.747 149.792 458.667 149.104L459.219 151.888C458.083 152.144 457.059 152.536 456.147 153.064C455.251 153.576 454.779 154.072 454.731 154.552C454.699 154.936 454.891 155.256 455.307 155.512C455.723 155.768 456.283 155.896 456.987 155.896C457.771 155.896 458.603 155.728 459.483 155.392L460.083 158.32ZM463.415 156.904H464.687C465.871 156.904 466.727 156.768 467.255 156.496C467.783 156.208 468.047 155.776 468.047 155.2C468.047 154.832 467.871 154.12 467.519 153.064C467.183 152.008 466.927 151.288 466.751 150.904L469.007 149.68C469.311 150.32 469.623 151.2 469.943 152.32C470.279 153.44 470.447 154.416 470.447 155.248C470.447 156.8 469.951 157.984 468.959 158.8C467.967 159.6 466.543 160 464.687 160H463.415V156.904ZM463.199 164.056C464.095 163.128 464.775 162.44 465.239 161.992L467.279 164.056L466.607 164.728L465.239 166.096L463.199 164.056ZM482.513 153.616C482.097 154.512 481.769 155.344 481.529 156.112C481.305 156.88 481.193 157.648 481.193 158.416C481.193 159.792 481.617 160.824 482.465 161.512C483.329 162.216 484.561 162.568 486.161 162.568C487.569 162.568 488.793 162.296 489.833 161.752C490.873 161.224 491.585 160.584 491.969 159.832C491.985 159.784 491.729 159.68 491.201 159.52C490.673 159.344 490.001 159.136 489.185 158.896C487.921 158.528 487.025 158.112 486.497 157.648C485.985 157.168 485.729 156.464 485.729 155.536C485.729 154.288 486.049 153.096 486.689 151.96C487.329 150.824 488.177 149.912 489.233 149.224C490.289 148.52 491.401 148.168 492.569 148.168C493.033 148.168 493.489 148.232 493.937 148.36C494.401 148.488 494.737 148.64 494.945 148.816L494.057 151.528C493.881 151.464 493.641 151.408 493.337 151.36C493.033 151.312 492.753 151.288 492.497 151.288C491.825 151.288 491.177 151.448 490.553 151.768C489.945 152.072 489.425 152.48 488.993 152.992C488.577 153.488 488.305 154.008 488.177 154.552C488.161 154.616 488.153 154.704 488.153 154.816C488.153 155.088 488.337 155.336 488.705 155.56C489.073 155.768 489.777 156.008 490.817 156.28C491.825 156.536 492.593 156.808 493.121 157.096C493.649 157.384 494.009 157.696 494.201 158.032C494.393 158.352 494.489 158.736 494.489 159.184C494.489 160.272 494.121 161.312 493.385 162.304C492.665 163.312 491.665 164.128 490.385 164.752C489.121 165.376 487.713 165.688 486.161 165.688C484.753 165.688 483.489 165.416 482.369 164.872C481.249 164.328 480.369 163.536 479.729 162.496C479.089 161.472 478.769 160.24 478.769 158.8C478.769 157.824 478.937 156.768 479.273 155.632C479.609 154.48 479.993 153.488 480.425 152.656L482.513 153.616ZM495.809 164.344C496.849 163.944 497.801 163.456 498.665 162.88C499.529 162.304 500.209 161.72 500.705 161.128C501.201 160.536 501.449 160.008 501.449 159.544C501.449 159.192 501.353 158.608 501.161 157.792C500.969 156.96 500.713 155.92 500.393 154.672C500.265 154.224 500.177 153.888 500.129 153.664L502.529 152.728C502.897 153.848 503.193 155.04 503.417 156.304C503.657 157.552 503.777 158.632 503.777 159.544C503.777 161.064 503.153 162.48 501.905 163.792C500.673 165.104 499.057 166.16 497.057 166.96L495.809 164.344ZM506.538 156.064C507.098 156.352 507.69 156.608 508.314 156.832C508.954 157.04 509.73 157.144 510.642 157.144C511.506 157.144 512.21 157.04 512.754 156.832C513.314 156.624 513.682 156.392 513.858 156.136C513.89 156.008 513.906 155.896 513.906 155.8C513.906 155.176 513.514 154.344 512.73 153.304C511.946 152.264 510.674 151.128 508.914 149.896L510.402 147.208C512.226 148.536 513.666 149.96 514.722 151.48C515.794 152.984 516.33 154.416 516.33 155.776C516.33 156.368 516.21 156.944 515.97 157.504C515.618 158.336 514.97 158.976 514.026 159.424C513.098 159.872 512.066 160.096 510.93 160.096C509.586 160.096 508.45 159.904 507.522 159.52C506.594 159.12 505.874 158.704 505.362 158.272L506.538 156.064ZM524.327 164.248C526.999 163.672 528.951 162.952 530.183 162.088C531.415 161.224 532.031 160.112 532.031 158.752C532.031 157.808 531.903 156.872 531.647 155.944C531.391 155.016 531.031 154.256 530.567 153.664C530.103 153.072 529.575 152.776 528.983 152.776C528.647 152.776 528.327 152.912 528.023 153.184C527.735 153.44 527.503 153.768 527.327 154.168C527.151 154.568 527.063 154.944 527.063 155.296C527.063 155.552 527.127 155.784 527.255 155.992C527.511 156.36 528.103 156.608 529.031 156.736C529.959 156.848 531.191 156.904 532.727 156.904H535.079L535.247 158.44L535.079 160L532.079 160.024C530.239 160.024 528.751 159.88 527.615 159.592C526.495 159.288 525.719 158.672 525.287 157.744C525.015 157.184 524.879 156.528 524.879 155.776C524.879 154.864 525.071 153.96 525.455 153.064C525.839 152.152 526.359 151.408 527.015 150.832C527.687 150.24 528.415 149.944 529.199 149.944C530.159 149.944 531.023 150.36 531.791 151.192C532.559 152.024 533.151 153.096 533.567 154.408C533.999 155.72 534.215 157.064 534.215 158.44C534.215 160.6 533.423 162.424 531.839 163.912C530.255 165.416 528.063 166.432 525.263 166.96L524.327 164.248ZM534.758 156.904H536.678C538.614 156.904 540.422 156.688 542.102 156.256C543.798 155.808 545.558 155.096 547.382 154.12C547.894 153.832 548.422 153.568 548.966 153.328C549.51 153.088 549.942 152.928 550.262 152.848L550.358 154.792C549.494 154.728 548.662 154.576 547.862 154.336C547.078 154.096 546.182 153.728 545.174 153.232C543.718 152.48 542.462 152.104 541.406 152.104C540.782 152.104 540.222 152.28 539.726 152.632C539.23 152.984 538.854 153.392 538.598 153.856L536.846 152.584C537.406 151.448 538.078 150.592 538.862 150.016C539.646 149.424 540.526 149.128 541.502 149.128C542.19 149.128 542.846 149.248 543.47 149.488C544.11 149.712 544.998 150.12 546.134 150.712C547.126 151.208 547.942 151.584 548.582 151.84C549.222 152.096 549.926 152.304 550.694 152.464L550.79 155.224C550.342 155.352 549.606 155.704 548.582 156.28C548.438 156.344 548.222 156.456 547.934 156.616C546.414 157.416 545.07 158.056 543.902 158.536C542.75 159.016 541.55 159.384 540.302 159.64C539.07 159.88 537.702 160 536.198 160H534.758V156.904ZM540.806 163.912C541.702 162.984 542.382 162.296 542.846 161.848L544.886 163.912L544.214 164.584L542.846 165.952L540.806 163.912ZM558.983 160C557.927 160 557.079 159.624 556.439 158.872C555.815 158.104 555.287 157.016 554.855 155.608L556.751 154.456C556.975 155.352 557.255 155.984 557.591 156.352C557.927 156.72 558.391 156.904 558.983 156.904H559.175L559.343 158.44L559.175 160H558.983ZM549.551 164.344C550.591 163.944 551.543 163.456 552.407 162.88C553.271 162.304 553.951 161.72 554.447 161.128C554.943 160.536 555.191 160.008 555.191 159.544C555.191 159.192 555.095 158.608 554.903 157.792C554.711 156.96 554.455 155.92 554.135 154.672C554.007 154.224 553.919 153.888 553.871 153.664L556.271 152.728C556.639 153.848 556.935 155.04 557.159 156.304C557.399 157.552 557.519 158.632 557.519 159.544C557.519 161.064 556.895 162.48 555.647 163.792C554.415 165.104 552.799 166.16 550.799 166.96L549.551 164.344ZM558.898 156.904H559.474C561.122 156.904 562.434 156.816 563.41 156.64C564.402 156.464 565.154 156.2 565.666 155.848C566.178 155.496 566.546 155.024 566.77 154.432C566.802 153.824 566.642 153.256 566.29 152.728C565.938 152.2 565.466 151.936 564.874 151.936C564.362 151.936 563.914 152.152 563.53 152.584C563.146 153.016 562.914 153.52 562.834 154.096C562.85 154.576 563.058 155.032 563.458 155.464C563.874 155.896 564.474 156.248 565.258 156.52C566.042 156.776 566.962 156.904 568.018 156.904H570.562L570.73 158.44L570.562 160H569.122C567.49 160 566.018 159.752 564.706 159.256C563.394 158.744 562.37 158.064 561.634 157.216C560.898 156.352 560.53 155.416 560.53 154.408C560.53 154.264 560.546 154.064 560.578 153.808C560.722 152.896 561.01 152.064 561.442 151.312C561.89 150.56 562.426 149.968 563.05 149.536C563.69 149.088 564.362 148.864 565.066 148.864C565.85 148.864 566.546 149.112 567.154 149.608C567.762 150.104 568.234 150.744 568.57 151.528C568.906 152.312 569.074 153.112 569.074 153.928C569.074 154.088 569.058 154.328 569.026 154.648C568.77 156.472 567.85 157.824 566.266 158.704C564.698 159.568 562.434 160 559.474 160H558.898V156.904ZM563.002 145.48C563.898 144.552 564.578 143.864 565.042 143.416L567.082 145.48L566.41 146.152L565.042 147.52L563.002 145.48ZM583.707 156.904C584.219 156.904 584.611 156.76 584.883 156.472C585.171 156.168 585.315 155.768 585.315 155.272C585.315 154.792 585.163 154.104 584.859 153.208C584.555 152.296 584.275 151.536 584.019 150.928L586.227 149.704C586.547 150.392 586.867 151.296 587.187 152.416C587.523 153.52 587.691 154.496 587.691 155.344C587.691 156.208 587.523 156.992 587.187 157.696C586.851 158.4 586.379 158.96 585.771 159.376C585.163 159.792 584.475 160 583.707 160H583.659V156.904H583.707ZM577.179 160V156.904H577.275C578.123 156.904 578.803 156.424 579.315 155.464C579.635 154.84 579.907 153.872 580.131 152.56L582.387 152.656C582.195 153.616 582.099 154.392 582.099 154.984C582.099 156.264 582.627 156.904 583.683 156.904H583.755L583.899 158.44L583.755 160H583.683C582.803 160 582.075 159.752 581.499 159.256C580.923 158.76 580.531 158.064 580.323 157.168L580.875 157.144C580.443 158.024 579.915 158.72 579.291 159.232C578.683 159.744 578.003 160 577.251 160H577.179ZM570.339 160L570.171 158.44L570.339 156.904H570.435C570.963 156.904 571.475 156.784 571.971 156.544C572.467 156.304 572.843 156.008 573.099 155.656C573.435 155.24 573.691 154.784 573.867 154.288C574.059 153.792 574.219 153.272 574.347 152.728L576.603 152.968C576.603 152.984 576.563 153.168 576.483 153.52C576.243 154.448 576.123 155.136 576.123 155.584C576.123 156.032 576.211 156.368 576.387 156.592C576.563 156.8 576.843 156.904 577.227 156.904H577.275L577.443 158.44L577.275 160H577.179C576.475 160 575.867 159.808 575.355 159.424C574.859 159.024 574.531 158.496 574.371 157.84C573.859 158.544 573.267 159.08 572.595 159.448C571.923 159.816 571.195 160 570.411 160H570.339Z" fill="#01A657"/>
<defs>
<linearGradient id="paint0_linear_1776_9281" x1="0" y1="106.5" x2="706" y2="106.5" gradientUnits="userSpaceOnUse">
<stop offset="0.09708" stop-color="#7B4794" stop-opacity="0"/>
<stop offset="0.28249" stop-color="#51687F" stop-opacity="0.345679"/>
<stop offset="0.388696" stop-color="#01A657"/>
<stop offset="0.611909" stop-color="#7B4794"/>
<stop offset="0.773918" stop-color="#28886B" stop-opacity="0.319767"/>
<stop offset="0.921526" stop-color="#01A657" stop-opacity="0"/>
</linearGradient>
</defs>
</svg>
