<svg width="33" height="25" viewBox="0 0 33 25" fill="none" xmlns="http://www.w3.org/2000/svg">
<path d="M22.3537 0.1597V0.154297H23.7751L24.2945 0.25695C24.6408 0.323594 24.9552 0.41093 25.2376 0.518986C25.5201 0.627042 25.7935 0.753116 26.0577 0.897182C26.322 1.04125 26.5616 1.18804 26.7767 1.33751C26.9899 1.4852 27.1812 1.64188 27.3507 1.80755C27.5184 1.97504 27.7799 2.01826 28.1352 1.93722C28.4906 1.85618 28.8733 1.74361 29.2834 1.59955C29.6934 1.45548 30.0989 1.2934 30.4998 1.11329C30.9008 0.933192 31.145 0.818842 31.2325 0.770216C31.3181 0.719808 31.3637 0.692794 31.3691 0.689174L31.3746 0.68107L31.4019 0.667563L31.4293 0.654056L31.4566 0.640549L31.4839 0.627042L31.4894 0.618938L31.4976 0.613535L31.5058 0.608132L31.5113 0.600028L31.5386 0.591924L31.5659 0.586521L31.5605 0.627042L31.5523 0.667563L31.5386 0.708084L31.5249 0.748605L31.5113 0.775619L31.4976 0.802633L31.4839 0.843154C31.4748 0.870168 31.4657 0.906178 31.4566 0.95121C31.4475 0.996243 31.3609 1.17632 31.1969 1.49149C31.0329 1.80666 30.8279 2.12632 30.5818 2.45049C30.3358 2.77466 30.1153 3.01957 29.9203 3.18527C29.7235 3.35276 29.5932 3.46981 29.5294 3.53645C29.4656 3.60488 29.3882 3.6679 29.297 3.72555L29.1604 3.8147L29.133 3.8282L29.1057 3.84171L29.1002 3.84981L29.092 3.85522L29.0838 3.86062L29.0783 3.86872L29.051 3.88223L29.0237 3.89574L29.0182 3.90384L29.01 3.90924L29.0018 3.91465L28.9963 3.92275L28.9909 3.93086L28.9827 3.93626L28.9745 3.94166L28.969 3.94977H29.1057L29.8711 3.78768C30.3814 3.67963 30.8689 3.54907 31.3336 3.39598L32.0717 3.15285L32.1537 3.12584L32.1947 3.11233L32.222 3.09882L32.2493 3.08532L32.2767 3.07181L32.304 3.0583L32.3587 3.0502L32.4134 3.0448V3.09882L32.3997 3.10423L32.386 3.11233L32.3806 3.12044L32.3724 3.12584L32.3641 3.13124L32.3587 3.13935L32.3532 3.14745L32.345 3.15285L32.3368 3.15826L32.3313 3.16636L32.3259 3.17446L32.3177 3.17987L32.304 3.20688L32.2903 3.23389L32.2821 3.2393C32.2785 3.2447 32.1628 3.39776 31.935 3.69854C31.7072 4.00109 31.5842 4.15415 31.5659 4.15777C31.5477 4.16318 31.5222 4.19019 31.4894 4.23882C31.4584 4.28922 31.2652 4.49005 30.9099 4.84123C30.5545 5.19241 30.2065 5.50485 29.8657 5.77861C29.5231 6.05416 29.3499 6.39272 29.3463 6.79434C29.3408 7.19415 29.3198 7.6462 29.2834 8.15044C29.2469 8.65472 29.1786 9.19948 29.0783 9.78479C28.9781 10.3701 28.8232 11.0319 28.6136 11.7703C28.4041 12.5087 28.1489 13.2291 27.8482 13.9314C27.5475 14.6338 27.2332 15.2641 26.9051 15.8224C26.5771 16.3807 26.2764 16.8535 26.003 17.2407C25.7297 17.6279 25.4518 17.9925 25.1693 18.3347C24.8868 18.6769 24.5296 19.0623 24.0977 19.4909C23.664 19.9177 23.4271 20.1519 23.387 20.1933C23.3451 20.2329 23.1665 20.3806 22.8512 20.6363C22.5377 20.8938 22.2006 21.1514 21.8397 21.4089C21.4807 21.6647 21.1509 21.8781 20.8502 22.0492C20.5495 22.2202 20.1868 22.4156 19.7622 22.6354C19.3394 22.8569 18.882 23.0622 18.3899 23.2513C17.8979 23.4404 17.3785 23.616 16.8317 23.7781C16.285 23.9401 15.7565 24.0662 15.2463 24.1562C14.736 24.2463 14.1574 24.3228 13.5104 24.3859L12.54 24.4804V24.4939H10.7631V24.4804L10.5308 24.4669C10.3759 24.4579 10.2483 24.4489 10.1481 24.4399C10.0478 24.4309 9.66968 24.3814 9.01361 24.2913C8.35754 24.2013 7.84272 24.1112 7.46912 24.0212C7.09554 23.9311 6.53969 23.76 5.80161 23.5079C5.06354 23.2558 4.43207 23.0009 3.90722 22.7434C3.3842 22.4877 3.05616 22.3256 2.92312 22.2572C2.7919 22.1905 2.64429 22.1077 2.48027 22.0086L2.23425 21.8601L2.22881 21.852L2.22058 21.8465L2.21238 21.8411L2.20691 21.833L2.17957 21.8195L2.15224 21.806L2.1468 21.7979L2.13857 21.7925L2.13037 21.7871L2.1249 21.779L2.11946 21.7709L2.11123 21.7655H2.09756V21.7115L2.1249 21.7169L2.15224 21.725L2.27525 21.7385C2.35726 21.7475 2.58051 21.761 2.94499 21.779C3.30949 21.797 3.69673 21.797 4.10677 21.779C4.51681 21.761 4.93599 21.7205 5.36423 21.6575C5.79251 21.5944 6.29823 21.4864 6.88139 21.3333C7.46458 21.1802 8.00037 20.9983 8.48878 20.7876C8.97537 20.5751 9.32161 20.4166 9.52756 20.3122C9.73165 20.2095 10.0433 20.0186 10.4624 19.7395L11.0912 19.3207L11.0966 19.3126L11.1048 19.3072L11.1131 19.3018L11.1185 19.2937L11.124 19.2856L11.1322 19.2802L11.1404 19.2748L11.1458 19.2667L11.1732 19.2586L11.2005 19.2532L11.206 19.2262L11.2142 19.1992L11.2224 19.1938L11.2278 19.1857L11.0091 19.1722C10.8634 19.1632 10.7221 19.1541 10.5854 19.1451C10.4488 19.1362 10.2346 19.0956 9.94304 19.0236C9.65147 18.9515 9.33711 18.8435 8.99994 18.6994C8.66281 18.5554 8.33477 18.3842 8.01584 18.1862C7.69694 17.9881 7.46638 17.8232 7.32424 17.6918C7.18392 17.5621 7.00167 17.3784 6.77751 17.1407C6.55519 16.9012 6.362 16.6553 6.19799 16.4032C6.03397 16.1511 5.87725 15.8602 5.72783 15.5307L5.50092 15.039L5.48725 14.9985L5.47358 14.958L5.46538 14.931L5.45991 14.9039L5.50092 14.9094L5.54192 14.9175L5.84262 14.958C6.0431 14.985 6.35747 14.994 6.78571 14.985C7.21399 14.976 7.51012 14.958 7.67414 14.931C7.83816 14.9039 7.9384 14.8859 7.97484 14.8769L8.02951 14.8634L8.09785 14.8499L8.16619 14.8364L8.17166 14.8283L8.17986 14.8229L8.18809 14.8175L8.19353 14.8094L8.13885 14.7959L8.08418 14.7824L8.02951 14.7689L7.97484 14.7554L7.92016 14.7419C7.88373 14.7329 7.81995 14.7149 7.72881 14.6878C7.6377 14.6608 7.39167 14.5618 6.99074 14.3907C6.58982 14.2196 6.27089 14.053 6.03397 13.8909C5.79646 13.7284 5.57 13.5506 5.35603 13.3587C5.14281 13.1642 4.90865 12.9139 4.65349 12.6078C4.39837 12.3016 4.17057 11.9459 3.97009 11.5407C3.76963 11.1355 3.61929 10.7483 3.51904 10.3791C3.41921 10.0121 3.35334 9.63683 3.32225 9.25802L3.27302 8.69073L3.30036 8.69613L3.32769 8.70423L3.35503 8.71774L3.38236 8.73125L3.4097 8.74475L3.43704 8.75826L3.86075 8.94736C4.14324 9.07343 4.49404 9.18149 4.91319 9.27153C5.33236 9.36156 5.58292 9.41111 5.66493 9.4201L5.78795 9.43361H6.03397L6.02853 9.42551L6.0203 9.4201L6.0121 9.4147L6.00663 9.4066L6.00119 9.39849L5.99297 9.39309L5.98477 9.38769L5.9793 9.37958L5.95196 9.36608L5.92463 9.35257L5.91919 9.34446L5.91096 9.33906L5.90276 9.33366L5.89729 9.32555L5.86995 9.31205L5.84262 9.29854L5.83718 9.29044C5.83171 9.28682 5.75334 9.22919 5.60206 9.11755C5.45261 9.00409 5.29589 8.85732 5.13188 8.67722C4.96786 8.49712 4.80384 8.30802 4.63983 8.10992C4.47551 7.91138 4.32915 7.69895 4.20245 7.47509C4.0749 7.24999 3.94002 6.96361 3.79787 6.61605C3.65756 6.27027 3.55095 5.92179 3.47804 5.57061C3.40516 5.21942 3.36416 4.87275 3.35503 4.53057C3.34592 4.18838 3.35503 3.89574 3.38236 3.65261C3.4097 3.40949 3.46437 3.13483 3.54638 2.82868C3.62839 2.52253 3.74686 2.19837 3.90175 1.85618L4.13411 1.34291L4.14778 1.30239L4.16144 1.26187L4.16967 1.25647L4.17511 1.24836L4.18058 1.24026L4.18878 1.23486L4.19701 1.24026L4.20245 1.24836L4.20792 1.25647L4.21612 1.26187L4.22434 1.26727L4.22978 1.27538L4.23525 1.28348L4.24345 1.28889L4.25712 1.3159L4.27079 1.34291L4.27902 1.34832L4.28446 1.35642L4.65349 1.76163C4.89952 2.03177 5.19111 2.33344 5.52825 2.6666C5.86542 2.99976 6.0522 3.17265 6.08864 3.18527C6.12511 3.19967 6.17065 3.24108 6.22532 3.30953C6.28 3.37618 6.46225 3.53556 6.77205 3.78768C7.08187 4.0398 7.48735 4.33247 7.9885 4.66564C8.48969 4.9988 9.04551 5.32748 9.65601 5.65165C10.2665 5.97582 10.9226 6.26846 11.6242 6.5296C12.3259 6.79075 12.8179 6.96183 13.1004 7.04287C13.3829 7.12391 13.8658 7.22746 14.5492 7.35353C15.2326 7.47961 15.7474 7.56065 16.0937 7.59666C16.4399 7.63267 16.6769 7.65339 16.8044 7.65879L16.9958 7.66419L16.9903 7.62367L16.9821 7.58315L16.9274 7.24548C16.891 7.02037 16.8728 6.70519 16.8728 6.29998C16.8728 5.89477 16.9047 5.52109 16.9684 5.1789C17.0322 4.83672 17.1279 4.49005 17.2555 4.13886C17.383 3.78768 17.5079 3.50582 17.63 3.29333C17.7539 3.08262 17.9161 2.84219 18.1165 2.57205C18.317 2.30191 18.5767 2.02278 18.8956 1.73462C19.2146 1.44646 19.579 1.18983 19.9891 0.964717C20.3991 0.739609 20.7773 0.568503 21.1235 0.451451C21.4698 0.334399 21.7614 0.257842 21.9983 0.221832C22.2352 0.185822 22.3537 0.165102 22.3537 0.1597Z" fill="#01A657"/>
</svg>
