<svg width="98" height="120" viewBox="0 0 98 120" fill="none" xmlns="http://www.w3.org/2000/svg">
<g opacity="0.3" filter="url(#filter0_f_2052_5532)">
<ellipse cx="17.6882" cy="16.6711" rx="17.6882" ry="16.6711" transform="matrix(0.90184 -0.432069 0.50994 0.86021 38.7088 26.4941)" fill="url(#paint0_linear_2052_5532)"/>
</g>
<g opacity="0.3" filter="url(#filter1_f_2052_5532)">
<ellipse cx="19.791" cy="18.653" rx="19.791" ry="18.653" transform="matrix(0.90184 -0.432069 0.50994 0.86021 9.42456 77.6094)" fill="#FFE600"/>
</g>
<path d="M11.7575 57.9412C11.2144 45.464 19.7235 28.6471 49.2313 28.6471M11.7575 57.9412V64.451M11.7575 57.9412H15.0667H18.7821H23.526M49.2313 28.6471C80.1877 28.6471 87.248 45.464 86.705 57.9412M49.2313 28.6471V20.5098M86.705 57.9412V64.451M86.705 57.9412H83.8025M11.7575 64.451V97H42.7141H49.2312H52.8177H56.4041H86.705V64.451M11.7575 64.451H16.9244H20.6398H25.3526M86.705 64.451H81.9759M49.2313 20.5098V14L55.7483 18.8824L49.2313 20.5098ZM23.526 57.9412L25.3526 64.451M23.526 57.9412H29.0057M25.3526 64.451H27.1791M27.1791 64.451L29.0057 57.9412M27.1791 64.451H32.6588M29.0057 57.9412H30.8323M30.8323 57.9412L32.6588 64.451M30.8323 57.9412H36.3119M32.6588 64.451H34.4854M34.4854 64.451L36.3119 57.9412M34.4854 64.451H39.9651M36.3119 57.9412H38.1385M38.1385 57.9412L39.9651 64.451M38.1385 57.9412H43.6182M39.9651 64.451H41.7916M41.7916 64.451L43.6182 57.9412M41.7916 64.451H47.2713M43.6182 57.9412H45.4447M45.4447 57.9412L47.2713 64.451M45.4447 57.9412H50.9244M47.2713 64.451H49.0979M49.0979 64.451L50.9244 57.9412M49.0979 64.451H54.5775M50.9244 57.9412H58.2307M52.751 57.575L54.5775 64.451M54.5775 64.451H56.4041M56.4041 64.451L58.2307 57.9412M56.4041 64.451H60.0572M58.2307 57.9412H61.8838M60.0572 64.451L61.8838 57.9412M60.0572 64.451H65.5369M61.8838 57.9412H63.7103M63.7103 57.9412L65.5369 64.451M63.7103 57.9412H69.19M65.5369 64.451H67.3634M67.3634 64.451L69.19 57.9412M67.3634 64.451H72.8431M69.19 57.9412H71.0166M71.0166 57.9412L72.8431 64.451M71.0166 57.9412H76.4962M72.8431 64.451H74.6697M74.6697 64.451L76.4962 57.9412M74.6697 64.451H80.1494M76.4962 57.9412H78.3228M78.3228 57.9412L80.1494 64.451M78.3228 57.9412H83.8025M80.1494 64.451H81.9759M81.9759 64.451L83.8025 57.9412M19.8729 64.451L21.6995 57.9412M16.2198 57.9412L18.0463 64.451M12.5667 64.4512L14.3932 57.9414M74.5235 77.7644V74.175C74.5235 71.6538 76.5755 69.61 79.1068 69.61C81.6381 69.61 83.6902 71.6538 83.6902 74.175V77.7644C83.6902 77.8448 83.6247 77.91 83.544 77.91H74.6697C74.5889 77.91 74.5235 77.8448 74.5235 77.7644ZM44.5038 96.0244V84.135C44.5038 81.6138 46.5558 82.06 49.0871 82.06C51.6184 82.06 53.6705 81.6138 53.6705 84.135V96.0244C53.6705 96.1048 53.605 97 53.5243 97H44.65C44.5693 97 44.5038 96.1048 44.5038 96.0244ZM24.2333 77.7644V74.1933C24.2333 71.662 22.1813 69.61 19.65 69.61V69.61C17.1187 69.61 15.0667 71.662 15.0667 74.1933V77.7644C15.0667 77.8448 15.1319 77.91 15.2123 77.91H24.0877C24.1681 77.91 24.2333 77.8448 24.2333 77.7644Z" stroke="black"/>
<defs>
<filter id="filter0_f_2052_5532" x="29.0826" y="0.939453" width="68.1588" height="64.5059" filterUnits="userSpaceOnUse" color-interpolation-filters="sRGB">
<feFlood flood-opacity="0" result="BackgroundImageFix"/>
<feBlend mode="normal" in="SourceGraphic" in2="BackgroundImageFix" result="shape"/>
<feGaussianBlur stdDeviation="8" result="effect1_foregroundBlur_2052_5532"/>
</filter>
<filter id="filter1_f_2052_5532" x="0.556061" y="50.918" width="72.4575" height="68.3711" filterUnits="userSpaceOnUse" color-interpolation-filters="sRGB">
<feFlood flood-opacity="0" result="BackgroundImageFix"/>
<feBlend mode="normal" in="SourceGraphic" in2="BackgroundImageFix" result="shape"/>
<feGaussianBlur stdDeviation="8" result="effect1_foregroundBlur_2052_5532"/>
</filter>
<linearGradient id="paint0_linear_2052_5532" x1="10.3292" y1="0.278238" x2="10.3292" y2="33.3422" gradientUnits="userSpaceOnUse">
<stop stop-color="#FF5C00"/>
<stop offset="1" stop-color="#FFD89D"/>
</linearGradient>
</defs>
</svg>
