<svg width="34" height="24" viewBox="0 0 34 24" fill="none" xmlns="http://www.w3.org/2000/svg">
<path d="M18.1471 23.9591L11.3768 23.8326C9.18468 23.7885 6.98714 23.8765 4.83805 23.4197C1.56877 22.7372 1.33716 19.3907 1.09481 16.5836C0.760875 12.6372 0.890152 8.61919 1.52033 4.70574C1.87609 2.50988 3.27615 1.19959 5.44128 1.05701C12.7502 0.539549 20.1077 0.600873 27.4004 0.842286C28.1706 0.864417 28.9461 0.985377 29.7056 1.12306C33.4544 1.79459 33.5459 5.58692 33.7889 8.77935C34.0312 12.0047 33.9289 15.2466 33.4657 18.4501C33.0941 21.1024 32.383 23.3266 29.3824 23.5414C25.6228 23.8221 21.9495 24.0482 18.1793 23.9762C18.1795 23.9591 18.1578 23.9591 18.1471 23.9591ZM14.1668 17.2442C17 15.5818 19.7791 13.9472 22.596 12.296C19.7576 10.6336 16.9838 8.99897 14.1668 7.34776V17.2442Z" fill="#01A657"/>
</svg>
