<svg width="64" height="24" viewBox="0 0 64 24" fill="none" xmlns="http://www.w3.org/2000/svg">
<path d="M0.744 21.108C3.368 20.548 5.296 19.804 6.528 18.876C7.76 17.964 8.376 16.812 8.376 15.42C8.376 14.508 8.256 13.596 8.016 12.684C7.776 11.772 7.424 11.012 6.96 10.404C6.512 9.78 5.984 9.436 5.376 9.372C5.024 9.324 4.68 9.444 4.344 9.732C4.024 10.004 3.76 10.364 3.552 10.812C3.36 11.26 3.264 11.692 3.264 12.108C3.264 12.444 3.328 12.708 3.456 12.9C3.712 13.284 4.296 13.54 5.208 13.668C6.136 13.796 7.336 13.86 8.808 13.86H11.16L11.304 15.18L11.16 16.5L8.208 16.524C6.464 16.524 5.048 16.388 3.96 16.116C2.888 15.828 2.136 15.244 1.704 14.364C1.432 13.788 1.296 13.156 1.296 12.468C1.296 11.604 1.48 10.74 1.848 9.876C2.232 9.012 2.736 8.3 3.36 7.74C4 7.18 4.688 6.9 5.424 6.9C6.368 6.9 7.208 7.316 7.944 8.148C8.696 8.964 9.272 10.02 9.672 11.316C10.088 12.596 10.296 13.884 10.296 15.18C10.296 17.26 9.52 19.02 7.968 20.46C6.432 21.9 4.288 22.892 1.536 23.436L0.744 21.108ZM10.8247 13.86H12.8888C14.8568 13.86 16.6968 13.628 18.4088 13.164C20.1208 12.7 21.8648 11.996 23.6407 11.052C24.1368 10.78 24.6568 10.532 25.2008 10.308C25.7448 10.068 26.1928 9.9 26.5448 9.804L26.6168 11.22C25.7368 11.204 24.8888 11.084 24.0728 10.86C23.2728 10.62 22.3928 10.26 21.4328 9.78C19.9448 8.996 18.6888 8.604 17.6648 8.604C17.0088 8.604 16.4168 8.796 15.8888 9.18C15.3608 9.564 14.9688 10.004 14.7128 10.5L13.1768 9.42C13.7208 8.332 14.3768 7.508 15.1448 6.948C15.9128 6.388 16.7688 6.108 17.7128 6.108C18.4008 6.108 19.0488 6.228 19.6568 6.468C20.2808 6.692 21.1528 7.092 22.2728 7.668C23.3128 8.196 24.1448 8.588 24.7688 8.844C25.3928 9.1 26.0888 9.308 26.8568 9.468L26.9528 11.796C26.6488 11.876 26.2648 12.036 25.8008 12.276C25.3368 12.5 24.8328 12.764 24.2888 13.068C22.0968 14.236 20.1288 15.1 18.3848 15.66C16.6568 16.22 14.7448 16.5 12.6488 16.5H10.8247V13.86ZM16.9688 20.268C17.5928 19.612 18.2168 18.988 18.8408 18.396C19.4648 18.988 20.0888 19.612 20.7128 20.268L18.8408 22.14L16.9688 20.268ZM35.0196 16.5C33.9956 16.5 33.1876 16.14 32.5956 15.42C32.0196 14.684 31.5316 13.644 31.1316 12.3L32.7396 11.316C32.9636 12.26 33.2436 12.924 33.5796 13.308C33.9316 13.676 34.4116 13.86 35.0196 13.86H35.1876L35.3316 15.18L35.1876 16.5H35.0196ZM25.8516 21.18C26.8916 20.796 27.8276 20.316 28.6596 19.74C29.5076 19.164 30.1716 18.564 30.6516 17.94C31.1476 17.332 31.3956 16.764 31.3956 16.236C31.3956 15.564 30.9716 13.58 30.1236 10.284L32.2356 9.468C32.6036 10.604 32.8996 11.804 33.1236 13.068C33.3636 14.316 33.4836 15.372 33.4836 16.236C33.4836 17.708 32.8676 19.092 31.6356 20.388C30.4196 21.7 28.8356 22.716 26.8836 23.436L25.8516 21.18ZM34.8705 13.86H35.4465C37.1905 13.86 38.5745 13.756 39.5985 13.548C40.6385 13.34 41.4065 13.044 41.9025 12.66C42.3985 12.26 42.7505 11.756 42.9585 11.148C42.9905 10.716 42.9265 10.292 42.7665 9.876C42.6225 9.46 42.3905 9.116 42.0705 8.844C41.7505 8.572 41.3825 8.436 40.9665 8.436C40.4225 8.436 39.9425 8.676 39.5265 9.156C39.1105 9.62 38.8625 10.18 38.7825 10.836C38.7665 11.364 38.9745 11.86 39.4065 12.324C39.8385 12.788 40.4705 13.164 41.3025 13.452C42.1505 13.724 43.1505 13.86 44.3025 13.86H46.6305L46.7745 15.18L46.6305 16.5H45.1905C43.5745 16.5 42.1185 16.26 40.8225 15.78C39.5425 15.3 38.5345 14.652 37.7985 13.836C37.0785 13.02 36.7185 12.124 36.7185 11.148C36.7185 11.02 36.7345 10.828 36.7665 10.572C36.8945 9.708 37.1665 8.916 37.5825 8.196C38.0145 7.46 38.5345 6.884 39.1425 6.468C39.7665 6.036 40.4145 5.82 41.0865 5.82C41.8385 5.82 42.5105 6.06 43.1025 6.54C43.7105 7.02 44.1825 7.636 44.5185 8.388C44.8545 9.14 45.0225 9.908 45.0225 10.692C45.0225 10.836 45.0065 11.052 44.9745 11.34C44.7345 13.1 43.8225 14.404 42.2385 15.252C40.6705 16.084 38.4065 16.5 35.4465 16.5H34.8705V13.86ZM39.3345 2.58C39.9585 1.924 40.5825 1.3 41.2065 0.707999C41.8305 1.3 42.4545 1.924 43.0785 2.58L41.2065 4.452L39.3345 2.58ZM59.7731 13.86C60.3331 13.86 60.7571 13.708 61.0451 13.404C61.3331 13.084 61.4771 12.636 61.4771 12.06C61.4771 11.548 61.3171 10.82 60.9971 9.876C60.6931 8.916 60.4211 8.164 60.1811 7.62L62.1251 6.54C62.4451 7.228 62.7651 8.116 63.0851 9.204C63.4211 10.292 63.5891 11.26 63.5891 12.108C63.5891 12.924 63.4211 13.668 63.0851 14.34C62.7651 14.996 62.3171 15.524 61.7411 15.924C61.1651 16.308 60.5091 16.5 59.7731 16.5H59.7251V13.86H59.7731ZM53.2691 16.5V13.86H53.3411C53.8051 13.86 54.2131 13.732 54.5651 13.476C54.9171 13.204 55.2371 12.812 55.5251 12.3C55.8771 11.644 56.1491 10.644 56.3411 9.3L58.3571 9.396C58.1651 10.404 58.0691 11.196 58.0691 11.772C58.0691 12.46 58.2051 12.98 58.4771 13.332C58.7491 13.684 59.1811 13.86 59.7731 13.86H59.8211L59.9651 15.18L59.8211 16.5H59.7731C58.8611 16.5 58.1251 16.244 57.5651 15.732C57.0051 15.204 56.6451 14.468 56.4851 13.524L56.9411 13.476C56.5731 14.372 56.0691 15.1 55.4291 15.66C54.8051 16.22 54.1011 16.5 53.3171 16.5H53.2691ZM46.3811 16.5L46.2371 15.18L46.3811 13.86H46.5011C47.0771 13.86 47.6131 13.732 48.1091 13.476C48.6211 13.22 49.0131 12.892 49.2851 12.492C49.6051 12.076 49.8531 11.62 50.0291 11.124C50.2211 10.628 50.3891 10.092 50.5331 9.516L52.5491 9.732C52.5331 9.812 52.4451 10.14 52.2851 10.716C52.1251 11.292 52.0451 11.836 52.0451 12.348C52.0451 12.844 52.1411 13.22 52.3331 13.476C52.5411 13.732 52.8611 13.86 53.2931 13.86H53.3411L53.4851 15.18L53.3411 16.5H53.2451C52.5251 16.5 51.9171 16.292 51.4211 15.876C50.9251 15.46 50.6131 14.9 50.4851 14.196C49.4291 15.732 48.0931 16.5 46.4771 16.5H46.3811Z" fill="url(#paint0_linear_8521_60)"/>
<defs>
<linearGradient id="paint0_linear_8521_60" x1="0" y1="10.5" x2="65" y2="10.5" gradientUnits="userSpaceOnUse">
<stop stop-color="#7B4794"/>
<stop offset="1" stop-color="#01A657"/>
</linearGradient>
</defs>
</svg>
